<svg width="32" height="32" viewBox="0 0 32 32" fill="none" xmlns="http://www.w3.org/2000/svg">
<g clip-path="url(#clip0_798_25445)">
<path d="M8.63092 22.8644C8.63092 22.6272 8.71773 22.4035 8.88886 22.1995C9.11067 21.9351 9.07617 21.5408 8.81173 21.319C8.5473 21.0972 8.15305 21.1317 7.93123 21.3962C7.17642 22.2959 7.20686 23.6532 8.03417 24.4977C8.42823 24.9 8.42823 25.6103 8.03417 26.0126C7.6068 26.4488 7.38086 27.0136 7.38086 27.6458C7.38086 27.991 7.66067 28.2708 8.00586 28.2708C8.35105 28.2708 8.63086 27.991 8.63086 27.6458C8.63086 27.3388 8.72773 27.0908 8.92705 26.8873C9.79155 26.0048 9.79155 24.5055 8.92705 23.623C8.73061 23.4223 8.63092 23.1671 8.63092 22.8644Z" fill="#F47629"/>
<path d="M14.0547 22.8644C14.0547 22.6272 14.1414 22.4036 14.3126 22.1996C14.5344 21.9351 14.4999 21.5409 14.2355 21.3191C13.9711 21.0972 13.5769 21.1317 13.355 21.3962C12.6002 22.2959 12.6307 23.6533 13.4579 24.4977C13.852 24.9 13.852 25.6103 13.4579 26.0126C13.0306 26.4488 12.8047 27.0136 12.8047 27.6459C12.8047 27.9911 13.0845 28.2709 13.4297 28.2709C13.7749 28.2709 14.0547 27.9911 14.0547 27.6459C14.0547 27.3389 14.1516 27.0908 14.3509 26.8874C15.2154 26.0049 15.2154 24.5055 14.3509 23.623C14.1543 23.4224 14.0547 23.1672 14.0547 22.8644Z" fill="#F47629"/>
<path d="M19.4785 22.8644C19.4785 22.6272 19.5653 22.4035 19.7364 22.1996C19.9583 21.9352 19.9238 21.541 19.6594 21.3191C19.3951 21.0973 19.0007 21.1316 18.7789 21.3961C18.024 22.2958 18.0545 23.6533 18.8818 24.4977C19.2758 24.9 19.2758 25.6103 18.8818 26.0126C18.4544 26.4488 18.2285 27.0136 18.2285 27.6458C18.2285 27.991 18.5084 28.2708 18.8535 28.2708C19.1986 28.2708 19.4785 27.991 19.4785 27.6458C19.4785 27.3388 19.5754 27.0908 19.7747 26.8873C20.1959 26.4573 20.4279 25.8776 20.4279 25.2551C20.4279 24.6326 20.1959 24.053 19.7747 23.6229C19.5782 23.4223 19.4785 23.1671 19.4785 22.8644Z" fill="#F47629"/>
<path d="M30.9238 19.2864L30.1893 17.993C29.8472 17.3907 29.6664 16.7061 29.6664 16.0134V13.8376C29.6664 13.4924 29.3866 13.2126 29.0414 13.2126H28.8162V6.04831C28.8162 5.94825 28.8461 5.85169 28.9024 5.76912L29.6215 4.71744C29.9554 4.22887 30.0194 3.61087 29.7926 3.06437L28.6814 0.3855C28.5846 0.152125 28.3568 0 28.1041 0H25.5619C25.3092 0 25.0814 0.152125 24.9847 0.3855L23.8734 3.06431C23.7892 3.26725 23.7452 3.48013 23.7402 3.6925H17.7429C17.3978 3.6925 17.1179 3.97231 17.1179 4.3175C17.1179 4.66269 17.3978 4.9425 17.7429 4.9425H24.1983L24.7636 5.76931C24.8169 5.84713 24.8499 5.954 24.8499 6.04831V13.2126L1.64056 13.2125V12.5612C1.64056 8.96987 1.74894 7.7915 1.97669 6.64369L2.25419 5.24662C2.28919 5.07037 2.44506 4.9425 2.62494 4.9425H12.2456C12.5907 4.9425 12.8706 4.66269 12.8706 4.3175C12.8706 3.97231 12.5907 3.6925 12.2456 3.6925H2.62494C1.85037 3.6925 1.17887 4.24381 1.02819 5.00325L0.750687 6.40025C0.506687 7.62988 0.390625 8.86544 0.390625 12.5612V17.425C0.390625 17.7702 0.670437 18.05 1.01562 18.05H3.54312V19.4106C3.54312 19.7558 3.82294 20.0356 4.16812 20.0356H22.3922C22.1714 20.6246 22.0564 21.2512 22.0564 21.8832V27.2729C22.0564 28.4264 22.4437 29.5653 23.1472 30.4796L24.1294 31.7561C24.2477 31.9099 24.4307 32 24.6247 32H29.0416C29.2356 32 29.4186 31.9099 29.5369 31.7561L30.5191 30.4796C31.2226 29.5653 31.6099 28.4264 31.6099 27.2729V21.8832C31.6098 20.9745 31.3726 20.0765 30.9238 19.2864ZM25.0279 3.54331L25.9793 1.25H27.6867L28.6381 3.54338C28.7024 3.69831 28.6842 3.8735 28.5896 4.012L27.8706 5.06369C27.6714 5.35494 27.5662 5.69544 27.5662 6.04831V13.2126H26.0999V6.04812C26.0999 5.70006 25.992 5.35106 25.7955 5.06369L25.0766 4.01206C24.9818 3.8735 24.9637 3.69831 25.0279 3.54331ZM1.64056 14.4626H23.9996V15.8687H5.09931C4.48875 15.8687 3.92006 16.2414 3.67412 16.8H1.64056V14.4626ZM4.79306 17.425C4.79306 17.2561 4.93044 17.1187 5.09931 17.1187H23.8435C23.6711 17.7189 23.3325 18.2471 23.0266 18.7856H4.79306V17.425ZM30.3598 27.2729C30.3598 28.1523 30.0645 29.0203 29.5282 29.7173L28.7337 30.75H24.9324L24.1378 29.7173C23.6016 29.0203 23.3062 28.1522 23.3062 27.2729V21.8832C23.3062 21.1006 23.5531 20.3932 23.9341 19.7192C23.9341 19.7192 24.5337 18.6746 24.6505 18.4498C25.0404 17.6991 25.2499 16.8598 25.2499 16.0132V14.4626H28.4164V16.0134C28.4164 16.9222 28.6536 17.8202 29.1024 18.6103L29.8369 19.9037C30.1791 20.506 30.3598 21.1906 30.3598 21.8832V27.2729Z" fill="#F47629"/>
<path d="M25.4746 20.6055C25.1295 20.6055 24.8496 20.8853 24.8496 21.2305V27.5465C24.8496 27.8917 25.1295 28.1715 25.4746 28.1715C25.8197 28.1715 26.0996 27.8917 26.0996 27.5465V21.2305C26.0996 20.8853 25.8197 20.6055 25.4746 20.6055Z" fill="#F47629"/>
<path d="M28.1914 20.6055C27.8463 20.6055 27.5664 20.8853 27.5664 21.2305V27.5465C27.5664 27.8917 27.8463 28.1715 28.1914 28.1715C28.5365 28.1715 28.8164 27.8917 28.8164 27.5465V21.2305C28.8164 20.8853 28.5365 20.6055 28.1914 20.6055Z" fill="#F47629"/>
<path d="M4.0625 6.46289C3.71731 6.46289 3.4375 6.7427 3.4375 7.08789C3.4375 7.43308 3.71731 7.71289 4.0625 7.71289H6.03406C6.37925 7.71289 6.65906 7.43308 6.65906 7.08789C6.65906 6.7427 6.37925 6.46289 6.03406 6.46289H4.0625Z" fill="#F47629"/>
<path d="M15.028 11.3509C16.3756 11.3509 17.472 10.2545 17.472 8.90689C17.472 7.55927 16.3756 6.46289 15.028 6.46289C13.6804 6.46289 12.584 7.55927 12.584 8.90689C12.584 10.2545 13.6804 11.3509 15.028 11.3509ZM15.028 7.71289C15.6864 7.71289 16.222 8.24852 16.222 8.90689C16.222 9.56527 15.6864 10.1009 15.028 10.1009C14.3696 10.1009 13.834 9.56527 13.834 8.90689C13.834 8.24852 14.3696 7.71289 15.028 7.71289Z" fill="#F47629"/>
<path d="M14.5135 4.55648C14.6143 4.80223 14.8713 4.96123 15.1363 4.94073C15.4079 4.91973 15.6398 4.72079 15.6997 4.45454C15.8224 3.90886 15.1892 3.48692 14.7309 3.80717C14.4945 3.97229 14.4027 4.29029 14.5135 4.55648Z" fill="#F47629"/>
</g>
<defs>
<clipPath id="clip0_798_25445">
<rect width="32" height="32" fill="white"/>
</clipPath>
</defs>
</svg>
