<svg width="26" height="26" viewBox="0 0 26 26" fill="none" xmlns="http://www.w3.org/2000/svg">
<g clip-path="url(#clip0_798_27139)">
<path d="M25.9237 8.0204L23.0981 3.42057C23.0183 3.2914 22.8864 3.2035 22.7364 3.17951C22.5866 3.15551 22.4337 3.19812 22.3177 3.29611L14.8422 9.62394L12.1386 6.98307C12.3361 6.31416 12.3404 5.60287 12.1507 4.93172C13.4934 3.79931 15.2082 2.80996 16.2682 3.20619C16.4976 3.29342 16.7568 3.20799 16.8891 3.00146C17.0216 2.79471 16.9911 2.52361 16.8158 2.35161C16.7754 2.31147 12.7503 -1.52976 8.72182 2.19083C7.6143 2.10271 6.5227 2.4967 5.72664 3.27167C4.94046 4.03184 4.53324 5.10214 4.61486 6.19262C3.79751 6.94495 3.19565 7.16852 2.93642 7.23489C2.20092 6.71129 1.19699 6.78551 0.546473 7.41137C0.197107 7.74975 0 8.21504 0 8.7012C0 9.18735 0.197107 9.65287 0.546249 9.99125L4.31371 13.671C5.04226 14.3747 6.1971 14.3747 6.92566 13.671C7.57393 13.0467 7.65511 12.037 7.11514 11.317C7.18757 11.0539 7.42055 10.4758 8.17804 9.69211C8.62943 9.72351 9.08285 9.67687 9.51832 9.55488L12.0282 12.006L8.52583 14.9707C7.9964 14.6384 6.49915 14.1451 3.92308 16.661C3.62551 16.9517 3.22973 17.4019 3.22973 17.9524C3.22973 18.5637 3.6744 18.9976 4.23724 19.547C4.92857 20.2227 5.75557 20.0908 6.33366 19.7549L9.03912 22.3976C8.86242 22.6772 8.76532 22.9994 8.75815 23.3299C8.7577 23.7441 8.93171 24.1325 9.26045 24.4541C9.77373 24.955 10.2691 25.4392 10.8792 25.4392C11.2598 25.4389 11.6849 25.2506 12.1866 24.7604C13.5163 23.4618 14.1904 22.281 14.1904 21.251C14.1962 20.9129 14.1105 20.5792 13.9424 20.2859L14.5413 19.7006C14.6411 19.6035 14.6971 19.4701 14.6971 19.3309V18.009H16.0612C16.3478 18.0094 16.5808 17.7775 16.5812 17.491V16.453L20.326 20.111C21.0546 20.8144 22.2092 20.8144 22.9377 20.1112C23.2871 19.7728 23.4842 19.3075 23.4842 18.8214C23.4842 18.3352 23.2871 17.8697 22.938 17.5313L19.6594 14.3287H19.8287C20.1152 14.3294 20.3482 14.0973 20.3487 13.8107V12.4888H21.7125C21.9991 12.4893 22.2318 12.2574 22.2325 11.9708V10.6489H23.5963C23.8831 10.6494 24.1159 10.4175 24.1164 10.1307V8.80883H25.4802C25.6679 8.8095 25.8414 8.7086 25.9334 8.5449C26.0255 8.38121 26.0217 8.18051 25.9237 8.0204ZM6.19732 12.9315C5.87509 13.2427 5.36427 13.2427 5.04182 12.9315L1.27436 9.25148C1.12456 9.10774 1.04003 8.90907 1.04003 8.70142C1.04003 8.49377 1.12456 8.2951 1.27436 8.15136C1.59659 7.83989 2.10763 7.83989 2.42987 8.15136L6.19732 11.8311C6.34712 11.9751 6.43166 12.1738 6.43166 12.3814C6.43166 12.5891 6.34712 12.7875 6.19732 12.9315ZM8.04125 8.63639C7.85154 8.61105 7.66341 8.69245 7.55241 8.8483C6.90077 9.49613 6.5301 10.061 6.31909 10.4992L3.7845 8.02354C4.22334 7.81926 4.78596 7.46496 5.4311 6.85009C5.44298 6.84269 5.45442 6.83507 5.46585 6.827C5.6226 6.71421 5.70332 6.52315 5.67529 6.3321C5.54344 5.47775 5.83406 4.61263 6.45475 4.01121C7.09115 3.39433 7.97981 3.11134 8.85547 3.24678C9.04876 3.27279 9.24026 3.18691 9.34924 3.02523C11.4609 1.01738 13.5508 1.53067 14.8312 2.20855C13.3607 2.59245 11.9022 3.7585 11.2008 4.38121C11.0382 4.5254 10.9833 4.75592 11.0633 4.95796C11.3129 5.58964 11.3129 6.29263 11.0627 6.92387C10.7546 7.66095 10.1924 8.18186 9.45778 8.48503C9.00548 8.65231 8.51866 8.70434 8.04125 8.63639ZM10.5415 9.10326C10.9965 8.81668 11.3844 8.43502 11.6784 7.98475L14.0464 10.2978L12.8241 11.3324L10.5415 9.10326ZM11.4584 24.0208C10.881 24.5848 10.8474 24.553 9.98878 23.7143C9.81903 23.5484 9.79862 23.4174 9.79795 23.3335C9.79593 23.073 10.0125 22.7978 10.0935 22.716C10.1933 22.6189 10.2496 22.4855 10.2496 22.3462C10.2496 22.207 10.1933 22.0738 10.0935 21.9764L6.74447 18.7052C6.54198 18.5077 6.21885 18.5077 6.01636 18.7052C5.95694 18.7626 5.42482 19.2562 4.96513 18.8073C4.60769 18.4581 4.26976 18.1283 4.26976 17.9524C4.26976 17.8986 4.30676 17.737 4.65141 17.4006C7.00481 15.1017 8.00268 15.8681 8.0047 15.8672L8.16144 16.0204H8.16167L12.8714 20.6207C12.8718 20.6211 12.8723 20.6211 12.8727 20.6216L13.0149 20.7602C13.023 20.7696 13.8053 21.7282 11.4584 24.0208ZM22.4442 18.8214C22.444 19.029 22.3594 19.2275 22.2099 19.3712C21.8874 19.6825 21.3766 19.6825 21.0544 19.3712L17.7755 16.1688H17.945C18.2316 16.1693 18.4644 15.9374 18.4651 15.6506V14.6131L22.2099 18.2711C22.3594 18.4151 22.444 18.6137 22.4442 18.8214ZM23.5963 7.77284C23.3098 7.77239 23.077 8.00426 23.0766 8.29084V9.61273H21.7125C21.4257 9.61228 21.1929 9.84415 21.1925 10.1307V11.4528H19.8287C19.5421 11.4522 19.3093 11.684 19.3086 11.9708V13.2927H17.945C17.6582 13.2921 17.4255 13.5242 17.425 13.8107V15.1326H16.0612C15.7746 15.1322 15.5419 15.364 15.5412 15.6506V16.973H14.1771C13.8906 16.9723 13.6578 17.2042 13.6571 17.491V19.1133L13.2355 19.5253L9.29655 15.678L13.1351 12.4287L13.1358 12.4283L15.1539 10.72L15.1544 10.7194L22.5281 4.47763L24.5525 7.77284H23.5963Z" fill="white"/>
<path d="M8.41823 17.5807C8.21395 17.3798 7.88544 17.3822 7.68429 17.5865C7.48315 17.7908 7.48584 18.1193 7.69012 18.3205L10.5158 21.0804C10.6479 21.2107 10.8394 21.2607 11.0183 21.2114C11.1972 21.162 11.3363 21.0208 11.3827 20.8411C11.4293 20.6615 11.3764 20.4707 11.2439 20.3406L8.41823 17.5807Z" fill="white"/>
</g>
<defs>
<clipPath id="clip0_798_27139">
<rect width="26" height="26" fill="white"/>
</clipPath>
</defs>
</svg>
