<svg width="193" height="186" viewBox="0 0 193 186" fill="none" xmlns="http://www.w3.org/2000/svg">
<path d="M136.727 18.8396C144.792 39.6857 139.031 64.7127 122.87 80.0963C106.591 95.5917 80.0263 100.712 59.4734 91.1275C50.7473 87.0582 41.0408 78.183 43.2892 67.5074C44.4726 61.8884 48.7915 57.6675 53.8107 55.2137C59.0493 52.6525 64.9821 52.2518 70.5893 53.7291C82.033 56.7441 91.3307 66.3364 97.488 76.0476C103.795 85.9951 107.398 97.6393 107.853 109.407C108.792 133.672 95.0079 156.925 74.0814 168.927C71.5398 170.385 68.9058 171.678 66.1949 172.79C65.7004 172.993 64.4715 173.383 64.1631 172.682C63.8632 172.001 64.9917 171.3 65.4553 171.11C86.3596 162.539 101.677 142.139 104.13 119.68C106.527 97.7367 96.953 73.6989 78.6094 60.8943C73.9681 57.6545 68.5559 55.2308 62.8233 55.0679C57.775 54.9244 52.5837 57.037 49.378 61.0007C46.2591 64.8568 45.6305 70.0251 47.3332 74.6284C49.0644 79.3089 52.6752 83.0799 56.6883 85.9242C65.1327 91.9089 76.2882 94.1316 86.4935 93.6239C96.9415 93.1043 107.36 89.6631 115.784 83.3985C132.652 70.8551 140.279 47.9682 135.65 27.6311C135.082 25.1355 134.326 22.6898 133.403 20.3033C132.936 19.0965 136.273 17.6679 136.727 18.8396Z" fill="white"/>
<path d="M75.852 158.377C72.2387 163.66 68.6254 168.944 65.0119 174.227C64.6177 173.636 64.2235 173.045 63.8293 172.454C70.6625 172.064 77.4957 171.674 84.329 171.284C85.1407 171.237 85.8402 171.869 85.6625 172.695C85.4683 173.598 84.4077 174.089 83.5817 174.136C76.7485 174.526 69.9152 174.916 63.0821 175.306C62.1486 175.359 61.2904 174.423 61.8994 173.532C65.5128 168.249 69.1261 162.965 72.7395 157.682C73.2421 156.947 74.18 156.426 75.0902 156.647C75.8544 156.832 76.3432 157.659 75.852 158.377Z" fill="white"/>
</svg>
