<svg width="129" height="94" viewBox="0 0 129 94" fill="none" xmlns="http://www.w3.org/2000/svg">
<path d="M128.976 20.2161C123.383 37.8328 106.71 50.986 88.3246 52.537C69.8058 54.0991 50.0268 43.646 41.7378 26.8247C38.2185 19.6828 36.5555 8.93475 43.5327 3.21569C47.205 0.205566 52.1751 -0.279699 56.6818 0.736975C61.3856 1.79806 65.4183 4.61155 68.2687 8.46726C74.086 16.3364 75.1141 27.3352 74.0559 36.7847C72.9719 46.464 69.2658 55.8371 63.4662 63.6605C51.5084 79.7912 30.5808 87.6469 10.8738 84.5503C8.48042 84.1742 6.11238 83.6443 3.78906 82.9574C3.36517 82.8321 2.37092 82.4473 2.5349 81.8358C2.69409 81.2415 3.78455 81.3739 4.18193 81.4914C22.0978 86.7889 42.5367 81.5668 55.7469 68.3564C68.6539 55.449 74.927 34.9933 69.7297 17.2396C68.4147 12.7477 66.1801 8.38269 62.5683 5.30944C59.3876 2.60309 54.9467 1.27729 50.8275 2.17303C46.82 3.04445 43.7387 6.05129 42.453 9.90085C41.1459 13.815 41.5214 18.116 42.6362 22.0277C44.982 30.2587 51.0238 37.4678 57.8666 42.4245C64.8721 47.4991 73.3713 50.6748 82.0466 50.9976C99.4166 51.6436 116.184 40.836 123.73 25.3271C124.656 23.424 125.435 21.4557 126.075 19.4389C126.399 18.4188 129.29 19.2258 128.976 20.2161Z" fill="#F47629"/>
<path d="M17.4788 78.6642C12.4133 80.2 7.34797 81.7357 2.2825 83.2714C2.33443 82.6861 2.38638 82.1008 2.4383 81.5156C7.046 84.8021 11.6537 88.0887 16.2615 91.3752C16.8088 91.7656 16.9329 92.535 16.3904 92.9758C15.798 93.4571 14.86 93.2244 14.303 92.8271C9.69535 89.5406 5.08753 86.254 0.479834 82.9675C-0.149574 82.5184 -0.218052 81.4703 0.635599 81.2116C5.70107 79.6758 10.7664 78.1401 15.8319 76.6045C16.5365 76.3909 17.4109 76.5405 17.8834 77.1542C18.2802 77.6693 18.1672 78.4555 17.4788 78.6642Z" fill="#F47629"/>
</svg>
