<svg width="723" height="606" viewBox="0 0 723 606" fill="none" xmlns="http://www.w3.org/2000/svg">
<path d="M592.871 109.145C584.596 90.8246 573.743 73.6693 560.501 58.0752" stroke="#F47629" stroke-width="3" stroke-miterlimit="10" stroke-linecap="round" stroke-linejoin="round"/>
<path d="M643.011 236.128C625.034 218.822 613.481 195.892 610.301 170.872C608.326 155.323 604.684 140.217 599.537 125.706" stroke="white" stroke-width="3" stroke-miterlimit="10" stroke-linecap="round" stroke-linejoin="round"/>
<path d="M720.983 372.773C713.817 325.322 691.02 280.873 655.211 247.169" stroke="#F47629" stroke-width="3" stroke-miterlimit="10" stroke-linecap="round" stroke-linejoin="round"/>
<path d="M38.3806 233.368C21.4014 258.944 9.75964 288.231 4.83833 319.573C-13.5115 436.446 66.5814 547.307 183.378 566.698C195.165 568.657 207.161 569.65 219.028 569.65C239.69 569.65 260.22 566.677 280.044 560.818C290.206 557.814 300.698 556.292 311.228 556.292C335.071 556.292 357.804 563.899 376.969 578.29C390.816 588.686 405.638 597.251 421.298 603.971" stroke="#F47629" stroke-width="3" stroke-miterlimit="10" stroke-linecap="round" stroke-linejoin="round"/>
<path opacity="0.3" d="M590.824 173.345C594.876 205.244 610.495 234.391 634.915 255.316C687.324 300.224 714.694 371.485 699.844 444.393C678.387 549.753 574.788 618.81 469.244 598.279C439.077 592.41 411.835 579.919 388.757 562.59C355.972 537.974 313.794 530.37 274.478 541.992C246.802 550.171 216.914 552.367 186.597 547.333C80.5245 529.721 7.55839 428.838 24.2349 322.618C35.7745 249.116 86.3026 191.893 151.094 168.11C181.283 157.028 206.096 135.169 221.03 106.692C259.912 32.5525 343.616 -11.2152 430.368 4.42138C517.12 20.058 580.277 90.2963 590.824 173.345Z" stroke="white" stroke-width="2"/>
<path opacity="0.3" d="M570.88 184.976C574.579 214.11 588.839 240.732 611.133 259.843C658.921 300.81 683.878 365.816 670.338 432.325C650.772 528.436 556.307 591.432 460.068 572.704C432.561 567.35 407.721 555.955 386.678 540.147C356.747 517.664 318.239 510.719 282.346 521.334C257.11 528.795 229.857 530.799 202.212 526.206C105.493 510.14 38.9589 418.112 54.1652 321.215C64.6875 254.165 110.761 201.965 169.84 180.269C197.402 170.148 220.055 150.182 233.689 124.173C269.143 56.5412 345.467 16.6157 424.57 30.8797C503.674 45.1437 561.263 109.216 570.88 184.976Z" stroke="white" stroke-width="2"/>
<path opacity="0.3" d="M542.093 201.164C545.287 226.306 557.598 249.281 576.845 265.774C618.011 301.048 639.509 357.021 627.845 414.289C610.991 497.045 529.618 551.288 446.716 535.162C423.021 530.552 401.624 520.74 383.497 507.129C357.656 487.726 324.411 481.733 293.422 490.893C271.684 497.318 248.208 499.043 224.395 495.088C141.079 481.255 83.7664 402.014 96.8651 318.582C105.929 260.848 145.617 215.901 196.509 197.22C220.304 188.485 239.862 171.255 251.633 148.81C282.173 90.5754 347.92 56.1975 416.06 68.4796C484.201 80.7616 533.809 135.931 542.093 201.164Z" stroke="white" stroke-width="2"/>
<path opacity="0.3" d="M510.628 218.63C513.269 239.464 523.45 258.503 539.368 272.171C573.295 301.304 591.013 347.532 581.4 394.829C567.509 463.177 500.444 507.974 432.123 494.656C412.595 490.849 394.961 482.746 380.022 471.505C358.651 455.425 331.157 450.458 305.529 458.05C287.614 463.356 268.267 464.78 248.641 461.514L248.477 462.501L248.641 461.514C179.978 450.09 132.742 384.646 143.537 315.74C151.007 268.058 183.717 230.937 225.659 215.509L225.314 214.57L225.659 215.509C245.338 208.27 261.512 193.991 271.246 175.391C296.416 127.295 350.602 98.9047 406.758 109.048C462.915 119.191 503.801 164.754 510.628 218.63Z" stroke="white" stroke-width="2"/>
<path opacity="0.3" d="M481.842 234.818C483.977 251.66 492.209 267.052 505.08 278.102C532.385 301.542 546.644 338.738 538.907 376.793C527.729 431.785 473.755 467.83 418.771 457.114C403.055 454.051 388.864 447.531 376.841 438.487C359.561 425.488 337.328 421.472 316.606 427.609C302.188 431.878 286.618 433.025 270.823 430.397C215.565 421.205 177.549 368.548 186.237 313.106C192.249 274.741 218.573 244.873 252.328 232.459L251.983 231.521L252.328 232.459C268.241 226.607 281.319 215.064 289.19 200.028C309.447 161.329 353.055 138.487 398.248 146.648C443.442 154.809 476.347 191.469 481.842 234.818Z" stroke="white" stroke-width="2"/>
<path opacity="0.3" d="M453.724 250.58C455.366 263.535 461.694 275.375 471.59 283.876C492.426 301.774 503.307 330.174 497.403 359.232C488.873 401.22 447.685 428.741 405.73 420.56C393.737 418.221 382.909 413.243 373.735 406.338C360.45 396.338 343.357 393.249 327.425 397.97C316.424 401.229 304.543 402.105 292.49 400.098L292.326 401.085L292.49 400.098C250.325 393.08 221.314 352.874 227.944 310.541C232.532 281.247 252.619 258.442 278.377 248.964C290.611 244.462 300.666 235.581 306.716 224.016C322.174 194.467 355.451 177.027 389.936 183.258C424.421 189.489 449.531 217.48 453.724 250.58Z" stroke="white" stroke-width="2"/>
</svg>
