<svg width="24" height="25" viewBox="0 0 24 25" fill="none" xmlns="http://www.w3.org/2000/svg">
<g clip-path="url(#clip0_798_26936)">
<path d="M23.9296 7.9033L21.3213 3.6573C21.2476 3.53807 21.1259 3.45693 20.9874 3.43478C20.8492 3.41263 20.708 3.45196 20.601 3.54242L13.7005 9.38349L11.2048 6.94576C11.3872 6.32831 11.3911 5.67173 11.216 5.05221C12.4555 4.0069 14.0383 3.09366 15.0168 3.45941C15.2285 3.53993 15.4678 3.46107 15.5899 3.27043C15.7123 3.07958 15.6841 2.82933 15.5222 2.67057C15.485 2.63352 11.7695 -0.912235 8.05091 2.52216C7.02858 2.44081 6.02095 2.80449 5.28613 3.51985C4.56042 4.22155 4.18453 5.20952 4.25987 6.21612C3.50539 6.91057 2.94983 7.11694 2.71055 7.17821C2.03162 6.69489 1.10492 6.7634 0.504437 7.34111C0.181945 7.65346 0 8.08297 0 8.53172C0 8.98048 0.181945 9.41019 0.50423 9.72254L3.98188 13.1193C4.6544 13.7688 5.7204 13.7688 6.39291 13.1193C6.99132 12.543 7.06626 11.6109 6.56782 10.9463C6.63468 10.7035 6.84974 10.1698 7.54896 9.44642C7.96563 9.4754 8.38417 9.43234 8.78614 9.31974L11.103 11.5824L7.87 14.319C7.3813 14.0122 5.99922 13.5568 3.62131 15.8793C3.34663 16.1475 2.98129 16.5632 2.98129 17.0713C2.98129 17.6356 3.39175 18.0361 3.9113 18.5433C4.54945 19.1669 5.31284 19.0452 5.84646 18.7351L8.3438 21.1745C8.18069 21.4326 8.09107 21.7301 8.08444 22.0352C8.08403 22.4175 8.24465 22.776 8.5481 23.0728C9.0219 23.5352 9.47915 23.9821 10.0424 23.9821C10.3936 23.9819 10.7861 23.8081 11.2491 23.3556C12.4766 22.1569 13.0988 21.0669 13.0988 20.1162C13.1042 19.804 13.0251 19.496 12.8699 19.2253L13.4227 18.685C13.5148 18.5954 13.5666 18.4723 13.5666 18.3437V17.1235H14.8257C15.0903 17.1239 15.3053 16.9099 15.3057 16.6454V15.6872L18.7625 19.0638C19.435 19.7132 20.5008 19.7132 21.1733 19.064C21.4958 18.7517 21.6777 18.3222 21.6777 17.8734C21.6777 17.4247 21.4958 16.995 21.1735 16.6826L18.1471 13.7264H18.3034C18.5679 13.727 18.783 13.5128 18.7834 13.2482V12.028H20.0423C20.3068 12.0284 20.5217 11.8144 20.5223 11.5499V10.3296H21.7812C22.046 10.3301 22.2608 10.116 22.2612 9.85129V8.63108H23.5202C23.6934 8.6317 23.8536 8.53855 23.9385 8.38745C24.0236 8.23635 24.0201 8.05109 23.9296 7.9033ZM5.72061 12.4366C5.42316 12.7239 4.95164 12.7239 4.65398 12.4366L1.17633 9.03968C1.03806 8.907 0.960024 8.7236 0.960024 8.53193C0.960024 8.34026 1.03806 8.15686 1.17633 8.02418C1.47378 7.73667 1.94551 7.73667 2.24295 8.02418L5.72061 11.4209C5.85888 11.5538 5.93691 11.7372 5.93691 11.9289C5.93691 12.1205 5.85888 12.3037 5.72061 12.4366ZM7.42269 8.4719C7.24758 8.44851 7.07391 8.52365 6.97145 8.66751C6.36994 9.26551 6.02778 9.78692 5.833 10.1914L3.49339 7.9062C3.89847 7.71763 4.41781 7.39058 5.01332 6.82301C5.02429 6.81618 5.03485 6.80915 5.0454 6.80169C5.19009 6.69758 5.26461 6.52122 5.23873 6.34486C5.11702 5.55623 5.38528 4.75766 5.95823 4.20251C6.54567 3.63308 7.36598 3.37186 8.17428 3.49688C8.3527 3.52089 8.52947 3.44161 8.63007 3.29237C10.5793 1.43897 12.5085 1.91278 13.6904 2.53851C12.3329 2.89288 10.9867 3.96923 10.3392 4.54404C10.1891 4.67714 10.1384 4.88993 10.2123 5.07643C10.4427 5.65952 10.4427 6.30843 10.2117 6.89111C9.92728 7.57149 9.40836 8.05233 8.73026 8.33218C8.31275 8.4866 7.86338 8.53462 7.42269 8.4719ZM9.73064 8.90286C10.1506 8.63832 10.5087 8.28603 10.7801 7.87039L12.9659 10.0055L11.8376 10.9606L9.73064 8.90286ZM10.577 22.6729C10.044 23.1935 10.013 23.1641 9.22041 22.39C9.06372 22.2368 9.04488 22.1159 9.04426 22.0385C9.0424 21.798 9.24235 21.544 9.31707 21.4684C9.40919 21.3788 9.46114 21.2557 9.46114 21.1271C9.46114 20.9986 9.40919 20.8756 9.31707 20.7858L6.22567 17.7662C6.03875 17.5838 5.74048 17.5838 5.55357 17.7662C5.49871 17.8192 5.00752 18.2748 4.58319 17.8604C4.25325 17.5381 3.94131 17.2336 3.94131 17.0713C3.94131 17.0217 3.97547 16.8724 4.29361 16.5619C6.46598 14.4399 7.38709 15.1474 7.38895 15.1465L7.53364 15.2879H7.53385L11.8813 19.5343C11.8817 19.5347 11.8821 19.5347 11.8825 19.5352L12.0138 19.6631C12.0212 19.6718 12.7434 20.5567 10.577 22.6729ZM20.7177 17.8734C20.7175 18.0651 20.6395 18.2483 20.5014 18.381C20.2038 18.6683 19.7322 18.6683 19.4348 18.381L16.4082 15.4249H16.5647C16.8292 15.4253 17.044 15.2113 17.0447 14.9466V13.9888L20.5014 17.3655C20.6395 17.4984 20.7175 17.6818 20.7177 17.8734ZM21.7812 7.67478C21.5167 7.67437 21.3018 7.8884 21.3014 8.15293V9.37314H20.0423C19.7776 9.37273 19.5627 9.58676 19.5623 9.85129V11.0717H18.3034C18.0388 11.0711 17.824 11.2851 17.8234 11.5499V12.7701H16.5647C16.2999 12.7694 16.0851 12.9837 16.0846 13.2482V14.4684H14.8257C14.5612 14.468 14.3463 14.682 14.3457 14.9466V16.1672H13.0866C12.8221 16.1666 12.6072 16.3806 12.6066 16.6454V18.1429L12.2174 18.5232L8.58143 14.9718L12.1247 11.9725L12.1253 11.9721L13.9882 10.3953L13.9887 10.3946L20.7951 4.63305L22.6638 7.67478H21.7812Z" fill="#101111"/>
<path d="M7.77218 16.7284C7.58361 16.5429 7.28037 16.5452 7.0947 16.7338C6.90902 16.9224 6.91151 17.2256 7.10008 17.4113L9.70837 19.9589C9.83029 20.0792 10.0071 20.1253 10.1722 20.0798C10.3374 20.0343 10.4657 19.9039 10.5086 19.7381C10.5517 19.5723 10.5028 19.3961 10.3805 19.2761L7.77218 16.7284Z" fill="#101111"/>
</g>
<defs>
<clipPath id="clip0_798_26936">
<rect width="24" height="24" fill="white" transform="translate(0 0.5)"/>
</clipPath>
</defs>
</svg>
