<svg width="24" height="24" viewBox="0 0 24 24" fill="none" xmlns="http://www.w3.org/2000/svg">
<g clip-path="url(#clip0_798_13457)">
<path d="M23.8052 15.3285C23.7961 15.2887 23.7779 15.252 23.7535 15.2196L19.0516 9.17286C18.9983 9.10433 18.9164 9.06426 18.8296 9.06426H18.3759L18.4062 8.85213C20.7925 8.37238 22.1613 5.59562 21.0601 3.41161C20.8551 2.98683 20.4556 2.68283 19.9915 2.59844C19.4941 2.50789 19.0155 2.83915 18.9249 3.33683L18.6105 5.0662C18.5828 5.21874 18.4362 5.32028 18.2835 5.29258L16.8589 5.03353C16.7096 5.00953 16.6023 4.85473 16.6325 4.70651C16.6325 4.70651 16.9468 2.9776 16.9468 2.9776C17.0451 2.49415 16.6952 1.98867 16.208 1.91049C15.7484 1.82694 15.2752 1.96363 14.9424 2.27629C13.1198 3.93601 13.4193 7.00677 15.4911 8.32165L14.6533 12.1071C14.3237 10.4469 13.8578 8.10399 13.5273 6.44017C13.4482 5.9937 12.9783 5.67929 12.5354 5.77706C12.5354 5.77706 9.85068 6.31047 9.85068 6.31047C9.39438 6.40117 9.09693 6.84619 9.18761 7.30249L9.71653 9.9645L9.10096 9.17286C9.04767 9.10433 8.96573 9.06426 8.87894 9.06426H7.10951L6.63411 6.81126C6.7814 6.79295 6.88931 6.66289 6.88002 6.51477C6.88002 6.51477 6.78971 5.05741 6.78971 5.05741L7.38258 4.97616C7.47206 5.33436 7.82536 5.60564 8.19445 5.59946C8.1385 5.62145 9.82812 5.38163 9.84427 5.38139C10.3052 5.31822 10.6288 4.89186 10.5657 4.43091L10.0859 0.929568C10.0553 0.706294 9.93958 0.508265 9.76009 0.372012C9.58055 0.235758 9.35849 0.177531 9.13543 0.208178L7.60192 0.418292C7.17736 0.476473 6.87014 0.842982 6.87351 1.26063L3.18587 1.7659C2.48476 1.86196 1.85685 2.22177 1.4179 2.779C0.893711 3.44443 0.492527 4.21073 0.225422 5.0567C0.134831 5.34383 0.209263 5.65373 0.419651 5.86543C0.760544 6.22063 1.37866 6.16397 1.64815 5.75162C1.89077 5.39391 2.16327 5.0661 2.46164 4.77254L2.54157 5.35562C2.56267 5.50952 2.70462 5.61716 2.85839 5.59608L3.42148 5.51895L3.72654 6.94687C3.75687 7.09268 3.89914 7.18871 4.04316 7.16629L4.36747 12.1959L2.01839 15.2142C1.97998 15.2636 1.95911 15.3244 1.95911 15.387V19.9707L0.398869 20.3722C0.274586 20.4042 0.187703 20.5162 0.187703 20.6446V21.9084C0.187703 22.0367 0.274586 22.1488 0.398869 22.1807L1.95911 22.5823V23.5317C1.95911 23.687 2.08504 23.8129 2.24036 23.8129C2.24036 23.8129 20.4057 23.8146 23.5314 23.8129C23.6868 23.8129 23.8127 23.687 23.8127 23.5317V15.3922C23.8127 15.3702 23.8099 15.349 23.8052 15.3285ZM7.67827 0.975573L9.21178 0.76546C9.28536 0.755274 9.3602 0.774502 9.42002 0.820071C9.47985 0.865481 9.51839 0.93149 9.5286 1.00592L10.0084 4.50727C10.0294 4.66091 9.92154 4.80305 9.76792 4.82411L8.23441 5.03422C8.08519 5.05766 7.93494 4.9441 7.91759 4.79375C7.91759 4.79376 7.6777 3.04309 7.6777 3.04309C7.66546 2.96087 7.44207 1.31821 7.43781 1.29241C7.41675 1.13877 7.52465 0.99663 7.67827 0.975573ZM3.91701 5.1461C3.88686 5.00153 3.74686 4.90573 3.60381 4.92621C3.60381 4.92621 3.06067 5.00062 3.06067 5.00062L2.94674 4.16928C2.93287 4.06813 2.8653 3.98246 2.77022 3.94541C2.67501 3.90828 2.56734 3.9257 2.48874 3.99079C1.99559 4.39903 1.55614 4.8852 1.18265 5.43584C1.09107 5.56217 0.930316 5.57484 0.818684 5.46896C0.756153 5.40606 0.73441 5.31295 0.76183 5.22602C1.00838 4.44512 1.3778 3.73893 1.85973 3.12709C2.20809 2.68489 2.70618 2.39938 3.26223 2.32318L6.94221 1.81896C7.03105 2.46724 7.20981 3.7718 7.2986 4.41992L6.45467 4.53558C6.30878 4.55556 6.20304 4.68467 6.21215 4.83161L6.30246 6.28895L4.22206 6.57402L3.91701 5.1461ZM18.692 9.62676L22.9565 15.111H21.7323L18.167 10.526L18.2955 9.62676H18.692ZM18.887 20.2451C18.8531 19.9621 18.8063 19.6806 18.7462 19.4018C18.6629 19.0183 18.3163 18.74 17.922 18.74H13.8621V15.6735C15.8251 15.6736 19.3157 15.6734 21.3093 15.6735V21.6582H18.9399C18.9605 21.187 18.9429 20.7154 18.887 20.2451ZM12.2056 18.74C12.1066 18.7407 12.0083 18.7657 11.9212 18.8122V15.6735H13.2996V18.74H12.2056ZM18.0562 11.3014L21.0159 15.111H17.5118L18.0562 11.3014ZM14.6767 15.111H13.7184L13.5069 14.839L14.5803 14.6257L14.6767 15.111ZM16.0836 8.24742C16.1101 8.12744 16.0557 8.00412 15.9492 7.94285C14.7823 7.27175 14.1302 5.93016 14.3264 4.60447C14.4363 3.8615 14.7825 3.19822 15.3275 2.68628C15.5309 2.49523 15.8224 2.4121 16.1074 2.46392C16.3002 2.49896 16.4284 2.68424 16.3934 2.87696L16.079 4.60589C16.0387 4.82763 16.0872 5.0518 16.2154 5.2371C16.3437 5.4224 16.5365 5.54666 16.7582 5.58697L18.1828 5.84602C18.6272 5.93637 19.0921 5.61469 19.1639 5.1668C19.1639 5.16681 19.4784 3.43747 19.4784 3.43747C19.5133 3.24498 19.698 3.11683 19.8909 3.15187C20.1787 3.2042 20.4264 3.39273 20.5536 3.65617C21.5243 5.58572 20.247 8.02361 18.1113 8.33573C17.9898 8.35539 17.8952 8.45175 17.8778 8.5736L17.7732 9.30542C17.6517 10.1559 17.0761 14.1834 16.9436 15.111H15.2502C15.2171 14.9445 15.1119 14.4152 15.0771 14.24C15.0771 14.24 14.9259 13.4787 14.9259 13.4787L16.0836 8.24742ZM9.73931 7.19285C9.70909 7.04074 9.80825 6.8924 9.96031 6.86216L12.645 6.32875C12.7926 6.29633 12.9493 6.4009 12.9756 6.54981C12.9757 6.54981 13.0514 6.9308 13.0514 6.9308L11.9202 7.15557C11.7678 7.18582 11.6689 7.33389 11.6992 7.48623C11.7288 7.63956 11.8813 7.73798 12.0298 7.70726C12.0298 7.70726 13.161 7.4825 13.161 7.4825L13.2879 8.12133L12.6625 8.24559C12.5101 8.27585 12.4112 8.42389 12.4414 8.57626C12.471 8.72959 12.6235 8.828 12.7721 8.79729C12.7721 8.79729 13.3975 8.67302 13.3975 8.67302L13.5245 9.31188L12.3933 9.53662C12.2409 9.56688 12.142 9.71492 12.1723 9.86729C12.2019 10.0206 12.3544 10.119 12.5029 10.0883C12.5029 10.0883 13.6341 9.86357 13.6341 9.86357L13.761 10.5024L13.1356 10.6267C12.9832 10.6569 12.8843 10.805 12.9146 10.9573C12.9442 11.1107 13.0967 11.2091 13.2452 11.1784C13.2452 11.1784 13.8706 11.0541 13.8706 11.0541L13.9976 11.6929L12.8664 11.9177C12.714 11.9479 12.6151 12.096 12.6454 12.2483C12.675 12.4017 12.8275 12.5001 12.976 12.4694C12.976 12.4694 14.1072 12.2446 14.1072 12.2446L14.2341 12.8835L13.6087 13.0077C13.4563 13.038 13.3574 13.186 13.3877 13.3384C13.4173 13.4917 13.5698 13.5901 13.7183 13.5594C13.7183 13.5594 14.3437 13.4352 14.3437 13.4352L14.4706 14.074L13.3396 14.2988C13.269 14.3128 13.2101 14.3523 13.1699 14.4056L10.4869 10.9551L9.73931 7.19285ZM13.0058 15.111H11.7817C10.7234 13.7501 8.56692 10.9768 7.51718 9.62676H8.74138C8.74138 9.62676 13.0057 15.1108 13.0058 15.111ZM4.60187 7.08974L6.07537 6.88784L6.5922 9.33731L4.88801 11.527L4.60187 7.08974ZM2.52161 19.8259V15.4835C3.62236 14.069 5.84787 11.2099 6.94219 9.80364L11.3587 15.4834V19.3942L10.7106 19.4614C10.6826 19.4644 10.663 19.4525 10.6515 19.4421C10.6399 19.4317 10.6262 19.4134 10.6262 19.3853C10.6262 19.0329 10.3395 18.7462 9.98709 18.7462H9.63846C9.17322 18.7462 8.79466 19.1247 8.79467 19.59V20.3268H3.79044L3.5533 20.1261C3.53203 20.1108 3.11379 19.7463 3.10346 19.7537C3.04157 19.72 2.96831 19.7107 2.90004 19.7285L2.52161 19.8259ZM0.750203 20.8626L2.8994 20.3095L3.50566 20.8227C3.55648 20.8657 3.62084 20.8893 3.6874 20.8893H8.79471V21.6637H3.6874C3.62084 21.6637 3.55648 21.6873 3.50566 21.7302L2.8994 22.2434L0.750203 21.6903V20.8626ZM2.52161 23.2504V22.7271L2.90004 22.8244C2.9546 22.8384 3.0129 22.835 3.06594 22.8164C3.09697 22.8046 3.12608 22.7879 3.15186 22.7667C3.29991 22.6414 3.64567 22.3487 3.79044 22.2262H8.79467V22.963C8.79471 23.0612 8.81337 23.1579 8.84507 23.2504H2.52161ZM10.622 23.2385C10.6244 23.215 10.6262 23.1916 10.6262 23.1677C10.6262 23.1395 10.6399 23.1212 10.6514 23.1108C10.663 23.1004 10.6826 23.0886 10.7106 23.0915L11.3587 23.1588V23.2504H10.6209C10.6214 23.2465 10.6216 23.2425 10.622 23.2385ZM12.171 23.2159C12.1743 22.9153 11.9362 22.6507 11.6355 22.622C11.6355 22.622 10.7687 22.5321 10.7687 22.5321C10.6961 22.5246 10.6225 22.53 10.5518 22.5474C10.2709 22.6114 10.0597 22.8795 10.0637 23.1677C10.0637 23.2099 10.0293 23.2442 9.98709 23.2442H9.63846C9.48337 23.2442 9.35721 23.1181 9.35721 22.963V19.59C9.35721 19.4349 9.48337 19.3087 9.63846 19.3087H9.98709C10.0293 19.3087 10.0637 19.3431 10.0637 19.3853C10.0559 19.7535 10.403 20.067 10.7687 20.0209C10.7687 20.0209 11.6359 19.931 11.6359 19.931C11.6566 19.9284 11.6771 19.9255 11.6972 19.9212C11.9362 19.8705 12.12 19.6804 12.1617 19.4416C12.1671 19.407 12.1714 19.3724 12.171 19.3371C12.171 19.318 12.1866 19.3025 12.2056 19.3025C13.1988 19.3178 16.9639 19.2727 18.0165 19.3188C18.1058 19.3507 18.1759 19.4261 18.1965 19.5212C18.2243 19.6503 18.2491 19.7798 18.271 19.9099C18.3824 20.5725 18.4121 21.2458 18.3599 21.9176C18.3388 22.1883 18.3043 22.4588 18.2564 22.7261C18.2289 22.8508 18.2213 22.9843 18.1699 23.1013C18.1222 23.1905 18.0277 23.2504 17.922 23.2504H12.2056C12.1866 23.2504 12.171 23.2349 12.171 23.2159ZM18.7238 23.2322C18.8108 22.9001 18.8577 22.5579 18.8977 22.2207H21.3093V23.2504H18.718C18.7201 23.2444 18.7218 23.2383 18.7238 23.2322ZM23.2502 23.2504H21.8718V15.6735H23.2502V23.2504Z" fill="white"/>
<path d="M15.2777 22.3634C16.425 22.3634 17.5866 21.9899 17.5866 21.2763C17.5773 19.8311 12.978 19.8311 12.9688 21.2763C12.9688 21.9899 14.1303 22.3634 15.2777 22.3634ZM15.2777 20.7517C16.4121 20.7517 17.0241 21.124 17.0241 21.2763C17.0241 21.4285 16.4121 21.8009 15.2777 21.8009C14.1432 21.8009 13.5312 21.4285 13.5312 21.2763C13.5312 21.124 14.1432 20.7517 15.2777 20.7517Z" fill="white"/>
<path d="M11.1172 20.3633C10.9619 20.3633 10.8359 20.4892 10.8359 20.6445V21.8238C10.8359 21.9792 10.9619 22.1051 11.1172 22.1051C11.2725 22.1051 11.3984 21.9792 11.3984 21.8238V20.6445C11.3984 20.4892 11.2725 20.3633 11.1172 20.3633Z" fill="white"/>
</g>
<defs>
<clipPath id="clip0_798_13457">
<rect width="24" height="24" fill="white"/>
</clipPath>
</defs>
</svg>
