<svg width="100" height="100" viewBox="0 0 100 100" fill="none" xmlns="http://www.w3.org/2000/svg">
<g opacity="0.66">
<mask id="mask0_916_2260" style="mask-type:luminance" maskUnits="userSpaceOnUse" x="0" y="0" width="100" height="100">
<path d="M99.168 49.7279C100.29 82.8779 76.968 99.3119 49.584 99.3119C22.2 99.3119 0 81.3569 0 49.7279C0 24.0309 20.591 -2.17913 49.584 0.143867C80.031 2.58287 98.089 17.8709 99.168 49.7279Z" fill="white"/>
</mask>
<g mask="url(#mask0_916_2260)">
<path d="M97.3437 96.9566C96.5997 96.9566 95.9947 96.3516 95.9947 95.6076C95.9947 94.8636 96.5997 94.2586 97.3437 94.2586C98.0877 94.2586 98.6927 94.8636 98.6927 95.6076C98.6927 96.3516 98.0877 96.9566 97.3437 96.9566ZM89.9277 96.9566C89.1837 96.9566 88.5787 96.3516 88.5787 95.6076C88.5787 94.8636 89.1837 94.2586 89.9277 94.2586C90.6717 94.2586 91.2767 94.8636 91.2767 95.6076C91.2777 96.3516 90.6727 96.9566 89.9277 96.9566ZM82.5127 96.9566C81.7687 96.9566 81.1637 96.3516 81.1637 95.6076C81.1637 94.8636 81.7687 94.2586 82.5127 94.2586C83.2567 94.2586 83.8617 94.8636 83.8617 95.6076C83.8617 96.3516 83.2567 96.9566 82.5127 96.9566ZM75.0977 96.9566C74.3537 96.9566 73.7487 96.3516 73.7487 95.6076C73.7487 94.8636 74.3537 94.2586 75.0977 94.2586C75.8417 94.2586 76.4467 94.8636 76.4467 95.6076C76.4467 96.3516 75.8417 96.9566 75.0977 96.9566ZM67.6817 96.9566C66.9377 96.9566 66.3327 96.3516 66.3327 95.6076C66.3327 94.8636 66.9377 94.2586 67.6817 94.2586C68.4257 94.2586 69.0307 94.8636 69.0307 95.6076C69.0307 96.3516 68.4257 96.9566 67.6817 96.9566ZM60.2667 96.9566C59.5227 96.9566 58.9177 96.3516 58.9177 95.6076C58.9177 94.8636 59.5227 94.2586 60.2667 94.2586C61.0107 94.2586 61.6157 94.8636 61.6157 95.6076C61.6157 96.3516 61.0097 96.9566 60.2667 96.9566ZM52.8507 96.9566C52.1067 96.9566 51.5017 96.3516 51.5017 95.6076C51.5017 94.8636 52.1067 94.2586 52.8507 94.2586C53.5947 94.2586 54.1997 94.8636 54.1997 95.6076C54.1997 96.3516 53.5947 96.9566 52.8507 96.9566ZM46.3547 96.9566C45.6107 96.9566 45.0057 96.3516 45.0057 95.6076C45.0057 94.8636 45.6107 94.2586 46.3547 94.2586C47.0987 94.2586 47.7037 94.8636 47.7037 95.6076C47.7037 96.3516 47.0987 96.9566 46.3547 96.9566ZM38.9387 96.9566C38.1947 96.9566 37.5897 96.3516 37.5897 95.6076C37.5897 94.8636 38.1947 94.2586 38.9387 94.2586C39.6827 94.2586 40.2877 94.8636 40.2877 95.6076C40.2877 96.3516 39.6827 96.9566 38.9387 96.9566ZM31.5237 96.9566C30.7797 96.9566 30.1747 96.3516 30.1747 95.6076C30.1747 94.8636 30.7797 94.2586 31.5237 94.2586C32.2677 94.2586 32.8727 94.8636 32.8727 95.6076C32.8727 96.3516 32.2677 96.9566 31.5237 96.9566ZM24.1077 96.9566C23.3637 96.9566 22.7587 96.3516 22.7587 95.6076C22.7587 94.8636 23.3637 94.2586 24.1077 94.2586C24.8517 94.2586 25.4567 94.8636 25.4567 95.6076C25.4567 96.3516 24.8517 96.9566 24.1077 96.9566ZM16.6927 96.9566C15.9487 96.9566 15.3437 96.3516 15.3437 95.6076C15.3437 94.8636 15.9487 94.2586 16.6927 94.2586C17.4367 94.2586 18.0417 94.8636 18.0417 95.6076C18.0417 96.3516 17.4367 96.9566 16.6927 96.9566ZM9.2767 96.9566C8.5327 96.9566 7.9277 96.3516 7.9277 95.6076C7.9277 94.8636 8.5327 94.2586 9.2767 94.2586C10.0207 94.2586 10.6257 94.8636 10.6257 95.6076C10.6257 96.3516 10.0207 96.9566 9.2767 96.9566ZM1.86169 96.9566C1.11769 96.9566 0.512695 96.3516 0.512695 95.6076C0.512695 94.8636 1.11769 94.2586 1.86169 94.2586C2.60569 94.2586 3.21069 94.8636 3.21069 95.6076C3.21069 96.3516 2.60569 96.9566 1.86169 96.9566ZM97.3437 89.8645C96.5997 89.8645 95.9947 89.2596 95.9947 88.5155C95.9947 87.7715 96.5997 87.1665 97.3437 87.1665C98.0877 87.1665 98.6927 87.7715 98.6927 88.5155C98.6927 89.2585 98.0877 89.8645 97.3437 89.8645ZM89.9277 89.8645C89.1837 89.8645 88.5787 89.2596 88.5787 88.5155C88.5787 87.7715 89.1837 87.1665 89.9277 87.1665C90.6717 87.1665 91.2767 87.7715 91.2767 88.5155C91.2777 89.2585 90.6727 89.8645 89.9277 89.8645ZM82.5127 89.8645C81.7687 89.8645 81.1637 89.2596 81.1637 88.5155C81.1637 87.7715 81.7687 87.1665 82.5127 87.1665C83.2567 87.1665 83.8617 87.7715 83.8617 88.5155C83.8617 89.2585 83.2567 89.8645 82.5127 89.8645ZM75.0977 89.8645C74.3537 89.8645 73.7487 89.2596 73.7487 88.5155C73.7487 87.7715 74.3537 87.1665 75.0977 87.1665C75.8417 87.1665 76.4467 87.7715 76.4467 88.5155C76.4467 89.2585 75.8417 89.8645 75.0977 89.8645ZM67.6817 89.8645C66.9377 89.8645 66.3327 89.2596 66.3327 88.5155C66.3327 87.7715 66.9377 87.1665 67.6817 87.1665C68.4257 87.1665 69.0307 87.7715 69.0307 88.5155C69.0307 89.2585 68.4257 89.8645 67.6817 89.8645ZM60.2667 89.8645C59.5227 89.8645 58.9177 89.2596 58.9177 88.5155C58.9177 87.7715 59.5227 87.1665 60.2667 87.1665C61.0107 87.1665 61.6157 87.7715 61.6157 88.5155C61.6157 89.2585 61.0097 89.8645 60.2667 89.8645ZM52.8507 89.8645C52.1067 89.8645 51.5017 89.2596 51.5017 88.5155C51.5017 87.7715 52.1067 87.1665 52.8507 87.1665C53.5947 87.1665 54.1997 87.7715 54.1997 88.5155C54.1997 89.2585 53.5947 89.8645 52.8507 89.8645ZM46.3547 89.8645C45.6107 89.8645 45.0057 89.2596 45.0057 88.5155C45.0057 87.7715 45.6107 87.1665 46.3547 87.1665C47.0987 87.1665 47.7037 87.7715 47.7037 88.5155C47.7037 89.2585 47.0987 89.8645 46.3547 89.8645ZM38.9387 89.8645C38.1947 89.8645 37.5897 89.2596 37.5897 88.5155C37.5897 87.7715 38.1947 87.1665 38.9387 87.1665C39.6827 87.1665 40.2877 87.7715 40.2877 88.5155C40.2877 89.2585 39.6827 89.8645 38.9387 89.8645ZM31.5237 89.8645C30.7797 89.8645 30.1747 89.2596 30.1747 88.5155C30.1747 87.7715 30.7797 87.1665 31.5237 87.1665C32.2677 87.1665 32.8727 87.7715 32.8727 88.5155C32.8727 89.2585 32.2677 89.8645 31.5237 89.8645ZM24.1077 89.8645C23.3637 89.8645 22.7587 89.2596 22.7587 88.5155C22.7587 87.7715 23.3637 87.1665 24.1077 87.1665C24.8517 87.1665 25.4567 87.7715 25.4567 88.5155C25.4567 89.2585 24.8517 89.8645 24.1077 89.8645ZM16.6927 89.8645C15.9487 89.8645 15.3437 89.2596 15.3437 88.5155C15.3437 87.7715 15.9487 87.1665 16.6927 87.1665C17.4367 87.1665 18.0417 87.7715 18.0417 88.5155C18.0417 89.2585 17.4367 89.8645 16.6927 89.8645ZM9.2767 89.8645C8.5327 89.8645 7.9277 89.2596 7.9277 88.5155C7.9277 87.7715 8.5327 87.1665 9.2767 87.1665C10.0207 87.1665 10.6257 87.7715 10.6257 88.5155C10.6257 89.2585 10.0207 89.8645 9.2767 89.8645ZM1.86169 89.8645C1.11769 89.8645 0.512695 89.2596 0.512695 88.5155C0.512695 87.7715 1.11769 87.1665 1.86169 87.1665C2.60569 87.1665 3.21069 87.7715 3.21069 88.5155C3.21069 89.2585 2.60569 89.8645 1.86169 89.8645ZM97.3437 82.7706C96.5997 82.7706 95.9947 82.1656 95.9947 81.4216C95.9947 80.6776 96.5997 80.0726 97.3437 80.0726C98.0877 80.0726 98.6927 80.6776 98.6927 81.4216C98.6927 82.1656 98.0877 82.7706 97.3437 82.7706ZM89.9277 82.7706C89.1837 82.7706 88.5787 82.1656 88.5787 81.4216C88.5787 80.6776 89.1837 80.0726 89.9277 80.0726C90.6717 80.0726 91.2767 80.6776 91.2767 81.4216C91.2777 82.1656 90.6727 82.7706 89.9277 82.7706ZM82.5127 82.7706C81.7687 82.7706 81.1637 82.1656 81.1637 81.4216C81.1637 80.6776 81.7687 80.0726 82.5127 80.0726C83.2567 80.0726 83.8617 80.6776 83.8617 81.4216C83.8617 82.1656 83.2567 82.7706 82.5127 82.7706ZM75.0977 82.7706C74.3537 82.7706 73.7487 82.1656 73.7487 81.4216C73.7487 80.6776 74.3537 80.0726 75.0977 80.0726C75.8417 80.0726 76.4467 80.6776 76.4467 81.4216C76.4467 82.1656 75.8417 82.7706 75.0977 82.7706ZM67.6817 82.7706C66.9377 82.7706 66.3327 82.1656 66.3327 81.4216C66.3327 80.6776 66.9377 80.0726 67.6817 80.0726C68.4257 80.0726 69.0307 80.6776 69.0307 81.4216C69.0307 82.1656 68.4257 82.7706 67.6817 82.7706ZM60.2667 82.7706C59.5227 82.7706 58.9177 82.1656 58.9177 81.4216C58.9177 80.6776 59.5227 80.0726 60.2667 80.0726C61.0107 80.0726 61.6157 80.6776 61.6157 81.4216C61.6157 82.1656 61.0097 82.7706 60.2667 82.7706ZM52.8507 82.7706C52.1067 82.7706 51.5017 82.1656 51.5017 81.4216C51.5017 80.6776 52.1067 80.0726 52.8507 80.0726C53.5947 80.0726 54.1997 80.6776 54.1997 81.4216C54.1997 82.1656 53.5947 82.7706 52.8507 82.7706ZM46.3547 82.7706C45.6107 82.7706 45.0057 82.1656 45.0057 81.4216C45.0057 80.6776 45.6107 80.0726 46.3547 80.0726C47.0987 80.0726 47.7037 80.6776 47.7037 81.4216C47.7037 82.1656 47.0987 82.7706 46.3547 82.7706ZM38.9387 82.7706C38.1947 82.7706 37.5897 82.1656 37.5897 81.4216C37.5897 80.6776 38.1947 80.0726 38.9387 80.0726C39.6827 80.0726 40.2877 80.6776 40.2877 81.4216C40.2877 82.1656 39.6827 82.7706 38.9387 82.7706ZM31.5237 82.7706C30.7797 82.7706 30.1747 82.1656 30.1747 81.4216C30.1747 80.6776 30.7797 80.0726 31.5237 80.0726C32.2677 80.0726 32.8727 80.6776 32.8727 81.4216C32.8727 82.1656 32.2677 82.7706 31.5237 82.7706ZM24.1077 82.7706C23.3637 82.7706 22.7587 82.1656 22.7587 81.4216C22.7587 80.6776 23.3637 80.0726 24.1077 80.0726C24.8517 80.0726 25.4567 80.6776 25.4567 81.4216C25.4567 82.1656 24.8517 82.7706 24.1077 82.7706ZM16.6927 82.7706C15.9487 82.7706 15.3437 82.1656 15.3437 81.4216C15.3437 80.6776 15.9487 80.0726 16.6927 80.0726C17.4367 80.0726 18.0417 80.6776 18.0417 81.4216C18.0417 82.1656 17.4367 82.7706 16.6927 82.7706ZM9.2767 82.7706C8.5327 82.7706 7.9277 82.1656 7.9277 81.4216C7.9277 80.6776 8.5327 80.0726 9.2767 80.0726C10.0207 80.0726 10.6257 80.6776 10.6257 81.4216C10.6257 82.1656 10.0207 82.7706 9.2767 82.7706ZM1.86169 82.7706C1.11769 82.7706 0.512695 82.1656 0.512695 81.4216C0.512695 80.6776 1.11769 80.0726 1.86169 80.0726C2.60569 80.0726 3.21069 80.6776 3.21069 81.4216C3.21069 82.1656 2.60569 82.7706 1.86169 82.7706ZM97.3437 75.6785C96.5997 75.6785 95.9947 75.0735 95.9947 74.3295C95.9947 73.5855 96.5997 72.9805 97.3437 72.9805C98.0877 72.9805 98.6927 73.5855 98.6927 74.3295C98.6927 75.0725 98.0877 75.6785 97.3437 75.6785ZM89.9277 75.6785C89.1837 75.6785 88.5787 75.0735 88.5787 74.3295C88.5787 73.5855 89.1837 72.9805 89.9277 72.9805C90.6717 72.9805 91.2767 73.5855 91.2767 74.3295C91.2777 75.0725 90.6727 75.6785 89.9277 75.6785ZM82.5127 75.6785C81.7687 75.6785 81.1637 75.0735 81.1637 74.3295C81.1637 73.5855 81.7687 72.9805 82.5127 72.9805C83.2567 72.9805 83.8617 73.5855 83.8617 74.3295C83.8617 75.0725 83.2567 75.6785 82.5127 75.6785ZM75.0977 75.6785C74.3537 75.6785 73.7487 75.0735 73.7487 74.3295C73.7487 73.5855 74.3537 72.9805 75.0977 72.9805C75.8417 72.9805 76.4467 73.5855 76.4467 74.3295C76.4467 75.0725 75.8417 75.6785 75.0977 75.6785ZM67.6817 75.6785C66.9377 75.6785 66.3327 75.0735 66.3327 74.3295C66.3327 73.5855 66.9377 72.9805 67.6817 72.9805C68.4257 72.9805 69.0307 73.5855 69.0307 74.3295C69.0307 75.0725 68.4257 75.6785 67.6817 75.6785ZM60.2667 75.6785C59.5227 75.6785 58.9177 75.0735 58.9177 74.3295C58.9177 73.5855 59.5227 72.9805 60.2667 72.9805C61.0107 72.9805 61.6157 73.5855 61.6157 74.3295C61.6157 75.0725 61.0097 75.6785 60.2667 75.6785ZM52.8507 75.6785C52.1067 75.6785 51.5017 75.0735 51.5017 74.3295C51.5017 73.5855 52.1067 72.9805 52.8507 72.9805C53.5947 72.9805 54.1997 73.5855 54.1997 74.3295C54.1997 75.0725 53.5947 75.6785 52.8507 75.6785ZM46.3547 75.6785C45.6107 75.6785 45.0057 75.0735 45.0057 74.3295C45.0057 73.5855 45.6107 72.9805 46.3547 72.9805C47.0987 72.9805 47.7037 73.5855 47.7037 74.3295C47.7037 75.0725 47.0987 75.6785 46.3547 75.6785ZM38.9387 75.6785C38.1947 75.6785 37.5897 75.0735 37.5897 74.3295C37.5897 73.5855 38.1947 72.9805 38.9387 72.9805C39.6827 72.9805 40.2877 73.5855 40.2877 74.3295C40.2877 75.0725 39.6827 75.6785 38.9387 75.6785ZM31.5237 75.6785C30.7797 75.6785 30.1747 75.0735 30.1747 74.3295C30.1747 73.5855 30.7797 72.9805 31.5237 72.9805C32.2677 72.9805 32.8727 73.5855 32.8727 74.3295C32.8727 75.0725 32.2677 75.6785 31.5237 75.6785ZM24.1077 75.6785C23.3637 75.6785 22.7587 75.0735 22.7587 74.3295C22.7587 73.5855 23.3637 72.9805 24.1077 72.9805C24.8517 72.9805 25.4567 73.5855 25.4567 74.3295C25.4567 75.0725 24.8517 75.6785 24.1077 75.6785ZM16.6927 75.6785C15.9487 75.6785 15.3437 75.0735 15.3437 74.3295C15.3437 73.5855 15.9487 72.9805 16.6927 72.9805C17.4367 72.9805 18.0417 73.5855 18.0417 74.3295C18.0417 75.0725 17.4367 75.6785 16.6927 75.6785ZM9.2767 75.6785C8.5327 75.6785 7.9277 75.0735 7.9277 74.3295C7.9277 73.5855 8.5327 72.9805 9.2767 72.9805C10.0207 72.9805 10.6257 73.5855 10.6257 74.3295C10.6257 75.0725 10.0207 75.6785 9.2767 75.6785ZM1.86169 75.6785C1.11769 75.6785 0.512695 75.0735 0.512695 74.3295C0.512695 73.5855 1.11769 72.9805 1.86169 72.9805C2.60569 72.9805 3.21069 73.5855 3.21069 74.3295C3.21069 75.0725 2.60569 75.6785 1.86169 75.6785ZM97.3437 68.5845C96.5997 68.5845 95.9947 67.9796 95.9947 67.2355C95.9947 66.4915 96.5997 65.8866 97.3437 65.8866C98.0877 65.8866 98.6927 66.4915 98.6927 67.2355C98.6927 67.9796 98.0877 68.5845 97.3437 68.5845ZM89.9277 68.5845C89.1837 68.5845 88.5787 67.9796 88.5787 67.2355C88.5787 66.4915 89.1837 65.8866 89.9277 65.8866C90.6717 65.8866 91.2767 66.4915 91.2767 67.2355C91.2777 67.9796 90.6727 68.5845 89.9277 68.5845ZM82.5127 68.5845C81.7687 68.5845 81.1637 67.9796 81.1637 67.2355C81.1637 66.4915 81.7687 65.8866 82.5127 65.8866C83.2567 65.8866 83.8617 66.4915 83.8617 67.2355C83.8617 67.9796 83.2567 68.5845 82.5127 68.5845ZM75.0977 68.5845C74.3537 68.5845 73.7487 67.9796 73.7487 67.2355C73.7487 66.4915 74.3537 65.8866 75.0977 65.8866C75.8417 65.8866 76.4467 66.4915 76.4467 67.2355C76.4467 67.9796 75.8417 68.5845 75.0977 68.5845ZM67.6817 68.5845C66.9377 68.5845 66.3327 67.9796 66.3327 67.2355C66.3327 66.4915 66.9377 65.8866 67.6817 65.8866C68.4257 65.8866 69.0307 66.4915 69.0307 67.2355C69.0307 67.9796 68.4257 68.5845 67.6817 68.5845ZM60.2667 68.5845C59.5227 68.5845 58.9177 67.9796 58.9177 67.2355C58.9177 66.4915 59.5227 65.8866 60.2667 65.8866C61.0107 65.8866 61.6157 66.4915 61.6157 67.2355C61.6157 67.9796 61.0097 68.5845 60.2667 68.5845ZM52.8507 68.5845C52.1067 68.5845 51.5017 67.9796 51.5017 67.2355C51.5017 66.4915 52.1067 65.8866 52.8507 65.8866C53.5947 65.8866 54.1997 66.4915 54.1997 67.2355C54.1997 67.9796 53.5947 68.5845 52.8507 68.5845ZM46.3547 68.5845C45.6107 68.5845 45.0057 67.9796 45.0057 67.2355C45.0057 66.4915 45.6107 65.8866 46.3547 65.8866C47.0987 65.8866 47.7037 66.4915 47.7037 67.2355C47.7037 67.9796 47.0987 68.5845 46.3547 68.5845ZM38.9387 68.5845C38.1947 68.5845 37.5897 67.9796 37.5897 67.2355C37.5897 66.4915 38.1947 65.8866 38.9387 65.8866C39.6827 65.8866 40.2877 66.4915 40.2877 67.2355C40.2877 67.9796 39.6827 68.5845 38.9387 68.5845ZM31.5237 68.5845C30.7797 68.5845 30.1747 67.9796 30.1747 67.2355C30.1747 66.4915 30.7797 65.8866 31.5237 65.8866C32.2677 65.8866 32.8727 66.4915 32.8727 67.2355C32.8727 67.9796 32.2677 68.5845 31.5237 68.5845ZM24.1077 68.5845C23.3637 68.5845 22.7587 67.9796 22.7587 67.2355C22.7587 66.4915 23.3637 65.8866 24.1077 65.8866C24.8517 65.8866 25.4567 66.4915 25.4567 67.2355C25.4567 67.9796 24.8517 68.5845 24.1077 68.5845ZM16.6927 68.5845C15.9487 68.5845 15.3437 67.9796 15.3437 67.2355C15.3437 66.4915 15.9487 65.8866 16.6927 65.8866C17.4367 65.8866 18.0417 66.4915 18.0417 67.2355C18.0417 67.9796 17.4367 68.5845 16.6927 68.5845ZM9.2767 68.5845C8.5327 68.5845 7.9277 67.9796 7.9277 67.2355C7.9277 66.4915 8.5327 65.8866 9.2767 65.8866C10.0207 65.8866 10.6257 66.4915 10.6257 67.2355C10.6257 67.9796 10.0207 68.5845 9.2767 68.5845ZM1.86169 68.5845C1.11769 68.5845 0.512695 67.9796 0.512695 67.2355C0.512695 66.4915 1.11769 65.8866 1.86169 65.8866C2.60569 65.8866 3.21069 66.4915 3.21069 67.2355C3.21069 67.9796 2.60569 68.5845 1.86169 68.5845ZM97.3437 61.4915C96.5997 61.4915 95.9947 60.8865 95.9947 60.1425C95.9947 59.3985 96.5997 58.7935 97.3437 58.7935C98.0877 58.7935 98.6927 59.3985 98.6927 60.1425C98.6927 60.8865 98.0877 61.4915 97.3437 61.4915ZM89.9277 61.4915C89.1837 61.4915 88.5787 60.8865 88.5787 60.1425C88.5787 59.3985 89.1837 58.7935 89.9277 58.7935C90.6717 58.7935 91.2767 59.3985 91.2767 60.1425C91.2777 60.8865 90.6727 61.4915 89.9277 61.4915ZM82.5127 61.4915C81.7687 61.4915 81.1637 60.8865 81.1637 60.1425C81.1637 59.3985 81.7687 58.7935 82.5127 58.7935C83.2567 58.7935 83.8617 59.3985 83.8617 60.1425C83.8617 60.8865 83.2567 61.4915 82.5127 61.4915ZM75.0977 61.4915C74.3537 61.4915 73.7487 60.8865 73.7487 60.1425C73.7487 59.3985 74.3537 58.7935 75.0977 58.7935C75.8417 58.7935 76.4467 59.3985 76.4467 60.1425C76.4467 60.8865 75.8417 61.4915 75.0977 61.4915ZM67.6817 61.4915C66.9377 61.4915 66.3327 60.8865 66.3327 60.1425C66.3327 59.3985 66.9377 58.7935 67.6817 58.7935C68.4257 58.7935 69.0307 59.3985 69.0307 60.1425C69.0307 60.8865 68.4257 61.4915 67.6817 61.4915ZM60.2667 61.4915C59.5227 61.4915 58.9177 60.8865 58.9177 60.1425C58.9177 59.3985 59.5227 58.7935 60.2667 58.7935C61.0107 58.7935 61.6157 59.3985 61.6157 60.1425C61.6157 60.8865 61.0097 61.4915 60.2667 61.4915ZM52.8507 61.4915C52.1067 61.4915 51.5017 60.8865 51.5017 60.1425C51.5017 59.3985 52.1067 58.7935 52.8507 58.7935C53.5947 58.7935 54.1997 59.3985 54.1997 60.1425C54.1997 60.8865 53.5947 61.4915 52.8507 61.4915ZM46.3547 61.4915C45.6107 61.4915 45.0057 60.8865 45.0057 60.1425C45.0057 59.3985 45.6107 58.7935 46.3547 58.7935C47.0987 58.7935 47.7037 59.3985 47.7037 60.1425C47.7037 60.8865 47.0987 61.4915 46.3547 61.4915ZM38.9387 61.4915C38.1947 61.4915 37.5897 60.8865 37.5897 60.1425C37.5897 59.3985 38.1947 58.7935 38.9387 58.7935C39.6827 58.7935 40.2877 59.3985 40.2877 60.1425C40.2877 60.8865 39.6827 61.4915 38.9387 61.4915ZM31.5237 61.4915C30.7797 61.4915 30.1747 60.8865 30.1747 60.1425C30.1747 59.3985 30.7797 58.7935 31.5237 58.7935C32.2677 58.7935 32.8727 59.3985 32.8727 60.1425C32.8727 60.8865 32.2677 61.4915 31.5237 61.4915ZM24.1077 61.4915C23.3637 61.4915 22.7587 60.8865 22.7587 60.1425C22.7587 59.3985 23.3637 58.7935 24.1077 58.7935C24.8517 58.7935 25.4567 59.3985 25.4567 60.1425C25.4567 60.8865 24.8517 61.4915 24.1077 61.4915ZM16.6927 61.4915C15.9487 61.4915 15.3437 60.8865 15.3437 60.1425C15.3437 59.3985 15.9487 58.7935 16.6927 58.7935C17.4367 58.7935 18.0417 59.3985 18.0417 60.1425C18.0417 60.8865 17.4367 61.4915 16.6927 61.4915ZM9.2767 61.4915C8.5327 61.4915 7.9277 60.8865 7.9277 60.1425C7.9277 59.3985 8.5327 58.7935 9.2767 58.7935C10.0207 58.7935 10.6257 59.3985 10.6257 60.1425C10.6257 60.8865 10.0207 61.4915 9.2767 61.4915ZM1.86169 61.4915C1.11769 61.4915 0.512695 60.8865 0.512695 60.1425C0.512695 59.3985 1.11769 58.7935 1.86169 58.7935C2.60569 58.7935 3.21069 59.3985 3.21069 60.1425C3.21069 60.8865 2.60569 61.4915 1.86169 61.4915ZM97.3437 54.3985C96.5997 54.3985 95.9947 53.7935 95.9947 53.0495C95.9947 52.3055 96.5997 51.7005 97.3437 51.7005C98.0877 51.7005 98.6927 52.3055 98.6927 53.0495C98.6927 53.7935 98.0877 54.3985 97.3437 54.3985ZM89.9277 54.3985C89.1837 54.3985 88.5787 53.7935 88.5787 53.0495C88.5787 52.3055 89.1837 51.7005 89.9277 51.7005C90.6717 51.7005 91.2767 52.3055 91.2767 53.0495C91.2777 53.7935 90.6727 54.3985 89.9277 54.3985ZM82.5127 54.3985C81.7687 54.3985 81.1637 53.7935 81.1637 53.0495C81.1637 52.3055 81.7687 51.7005 82.5127 51.7005C83.2567 51.7005 83.8617 52.3055 83.8617 53.0495C83.8617 53.7935 83.2567 54.3985 82.5127 54.3985ZM75.0977 54.3985C74.3537 54.3985 73.7487 53.7935 73.7487 53.0495C73.7487 52.3055 74.3537 51.7005 75.0977 51.7005C75.8417 51.7005 76.4467 52.3055 76.4467 53.0495C76.4467 53.7935 75.8417 54.3985 75.0977 54.3985ZM67.6817 54.3985C66.9377 54.3985 66.3327 53.7935 66.3327 53.0495C66.3327 52.3055 66.9377 51.7005 67.6817 51.7005C68.4257 51.7005 69.0307 52.3055 69.0307 53.0495C69.0307 53.7935 68.4257 54.3985 67.6817 54.3985ZM60.2667 54.3985C59.5227 54.3985 58.9177 53.7935 58.9177 53.0495C58.9177 52.3055 59.5227 51.7005 60.2667 51.7005C61.0107 51.7005 61.6157 52.3055 61.6157 53.0495C61.6157 53.7935 61.0097 54.3985 60.2667 54.3985ZM52.8507 54.3985C52.1067 54.3985 51.5017 53.7935 51.5017 53.0495C51.5017 52.3055 52.1067 51.7005 52.8507 51.7005C53.5947 51.7005 54.1997 52.3055 54.1997 53.0495C54.1997 53.7935 53.5947 54.3985 52.8507 54.3985ZM46.3547 54.3985C45.6107 54.3985 45.0057 53.7935 45.0057 53.0495C45.0057 52.3055 45.6107 51.7005 46.3547 51.7005C47.0987 51.7005 47.7037 52.3055 47.7037 53.0495C47.7037 53.7935 47.0987 54.3985 46.3547 54.3985ZM38.9387 54.3985C38.1947 54.3985 37.5897 53.7935 37.5897 53.0495C37.5897 52.3055 38.1947 51.7005 38.9387 51.7005C39.6827 51.7005 40.2877 52.3055 40.2877 53.0495C40.2877 53.7935 39.6827 54.3985 38.9387 54.3985ZM31.5237 54.3985C30.7797 54.3985 30.1747 53.7935 30.1747 53.0495C30.1747 52.3055 30.7797 51.7005 31.5237 51.7005C32.2677 51.7005 32.8727 52.3055 32.8727 53.0495C32.8727 53.7935 32.2677 54.3985 31.5237 54.3985ZM24.1077 54.3985C23.3637 54.3985 22.7587 53.7935 22.7587 53.0495C22.7587 52.3055 23.3637 51.7005 24.1077 51.7005C24.8517 51.7005 25.4567 52.3055 25.4567 53.0495C25.4567 53.7935 24.8517 54.3985 24.1077 54.3985ZM16.6927 54.3985C15.9487 54.3985 15.3437 53.7935 15.3437 53.0495C15.3437 52.3055 15.9487 51.7005 16.6927 51.7005C17.4367 51.7005 18.0417 52.3055 18.0417 53.0495C18.0417 53.7935 17.4367 54.3985 16.6927 54.3985ZM9.2767 54.3985C8.5327 54.3985 7.9277 53.7935 7.9277 53.0495C7.9277 52.3055 8.5327 51.7005 9.2767 51.7005C10.0207 51.7005 10.6257 52.3055 10.6257 53.0495C10.6257 53.7935 10.0207 54.3985 9.2767 54.3985ZM1.86169 54.3985C1.11769 54.3985 0.512695 53.7935 0.512695 53.0495C0.512695 52.3055 1.11769 51.7005 1.86169 51.7005C2.60569 51.7005 3.21069 52.3055 3.21069 53.0495C3.21069 53.7935 2.60569 54.3985 1.86169 54.3985ZM97.3437 47.6916C96.5997 47.6916 95.9947 47.0865 95.9947 46.3425C95.9947 45.5985 96.5997 44.9935 97.3437 44.9935C98.0877 44.9935 98.6927 45.5985 98.6927 46.3425C98.6927 47.0865 98.0877 47.6916 97.3437 47.6916ZM89.9277 47.6916C89.1837 47.6916 88.5787 47.0865 88.5787 46.3425C88.5787 45.5985 89.1837 44.9935 89.9277 44.9935C90.6717 44.9935 91.2767 45.5985 91.2767 46.3425C91.2777 47.0865 90.6727 47.6916 89.9277 47.6916ZM82.5127 47.6916C81.7687 47.6916 81.1637 47.0865 81.1637 46.3425C81.1637 45.5985 81.7687 44.9935 82.5127 44.9935C83.2567 44.9935 83.8617 45.5985 83.8617 46.3425C83.8617 47.0865 83.2567 47.6916 82.5127 47.6916ZM75.0977 47.6916C74.3537 47.6916 73.7487 47.0865 73.7487 46.3425C73.7487 45.5985 74.3537 44.9935 75.0977 44.9935C75.8417 44.9935 76.4467 45.5985 76.4467 46.3425C76.4467 47.0865 75.8417 47.6916 75.0977 47.6916ZM67.6817 47.6916C66.9377 47.6916 66.3327 47.0865 66.3327 46.3425C66.3327 45.5985 66.9377 44.9935 67.6817 44.9935C68.4257 44.9935 69.0307 45.5985 69.0307 46.3425C69.0307 47.0865 68.4257 47.6916 67.6817 47.6916ZM60.2667 47.6916C59.5227 47.6916 58.9177 47.0865 58.9177 46.3425C58.9177 45.5985 59.5227 44.9935 60.2667 44.9935C61.0107 44.9935 61.6157 45.5985 61.6157 46.3425C61.6157 47.0865 61.0097 47.6916 60.2667 47.6916ZM52.8507 47.6916C52.1067 47.6916 51.5017 47.0865 51.5017 46.3425C51.5017 45.5985 52.1067 44.9935 52.8507 44.9935C53.5947 44.9935 54.1997 45.5985 54.1997 46.3425C54.1997 47.0865 53.5947 47.6916 52.8507 47.6916ZM46.3547 47.6916C45.6107 47.6916 45.0057 47.0865 45.0057 46.3425C45.0057 45.5985 45.6107 44.9935 46.3547 44.9935C47.0987 44.9935 47.7037 45.5985 47.7037 46.3425C47.7037 47.0865 47.0987 47.6916 46.3547 47.6916ZM38.9387 47.6916C38.1947 47.6916 37.5897 47.0865 37.5897 46.3425C37.5897 45.5985 38.1947 44.9935 38.9387 44.9935C39.6827 44.9935 40.2877 45.5985 40.2877 46.3425C40.2877 47.0865 39.6827 47.6916 38.9387 47.6916ZM31.5237 47.6916C30.7797 47.6916 30.1747 47.0865 30.1747 46.3425C30.1747 45.5985 30.7797 44.9935 31.5237 44.9935C32.2677 44.9935 32.8727 45.5985 32.8727 46.3425C32.8727 47.0865 32.2677 47.6916 31.5237 47.6916ZM24.1077 47.6916C23.3637 47.6916 22.7587 47.0865 22.7587 46.3425C22.7587 45.5985 23.3637 44.9935 24.1077 44.9935C24.8517 44.9935 25.4567 45.5985 25.4567 46.3425C25.4567 47.0865 24.8517 47.6916 24.1077 47.6916ZM16.6927 47.6916C15.9487 47.6916 15.3437 47.0865 15.3437 46.3425C15.3437 45.5985 15.9487 44.9935 16.6927 44.9935C17.4367 44.9935 18.0417 45.5985 18.0417 46.3425C18.0417 47.0865 17.4367 47.6916 16.6927 47.6916ZM9.2767 47.6916C8.5327 47.6916 7.9277 47.0865 7.9277 46.3425C7.9277 45.5985 8.5327 44.9935 9.2767 44.9935C10.0207 44.9935 10.6257 45.5985 10.6257 46.3425C10.6257 47.0865 10.0207 47.6916 9.2767 47.6916ZM1.86169 47.6916C1.11769 47.6916 0.512695 47.0865 0.512695 46.3425C0.512695 45.5985 1.11769 44.9935 1.86169 44.9935C2.60569 44.9935 3.21069 45.5985 3.21069 46.3425C3.21069 47.0865 2.60569 47.6916 1.86169 47.6916ZM97.3437 40.5986C96.5997 40.5986 95.9947 39.9936 95.9947 39.2496C95.9947 38.5056 96.5997 37.9006 97.3437 37.9006C98.0877 37.9006 98.6927 38.5056 98.6927 39.2496C98.6927 39.9936 98.0877 40.5986 97.3437 40.5986ZM89.9277 40.5986C89.1837 40.5986 88.5787 39.9936 88.5787 39.2496C88.5787 38.5056 89.1837 37.9006 89.9277 37.9006C90.6717 37.9006 91.2767 38.5056 91.2767 39.2496C91.2777 39.9936 90.6727 40.5986 89.9277 40.5986ZM82.5127 40.5986C81.7687 40.5986 81.1637 39.9936 81.1637 39.2496C81.1637 38.5056 81.7687 37.9006 82.5127 37.9006C83.2567 37.9006 83.8617 38.5056 83.8617 39.2496C83.8617 39.9936 83.2567 40.5986 82.5127 40.5986ZM75.0977 40.5986C74.3537 40.5986 73.7487 39.9936 73.7487 39.2496C73.7487 38.5056 74.3537 37.9006 75.0977 37.9006C75.8417 37.9006 76.4467 38.5056 76.4467 39.2496C76.4467 39.9936 75.8417 40.5986 75.0977 40.5986ZM67.6817 40.5986C66.9377 40.5986 66.3327 39.9936 66.3327 39.2496C66.3327 38.5056 66.9377 37.9006 67.6817 37.9006C68.4257 37.9006 69.0307 38.5056 69.0307 39.2496C69.0307 39.9936 68.4257 40.5986 67.6817 40.5986ZM60.2667 40.5986C59.5227 40.5986 58.9177 39.9936 58.9177 39.2496C58.9177 38.5056 59.5227 37.9006 60.2667 37.9006C61.0107 37.9006 61.6157 38.5056 61.6157 39.2496C61.6157 39.9936 61.0097 40.5986 60.2667 40.5986ZM52.8507 40.5986C52.1067 40.5986 51.5017 39.9936 51.5017 39.2496C51.5017 38.5056 52.1067 37.9006 52.8507 37.9006C53.5947 37.9006 54.1997 38.5056 54.1997 39.2496C54.1997 39.9936 53.5947 40.5986 52.8507 40.5986ZM46.3547 40.5986C45.6107 40.5986 45.0057 39.9936 45.0057 39.2496C45.0057 38.5056 45.6107 37.9006 46.3547 37.9006C47.0987 37.9006 47.7037 38.5056 47.7037 39.2496C47.7037 39.9936 47.0987 40.5986 46.3547 40.5986ZM38.9387 40.5986C38.1947 40.5986 37.5897 39.9936 37.5897 39.2496C37.5897 38.5056 38.1947 37.9006 38.9387 37.9006C39.6827 37.9006 40.2877 38.5056 40.2877 39.2496C40.2877 39.9936 39.6827 40.5986 38.9387 40.5986ZM31.5237 40.5986C30.7797 40.5986 30.1747 39.9936 30.1747 39.2496C30.1747 38.5056 30.7797 37.9006 31.5237 37.9006C32.2677 37.9006 32.8727 38.5056 32.8727 39.2496C32.8727 39.9936 32.2677 40.5986 31.5237 40.5986ZM24.1077 40.5986C23.3637 40.5986 22.7587 39.9936 22.7587 39.2496C22.7587 38.5056 23.3637 37.9006 24.1077 37.9006C24.8517 37.9006 25.4567 38.5056 25.4567 39.2496C25.4567 39.9936 24.8517 40.5986 24.1077 40.5986ZM16.6927 40.5986C15.9487 40.5986 15.3437 39.9936 15.3437 39.2496C15.3437 38.5056 15.9487 37.9006 16.6927 37.9006C17.4367 37.9006 18.0417 38.5056 18.0417 39.2496C18.0417 39.9936 17.4367 40.5986 16.6927 40.5986ZM9.2767 40.5986C8.5327 40.5986 7.9277 39.9936 7.9277 39.2496C7.9277 38.5056 8.5327 37.9006 9.2767 37.9006C10.0207 37.9006 10.6257 38.5056 10.6257 39.2496C10.6257 39.9936 10.0207 40.5986 9.2767 40.5986ZM1.86169 40.5986C1.11769 40.5986 0.512695 39.9936 0.512695 39.2496C0.512695 38.5056 1.11769 37.9006 1.86169 37.9006C2.60569 37.9006 3.21069 38.5056 3.21069 39.2496C3.21069 39.9936 2.60569 40.5986 1.86169 40.5986ZM97.3437 33.5056C96.5997 33.5056 95.9947 32.9006 95.9947 32.1566C95.9947 31.4126 96.5997 30.8076 97.3437 30.8076C98.0877 30.8076 98.6927 31.4126 98.6927 32.1566C98.6927 32.9006 98.0877 33.5056 97.3437 33.5056ZM89.9277 33.5056C89.1837 33.5056 88.5787 32.9006 88.5787 32.1566C88.5787 31.4126 89.1837 30.8076 89.9277 30.8076C90.6717 30.8076 91.2767 31.4126 91.2767 32.1566C91.2777 32.9006 90.6727 33.5056 89.9277 33.5056ZM82.5127 33.5056C81.7687 33.5056 81.1637 32.9006 81.1637 32.1566C81.1637 31.4126 81.7687 30.8076 82.5127 30.8076C83.2567 30.8076 83.8617 31.4126 83.8617 32.1566C83.8617 32.9006 83.2567 33.5056 82.5127 33.5056ZM75.0977 33.5056C74.3537 33.5056 73.7487 32.9006 73.7487 32.1566C73.7487 31.4126 74.3537 30.8076 75.0977 30.8076C75.8417 30.8076 76.4467 31.4126 76.4467 32.1566C76.4467 32.9006 75.8417 33.5056 75.0977 33.5056ZM67.6817 33.5056C66.9377 33.5056 66.3327 32.9006 66.3327 32.1566C66.3327 31.4126 66.9377 30.8076 67.6817 30.8076C68.4257 30.8076 69.0307 31.4126 69.0307 32.1566C69.0307 32.9006 68.4257 33.5056 67.6817 33.5056ZM60.2667 33.5056C59.5227 33.5056 58.9177 32.9006 58.9177 32.1566C58.9177 31.4126 59.5227 30.8076 60.2667 30.8076C61.0107 30.8076 61.6157 31.4126 61.6157 32.1566C61.6157 32.9006 61.0097 33.5056 60.2667 33.5056ZM52.8507 33.5056C52.1067 33.5056 51.5017 32.9006 51.5017 32.1566C51.5017 31.4126 52.1067 30.8076 52.8507 30.8076C53.5947 30.8076 54.1997 31.4126 54.1997 32.1566C54.1997 32.9006 53.5947 33.5056 52.8507 33.5056ZM46.3547 33.5056C45.6107 33.5056 45.0057 32.9006 45.0057 32.1566C45.0057 31.4126 45.6107 30.8076 46.3547 30.8076C47.0987 30.8076 47.7037 31.4126 47.7037 32.1566C47.7037 32.9006 47.0987 33.5056 46.3547 33.5056ZM38.9387 33.5056C38.1947 33.5056 37.5897 32.9006 37.5897 32.1566C37.5897 31.4126 38.1947 30.8076 38.9387 30.8076C39.6827 30.8076 40.2877 31.4126 40.2877 32.1566C40.2877 32.9006 39.6827 33.5056 38.9387 33.5056ZM31.5237 33.5056C30.7797 33.5056 30.1747 32.9006 30.1747 32.1566C30.1747 31.4126 30.7797 30.8076 31.5237 30.8076C32.2677 30.8076 32.8727 31.4126 32.8727 32.1566C32.8727 32.9006 32.2677 33.5056 31.5237 33.5056ZM24.1077 33.5056C23.3637 33.5056 22.7587 32.9006 22.7587 32.1566C22.7587 31.4126 23.3637 30.8076 24.1077 30.8076C24.8517 30.8076 25.4567 31.4126 25.4567 32.1566C25.4567 32.9006 24.8517 33.5056 24.1077 33.5056ZM16.6927 33.5056C15.9487 33.5056 15.3437 32.9006 15.3437 32.1566C15.3437 31.4126 15.9487 30.8076 16.6927 30.8076C17.4367 30.8076 18.0417 31.4126 18.0417 32.1566C18.0417 32.9006 17.4367 33.5056 16.6927 33.5056ZM9.2767 33.5056C8.5327 33.5056 7.9277 32.9006 7.9277 32.1566C7.9277 31.4126 8.5327 30.8076 9.2767 30.8076C10.0207 30.8076 10.6257 31.4126 10.6257 32.1566C10.6257 32.9006 10.0207 33.5056 9.2767 33.5056ZM1.86169 33.5056C1.11769 33.5056 0.512695 32.9006 0.512695 32.1566C0.512695 31.4126 1.11769 30.8076 1.86169 30.8076C2.60569 30.8076 3.21069 31.4126 3.21069 32.1566C3.21069 32.9006 2.60569 33.5056 1.86169 33.5056ZM97.3437 26.4115C96.5997 26.4115 95.9947 25.8065 95.9947 25.0625C95.9947 24.3185 96.5997 23.7135 97.3437 23.7135C98.0877 23.7135 98.6927 24.3185 98.6927 25.0625C98.6927 25.8065 98.0877 26.4115 97.3437 26.4115ZM89.9277 26.4115C89.1837 26.4115 88.5787 25.8065 88.5787 25.0625C88.5787 24.3185 89.1837 23.7135 89.9277 23.7135C90.6717 23.7135 91.2767 24.3185 91.2767 25.0625C91.2777 25.8065 90.6727 26.4115 89.9277 26.4115ZM82.5127 26.4115C81.7687 26.4115 81.1637 25.8065 81.1637 25.0625C81.1637 24.3185 81.7687 23.7135 82.5127 23.7135C83.2567 23.7135 83.8617 24.3185 83.8617 25.0625C83.8617 25.8065 83.2567 26.4115 82.5127 26.4115ZM75.0977 26.4115C74.3537 26.4115 73.7487 25.8065 73.7487 25.0625C73.7487 24.3185 74.3537 23.7135 75.0977 23.7135C75.8417 23.7135 76.4467 24.3185 76.4467 25.0625C76.4467 25.8065 75.8417 26.4115 75.0977 26.4115ZM67.6817 26.4115C66.9377 26.4115 66.3327 25.8065 66.3327 25.0625C66.3327 24.3185 66.9377 23.7135 67.6817 23.7135C68.4257 23.7135 69.0307 24.3185 69.0307 25.0625C69.0307 25.8065 68.4257 26.4115 67.6817 26.4115ZM60.2667 26.4115C59.5227 26.4115 58.9177 25.8065 58.9177 25.0625C58.9177 24.3185 59.5227 23.7135 60.2667 23.7135C61.0107 23.7135 61.6157 24.3185 61.6157 25.0625C61.6157 25.8065 61.0097 26.4115 60.2667 26.4115ZM52.8507 26.4115C52.1067 26.4115 51.5017 25.8065 51.5017 25.0625C51.5017 24.3185 52.1067 23.7135 52.8507 23.7135C53.5947 23.7135 54.1997 24.3185 54.1997 25.0625C54.1997 25.8065 53.5947 26.4115 52.8507 26.4115ZM46.3547 26.4115C45.6107 26.4115 45.0057 25.8065 45.0057 25.0625C45.0057 24.3185 45.6107 23.7135 46.3547 23.7135C47.0987 23.7135 47.7037 24.3185 47.7037 25.0625C47.7037 25.8065 47.0987 26.4115 46.3547 26.4115ZM38.9387 26.4115C38.1947 26.4115 37.5897 25.8065 37.5897 25.0625C37.5897 24.3185 38.1947 23.7135 38.9387 23.7135C39.6827 23.7135 40.2877 24.3185 40.2877 25.0625C40.2877 25.8065 39.6827 26.4115 38.9387 26.4115ZM31.5237 26.4115C30.7797 26.4115 30.1747 25.8065 30.1747 25.0625C30.1747 24.3185 30.7797 23.7135 31.5237 23.7135C32.2677 23.7135 32.8727 24.3185 32.8727 25.0625C32.8727 25.8065 32.2677 26.4115 31.5237 26.4115ZM24.1077 26.4115C23.3637 26.4115 22.7587 25.8065 22.7587 25.0625C22.7587 24.3185 23.3637 23.7135 24.1077 23.7135C24.8517 23.7135 25.4567 24.3185 25.4567 25.0625C25.4567 25.8065 24.8517 26.4115 24.1077 26.4115ZM16.6927 26.4115C15.9487 26.4115 15.3437 25.8065 15.3437 25.0625C15.3437 24.3185 15.9487 23.7135 16.6927 23.7135C17.4367 23.7135 18.0417 24.3185 18.0417 25.0625C18.0417 25.8065 17.4367 26.4115 16.6927 26.4115ZM9.2767 26.4115C8.5327 26.4115 7.9277 25.8065 7.9277 25.0625C7.9277 24.3185 8.5327 23.7135 9.2767 23.7135C10.0207 23.7135 10.6257 24.3185 10.6257 25.0625C10.6257 25.8065 10.0207 26.4115 9.2767 26.4115ZM1.86169 26.4115C1.11769 26.4115 0.512695 25.8065 0.512695 25.0625C0.512695 24.3185 1.11769 23.7135 1.86169 23.7135C2.60569 23.7135 3.21069 24.3185 3.21069 25.0625C3.21069 25.8065 2.60569 26.4115 1.86169 26.4115ZM97.3437 19.3195C96.5997 19.3195 95.9947 18.7146 95.9947 17.9706C95.9947 17.2266 96.5997 16.6216 97.3437 16.6216C98.0877 16.6216 98.6927 17.2266 98.6927 17.9706C98.6927 18.7146 98.0877 19.3195 97.3437 19.3195ZM89.9277 19.3195C89.1837 19.3195 88.5787 18.7146 88.5787 17.9706C88.5787 17.2266 89.1837 16.6216 89.9277 16.6216C90.6717 16.6216 91.2767 17.2266 91.2767 17.9706C91.2777 18.7146 90.6727 19.3195 89.9277 19.3195ZM82.5127 19.3195C81.7687 19.3195 81.1637 18.7146 81.1637 17.9706C81.1637 17.2266 81.7687 16.6216 82.5127 16.6216C83.2567 16.6216 83.8617 17.2266 83.8617 17.9706C83.8617 18.7146 83.2567 19.3195 82.5127 19.3195ZM75.0977 19.3195C74.3537 19.3195 73.7487 18.7146 73.7487 17.9706C73.7487 17.2266 74.3537 16.6216 75.0977 16.6216C75.8417 16.6216 76.4467 17.2266 76.4467 17.9706C76.4467 18.7146 75.8417 19.3195 75.0977 19.3195ZM67.6817 19.3195C66.9377 19.3195 66.3327 18.7146 66.3327 17.9706C66.3327 17.2266 66.9377 16.6216 67.6817 16.6216C68.4257 16.6216 69.0307 17.2266 69.0307 17.9706C69.0307 18.7146 68.4257 19.3195 67.6817 19.3195ZM60.2667 19.3195C59.5227 19.3195 58.9177 18.7146 58.9177 17.9706C58.9177 17.2266 59.5227 16.6216 60.2667 16.6216C61.0107 16.6216 61.6157 17.2266 61.6157 17.9706C61.6157 18.7146 61.0097 19.3195 60.2667 19.3195ZM52.8507 19.3195C52.1067 19.3195 51.5017 18.7146 51.5017 17.9706C51.5017 17.2266 52.1067 16.6216 52.8507 16.6216C53.5947 16.6216 54.1997 17.2266 54.1997 17.9706C54.1997 18.7146 53.5947 19.3195 52.8507 19.3195ZM46.3547 19.3195C45.6107 19.3195 45.0057 18.7146 45.0057 17.9706C45.0057 17.2266 45.6107 16.6216 46.3547 16.6216C47.0987 16.6216 47.7037 17.2266 47.7037 17.9706C47.7037 18.7146 47.0987 19.3195 46.3547 19.3195ZM38.9387 19.3195C38.1947 19.3195 37.5897 18.7146 37.5897 17.9706C37.5897 17.2266 38.1947 16.6216 38.9387 16.6216C39.6827 16.6216 40.2877 17.2266 40.2877 17.9706C40.2877 18.7146 39.6827 19.3195 38.9387 19.3195ZM31.5237 19.3195C30.7797 19.3195 30.1747 18.7146 30.1747 17.9706C30.1747 17.2266 30.7797 16.6216 31.5237 16.6216C32.2677 16.6216 32.8727 17.2266 32.8727 17.9706C32.8727 18.7146 32.2677 19.3195 31.5237 19.3195ZM24.1077 19.3195C23.3637 19.3195 22.7587 18.7146 22.7587 17.9706C22.7587 17.2266 23.3637 16.6216 24.1077 16.6216C24.8517 16.6216 25.4567 17.2266 25.4567 17.9706C25.4567 18.7146 24.8517 19.3195 24.1077 19.3195ZM16.6927 19.3195C15.9487 19.3195 15.3437 18.7146 15.3437 17.9706C15.3437 17.2266 15.9487 16.6216 16.6927 16.6216C17.4367 16.6216 18.0417 17.2266 18.0417 17.9706C18.0417 18.7146 17.4367 19.3195 16.6927 19.3195ZM9.2767 19.3195C8.5327 19.3195 7.9277 18.7146 7.9277 17.9706C7.9277 17.2266 8.5327 16.6216 9.2767 16.6216C10.0207 16.6216 10.6257 17.2266 10.6257 17.9706C10.6257 18.7146 10.0207 19.3195 9.2767 19.3195ZM1.86169 19.3195C1.11769 19.3195 0.512695 18.7146 0.512695 17.9706C0.512695 17.2266 1.11769 16.6216 1.86169 16.6216C2.60569 16.6216 3.21069 17.2266 3.21069 17.9706C3.21069 18.7146 2.60569 19.3195 1.86169 19.3195ZM97.3437 12.2256C96.5997 12.2256 95.9947 11.6206 95.9947 10.8766C95.9947 10.1326 96.5997 9.52756 97.3437 9.52756C98.0877 9.52756 98.6927 10.1326 98.6927 10.8766C98.6927 11.6206 98.0877 12.2256 97.3437 12.2256ZM89.9277 12.2256C89.1837 12.2256 88.5787 11.6206 88.5787 10.8766C88.5787 10.1326 89.1837 9.52756 89.9277 9.52756C90.6717 9.52756 91.2767 10.1326 91.2767 10.8766C91.2777 11.6206 90.6727 12.2256 89.9277 12.2256ZM82.5127 12.2256C81.7687 12.2256 81.1637 11.6206 81.1637 10.8766C81.1637 10.1326 81.7687 9.52756 82.5127 9.52756C83.2567 9.52756 83.8617 10.1326 83.8617 10.8766C83.8617 11.6206 83.2567 12.2256 82.5127 12.2256ZM75.0977 12.2256C74.3537 12.2256 73.7487 11.6206 73.7487 10.8766C73.7487 10.1326 74.3537 9.52756 75.0977 9.52756C75.8417 9.52756 76.4467 10.1326 76.4467 10.8766C76.4467 11.6206 75.8417 12.2256 75.0977 12.2256ZM67.6817 12.2256C66.9377 12.2256 66.3327 11.6206 66.3327 10.8766C66.3327 10.1326 66.9377 9.52756 67.6817 9.52756C68.4257 9.52756 69.0307 10.1326 69.0307 10.8766C69.0307 11.6206 68.4257 12.2256 67.6817 12.2256ZM60.2667 12.2256C59.5227 12.2256 58.9177 11.6206 58.9177 10.8766C58.9177 10.1326 59.5227 9.52756 60.2667 9.52756C61.0107 9.52756 61.6157 10.1326 61.6157 10.8766C61.6157 11.6206 61.0097 12.2256 60.2667 12.2256ZM52.8507 12.2256C52.1067 12.2256 51.5017 11.6206 51.5017 10.8766C51.5017 10.1326 52.1067 9.52756 52.8507 9.52756C53.5947 9.52756 54.1997 10.1326 54.1997 10.8766C54.1997 11.6206 53.5947 12.2256 52.8507 12.2256ZM46.3547 12.2256C45.6107 12.2256 45.0057 11.6206 45.0057 10.8766C45.0057 10.1326 45.6107 9.52756 46.3547 9.52756C47.0987 9.52756 47.7037 10.1326 47.7037 10.8766C47.7037 11.6206 47.0987 12.2256 46.3547 12.2256ZM38.9387 12.2256C38.1947 12.2256 37.5897 11.6206 37.5897 10.8766C37.5897 10.1326 38.1947 9.52756 38.9387 9.52756C39.6827 9.52756 40.2877 10.1326 40.2877 10.8766C40.2877 11.6206 39.6827 12.2256 38.9387 12.2256ZM31.5237 12.2256C30.7797 12.2256 30.1747 11.6206 30.1747 10.8766C30.1747 10.1326 30.7797 9.52756 31.5237 9.52756C32.2677 9.52756 32.8727 10.1326 32.8727 10.8766C32.8727 11.6206 32.2677 12.2256 31.5237 12.2256ZM24.1077 12.2256C23.3637 12.2256 22.7587 11.6206 22.7587 10.8766C22.7587 10.1326 23.3637 9.52756 24.1077 9.52756C24.8517 9.52756 25.4567 10.1326 25.4567 10.8766C25.4567 11.6206 24.8517 12.2256 24.1077 12.2256ZM16.6927 12.2256C15.9487 12.2256 15.3437 11.6206 15.3437 10.8766C15.3437 10.1326 15.9487 9.52756 16.6927 9.52756C17.4367 9.52756 18.0417 10.1326 18.0417 10.8766C18.0417 11.6206 17.4367 12.2256 16.6927 12.2256ZM9.2767 12.2256C8.5327 12.2256 7.9277 11.6206 7.9277 10.8766C7.9277 10.1326 8.5327 9.52756 9.2767 9.52756C10.0207 9.52756 10.6257 10.1326 10.6257 10.8766C10.6257 11.6206 10.0207 12.2256 9.2767 12.2256ZM1.86169 12.2256C1.11769 12.2256 0.512695 11.6206 0.512695 10.8766C0.512695 10.1326 1.11769 9.52756 1.86169 9.52756C2.60569 9.52756 3.21069 10.1326 3.21069 10.8766C3.21069 11.6206 2.60569 12.2256 1.86169 12.2256ZM97.3437 5.13354C96.5997 5.13354 95.9947 4.52855 95.9947 3.78455C95.9947 3.04055 96.5997 2.43555 97.3437 2.43555C98.0877 2.43555 98.6927 3.04055 98.6927 3.78455C98.6927 4.52855 98.0877 5.13354 97.3437 5.13354ZM89.9277 5.13354C89.1837 5.13354 88.5787 4.52855 88.5787 3.78455C88.5787 3.04055 89.1837 2.43555 89.9277 2.43555C90.6717 2.43555 91.2767 3.04055 91.2767 3.78455C91.2777 4.52855 90.6727 5.13354 89.9277 5.13354ZM82.5127 5.13354C81.7687 5.13354 81.1637 4.52855 81.1637 3.78455C81.1637 3.04055 81.7687 2.43555 82.5127 2.43555C83.2567 2.43555 83.8617 3.04055 83.8617 3.78455C83.8617 4.52855 83.2567 5.13354 82.5127 5.13354ZM75.0977 5.13354C74.3537 5.13354 73.7487 4.52855 73.7487 3.78455C73.7487 3.04055 74.3537 2.43555 75.0977 2.43555C75.8417 2.43555 76.4467 3.04055 76.4467 3.78455C76.4467 4.52855 75.8417 5.13354 75.0977 5.13354ZM67.6817 5.13354C66.9377 5.13354 66.3327 4.52855 66.3327 3.78455C66.3327 3.04055 66.9377 2.43555 67.6817 2.43555C68.4257 2.43555 69.0307 3.04055 69.0307 3.78455C69.0307 4.52855 68.4257 5.13354 67.6817 5.13354ZM60.2667 5.13354C59.5227 5.13354 58.9177 4.52855 58.9177 3.78455C58.9177 3.04055 59.5227 2.43555 60.2667 2.43555C61.0107 2.43555 61.6157 3.04055 61.6157 3.78455C61.6157 4.52855 61.0097 5.13354 60.2667 5.13354ZM52.8507 5.13354C52.1067 5.13354 51.5017 4.52855 51.5017 3.78455C51.5017 3.04055 52.1067 2.43555 52.8507 2.43555C53.5947 2.43555 54.1997 3.04055 54.1997 3.78455C54.1997 4.52855 53.5947 5.13354 52.8507 5.13354ZM46.3547 5.13354C45.6107 5.13354 45.0057 4.52855 45.0057 3.78455C45.0057 3.04055 45.6107 2.43555 46.3547 2.43555C47.0987 2.43555 47.7037 3.04055 47.7037 3.78455C47.7037 4.52855 47.0987 5.13354 46.3547 5.13354ZM38.9387 5.13354C38.1947 5.13354 37.5897 4.52855 37.5897 3.78455C37.5897 3.04055 38.1947 2.43555 38.9387 2.43555C39.6827 2.43555 40.2877 3.04055 40.2877 3.78455C40.2877 4.52855 39.6827 5.13354 38.9387 5.13354ZM31.5237 5.13354C30.7797 5.13354 30.1747 4.52855 30.1747 3.78455C30.1747 3.04055 30.7797 2.43555 31.5237 2.43555C32.2677 2.43555 32.8727 3.04055 32.8727 3.78455C32.8727 4.52855 32.2677 5.13354 31.5237 5.13354ZM24.1077 5.13354C23.3637 5.13354 22.7587 4.52855 22.7587 3.78455C22.7587 3.04055 23.3637 2.43555 24.1077 2.43555C24.8517 2.43555 25.4567 3.04055 25.4567 3.78455C25.4567 4.52855 24.8517 5.13354 24.1077 5.13354ZM16.6927 5.13354C15.9487 5.13354 15.3437 4.52855 15.3437 3.78455C15.3437 3.04055 15.9487 2.43555 16.6927 2.43555C17.4367 2.43555 18.0417 3.04055 18.0417 3.78455C18.0417 4.52855 17.4367 5.13354 16.6927 5.13354ZM9.2767 5.13354C8.5327 5.13354 7.9277 4.52855 7.9277 3.78455C7.9277 3.04055 8.5327 2.43555 9.2767 2.43555C10.0207 2.43555 10.6257 3.04055 10.6257 3.78455C10.6257 4.52855 10.0207 5.13354 9.2767 5.13354ZM1.86169 5.13354C1.11769 5.13354 0.512695 4.52855 0.512695 3.78455C0.512695 3.04055 1.11769 2.43555 1.86169 2.43555C2.60569 2.43555 3.21069 3.04055 3.21069 3.78455C3.21069 4.52855 2.60569 5.13354 1.86169 5.13354Z" fill="white"/>
</g>
</g>
</svg>
