<svg width="100" height="100" viewBox="0 0 100 100" fill="none" xmlns="http://www.w3.org/2000/svg">
<g opacity="0.66">
<mask id="mask0_798_13439" style="mask-type:luminance" maskUnits="userSpaceOnUse" x="0" y="0" width="100" height="100">
<path d="M99.168 49.7279C100.29 82.8779 76.968 99.3119 49.584 99.3119C22.2 99.3119 0 81.3569 0 49.7279C0 24.0309 20.591 -2.17913 49.584 0.143867C80.031 2.58287 98.089 17.8709 99.168 49.7279Z" fill="white"/>
</mask>
<g mask="url(#mask0_798_13439)">
<path d="M97.3437 96.957C96.5997 96.957 95.9947 96.3521 95.9947 95.608C95.9947 94.864 96.5997 94.259 97.3437 94.259C98.0877 94.259 98.6927 94.864 98.6927 95.608C98.6927 96.3521 98.0877 96.957 97.3437 96.957ZM89.9277 96.957C89.1837 96.957 88.5787 96.3521 88.5787 95.608C88.5787 94.864 89.1837 94.259 89.9277 94.259C90.6717 94.259 91.2767 94.864 91.2767 95.608C91.2777 96.3521 90.6727 96.957 89.9277 96.957ZM82.5127 96.957C81.7687 96.957 81.1637 96.3521 81.1637 95.608C81.1637 94.864 81.7687 94.259 82.5127 94.259C83.2567 94.259 83.8617 94.864 83.8617 95.608C83.8617 96.3521 83.2567 96.957 82.5127 96.957ZM75.0977 96.957C74.3537 96.957 73.7487 96.3521 73.7487 95.608C73.7487 94.864 74.3537 94.259 75.0977 94.259C75.8417 94.259 76.4467 94.864 76.4467 95.608C76.4467 96.3521 75.8417 96.957 75.0977 96.957ZM67.6817 96.957C66.9377 96.957 66.3327 96.3521 66.3327 95.608C66.3327 94.864 66.9377 94.259 67.6817 94.259C68.4257 94.259 69.0307 94.864 69.0307 95.608C69.0307 96.3521 68.4257 96.957 67.6817 96.957ZM60.2667 96.957C59.5227 96.957 58.9177 96.3521 58.9177 95.608C58.9177 94.864 59.5227 94.259 60.2667 94.259C61.0107 94.259 61.6157 94.864 61.6157 95.608C61.6157 96.3521 61.0097 96.957 60.2667 96.957ZM52.8507 96.957C52.1067 96.957 51.5017 96.3521 51.5017 95.608C51.5017 94.864 52.1067 94.259 52.8507 94.259C53.5947 94.259 54.1997 94.864 54.1997 95.608C54.1997 96.3521 53.5947 96.957 52.8507 96.957ZM46.3547 96.957C45.6107 96.957 45.0057 96.3521 45.0057 95.608C45.0057 94.864 45.6107 94.259 46.3547 94.259C47.0987 94.259 47.7037 94.864 47.7037 95.608C47.7037 96.3521 47.0987 96.957 46.3547 96.957ZM38.9387 96.957C38.1947 96.957 37.5897 96.3521 37.5897 95.608C37.5897 94.864 38.1947 94.259 38.9387 94.259C39.6827 94.259 40.2877 94.864 40.2877 95.608C40.2877 96.3521 39.6827 96.957 38.9387 96.957ZM31.5237 96.957C30.7797 96.957 30.1747 96.3521 30.1747 95.608C30.1747 94.864 30.7797 94.259 31.5237 94.259C32.2677 94.259 32.8727 94.864 32.8727 95.608C32.8727 96.3521 32.2677 96.957 31.5237 96.957ZM24.1077 96.957C23.3637 96.957 22.7587 96.3521 22.7587 95.608C22.7587 94.864 23.3637 94.259 24.1077 94.259C24.8517 94.259 25.4567 94.864 25.4567 95.608C25.4567 96.3521 24.8517 96.957 24.1077 96.957ZM16.6927 96.957C15.9487 96.957 15.3437 96.3521 15.3437 95.608C15.3437 94.864 15.9487 94.259 16.6927 94.259C17.4367 94.259 18.0417 94.864 18.0417 95.608C18.0417 96.3521 17.4367 96.957 16.6927 96.957ZM9.2767 96.957C8.5327 96.957 7.9277 96.3521 7.9277 95.608C7.9277 94.864 8.5327 94.259 9.2767 94.259C10.0207 94.259 10.6257 94.864 10.6257 95.608C10.6257 96.3521 10.0207 96.957 9.2767 96.957ZM1.86169 96.957C1.11769 96.957 0.512695 96.3521 0.512695 95.608C0.512695 94.864 1.11769 94.259 1.86169 94.259C2.60569 94.259 3.21069 94.864 3.21069 95.608C3.21069 96.3521 2.60569 96.957 1.86169 96.957ZM97.3437 89.865C96.5997 89.865 95.9947 89.26 95.9947 88.516C95.9947 87.772 96.5997 87.167 97.3437 87.167C98.0877 87.167 98.6927 87.772 98.6927 88.516C98.6927 89.259 98.0877 89.865 97.3437 89.865ZM89.9277 89.865C89.1837 89.865 88.5787 89.26 88.5787 88.516C88.5787 87.772 89.1837 87.167 89.9277 87.167C90.6717 87.167 91.2767 87.772 91.2767 88.516C91.2777 89.259 90.6727 89.865 89.9277 89.865ZM82.5127 89.865C81.7687 89.865 81.1637 89.26 81.1637 88.516C81.1637 87.772 81.7687 87.167 82.5127 87.167C83.2567 87.167 83.8617 87.772 83.8617 88.516C83.8617 89.259 83.2567 89.865 82.5127 89.865ZM75.0977 89.865C74.3537 89.865 73.7487 89.26 73.7487 88.516C73.7487 87.772 74.3537 87.167 75.0977 87.167C75.8417 87.167 76.4467 87.772 76.4467 88.516C76.4467 89.259 75.8417 89.865 75.0977 89.865ZM67.6817 89.865C66.9377 89.865 66.3327 89.26 66.3327 88.516C66.3327 87.772 66.9377 87.167 67.6817 87.167C68.4257 87.167 69.0307 87.772 69.0307 88.516C69.0307 89.259 68.4257 89.865 67.6817 89.865ZM60.2667 89.865C59.5227 89.865 58.9177 89.26 58.9177 88.516C58.9177 87.772 59.5227 87.167 60.2667 87.167C61.0107 87.167 61.6157 87.772 61.6157 88.516C61.6157 89.259 61.0097 89.865 60.2667 89.865ZM52.8507 89.865C52.1067 89.865 51.5017 89.26 51.5017 88.516C51.5017 87.772 52.1067 87.167 52.8507 87.167C53.5947 87.167 54.1997 87.772 54.1997 88.516C54.1997 89.259 53.5947 89.865 52.8507 89.865ZM46.3547 89.865C45.6107 89.865 45.0057 89.26 45.0057 88.516C45.0057 87.772 45.6107 87.167 46.3547 87.167C47.0987 87.167 47.7037 87.772 47.7037 88.516C47.7037 89.259 47.0987 89.865 46.3547 89.865ZM38.9387 89.865C38.1947 89.865 37.5897 89.26 37.5897 88.516C37.5897 87.772 38.1947 87.167 38.9387 87.167C39.6827 87.167 40.2877 87.772 40.2877 88.516C40.2877 89.259 39.6827 89.865 38.9387 89.865ZM31.5237 89.865C30.7797 89.865 30.1747 89.26 30.1747 88.516C30.1747 87.772 30.7797 87.167 31.5237 87.167C32.2677 87.167 32.8727 87.772 32.8727 88.516C32.8727 89.259 32.2677 89.865 31.5237 89.865ZM24.1077 89.865C23.3637 89.865 22.7587 89.26 22.7587 88.516C22.7587 87.772 23.3637 87.167 24.1077 87.167C24.8517 87.167 25.4567 87.772 25.4567 88.516C25.4567 89.259 24.8517 89.865 24.1077 89.865ZM16.6927 89.865C15.9487 89.865 15.3437 89.26 15.3437 88.516C15.3437 87.772 15.9487 87.167 16.6927 87.167C17.4367 87.167 18.0417 87.772 18.0417 88.516C18.0417 89.259 17.4367 89.865 16.6927 89.865ZM9.2767 89.865C8.5327 89.865 7.9277 89.26 7.9277 88.516C7.9277 87.772 8.5327 87.167 9.2767 87.167C10.0207 87.167 10.6257 87.772 10.6257 88.516C10.6257 89.259 10.0207 89.865 9.2767 89.865ZM1.86169 89.865C1.11769 89.865 0.512695 89.26 0.512695 88.516C0.512695 87.772 1.11769 87.167 1.86169 87.167C2.60569 87.167 3.21069 87.772 3.21069 88.516C3.21069 89.259 2.60569 89.865 1.86169 89.865ZM97.3437 82.771C96.5997 82.771 95.9947 82.166 95.9947 81.422C95.9947 80.678 96.5997 80.073 97.3437 80.073C98.0877 80.073 98.6927 80.678 98.6927 81.422C98.6927 82.166 98.0877 82.771 97.3437 82.771ZM89.9277 82.771C89.1837 82.771 88.5787 82.166 88.5787 81.422C88.5787 80.678 89.1837 80.073 89.9277 80.073C90.6717 80.073 91.2767 80.678 91.2767 81.422C91.2777 82.166 90.6727 82.771 89.9277 82.771ZM82.5127 82.771C81.7687 82.771 81.1637 82.166 81.1637 81.422C81.1637 80.678 81.7687 80.073 82.5127 80.073C83.2567 80.073 83.8617 80.678 83.8617 81.422C83.8617 82.166 83.2567 82.771 82.5127 82.771ZM75.0977 82.771C74.3537 82.771 73.7487 82.166 73.7487 81.422C73.7487 80.678 74.3537 80.073 75.0977 80.073C75.8417 80.073 76.4467 80.678 76.4467 81.422C76.4467 82.166 75.8417 82.771 75.0977 82.771ZM67.6817 82.771C66.9377 82.771 66.3327 82.166 66.3327 81.422C66.3327 80.678 66.9377 80.073 67.6817 80.073C68.4257 80.073 69.0307 80.678 69.0307 81.422C69.0307 82.166 68.4257 82.771 67.6817 82.771ZM60.2667 82.771C59.5227 82.771 58.9177 82.166 58.9177 81.422C58.9177 80.678 59.5227 80.073 60.2667 80.073C61.0107 80.073 61.6157 80.678 61.6157 81.422C61.6157 82.166 61.0097 82.771 60.2667 82.771ZM52.8507 82.771C52.1067 82.771 51.5017 82.166 51.5017 81.422C51.5017 80.678 52.1067 80.073 52.8507 80.073C53.5947 80.073 54.1997 80.678 54.1997 81.422C54.1997 82.166 53.5947 82.771 52.8507 82.771ZM46.3547 82.771C45.6107 82.771 45.0057 82.166 45.0057 81.422C45.0057 80.678 45.6107 80.073 46.3547 80.073C47.0987 80.073 47.7037 80.678 47.7037 81.422C47.7037 82.166 47.0987 82.771 46.3547 82.771ZM38.9387 82.771C38.1947 82.771 37.5897 82.166 37.5897 81.422C37.5897 80.678 38.1947 80.073 38.9387 80.073C39.6827 80.073 40.2877 80.678 40.2877 81.422C40.2877 82.166 39.6827 82.771 38.9387 82.771ZM31.5237 82.771C30.7797 82.771 30.1747 82.166 30.1747 81.422C30.1747 80.678 30.7797 80.073 31.5237 80.073C32.2677 80.073 32.8727 80.678 32.8727 81.422C32.8727 82.166 32.2677 82.771 31.5237 82.771ZM24.1077 82.771C23.3637 82.771 22.7587 82.166 22.7587 81.422C22.7587 80.678 23.3637 80.073 24.1077 80.073C24.8517 80.073 25.4567 80.678 25.4567 81.422C25.4567 82.166 24.8517 82.771 24.1077 82.771ZM16.6927 82.771C15.9487 82.771 15.3437 82.166 15.3437 81.422C15.3437 80.678 15.9487 80.073 16.6927 80.073C17.4367 80.073 18.0417 80.678 18.0417 81.422C18.0417 82.166 17.4367 82.771 16.6927 82.771ZM9.2767 82.771C8.5327 82.771 7.9277 82.166 7.9277 81.422C7.9277 80.678 8.5327 80.073 9.2767 80.073C10.0207 80.073 10.6257 80.678 10.6257 81.422C10.6257 82.166 10.0207 82.771 9.2767 82.771ZM1.86169 82.771C1.11769 82.771 0.512695 82.166 0.512695 81.422C0.512695 80.678 1.11769 80.073 1.86169 80.073C2.60569 80.073 3.21069 80.678 3.21069 81.422C3.21069 82.166 2.60569 82.771 1.86169 82.771ZM97.3437 75.679C96.5997 75.679 95.9947 75.074 95.9947 74.33C95.9947 73.586 96.5997 72.981 97.3437 72.981C98.0877 72.981 98.6927 73.586 98.6927 74.33C98.6927 75.073 98.0877 75.679 97.3437 75.679ZM89.9277 75.679C89.1837 75.679 88.5787 75.074 88.5787 74.33C88.5787 73.586 89.1837 72.981 89.9277 72.981C90.6717 72.981 91.2767 73.586 91.2767 74.33C91.2777 75.073 90.6727 75.679 89.9277 75.679ZM82.5127 75.679C81.7687 75.679 81.1637 75.074 81.1637 74.33C81.1637 73.586 81.7687 72.981 82.5127 72.981C83.2567 72.981 83.8617 73.586 83.8617 74.33C83.8617 75.073 83.2567 75.679 82.5127 75.679ZM75.0977 75.679C74.3537 75.679 73.7487 75.074 73.7487 74.33C73.7487 73.586 74.3537 72.981 75.0977 72.981C75.8417 72.981 76.4467 73.586 76.4467 74.33C76.4467 75.073 75.8417 75.679 75.0977 75.679ZM67.6817 75.679C66.9377 75.679 66.3327 75.074 66.3327 74.33C66.3327 73.586 66.9377 72.981 67.6817 72.981C68.4257 72.981 69.0307 73.586 69.0307 74.33C69.0307 75.073 68.4257 75.679 67.6817 75.679ZM60.2667 75.679C59.5227 75.679 58.9177 75.074 58.9177 74.33C58.9177 73.586 59.5227 72.981 60.2667 72.981C61.0107 72.981 61.6157 73.586 61.6157 74.33C61.6157 75.073 61.0097 75.679 60.2667 75.679ZM52.8507 75.679C52.1067 75.679 51.5017 75.074 51.5017 74.33C51.5017 73.586 52.1067 72.981 52.8507 72.981C53.5947 72.981 54.1997 73.586 54.1997 74.33C54.1997 75.073 53.5947 75.679 52.8507 75.679ZM46.3547 75.679C45.6107 75.679 45.0057 75.074 45.0057 74.33C45.0057 73.586 45.6107 72.981 46.3547 72.981C47.0987 72.981 47.7037 73.586 47.7037 74.33C47.7037 75.073 47.0987 75.679 46.3547 75.679ZM38.9387 75.679C38.1947 75.679 37.5897 75.074 37.5897 74.33C37.5897 73.586 38.1947 72.981 38.9387 72.981C39.6827 72.981 40.2877 73.586 40.2877 74.33C40.2877 75.073 39.6827 75.679 38.9387 75.679ZM31.5237 75.679C30.7797 75.679 30.1747 75.074 30.1747 74.33C30.1747 73.586 30.7797 72.981 31.5237 72.981C32.2677 72.981 32.8727 73.586 32.8727 74.33C32.8727 75.073 32.2677 75.679 31.5237 75.679ZM24.1077 75.679C23.3637 75.679 22.7587 75.074 22.7587 74.33C22.7587 73.586 23.3637 72.981 24.1077 72.981C24.8517 72.981 25.4567 73.586 25.4567 74.33C25.4567 75.073 24.8517 75.679 24.1077 75.679ZM16.6927 75.679C15.9487 75.679 15.3437 75.074 15.3437 74.33C15.3437 73.586 15.9487 72.981 16.6927 72.981C17.4367 72.981 18.0417 73.586 18.0417 74.33C18.0417 75.073 17.4367 75.679 16.6927 75.679ZM9.2767 75.679C8.5327 75.679 7.9277 75.074 7.9277 74.33C7.9277 73.586 8.5327 72.981 9.2767 72.981C10.0207 72.981 10.6257 73.586 10.6257 74.33C10.6257 75.073 10.0207 75.679 9.2767 75.679ZM1.86169 75.679C1.11769 75.679 0.512695 75.074 0.512695 74.33C0.512695 73.586 1.11769 72.981 1.86169 72.981C2.60569 72.981 3.21069 73.586 3.21069 74.33C3.21069 75.073 2.60569 75.679 1.86169 75.679ZM97.3437 68.585C96.5997 68.585 95.9947 67.98 95.9947 67.236C95.9947 66.492 96.5997 65.887 97.3437 65.887C98.0877 65.887 98.6927 66.492 98.6927 67.236C98.6927 67.98 98.0877 68.585 97.3437 68.585ZM89.9277 68.585C89.1837 68.585 88.5787 67.98 88.5787 67.236C88.5787 66.492 89.1837 65.887 89.9277 65.887C90.6717 65.887 91.2767 66.492 91.2767 67.236C91.2777 67.98 90.6727 68.585 89.9277 68.585ZM82.5127 68.585C81.7687 68.585 81.1637 67.98 81.1637 67.236C81.1637 66.492 81.7687 65.887 82.5127 65.887C83.2567 65.887 83.8617 66.492 83.8617 67.236C83.8617 67.98 83.2567 68.585 82.5127 68.585ZM75.0977 68.585C74.3537 68.585 73.7487 67.98 73.7487 67.236C73.7487 66.492 74.3537 65.887 75.0977 65.887C75.8417 65.887 76.4467 66.492 76.4467 67.236C76.4467 67.98 75.8417 68.585 75.0977 68.585ZM67.6817 68.585C66.9377 68.585 66.3327 67.98 66.3327 67.236C66.3327 66.492 66.9377 65.887 67.6817 65.887C68.4257 65.887 69.0307 66.492 69.0307 67.236C69.0307 67.98 68.4257 68.585 67.6817 68.585ZM60.2667 68.585C59.5227 68.585 58.9177 67.98 58.9177 67.236C58.9177 66.492 59.5227 65.887 60.2667 65.887C61.0107 65.887 61.6157 66.492 61.6157 67.236C61.6157 67.98 61.0097 68.585 60.2667 68.585ZM52.8507 68.585C52.1067 68.585 51.5017 67.98 51.5017 67.236C51.5017 66.492 52.1067 65.887 52.8507 65.887C53.5947 65.887 54.1997 66.492 54.1997 67.236C54.1997 67.98 53.5947 68.585 52.8507 68.585ZM46.3547 68.585C45.6107 68.585 45.0057 67.98 45.0057 67.236C45.0057 66.492 45.6107 65.887 46.3547 65.887C47.0987 65.887 47.7037 66.492 47.7037 67.236C47.7037 67.98 47.0987 68.585 46.3547 68.585ZM38.9387 68.585C38.1947 68.585 37.5897 67.98 37.5897 67.236C37.5897 66.492 38.1947 65.887 38.9387 65.887C39.6827 65.887 40.2877 66.492 40.2877 67.236C40.2877 67.98 39.6827 68.585 38.9387 68.585ZM31.5237 68.585C30.7797 68.585 30.1747 67.98 30.1747 67.236C30.1747 66.492 30.7797 65.887 31.5237 65.887C32.2677 65.887 32.8727 66.492 32.8727 67.236C32.8727 67.98 32.2677 68.585 31.5237 68.585ZM24.1077 68.585C23.3637 68.585 22.7587 67.98 22.7587 67.236C22.7587 66.492 23.3637 65.887 24.1077 65.887C24.8517 65.887 25.4567 66.492 25.4567 67.236C25.4567 67.98 24.8517 68.585 24.1077 68.585ZM16.6927 68.585C15.9487 68.585 15.3437 67.98 15.3437 67.236C15.3437 66.492 15.9487 65.887 16.6927 65.887C17.4367 65.887 18.0417 66.492 18.0417 67.236C18.0417 67.98 17.4367 68.585 16.6927 68.585ZM9.2767 68.585C8.5327 68.585 7.9277 67.98 7.9277 67.236C7.9277 66.492 8.5327 65.887 9.2767 65.887C10.0207 65.887 10.6257 66.492 10.6257 67.236C10.6257 67.98 10.0207 68.585 9.2767 68.585ZM1.86169 68.585C1.11769 68.585 0.512695 67.98 0.512695 67.236C0.512695 66.492 1.11769 65.887 1.86169 65.887C2.60569 65.887 3.21069 66.492 3.21069 67.236C3.21069 67.98 2.60569 68.585 1.86169 68.585ZM97.3437 61.492C96.5997 61.492 95.9947 60.887 95.9947 60.143C95.9947 59.399 96.5997 58.794 97.3437 58.794C98.0877 58.794 98.6927 59.399 98.6927 60.143C98.6927 60.887 98.0877 61.492 97.3437 61.492ZM89.9277 61.492C89.1837 61.492 88.5787 60.887 88.5787 60.143C88.5787 59.399 89.1837 58.794 89.9277 58.794C90.6717 58.794 91.2767 59.399 91.2767 60.143C91.2777 60.887 90.6727 61.492 89.9277 61.492ZM82.5127 61.492C81.7687 61.492 81.1637 60.887 81.1637 60.143C81.1637 59.399 81.7687 58.794 82.5127 58.794C83.2567 58.794 83.8617 59.399 83.8617 60.143C83.8617 60.887 83.2567 61.492 82.5127 61.492ZM75.0977 61.492C74.3537 61.492 73.7487 60.887 73.7487 60.143C73.7487 59.399 74.3537 58.794 75.0977 58.794C75.8417 58.794 76.4467 59.399 76.4467 60.143C76.4467 60.887 75.8417 61.492 75.0977 61.492ZM67.6817 61.492C66.9377 61.492 66.3327 60.887 66.3327 60.143C66.3327 59.399 66.9377 58.794 67.6817 58.794C68.4257 58.794 69.0307 59.399 69.0307 60.143C69.0307 60.887 68.4257 61.492 67.6817 61.492ZM60.2667 61.492C59.5227 61.492 58.9177 60.887 58.9177 60.143C58.9177 59.399 59.5227 58.794 60.2667 58.794C61.0107 58.794 61.6157 59.399 61.6157 60.143C61.6157 60.887 61.0097 61.492 60.2667 61.492ZM52.8507 61.492C52.1067 61.492 51.5017 60.887 51.5017 60.143C51.5017 59.399 52.1067 58.794 52.8507 58.794C53.5947 58.794 54.1997 59.399 54.1997 60.143C54.1997 60.887 53.5947 61.492 52.8507 61.492ZM46.3547 61.492C45.6107 61.492 45.0057 60.887 45.0057 60.143C45.0057 59.399 45.6107 58.794 46.3547 58.794C47.0987 58.794 47.7037 59.399 47.7037 60.143C47.7037 60.887 47.0987 61.492 46.3547 61.492ZM38.9387 61.492C38.1947 61.492 37.5897 60.887 37.5897 60.143C37.5897 59.399 38.1947 58.794 38.9387 58.794C39.6827 58.794 40.2877 59.399 40.2877 60.143C40.2877 60.887 39.6827 61.492 38.9387 61.492ZM31.5237 61.492C30.7797 61.492 30.1747 60.887 30.1747 60.143C30.1747 59.399 30.7797 58.794 31.5237 58.794C32.2677 58.794 32.8727 59.399 32.8727 60.143C32.8727 60.887 32.2677 61.492 31.5237 61.492ZM24.1077 61.492C23.3637 61.492 22.7587 60.887 22.7587 60.143C22.7587 59.399 23.3637 58.794 24.1077 58.794C24.8517 58.794 25.4567 59.399 25.4567 60.143C25.4567 60.887 24.8517 61.492 24.1077 61.492ZM16.6927 61.492C15.9487 61.492 15.3437 60.887 15.3437 60.143C15.3437 59.399 15.9487 58.794 16.6927 58.794C17.4367 58.794 18.0417 59.399 18.0417 60.143C18.0417 60.887 17.4367 61.492 16.6927 61.492ZM9.2767 61.492C8.5327 61.492 7.9277 60.887 7.9277 60.143C7.9277 59.399 8.5327 58.794 9.2767 58.794C10.0207 58.794 10.6257 59.399 10.6257 60.143C10.6257 60.887 10.0207 61.492 9.2767 61.492ZM1.86169 61.492C1.11769 61.492 0.512695 60.887 0.512695 60.143C0.512695 59.399 1.11769 58.794 1.86169 58.794C2.60569 58.794 3.21069 59.399 3.21069 60.143C3.21069 60.887 2.60569 61.492 1.86169 61.492ZM97.3437 54.399C96.5997 54.399 95.9947 53.794 95.9947 53.05C95.9947 52.306 96.5997 51.701 97.3437 51.701C98.0877 51.701 98.6927 52.306 98.6927 53.05C98.6927 53.794 98.0877 54.399 97.3437 54.399ZM89.9277 54.399C89.1837 54.399 88.5787 53.794 88.5787 53.05C88.5787 52.306 89.1837 51.701 89.9277 51.701C90.6717 51.701 91.2767 52.306 91.2767 53.05C91.2777 53.794 90.6727 54.399 89.9277 54.399ZM82.5127 54.399C81.7687 54.399 81.1637 53.794 81.1637 53.05C81.1637 52.306 81.7687 51.701 82.5127 51.701C83.2567 51.701 83.8617 52.306 83.8617 53.05C83.8617 53.794 83.2567 54.399 82.5127 54.399ZM75.0977 54.399C74.3537 54.399 73.7487 53.794 73.7487 53.05C73.7487 52.306 74.3537 51.701 75.0977 51.701C75.8417 51.701 76.4467 52.306 76.4467 53.05C76.4467 53.794 75.8417 54.399 75.0977 54.399ZM67.6817 54.399C66.9377 54.399 66.3327 53.794 66.3327 53.05C66.3327 52.306 66.9377 51.701 67.6817 51.701C68.4257 51.701 69.0307 52.306 69.0307 53.05C69.0307 53.794 68.4257 54.399 67.6817 54.399ZM60.2667 54.399C59.5227 54.399 58.9177 53.794 58.9177 53.05C58.9177 52.306 59.5227 51.701 60.2667 51.701C61.0107 51.701 61.6157 52.306 61.6157 53.05C61.6157 53.794 61.0097 54.399 60.2667 54.399ZM52.8507 54.399C52.1067 54.399 51.5017 53.794 51.5017 53.05C51.5017 52.306 52.1067 51.701 52.8507 51.701C53.5947 51.701 54.1997 52.306 54.1997 53.05C54.1997 53.794 53.5947 54.399 52.8507 54.399ZM46.3547 54.399C45.6107 54.399 45.0057 53.794 45.0057 53.05C45.0057 52.306 45.6107 51.701 46.3547 51.701C47.0987 51.701 47.7037 52.306 47.7037 53.05C47.7037 53.794 47.0987 54.399 46.3547 54.399ZM38.9387 54.399C38.1947 54.399 37.5897 53.794 37.5897 53.05C37.5897 52.306 38.1947 51.701 38.9387 51.701C39.6827 51.701 40.2877 52.306 40.2877 53.05C40.2877 53.794 39.6827 54.399 38.9387 54.399ZM31.5237 54.399C30.7797 54.399 30.1747 53.794 30.1747 53.05C30.1747 52.306 30.7797 51.701 31.5237 51.701C32.2677 51.701 32.8727 52.306 32.8727 53.05C32.8727 53.794 32.2677 54.399 31.5237 54.399ZM24.1077 54.399C23.3637 54.399 22.7587 53.794 22.7587 53.05C22.7587 52.306 23.3637 51.701 24.1077 51.701C24.8517 51.701 25.4567 52.306 25.4567 53.05C25.4567 53.794 24.8517 54.399 24.1077 54.399ZM16.6927 54.399C15.9487 54.399 15.3437 53.794 15.3437 53.05C15.3437 52.306 15.9487 51.701 16.6927 51.701C17.4367 51.701 18.0417 52.306 18.0417 53.05C18.0417 53.794 17.4367 54.399 16.6927 54.399ZM9.2767 54.399C8.5327 54.399 7.9277 53.794 7.9277 53.05C7.9277 52.306 8.5327 51.701 9.2767 51.701C10.0207 51.701 10.6257 52.306 10.6257 53.05C10.6257 53.794 10.0207 54.399 9.2767 54.399ZM1.86169 54.399C1.11769 54.399 0.512695 53.794 0.512695 53.05C0.512695 52.306 1.11769 51.701 1.86169 51.701C2.60569 51.701 3.21069 52.306 3.21069 53.05C3.21069 53.794 2.60569 54.399 1.86169 54.399ZM97.3437 47.692C96.5997 47.692 95.9947 47.087 95.9947 46.343C95.9947 45.599 96.5997 44.994 97.3437 44.994C98.0877 44.994 98.6927 45.599 98.6927 46.343C98.6927 47.087 98.0877 47.692 97.3437 47.692ZM89.9277 47.692C89.1837 47.692 88.5787 47.087 88.5787 46.343C88.5787 45.599 89.1837 44.994 89.9277 44.994C90.6717 44.994 91.2767 45.599 91.2767 46.343C91.2777 47.087 90.6727 47.692 89.9277 47.692ZM82.5127 47.692C81.7687 47.692 81.1637 47.087 81.1637 46.343C81.1637 45.599 81.7687 44.994 82.5127 44.994C83.2567 44.994 83.8617 45.599 83.8617 46.343C83.8617 47.087 83.2567 47.692 82.5127 47.692ZM75.0977 47.692C74.3537 47.692 73.7487 47.087 73.7487 46.343C73.7487 45.599 74.3537 44.994 75.0977 44.994C75.8417 44.994 76.4467 45.599 76.4467 46.343C76.4467 47.087 75.8417 47.692 75.0977 47.692ZM67.6817 47.692C66.9377 47.692 66.3327 47.087 66.3327 46.343C66.3327 45.599 66.9377 44.994 67.6817 44.994C68.4257 44.994 69.0307 45.599 69.0307 46.343C69.0307 47.087 68.4257 47.692 67.6817 47.692ZM60.2667 47.692C59.5227 47.692 58.9177 47.087 58.9177 46.343C58.9177 45.599 59.5227 44.994 60.2667 44.994C61.0107 44.994 61.6157 45.599 61.6157 46.343C61.6157 47.087 61.0097 47.692 60.2667 47.692ZM52.8507 47.692C52.1067 47.692 51.5017 47.087 51.5017 46.343C51.5017 45.599 52.1067 44.994 52.8507 44.994C53.5947 44.994 54.1997 45.599 54.1997 46.343C54.1997 47.087 53.5947 47.692 52.8507 47.692ZM46.3547 47.692C45.6107 47.692 45.0057 47.087 45.0057 46.343C45.0057 45.599 45.6107 44.994 46.3547 44.994C47.0987 44.994 47.7037 45.599 47.7037 46.343C47.7037 47.087 47.0987 47.692 46.3547 47.692ZM38.9387 47.692C38.1947 47.692 37.5897 47.087 37.5897 46.343C37.5897 45.599 38.1947 44.994 38.9387 44.994C39.6827 44.994 40.2877 45.599 40.2877 46.343C40.2877 47.087 39.6827 47.692 38.9387 47.692ZM31.5237 47.692C30.7797 47.692 30.1747 47.087 30.1747 46.343C30.1747 45.599 30.7797 44.994 31.5237 44.994C32.2677 44.994 32.8727 45.599 32.8727 46.343C32.8727 47.087 32.2677 47.692 31.5237 47.692ZM24.1077 47.692C23.3637 47.692 22.7587 47.087 22.7587 46.343C22.7587 45.599 23.3637 44.994 24.1077 44.994C24.8517 44.994 25.4567 45.599 25.4567 46.343C25.4567 47.087 24.8517 47.692 24.1077 47.692ZM16.6927 47.692C15.9487 47.692 15.3437 47.087 15.3437 46.343C15.3437 45.599 15.9487 44.994 16.6927 44.994C17.4367 44.994 18.0417 45.599 18.0417 46.343C18.0417 47.087 17.4367 47.692 16.6927 47.692ZM9.2767 47.692C8.5327 47.692 7.9277 47.087 7.9277 46.343C7.9277 45.599 8.5327 44.994 9.2767 44.994C10.0207 44.994 10.6257 45.599 10.6257 46.343C10.6257 47.087 10.0207 47.692 9.2767 47.692ZM1.86169 47.692C1.11769 47.692 0.512695 47.087 0.512695 46.343C0.512695 45.599 1.11769 44.994 1.86169 44.994C2.60569 44.994 3.21069 45.599 3.21069 46.343C3.21069 47.087 2.60569 47.692 1.86169 47.692ZM97.3437 40.599C96.5997 40.599 95.9947 39.994 95.9947 39.25C95.9947 38.506 96.5997 37.901 97.3437 37.901C98.0877 37.901 98.6927 38.506 98.6927 39.25C98.6927 39.994 98.0877 40.599 97.3437 40.599ZM89.9277 40.599C89.1837 40.599 88.5787 39.994 88.5787 39.25C88.5787 38.506 89.1837 37.901 89.9277 37.901C90.6717 37.901 91.2767 38.506 91.2767 39.25C91.2777 39.994 90.6727 40.599 89.9277 40.599ZM82.5127 40.599C81.7687 40.599 81.1637 39.994 81.1637 39.25C81.1637 38.506 81.7687 37.901 82.5127 37.901C83.2567 37.901 83.8617 38.506 83.8617 39.25C83.8617 39.994 83.2567 40.599 82.5127 40.599ZM75.0977 40.599C74.3537 40.599 73.7487 39.994 73.7487 39.25C73.7487 38.506 74.3537 37.901 75.0977 37.901C75.8417 37.901 76.4467 38.506 76.4467 39.25C76.4467 39.994 75.8417 40.599 75.0977 40.599ZM67.6817 40.599C66.9377 40.599 66.3327 39.994 66.3327 39.25C66.3327 38.506 66.9377 37.901 67.6817 37.901C68.4257 37.901 69.0307 38.506 69.0307 39.25C69.0307 39.994 68.4257 40.599 67.6817 40.599ZM60.2667 40.599C59.5227 40.599 58.9177 39.994 58.9177 39.25C58.9177 38.506 59.5227 37.901 60.2667 37.901C61.0107 37.901 61.6157 38.506 61.6157 39.25C61.6157 39.994 61.0097 40.599 60.2667 40.599ZM52.8507 40.599C52.1067 40.599 51.5017 39.994 51.5017 39.25C51.5017 38.506 52.1067 37.901 52.8507 37.901C53.5947 37.901 54.1997 38.506 54.1997 39.25C54.1997 39.994 53.5947 40.599 52.8507 40.599ZM46.3547 40.599C45.6107 40.599 45.0057 39.994 45.0057 39.25C45.0057 38.506 45.6107 37.901 46.3547 37.901C47.0987 37.901 47.7037 38.506 47.7037 39.25C47.7037 39.994 47.0987 40.599 46.3547 40.599ZM38.9387 40.599C38.1947 40.599 37.5897 39.994 37.5897 39.25C37.5897 38.506 38.1947 37.901 38.9387 37.901C39.6827 37.901 40.2877 38.506 40.2877 39.25C40.2877 39.994 39.6827 40.599 38.9387 40.599ZM31.5237 40.599C30.7797 40.599 30.1747 39.994 30.1747 39.25C30.1747 38.506 30.7797 37.901 31.5237 37.901C32.2677 37.901 32.8727 38.506 32.8727 39.25C32.8727 39.994 32.2677 40.599 31.5237 40.599ZM24.1077 40.599C23.3637 40.599 22.7587 39.994 22.7587 39.25C22.7587 38.506 23.3637 37.901 24.1077 37.901C24.8517 37.901 25.4567 38.506 25.4567 39.25C25.4567 39.994 24.8517 40.599 24.1077 40.599ZM16.6927 40.599C15.9487 40.599 15.3437 39.994 15.3437 39.25C15.3437 38.506 15.9487 37.901 16.6927 37.901C17.4367 37.901 18.0417 38.506 18.0417 39.25C18.0417 39.994 17.4367 40.599 16.6927 40.599ZM9.2767 40.599C8.5327 40.599 7.9277 39.994 7.9277 39.25C7.9277 38.506 8.5327 37.901 9.2767 37.901C10.0207 37.901 10.6257 38.506 10.6257 39.25C10.6257 39.994 10.0207 40.599 9.2767 40.599ZM1.86169 40.599C1.11769 40.599 0.512695 39.994 0.512695 39.25C0.512695 38.506 1.11769 37.901 1.86169 37.901C2.60569 37.901 3.21069 38.506 3.21069 39.25C3.21069 39.994 2.60569 40.599 1.86169 40.599ZM97.3437 33.506C96.5997 33.506 95.9947 32.901 95.9947 32.157C95.9947 31.413 96.5997 30.808 97.3437 30.808C98.0877 30.808 98.6927 31.413 98.6927 32.157C98.6927 32.901 98.0877 33.506 97.3437 33.506ZM89.9277 33.506C89.1837 33.506 88.5787 32.901 88.5787 32.157C88.5787 31.413 89.1837 30.808 89.9277 30.808C90.6717 30.808 91.2767 31.413 91.2767 32.157C91.2777 32.901 90.6727 33.506 89.9277 33.506ZM82.5127 33.506C81.7687 33.506 81.1637 32.901 81.1637 32.157C81.1637 31.413 81.7687 30.808 82.5127 30.808C83.2567 30.808 83.8617 31.413 83.8617 32.157C83.8617 32.901 83.2567 33.506 82.5127 33.506ZM75.0977 33.506C74.3537 33.506 73.7487 32.901 73.7487 32.157C73.7487 31.413 74.3537 30.808 75.0977 30.808C75.8417 30.808 76.4467 31.413 76.4467 32.157C76.4467 32.901 75.8417 33.506 75.0977 33.506ZM67.6817 33.506C66.9377 33.506 66.3327 32.901 66.3327 32.157C66.3327 31.413 66.9377 30.808 67.6817 30.808C68.4257 30.808 69.0307 31.413 69.0307 32.157C69.0307 32.901 68.4257 33.506 67.6817 33.506ZM60.2667 33.506C59.5227 33.506 58.9177 32.901 58.9177 32.157C58.9177 31.413 59.5227 30.808 60.2667 30.808C61.0107 30.808 61.6157 31.413 61.6157 32.157C61.6157 32.901 61.0097 33.506 60.2667 33.506ZM52.8507 33.506C52.1067 33.506 51.5017 32.901 51.5017 32.157C51.5017 31.413 52.1067 30.808 52.8507 30.808C53.5947 30.808 54.1997 31.413 54.1997 32.157C54.1997 32.901 53.5947 33.506 52.8507 33.506ZM46.3547 33.506C45.6107 33.506 45.0057 32.901 45.0057 32.157C45.0057 31.413 45.6107 30.808 46.3547 30.808C47.0987 30.808 47.7037 31.413 47.7037 32.157C47.7037 32.901 47.0987 33.506 46.3547 33.506ZM38.9387 33.506C38.1947 33.506 37.5897 32.901 37.5897 32.157C37.5897 31.413 38.1947 30.808 38.9387 30.808C39.6827 30.808 40.2877 31.413 40.2877 32.157C40.2877 32.901 39.6827 33.506 38.9387 33.506ZM31.5237 33.506C30.7797 33.506 30.1747 32.901 30.1747 32.157C30.1747 31.413 30.7797 30.808 31.5237 30.808C32.2677 30.808 32.8727 31.413 32.8727 32.157C32.8727 32.901 32.2677 33.506 31.5237 33.506ZM24.1077 33.506C23.3637 33.506 22.7587 32.901 22.7587 32.157C22.7587 31.413 23.3637 30.808 24.1077 30.808C24.8517 30.808 25.4567 31.413 25.4567 32.157C25.4567 32.901 24.8517 33.506 24.1077 33.506ZM16.6927 33.506C15.9487 33.506 15.3437 32.901 15.3437 32.157C15.3437 31.413 15.9487 30.808 16.6927 30.808C17.4367 30.808 18.0417 31.413 18.0417 32.157C18.0417 32.901 17.4367 33.506 16.6927 33.506ZM9.2767 33.506C8.5327 33.506 7.9277 32.901 7.9277 32.157C7.9277 31.413 8.5327 30.808 9.2767 30.808C10.0207 30.808 10.6257 31.413 10.6257 32.157C10.6257 32.901 10.0207 33.506 9.2767 33.506ZM1.86169 33.506C1.11769 33.506 0.512695 32.901 0.512695 32.157C0.512695 31.413 1.11769 30.808 1.86169 30.808C2.60569 30.808 3.21069 31.413 3.21069 32.157C3.21069 32.901 2.60569 33.506 1.86169 33.506ZM97.3437 26.412C96.5997 26.412 95.9947 25.807 95.9947 25.063C95.9947 24.319 96.5997 23.714 97.3437 23.714C98.0877 23.714 98.6927 24.319 98.6927 25.063C98.6927 25.807 98.0877 26.412 97.3437 26.412ZM89.9277 26.412C89.1837 26.412 88.5787 25.807 88.5787 25.063C88.5787 24.319 89.1837 23.714 89.9277 23.714C90.6717 23.714 91.2767 24.319 91.2767 25.063C91.2777 25.807 90.6727 26.412 89.9277 26.412ZM82.5127 26.412C81.7687 26.412 81.1637 25.807 81.1637 25.063C81.1637 24.319 81.7687 23.714 82.5127 23.714C83.2567 23.714 83.8617 24.319 83.8617 25.063C83.8617 25.807 83.2567 26.412 82.5127 26.412ZM75.0977 26.412C74.3537 26.412 73.7487 25.807 73.7487 25.063C73.7487 24.319 74.3537 23.714 75.0977 23.714C75.8417 23.714 76.4467 24.319 76.4467 25.063C76.4467 25.807 75.8417 26.412 75.0977 26.412ZM67.6817 26.412C66.9377 26.412 66.3327 25.807 66.3327 25.063C66.3327 24.319 66.9377 23.714 67.6817 23.714C68.4257 23.714 69.0307 24.319 69.0307 25.063C69.0307 25.807 68.4257 26.412 67.6817 26.412ZM60.2667 26.412C59.5227 26.412 58.9177 25.807 58.9177 25.063C58.9177 24.319 59.5227 23.714 60.2667 23.714C61.0107 23.714 61.6157 24.319 61.6157 25.063C61.6157 25.807 61.0097 26.412 60.2667 26.412ZM52.8507 26.412C52.1067 26.412 51.5017 25.807 51.5017 25.063C51.5017 24.319 52.1067 23.714 52.8507 23.714C53.5947 23.714 54.1997 24.319 54.1997 25.063C54.1997 25.807 53.5947 26.412 52.8507 26.412ZM46.3547 26.412C45.6107 26.412 45.0057 25.807 45.0057 25.063C45.0057 24.319 45.6107 23.714 46.3547 23.714C47.0987 23.714 47.7037 24.319 47.7037 25.063C47.7037 25.807 47.0987 26.412 46.3547 26.412ZM38.9387 26.412C38.1947 26.412 37.5897 25.807 37.5897 25.063C37.5897 24.319 38.1947 23.714 38.9387 23.714C39.6827 23.714 40.2877 24.319 40.2877 25.063C40.2877 25.807 39.6827 26.412 38.9387 26.412ZM31.5237 26.412C30.7797 26.412 30.1747 25.807 30.1747 25.063C30.1747 24.319 30.7797 23.714 31.5237 23.714C32.2677 23.714 32.8727 24.319 32.8727 25.063C32.8727 25.807 32.2677 26.412 31.5237 26.412ZM24.1077 26.412C23.3637 26.412 22.7587 25.807 22.7587 25.063C22.7587 24.319 23.3637 23.714 24.1077 23.714C24.8517 23.714 25.4567 24.319 25.4567 25.063C25.4567 25.807 24.8517 26.412 24.1077 26.412ZM16.6927 26.412C15.9487 26.412 15.3437 25.807 15.3437 25.063C15.3437 24.319 15.9487 23.714 16.6927 23.714C17.4367 23.714 18.0417 24.319 18.0417 25.063C18.0417 25.807 17.4367 26.412 16.6927 26.412ZM9.2767 26.412C8.5327 26.412 7.9277 25.807 7.9277 25.063C7.9277 24.319 8.5327 23.714 9.2767 23.714C10.0207 23.714 10.6257 24.319 10.6257 25.063C10.6257 25.807 10.0207 26.412 9.2767 26.412ZM1.86169 26.412C1.11769 26.412 0.512695 25.807 0.512695 25.063C0.512695 24.319 1.11769 23.714 1.86169 23.714C2.60569 23.714 3.21069 24.319 3.21069 25.063C3.21069 25.807 2.60569 26.412 1.86169 26.412ZM97.3437 19.32C96.5997 19.32 95.9947 18.715 95.9947 17.971C95.9947 17.227 96.5997 16.622 97.3437 16.622C98.0877 16.622 98.6927 17.227 98.6927 17.971C98.6927 18.715 98.0877 19.32 97.3437 19.32ZM89.9277 19.32C89.1837 19.32 88.5787 18.715 88.5787 17.971C88.5787 17.227 89.1837 16.622 89.9277 16.622C90.6717 16.622 91.2767 17.227 91.2767 17.971C91.2777 18.715 90.6727 19.32 89.9277 19.32ZM82.5127 19.32C81.7687 19.32 81.1637 18.715 81.1637 17.971C81.1637 17.227 81.7687 16.622 82.5127 16.622C83.2567 16.622 83.8617 17.227 83.8617 17.971C83.8617 18.715 83.2567 19.32 82.5127 19.32ZM75.0977 19.32C74.3537 19.32 73.7487 18.715 73.7487 17.971C73.7487 17.227 74.3537 16.622 75.0977 16.622C75.8417 16.622 76.4467 17.227 76.4467 17.971C76.4467 18.715 75.8417 19.32 75.0977 19.32ZM67.6817 19.32C66.9377 19.32 66.3327 18.715 66.3327 17.971C66.3327 17.227 66.9377 16.622 67.6817 16.622C68.4257 16.622 69.0307 17.227 69.0307 17.971C69.0307 18.715 68.4257 19.32 67.6817 19.32ZM60.2667 19.32C59.5227 19.32 58.9177 18.715 58.9177 17.971C58.9177 17.227 59.5227 16.622 60.2667 16.622C61.0107 16.622 61.6157 17.227 61.6157 17.971C61.6157 18.715 61.0097 19.32 60.2667 19.32ZM52.8507 19.32C52.1067 19.32 51.5017 18.715 51.5017 17.971C51.5017 17.227 52.1067 16.622 52.8507 16.622C53.5947 16.622 54.1997 17.227 54.1997 17.971C54.1997 18.715 53.5947 19.32 52.8507 19.32ZM46.3547 19.32C45.6107 19.32 45.0057 18.715 45.0057 17.971C45.0057 17.227 45.6107 16.622 46.3547 16.622C47.0987 16.622 47.7037 17.227 47.7037 17.971C47.7037 18.715 47.0987 19.32 46.3547 19.32ZM38.9387 19.32C38.1947 19.32 37.5897 18.715 37.5897 17.971C37.5897 17.227 38.1947 16.622 38.9387 16.622C39.6827 16.622 40.2877 17.227 40.2877 17.971C40.2877 18.715 39.6827 19.32 38.9387 19.32ZM31.5237 19.32C30.7797 19.32 30.1747 18.715 30.1747 17.971C30.1747 17.227 30.7797 16.622 31.5237 16.622C32.2677 16.622 32.8727 17.227 32.8727 17.971C32.8727 18.715 32.2677 19.32 31.5237 19.32ZM24.1077 19.32C23.3637 19.32 22.7587 18.715 22.7587 17.971C22.7587 17.227 23.3637 16.622 24.1077 16.622C24.8517 16.622 25.4567 17.227 25.4567 17.971C25.4567 18.715 24.8517 19.32 24.1077 19.32ZM16.6927 19.32C15.9487 19.32 15.3437 18.715 15.3437 17.971C15.3437 17.227 15.9487 16.622 16.6927 16.622C17.4367 16.622 18.0417 17.227 18.0417 17.971C18.0417 18.715 17.4367 19.32 16.6927 19.32ZM9.2767 19.32C8.5327 19.32 7.9277 18.715 7.9277 17.971C7.9277 17.227 8.5327 16.622 9.2767 16.622C10.0207 16.622 10.6257 17.227 10.6257 17.971C10.6257 18.715 10.0207 19.32 9.2767 19.32ZM1.86169 19.32C1.11769 19.32 0.512695 18.715 0.512695 17.971C0.512695 17.227 1.11769 16.622 1.86169 16.622C2.60569 16.622 3.21069 17.227 3.21069 17.971C3.21069 18.715 2.60569 19.32 1.86169 19.32ZM97.3437 12.226C96.5997 12.226 95.9947 11.621 95.9947 10.877C95.9947 10.133 96.5997 9.52805 97.3437 9.52805C98.0877 9.52805 98.6927 10.133 98.6927 10.877C98.6927 11.621 98.0877 12.226 97.3437 12.226ZM89.9277 12.226C89.1837 12.226 88.5787 11.621 88.5787 10.877C88.5787 10.133 89.1837 9.52805 89.9277 9.52805C90.6717 9.52805 91.2767 10.133 91.2767 10.877C91.2777 11.621 90.6727 12.226 89.9277 12.226ZM82.5127 12.226C81.7687 12.226 81.1637 11.621 81.1637 10.877C81.1637 10.133 81.7687 9.52805 82.5127 9.52805C83.2567 9.52805 83.8617 10.133 83.8617 10.877C83.8617 11.621 83.2567 12.226 82.5127 12.226ZM75.0977 12.226C74.3537 12.226 73.7487 11.621 73.7487 10.877C73.7487 10.133 74.3537 9.52805 75.0977 9.52805C75.8417 9.52805 76.4467 10.133 76.4467 10.877C76.4467 11.621 75.8417 12.226 75.0977 12.226ZM67.6817 12.226C66.9377 12.226 66.3327 11.621 66.3327 10.877C66.3327 10.133 66.9377 9.52805 67.6817 9.52805C68.4257 9.52805 69.0307 10.133 69.0307 10.877C69.0307 11.621 68.4257 12.226 67.6817 12.226ZM60.2667 12.226C59.5227 12.226 58.9177 11.621 58.9177 10.877C58.9177 10.133 59.5227 9.52805 60.2667 9.52805C61.0107 9.52805 61.6157 10.133 61.6157 10.877C61.6157 11.621 61.0097 12.226 60.2667 12.226ZM52.8507 12.226C52.1067 12.226 51.5017 11.621 51.5017 10.877C51.5017 10.133 52.1067 9.52805 52.8507 9.52805C53.5947 9.52805 54.1997 10.133 54.1997 10.877C54.1997 11.621 53.5947 12.226 52.8507 12.226ZM46.3547 12.226C45.6107 12.226 45.0057 11.621 45.0057 10.877C45.0057 10.133 45.6107 9.52805 46.3547 9.52805C47.0987 9.52805 47.7037 10.133 47.7037 10.877C47.7037 11.621 47.0987 12.226 46.3547 12.226ZM38.9387 12.226C38.1947 12.226 37.5897 11.621 37.5897 10.877C37.5897 10.133 38.1947 9.52805 38.9387 9.52805C39.6827 9.52805 40.2877 10.133 40.2877 10.877C40.2877 11.621 39.6827 12.226 38.9387 12.226ZM31.5237 12.226C30.7797 12.226 30.1747 11.621 30.1747 10.877C30.1747 10.133 30.7797 9.52805 31.5237 9.52805C32.2677 9.52805 32.8727 10.133 32.8727 10.877C32.8727 11.621 32.2677 12.226 31.5237 12.226ZM24.1077 12.226C23.3637 12.226 22.7587 11.621 22.7587 10.877C22.7587 10.133 23.3637 9.52805 24.1077 9.52805C24.8517 9.52805 25.4567 10.133 25.4567 10.877C25.4567 11.621 24.8517 12.226 24.1077 12.226ZM16.6927 12.226C15.9487 12.226 15.3437 11.621 15.3437 10.877C15.3437 10.133 15.9487 9.52805 16.6927 9.52805C17.4367 9.52805 18.0417 10.133 18.0417 10.877C18.0417 11.621 17.4367 12.226 16.6927 12.226ZM9.2767 12.226C8.5327 12.226 7.9277 11.621 7.9277 10.877C7.9277 10.133 8.5327 9.52805 9.2767 9.52805C10.0207 9.52805 10.6257 10.133 10.6257 10.877C10.6257 11.621 10.0207 12.226 9.2767 12.226ZM1.86169 12.226C1.11769 12.226 0.512695 11.621 0.512695 10.877C0.512695 10.133 1.11769 9.52805 1.86169 9.52805C2.60569 9.52805 3.21069 10.133 3.21069 10.877C3.21069 11.621 2.60569 12.226 1.86169 12.226ZM97.3437 5.13403C96.5997 5.13403 95.9947 4.52903 95.9947 3.78503C95.9947 3.04103 96.5997 2.43604 97.3437 2.43604C98.0877 2.43604 98.6927 3.04103 98.6927 3.78503C98.6927 4.52903 98.0877 5.13403 97.3437 5.13403ZM89.9277 5.13403C89.1837 5.13403 88.5787 4.52903 88.5787 3.78503C88.5787 3.04103 89.1837 2.43604 89.9277 2.43604C90.6717 2.43604 91.2767 3.04103 91.2767 3.78503C91.2777 4.52903 90.6727 5.13403 89.9277 5.13403ZM82.5127 5.13403C81.7687 5.13403 81.1637 4.52903 81.1637 3.78503C81.1637 3.04103 81.7687 2.43604 82.5127 2.43604C83.2567 2.43604 83.8617 3.04103 83.8617 3.78503C83.8617 4.52903 83.2567 5.13403 82.5127 5.13403ZM75.0977 5.13403C74.3537 5.13403 73.7487 4.52903 73.7487 3.78503C73.7487 3.04103 74.3537 2.43604 75.0977 2.43604C75.8417 2.43604 76.4467 3.04103 76.4467 3.78503C76.4467 4.52903 75.8417 5.13403 75.0977 5.13403ZM67.6817 5.13403C66.9377 5.13403 66.3327 4.52903 66.3327 3.78503C66.3327 3.04103 66.9377 2.43604 67.6817 2.43604C68.4257 2.43604 69.0307 3.04103 69.0307 3.78503C69.0307 4.52903 68.4257 5.13403 67.6817 5.13403ZM60.2667 5.13403C59.5227 5.13403 58.9177 4.52903 58.9177 3.78503C58.9177 3.04103 59.5227 2.43604 60.2667 2.43604C61.0107 2.43604 61.6157 3.04103 61.6157 3.78503C61.6157 4.52903 61.0097 5.13403 60.2667 5.13403ZM52.8507 5.13403C52.1067 5.13403 51.5017 4.52903 51.5017 3.78503C51.5017 3.04103 52.1067 2.43604 52.8507 2.43604C53.5947 2.43604 54.1997 3.04103 54.1997 3.78503C54.1997 4.52903 53.5947 5.13403 52.8507 5.13403ZM46.3547 5.13403C45.6107 5.13403 45.0057 4.52903 45.0057 3.78503C45.0057 3.04103 45.6107 2.43604 46.3547 2.43604C47.0987 2.43604 47.7037 3.04103 47.7037 3.78503C47.7037 4.52903 47.0987 5.13403 46.3547 5.13403ZM38.9387 5.13403C38.1947 5.13403 37.5897 4.52903 37.5897 3.78503C37.5897 3.04103 38.1947 2.43604 38.9387 2.43604C39.6827 2.43604 40.2877 3.04103 40.2877 3.78503C40.2877 4.52903 39.6827 5.13403 38.9387 5.13403ZM31.5237 5.13403C30.7797 5.13403 30.1747 4.52903 30.1747 3.78503C30.1747 3.04103 30.7797 2.43604 31.5237 2.43604C32.2677 2.43604 32.8727 3.04103 32.8727 3.78503C32.8727 4.52903 32.2677 5.13403 31.5237 5.13403ZM24.1077 5.13403C23.3637 5.13403 22.7587 4.52903 22.7587 3.78503C22.7587 3.04103 23.3637 2.43604 24.1077 2.43604C24.8517 2.43604 25.4567 3.04103 25.4567 3.78503C25.4567 4.52903 24.8517 5.13403 24.1077 5.13403ZM16.6927 5.13403C15.9487 5.13403 15.3437 4.52903 15.3437 3.78503C15.3437 3.04103 15.9487 2.43604 16.6927 2.43604C17.4367 2.43604 18.0417 3.04103 18.0417 3.78503C18.0417 4.52903 17.4367 5.13403 16.6927 5.13403ZM9.2767 5.13403C8.5327 5.13403 7.9277 4.52903 7.9277 3.78503C7.9277 3.04103 8.5327 2.43604 9.2767 2.43604C10.0207 2.43604 10.6257 3.04103 10.6257 3.78503C10.6257 4.52903 10.0207 5.13403 9.2767 5.13403ZM1.86169 5.13403C1.11769 5.13403 0.512695 4.52903 0.512695 3.78503C0.512695 3.04103 1.11769 2.43604 1.86169 2.43604C2.60569 2.43604 3.21069 3.04103 3.21069 3.78503C3.21069 4.52903 2.60569 5.13403 1.86169 5.13403Z" fill="#101840"/>
</g>
</g>
</svg>
