<svg width="112" height="111" viewBox="0 0 112 111" fill="none" xmlns="http://www.w3.org/2000/svg">
<g opacity="0.2">
<path d="M56.4422 12.2754C80.0705 12.2754 99.293 31.4982 99.293 55.1262C99.293 78.7541 80.0701 97.9766 56.4422 97.9766C32.8143 97.9766 13.5914 78.7538 13.5914 55.1262C13.5918 31.4982 32.8146 12.2754 56.4422 12.2754ZM56.4422 96.1907C79.0855 96.1907 97.5071 77.7691 97.5071 55.1262C97.5071 32.4829 79.0855 14.0613 56.4422 14.0613C33.7993 14.0613 15.3777 32.4829 15.3777 55.1262C15.3777 77.7691 33.7993 96.1907 56.4422 96.1907Z" fill="#101840"/>
<path d="M23.6272 55.1266C23.6272 69.2317 32.6022 81.7318 45.9603 86.2315C46.4275 86.3888 46.679 86.8954 46.5213 87.3629C46.3957 87.7355 46.0482 87.9711 45.6753 87.9711C45.5807 87.9711 45.4844 87.956 45.3902 87.9242C31.3049 83.1797 21.8413 69.9997 21.8413 55.1269C21.8413 50.4565 22.7565 45.9251 24.5611 41.6587C24.753 41.2043 25.2769 40.9919 25.7313 41.1842C26.1854 41.3764 26.3978 41.9 26.2058 42.3544C24.4944 46.3989 23.6272 50.6965 23.6272 55.1266Z" fill="#101840"/>
<path d="M66.9236 24.0212C66.4565 23.8639 66.2049 23.3572 66.3626 22.8898C66.5203 22.423 67.0266 22.1697 67.4941 22.3288C81.5794 27.0733 91.043 40.2537 91.043 55.1265C91.043 55.6447 91.0313 56.1602 91.0091 56.6731C90.9883 57.1526 90.5928 57.5273 90.1175 57.5273C90.1045 57.5273 90.0915 57.5269 90.0781 57.5266C89.5852 57.5051 89.2034 57.088 89.2249 56.5955C89.2461 56.1087 89.2571 55.619 89.2571 55.1268C89.2567 41.021 80.2818 28.5205 66.9236 24.0212Z" fill="#101840"/>
<path d="M42.6586 78.3768C42.4984 78.3768 42.3361 78.3337 42.19 78.2434C35.5295 74.1283 30.966 67.3616 29.6687 59.6779C29.5865 59.1917 29.9142 58.7309 30.4008 58.6487C30.8869 58.5672 31.3477 58.8939 31.4299 59.3808C32.6414 66.5575 36.9054 72.879 43.1292 76.7242C43.5487 76.9832 43.6785 77.5335 43.4192 77.9534C43.2502 78.2264 42.9581 78.3768 42.6586 78.3768Z" fill="#101840"/>
<path d="M66.3953 30.7996C66.5975 30.3498 67.1264 30.1483 67.5762 30.3519C75.2094 33.7871 80.922 40.6862 82.8582 48.8074C82.9728 49.2868 82.6765 49.7688 82.1967 49.8831C82.1272 49.8996 82.0573 49.9078 81.9889 49.9078C81.5849 49.9078 81.2187 49.6315 81.121 49.2216C79.3125 41.6356 73.975 35.1906 66.843 31.9808C66.3932 31.7779 66.1928 31.2491 66.3953 30.7996Z" fill="#101840"/>
<path d="M56.4421 43.4673C62.8713 43.4673 68.1016 48.6976 68.1016 55.1264C68.1016 61.5551 62.8713 66.7855 56.4421 66.7855C50.0134 66.7855 44.7831 61.5551 44.7831 55.1264C44.7831 48.6976 50.0134 43.4673 56.4421 43.4673ZM56.4421 64.9996C61.8862 64.9996 66.3157 60.5705 66.3157 55.1264C66.3157 49.6823 61.8866 45.2531 56.4421 45.2531C50.998 45.2531 46.5689 49.6823 46.5689 55.1264C46.5689 60.5705 50.9984 64.9996 56.4421 64.9996Z" fill="#101840"/>
<path d="M0.842049 58.9037C0.893913 54.6361 4.55531 50.8537 7.49734 47.8143C9.11 46.1481 10.778 44.4253 10.7996 43.5578C10.8034 43.4015 10.7707 43.3811 10.7255 43.3532C9.57394 42.6458 4.40572 44.4377 3.08553 45.1468C2.76131 45.3215 2.36478 45.2784 2.08466 45.0406C1.80489 44.8028 1.69901 44.4179 1.8179 44.0704C3.20795 40.016 6.99353 38.5226 10.035 37.3231C11.7553 36.6446 13.38 36.0036 13.6294 35.1734C13.707 34.9145 13.7254 34.6217 13.3359 34.2396C11.9787 32.9084 7.9955 32.514 6.98437 32.8375C6.63086 32.9504 6.2449 32.834 6.01382 32.5443C5.78237 32.2543 5.75448 31.8518 5.94323 31.5325C8.87961 26.5714 13.434 26.1357 16.7595 25.8174C18.3722 25.6629 19.7654 25.5296 20.3224 24.9344C20.5627 24.6775 20.6181 24.4066 20.5077 24.0287C19.9774 22.2143 16.3894 19.9006 15.2022 19.5972C14.9058 19.5217 14.6691 19.2998 14.5742 19.0094C14.4793 18.719 14.5396 18.4001 14.7337 18.1644C16.4793 16.0448 20.7405 16.0892 24.8602 16.1305C27.5263 16.1573 30.2799 16.1859 31.5028 15.5466C31.9251 15.3258 32.0817 15.0471 32.0433 14.5849C31.8788 12.6226 28.6225 9.4957 27.5948 9.16089C27.2483 9.04799 27.0049 8.73577 26.9802 8.37203C26.9555 8.00829 27.1545 7.66607 27.4833 7.50766C31.6361 5.50339 37.1014 7.14604 41.0923 8.34557C42.8842 8.88395 44.5769 9.39481 45.2751 9.27415C45.3672 9.25863 45.4939 9.23709 45.5592 8.84407C45.8527 7.08146 43.967 3.14243 43.0158 2.62522C42.6651 2.43436 42.4834 2.03463 42.5709 1.64513C42.6584 1.25564 42.9932 0.971622 43.3919 0.949043C48.2726 0.671387 53.0735 3.79088 56.9286 6.29684C59.3982 7.90209 61.9514 9.5638 63.1354 9.21735C63.526 9.10339 63.8107 8.86243 64.0312 8.45918C65.0283 6.63378 64.1625 2.56102 63.7444 1.14592C63.6548 0.842512 63.7324 0.513692 63.949 0.282606C64.1653 0.0511669 64.487 -0.0472618 64.7968 0.0215349C70.0391 1.2006 73.0926 6.67294 75.3227 10.6688C76.2919 12.406 77.4981 14.5673 78.1631 14.7098C78.5769 14.798 78.7749 14.6918 78.9008 14.5884C80.1243 13.5882 80.0689 8.68989 80.0389 6.05834C80.0354 5.73199 80.2097 5.43001 80.4941 5.27019C80.7781 5.11002 81.127 5.11742 81.4039 5.29065C85.4178 7.79096 85.9981 12.394 86.4649 16.0928C86.7249 18.1524 86.9705 20.0985 87.7647 20.5367C88.2907 20.8274 88.629 20.7074 88.8657 20.5706C90.151 19.8286 91.2867 16.6209 91.346 13.566C91.3523 13.2277 91.5499 12.9218 91.8557 12.7768C92.1613 12.6318 92.5232 12.6713 92.7896 12.8808C95.3996 14.9278 95.666 19.7058 95.9006 23.9215C96.0566 26.7171 96.2174 29.608 97.0666 30.5986C97.7419 31.3864 98.5812 31.6771 99.4975 31.4387C100.795 31.1007 102.33 29.6387 102.835 27.1348C102.906 26.7831 103.18 26.5082 103.531 26.4363C103.885 26.3643 104.243 26.51 104.446 26.8056C107.426 31.1437 105.516 36.773 103.98 41.296C103.194 43.6125 102.451 45.8002 102.697 46.9987C103.039 48.6642 104.902 49.4249 106.393 49.5699C108.13 49.7393 109.675 49.1797 110.069 48.2398C110.221 47.8789 110.586 47.6612 110.979 47.6958C111.369 47.7336 111.688 48.0204 111.767 48.4039C113.075 54.7321 108.593 58.8264 105.321 61.816C103.628 63.362 102.03 64.823 101.794 66.0599C101.635 66.8929 101.916 67.1155 102.021 67.1995C103.091 68.0497 106.902 67.2866 109.654 66.0695C109.959 65.9347 110.315 65.9812 110.576 66.1908C110.836 66.4007 110.958 66.7384 110.89 67.0658C109.802 72.3645 104.139 75.5292 100.003 77.8397C98.0855 78.9115 96.1021 80.0197 95.7373 80.7891C95.5958 81.0879 95.6565 81.1871 95.6794 81.2245C96.3243 82.2769 101.067 82.4138 102.852 82.4653L103.482 82.4843C103.826 82.4956 104.133 82.7034 104.271 83.0188C104.409 83.3342 104.353 83.7008 104.128 83.9608C100.989 87.5887 95.955 88.7141 92.2791 89.5358C90.1983 90.0012 88.0465 90.4824 87.6256 91.1978C87.5018 91.4081 87.5173 91.5284 87.5522 91.6272C87.9029 92.6154 90.7547 93.6809 92.1249 94.1928C92.8584 94.4669 93.4377 94.6836 93.805 94.8889C94.0996 95.0536 94.2763 95.3712 94.2611 95.7084C94.2456 96.0461 94.041 96.3463 93.7323 96.4836C86.7842 99.5798 82.0979 98.6244 78.9971 97.9918C77.3615 97.6581 76.1797 97.4174 75.3633 97.8662C75.0059 98.0623 74.8485 98.3188 74.8365 98.7224C74.7832 100.497 77.5118 103.777 78.8736 104.636C79.1806 104.829 79.3397 105.189 79.2765 105.546C79.2134 105.904 78.9403 106.187 78.5857 106.264C72.6848 107.538 69.3014 104.916 66.8307 103.001C65.5257 101.989 64.4952 101.188 63.5588 101.291C63.1595 101.335 62.9527 101.508 62.8214 101.91C62.2146 103.767 64.0016 108.01 64.818 108.756C65.0882 109.003 65.1803 109.39 65.0501 109.732C64.9203 110.075 64.5936 110.303 64.2274 110.308C59.1413 110.367 56.8937 107.156 55.0806 104.568C53.838 102.795 52.8562 101.394 51.3296 101.294C50.3865 101.233 50.0327 101.613 49.8316 101.951C48.8226 103.652 49.9216 107.896 50.6851 109.099C50.8812 109.409 50.8688 109.807 50.6529 110.104C50.4822 110.338 50.2119 110.471 49.9307 110.471C49.8563 110.471 49.7815 110.462 49.7071 110.443C44.7064 109.15 42.3257 104.679 40.5874 101.414C39.7026 99.7526 38.8668 98.1834 38.1189 97.9276C37.9114 97.8574 37.7682 97.8641 37.5618 98.1001C36.4329 99.3857 36.3454 104.101 37.1741 105.776C37.3286 106.089 37.287 106.463 37.0676 106.734C36.8478 107.005 36.4907 107.123 36.1527 107.037C30.6705 105.637 29.532 99.9132 28.7008 95.7339C28.2647 93.5405 27.8527 91.4692 27.0172 90.8634C26.6997 90.633 26.5632 90.6863 26.5049 90.7089C25.6441 91.0454 24.7688 93.4015 23.9034 97.7117C23.8212 98.1206 23.7545 98.4511 23.7023 98.667C23.624 98.9884 23.3749 99.2407 23.0542 99.3218C22.7331 99.404 22.3944 99.3014 22.1722 99.0559C18.3411 94.8243 18.8174 90.5413 19.1998 87.1004C19.4397 84.9416 19.6295 83.2365 18.6692 82.2289C18.1873 81.7226 17.8165 81.7378 17.5176 81.8204C15.6153 82.3429 13.3062 86.9265 13.1143 87.7654C13.0346 88.1429 12.7213 88.4269 12.3374 88.4689C11.9525 88.5113 11.5867 88.3014 11.4269 87.95C9.57713 83.8701 10.9245 79.3225 12.0072 75.6682C12.7111 73.2931 13.3758 71.0496 12.6472 70.3211C12.3925 70.0667 12.1025 69.9461 11.7042 69.9538C11.0455 69.9602 9.12446 70.3797 5.52023 74.1268L5.4359 74.2143C5.20129 74.456 4.85099 74.5462 4.53029 74.4457C4.20924 74.3462 3.97071 74.0745 3.91426 73.7433C3.11093 69.034 5.65854 65.3102 7.70621 62.3181C8.93326 60.5248 9.99273 58.976 9.89818 57.8403C9.86607 57.4537 9.72387 57.3757 9.64732 57.3337C9.30615 57.1464 7.77043 56.7548 2.34185 59.6047L2.14603 59.707C1.86767 59.8502 1.53428 59.8379 1.2672 59.6731C0.999077 59.5094 0.838524 59.2169 0.842049 58.9037ZM10.5057 55.7694C10.9887 56.0347 11.5842 56.584 11.6767 57.6936C11.8241 59.4622 10.5981 61.2537 9.17879 63.3278C7.53014 65.7375 5.69629 68.4177 5.55623 71.5827C7.97222 69.3318 10.0294 68.1852 11.6854 68.1693C12.572 68.1785 13.3179 68.4688 13.9085 69.0598C15.3885 70.5398 14.6515 73.0275 13.718 76.1769C12.9231 78.8593 11.9737 82.0641 12.4137 85.0118C13.4396 83.0855 15.1175 80.6459 17.0167 80.1068C17.7678 79.8947 18.8904 79.875 19.9608 80.9983C21.4941 82.6088 21.2411 84.8873 20.973 87.2994C20.6611 90.1056 20.3129 93.2356 22.3521 96.3819C23.0531 93.0762 24.0011 89.7711 25.853 89.0472C26.3557 88.8507 27.1481 88.755 28.064 89.419C29.4668 90.4354 29.9226 92.7301 30.4511 95.387C31.163 98.9666 31.9579 102.96 35.0255 104.687C34.5986 102.133 34.8643 98.4652 36.2184 96.9231C36.8852 96.1646 37.7647 95.9212 38.6957 96.2394C40.1108 96.7238 41.0161 98.424 42.1627 100.577C43.574 103.227 45.2765 106.425 48.3272 108.015C47.6745 105.898 47.2219 102.85 48.2941 101.042C48.746 100.28 49.6555 99.3959 51.445 99.5141C53.826 99.6701 55.1452 101.552 56.5419 103.546C58.0071 105.637 59.5143 107.788 62.4394 108.371C61.3972 106.352 60.5021 103.254 61.1224 101.356C61.4713 100.29 62.2672 99.6366 63.3644 99.5173C63.49 99.5036 63.6135 99.4969 63.7356 99.4969C65.2226 99.4969 66.4825 100.473 67.9237 101.591C69.9382 103.153 72.3807 105.044 76.3349 104.787C74.7826 103.197 72.9889 100.689 73.0496 98.6699C73.081 97.6256 73.5826 96.8071 74.501 96.3019C75.8921 95.5366 77.4191 95.8478 79.3524 96.2426C82.0672 96.7962 85.675 97.5317 90.9677 95.6668C88.4667 94.7135 86.4106 93.7578 85.8673 92.2249C85.6411 91.587 85.7163 90.9191 86.0842 90.2933C86.8981 88.9092 89.1 88.4171 91.8879 87.7937C94.9153 87.117 98.5611 86.302 101.284 84.1972C97.9515 84.0486 95.0793 83.6666 94.1546 82.158C93.8861 81.7198 93.6624 80.9941 94.1214 80.0253C94.7304 78.7397 96.5759 77.7081 99.1302 76.281C102.652 74.3134 106.923 71.9274 108.581 68.3782C106.371 69.1145 102.691 70.0141 100.909 68.5987C100.347 68.1524 99.7402 67.2919 100.038 65.7265C100.385 63.9057 102.113 62.3266 104.115 60.4983C107.007 57.8562 110.239 54.9036 110.214 50.5923C109.08 51.2634 107.571 51.4796 106.218 51.3484C103.457 51.0796 101.388 49.5131 100.946 47.3582C100.602 45.6855 101.383 43.3856 102.287 40.723C103.47 37.2384 104.895 33.0368 103.851 29.6475C102.975 31.4259 101.551 32.7493 99.9462 33.1677C98.3713 33.5766 96.8274 33.0654 95.7094 31.7615C94.4665 30.3114 94.3042 27.3969 94.1161 24.0213C93.9574 21.1735 93.7831 18.0434 92.8969 15.9859C92.4467 18.5949 91.3653 21.1901 89.7576 22.1183C88.8537 22.6401 87.8663 22.6348 86.9006 22.1017C85.3109 21.2243 85.0241 18.9508 84.6921 16.3175C84.3213 13.378 83.9088 10.1085 81.8301 7.92291C81.8009 12.2278 81.4248 14.8322 80.0305 15.9728C79.6036 16.3218 78.868 16.6883 77.7877 16.4576C76.3317 16.1453 75.2539 14.2137 73.7619 11.5402C71.9298 8.25666 69.4968 3.89636 65.8549 2.25265C66.2581 4.18531 66.6677 7.35525 65.5987 9.31472C65.1486 10.1396 64.4878 10.684 63.6347 10.9327C61.665 11.5095 59.1449 9.86933 55.9548 7.7952C52.8802 5.79657 49.1698 3.38445 45.4981 2.83408C46.661 4.675 47.6079 7.41382 47.3211 9.13832C47.1468 10.1858 46.51 10.8773 45.574 11.036C44.4626 11.2234 42.8337 10.7347 40.5783 10.0567C37.4119 9.10515 33.2474 7.85375 29.9024 8.56465C31.6333 9.99597 33.6588 12.4751 33.8228 14.4367C33.922 15.6186 33.3917 16.5751 32.3301 17.13C30.7097 17.9771 27.859 17.9468 24.8422 17.9171C22.0692 17.8875 19.0037 17.8571 17.2351 18.555C19.1265 19.5876 21.6458 21.5559 22.222 23.5284C22.512 24.5209 22.3059 25.4294 21.6264 26.1558C20.6082 27.2445 18.9035 27.4075 16.9295 27.5963C14.2376 27.8538 10.976 28.1657 8.54377 30.9599C10.5872 31.0477 13.278 31.6821 14.5866 32.9659C15.3684 33.7333 15.6362 34.7 15.3398 35.6878C14.8416 37.3481 12.9182 38.107 10.6906 38.9855C8.54658 39.8312 6.18631 40.7618 4.67525 42.5756C6.91978 41.7617 10.1268 40.8892 11.6615 41.8326C12.2764 42.2108 12.6045 42.8395 12.5851 43.6033C12.5463 45.1673 10.8843 46.884 8.78051 49.0573C6.46365 51.4507 3.66483 54.3419 2.8562 57.3432C6.65025 55.4963 9.0987 54.9967 10.5057 55.7694Z" fill="#101840"/>
</g>
</svg>
