<svg width="232" height="230" viewBox="0 0 232 230" fill="none" xmlns="http://www.w3.org/2000/svg">
<g opacity="0.05">
<path d="M115.765 25.5159C66.6513 25.5159 26.6953 65.4726 26.6953 114.586C26.6953 163.699 66.652 203.655 115.765 203.655C164.878 203.655 204.835 163.698 204.835 114.586C204.834 65.4726 164.878 25.5159 115.765 25.5159ZM115.765 199.943C68.6988 199.943 30.4075 161.652 30.4075 114.586C30.4075 67.5194 68.6988 29.228 115.765 29.228C162.831 29.228 201.122 67.5194 201.122 114.586C201.122 161.652 162.831 199.943 115.765 199.943Z" fill="white"/>
<path d="M183.973 114.587C183.973 143.906 165.317 169.889 137.551 179.242C136.58 179.569 136.057 180.622 136.385 181.594C136.646 182.368 137.368 182.858 138.143 182.858C138.34 182.858 138.54 182.827 138.736 182.761C168.014 172.899 187.685 145.503 187.685 114.588C187.685 104.88 185.783 95.4609 182.032 86.5926C181.633 85.6481 180.544 85.2066 179.599 85.6063C178.655 86.006 178.214 87.0943 178.613 88.0388C182.17 96.4458 183.973 105.379 183.973 114.587Z" fill="white"/>
<path d="M93.9785 49.9312C94.9494 49.6041 95.4724 48.551 95.1446 47.5793C94.8168 46.6091 93.7644 46.0826 92.7927 46.4134C63.5149 56.2753 43.8438 83.6721 43.8438 114.587C43.8438 115.664 43.868 116.735 43.9142 117.802C43.9575 118.798 44.7795 119.577 45.7673 119.577C45.7945 119.577 45.8216 119.576 45.8494 119.576C46.8739 119.531 47.6674 118.664 47.6227 117.64C47.5787 116.628 47.5559 115.611 47.5559 114.588C47.5567 85.2671 66.2121 59.2835 93.9785 49.9312Z" fill="white"/>
<path d="M144.417 162.916C144.75 162.916 145.088 162.826 145.391 162.638C159.236 154.085 168.722 140.019 171.418 124.048C171.589 123.037 170.908 122.08 169.896 121.909C168.886 121.739 167.928 122.419 167.757 123.431C165.239 138.348 156.376 151.488 143.439 159.481C142.567 160.019 142.297 161.163 142.836 162.036C143.187 162.603 143.795 162.916 144.417 162.916Z" fill="white"/>
<path d="M95.0777 64.0205C94.6575 63.0855 93.5581 62.6668 92.6231 63.0899C76.7566 70.2304 64.8824 84.5709 60.8579 101.452C60.6195 102.448 61.2355 103.45 62.2329 103.688C62.3774 103.722 62.5225 103.739 62.6648 103.739C63.5045 103.739 64.2657 103.165 64.4688 102.313C68.2279 86.5443 79.3226 73.1476 94.147 66.4757C95.082 66.0541 95.4986 64.9548 95.0777 64.0205Z" fill="white"/>
<path d="M115.765 90.3504C102.401 90.3504 91.5293 101.222 91.5293 114.585C91.5293 127.948 102.401 138.82 115.765 138.82C129.128 138.82 139.999 127.948 139.999 114.585C139.999 101.222 129.128 90.3504 115.765 90.3504ZM115.765 135.108C104.449 135.108 95.2415 125.901 95.2415 114.585C95.2415 103.269 104.448 94.0625 115.765 94.0625C127.081 94.0625 136.287 103.269 136.287 114.585C136.287 125.901 127.08 135.108 115.765 135.108Z" fill="white"/>
<path d="M231.335 122.438C231.227 113.567 223.617 105.705 217.501 99.3873C214.149 95.9237 210.682 92.3429 210.637 90.5396C210.629 90.2147 210.697 90.1722 210.791 90.1143C213.185 88.6439 223.928 92.3685 226.672 93.8426C227.346 94.2056 228.17 94.1161 228.752 93.6218C229.334 93.1275 229.554 92.3275 229.307 91.6051C226.417 83.1776 218.549 80.0734 212.226 77.58C208.651 76.1698 205.274 74.8373 204.755 73.1118C204.594 72.5735 204.556 71.9648 205.365 71.1706C208.186 68.4037 216.466 67.5839 218.568 68.2563C219.302 68.491 220.105 68.249 220.585 67.6469C221.066 67.0441 221.124 66.2074 220.732 65.5437C214.628 55.2315 205.161 54.3258 198.249 53.6643C194.897 53.3431 192.001 53.0659 190.843 51.8288C190.344 51.2949 190.228 50.7317 190.458 49.9463C191.56 46.1747 199.018 41.3655 201.486 40.7348C202.102 40.5779 202.594 40.1166 202.791 39.5131C202.988 38.9096 202.863 38.2466 202.46 37.7567C198.831 33.3508 189.974 33.4432 181.411 33.529C175.869 33.5848 170.145 33.6442 167.603 32.3154C166.726 31.8563 166.4 31.2769 166.48 30.3163C166.822 26.2374 173.59 19.7378 175.727 19.0419C176.447 18.8072 176.953 18.1582 177.004 17.4022C177.055 16.6461 176.642 15.9348 175.958 15.6055C167.326 11.4394 155.966 14.8538 147.671 17.3472C143.946 18.4662 140.427 19.5281 138.976 19.2773C138.785 19.2451 138.521 19.2003 138.386 18.3833C137.776 14.7196 141.695 6.53189 143.672 5.45681C144.401 5.06007 144.779 4.22919 144.597 3.41958C144.415 2.60998 143.719 2.01962 142.891 1.97269C132.746 1.39555 122.766 7.87975 114.753 13.0887C109.62 16.4254 104.313 19.8794 101.851 19.1593C101.04 18.9224 100.448 18.4215 99.9895 17.5833C97.9171 13.789 99.7167 5.32335 100.586 2.38192C100.772 1.75125 100.611 1.06776 100.16 0.587426C99.7109 0.106356 99.0421 -0.0982387 98.3982 0.0447625C87.5015 2.49558 81.1544 13.8704 76.519 22.1762C74.5045 25.7872 71.9973 30.2796 70.6149 30.5759C69.7547 30.7592 69.3433 30.5385 69.0815 30.3236C66.5383 28.2446 66.6534 18.0629 66.7158 12.5929C66.7231 11.9146 66.3608 11.2869 65.7697 10.9547C65.1794 10.6217 64.4541 10.6371 63.8784 10.9972C55.5352 16.1944 54.3289 25.7622 53.3587 33.4506C52.8182 37.7318 52.3078 41.7769 50.657 42.6877C49.5636 43.292 48.8604 43.0426 48.3683 42.7581C45.6968 41.2159 43.3361 34.5484 43.2129 28.1984C43.1997 27.4951 42.7891 26.8593 42.1533 26.5579C41.5182 26.2565 40.7658 26.3386 40.2121 26.7742C34.7869 31.0291 34.2332 40.9607 33.7456 49.7234C33.4214 55.5343 33.087 61.5433 31.3218 63.6026C29.9182 65.2401 28.1736 65.8444 26.2691 65.3486C23.5726 64.6461 20.3819 61.6071 19.3318 56.4026C19.1844 55.6715 18.6138 55.1002 17.8841 54.9506C17.1486 54.801 16.405 55.1039 15.9826 55.7184C9.78954 64.7355 13.7599 76.4367 16.9514 85.8381C18.586 90.6532 20.1289 95.2006 19.6185 97.6918C18.9079 101.154 15.0351 102.735 11.9353 103.036C8.32576 103.388 5.11304 102.225 4.29463 100.272C3.98003 99.5215 3.22031 99.069 2.40337 99.1409C1.59376 99.2194 0.929348 99.8156 0.76508 100.613C-1.95268 113.767 7.36218 122.277 14.1646 128.491C17.6825 131.705 21.0052 134.742 21.4951 137.313C21.8251 139.044 21.2429 139.507 21.0229 139.681C18.7994 141.449 10.8771 139.863 5.15778 137.332C4.5227 137.052 3.78274 137.149 3.24153 137.585C2.70106 138.021 2.44807 138.723 2.58813 139.403C4.84902 150.417 16.6221 156.996 25.2175 161.798C29.204 164.026 33.3267 166.329 34.085 167.929C34.3791 168.55 34.253 168.756 34.2053 168.834C32.8648 171.021 23.0065 171.306 19.2966 171.413L17.986 171.453C17.271 171.476 16.6338 171.908 16.347 172.564C16.0603 173.219 16.1762 173.981 16.644 174.522C23.1678 182.063 33.6326 184.402 41.2732 186.11C45.5984 187.077 50.0711 188.077 50.946 189.565C51.2034 190.002 51.1711 190.252 51.0985 190.457C50.3696 192.511 44.442 194.726 41.5937 195.79C40.0691 196.36 38.865 196.81 38.1016 197.237C37.4892 197.579 37.1218 198.239 37.1534 198.94C37.1856 199.642 37.611 200.266 38.2527 200.551C52.695 206.987 62.436 205.001 68.8813 203.687C72.2811 202.993 74.7377 202.493 76.4346 203.425C77.1775 203.833 77.5046 204.366 77.5296 205.205C77.6403 208.894 71.9687 215.711 69.138 217.497C68.5 217.899 68.1692 218.647 68.3005 219.389C68.4318 220.132 68.9994 220.721 69.7364 220.88C82.0022 223.528 89.0349 218.079 94.1705 214.098C96.8831 211.995 99.0252 210.331 100.971 210.545C101.802 210.635 102.231 210.996 102.504 211.83C103.766 215.691 100.051 224.511 98.3542 226.061C97.7924 226.574 97.6011 227.379 97.8717 228.091C98.1415 228.803 98.8206 229.276 99.5818 229.287C110.154 229.409 114.826 222.735 118.594 217.357C121.177 213.67 123.218 210.759 126.391 210.55C128.351 210.424 129.087 211.213 129.505 211.917C131.602 215.453 129.318 224.274 127.731 226.775C127.323 227.418 127.349 228.245 127.798 228.862C128.153 229.349 128.714 229.626 129.299 229.626C129.454 229.626 129.609 229.607 129.764 229.567C140.158 226.879 145.107 217.586 148.72 210.801C150.559 207.347 152.296 204.085 153.851 203.553C154.282 203.407 154.58 203.421 155.009 203.912C157.356 206.584 157.538 216.384 155.815 219.868C155.494 220.517 155.58 221.295 156.036 221.859C156.493 222.421 157.235 222.667 157.938 222.489C169.333 219.578 171.7 207.68 173.428 198.993C174.334 194.434 175.191 190.128 176.927 188.869C177.587 188.39 177.871 188.501 177.992 188.548C179.781 189.248 181.601 194.145 183.4 203.104C183.57 203.954 183.709 204.641 183.818 205.09C183.98 205.758 184.498 206.282 185.165 206.451C185.832 206.622 186.536 206.409 186.998 205.898C194.961 197.103 193.971 188.2 193.176 181.048C192.678 176.56 192.283 173.016 194.279 170.922C195.281 169.869 196.052 169.901 196.673 170.072C200.627 171.159 205.427 180.686 205.826 182.43C205.992 183.215 206.643 183.805 207.441 183.892C208.241 183.98 209.001 183.544 209.333 182.813C213.178 174.333 210.378 164.88 208.127 157.284C206.664 152.348 205.282 147.684 206.797 146.17C207.326 145.641 207.929 145.39 208.757 145.407C210.126 145.42 214.119 146.292 221.611 154.08L221.786 154.262C222.274 154.765 223.002 154.952 223.669 154.743C224.336 154.537 224.832 153.972 224.949 153.283C226.619 143.495 221.323 135.754 217.067 129.535C214.517 125.807 212.314 122.588 212.511 120.227C212.578 119.424 212.873 119.262 213.032 119.174C213.741 118.785 216.934 117.971 228.218 123.895L228.625 124.107C229.203 124.405 229.896 124.38 230.451 124.037C231.009 123.697 231.342 123.089 231.335 122.438ZM211.248 115.923C210.244 116.474 209.006 117.616 208.814 119.922C208.508 123.599 211.056 127.322 214.006 131.634C217.433 136.642 221.245 142.214 221.536 148.792C216.514 144.114 212.238 141.73 208.796 141.697C206.953 141.716 205.403 142.32 204.175 143.548C201.099 146.625 202.631 151.795 204.571 158.342C206.223 163.918 208.197 170.579 207.282 176.706C205.15 172.702 201.662 167.631 197.714 166.511C196.153 166.07 193.82 166.029 191.595 168.364C188.408 171.711 188.933 176.447 189.491 181.461C190.139 187.294 190.863 193.8 186.624 200.34C185.167 193.469 183.196 186.599 179.347 185.094C178.302 184.686 176.655 184.487 174.751 185.867C171.836 187.98 170.888 192.749 169.789 198.272C168.31 205.713 166.657 214.014 160.281 217.603C161.168 212.295 160.616 204.671 157.802 201.465C156.416 199.889 154.587 199.383 152.652 200.044C149.711 201.051 147.829 204.585 145.446 209.06C142.512 214.569 138.973 221.216 132.632 224.521C133.989 220.121 134.93 213.785 132.701 210.027C131.761 208.443 129.871 206.605 126.151 206.851C121.202 207.175 118.46 211.087 115.557 215.231C112.511 219.577 109.379 224.048 103.298 225.261C105.465 221.064 107.325 214.624 106.036 210.68C105.311 208.463 103.656 207.105 101.376 206.857C101.114 206.829 100.858 206.815 100.604 206.815C97.513 206.815 94.8943 208.845 91.8986 211.167C87.7112 214.414 82.6343 218.345 74.415 217.811C77.6417 214.505 81.37 209.293 81.2439 205.096C81.1786 202.925 80.1359 201.224 78.227 200.174C75.3354 198.583 72.1615 199.23 68.1428 200.051C62.4997 201.201 55.0006 202.73 43.9991 198.854C49.1977 196.872 53.4716 194.886 54.601 191.699C55.071 190.373 54.9148 188.985 54.15 187.684C52.4582 184.807 47.8813 183.784 42.0865 182.489C35.7937 181.082 28.2154 179.388 22.5548 175.013C29.4827 174.704 35.4528 173.91 37.3748 170.774C37.9329 169.863 38.3978 168.355 37.4438 166.341C36.178 163.669 32.3419 161.525 27.0325 158.558C19.7123 154.468 10.8352 149.509 7.38707 142.131C11.9807 143.662 19.6302 145.532 23.335 142.59C24.5033 141.662 25.7646 139.873 25.1457 136.62C24.4248 132.835 20.8321 129.552 16.6719 125.752C10.6607 120.26 3.94262 114.123 3.99322 105.162C6.35164 106.556 9.48744 107.006 12.2991 106.733C18.0382 106.174 22.3399 102.918 23.2588 98.4391C23.9723 94.9623 22.3494 90.1817 20.4706 84.6472C18.0125 77.404 15.0491 68.6706 17.219 61.6254C19.0399 65.3222 22.0004 68.073 25.3363 68.9427C28.61 69.7927 31.8191 68.73 34.143 66.0196C36.7266 63.0056 37.0639 56.9475 37.4548 49.9309C37.7848 44.0114 38.147 37.5052 39.9892 33.2284C40.9249 38.6514 43.1726 44.0458 46.5145 45.9752C48.3933 47.0599 50.4458 47.0489 52.453 45.9408C55.7574 44.117 56.3536 39.3914 57.0437 33.9177C57.8144 27.8075 58.6717 21.0117 62.9926 16.4686C63.0534 25.4168 63.8351 30.8304 66.7333 33.2012C67.6206 33.9265 69.1497 34.6884 71.3952 34.2088C74.4217 33.5598 76.662 29.5448 79.7633 23.9875C83.5715 17.1624 88.6286 8.09901 96.1989 4.68238C95.3607 8.69962 94.5093 15.2887 96.7313 19.3617C97.667 21.0762 99.0406 22.2077 100.814 22.7248C104.908 23.9238 110.146 20.5145 116.777 16.2032C123.168 12.0488 130.881 7.03494 138.513 5.89093C136.095 9.7175 134.127 15.4104 134.723 18.995C135.086 21.1723 136.409 22.6096 138.355 22.9396C140.665 23.329 144.051 22.3133 148.739 20.9038C155.321 18.926 163.977 16.3249 170.93 17.8025C167.332 20.7777 163.122 25.9309 162.781 30.0083C162.575 32.465 163.677 34.453 165.884 35.6066C169.252 37.3673 175.177 37.3043 181.448 37.2427C187.212 37.1811 193.584 37.118 197.26 38.5685C193.329 40.715 188.092 44.8063 186.895 48.9064C186.292 50.9693 186.72 52.8577 188.133 54.3676C190.249 56.6307 193.792 56.9695 197.895 57.3618C203.491 57.8972 210.271 58.5454 215.326 64.3535C211.079 64.5361 205.486 65.8546 202.766 68.5232C201.141 70.1182 200.584 72.1276 201.2 74.181C202.235 77.6321 206.234 79.2095 210.864 81.0355C215.32 82.7933 220.226 84.7278 223.367 88.4979C218.702 86.8061 212.036 84.9926 208.846 86.9535C207.568 87.7397 206.885 89.0465 206.926 90.6342C207.006 93.8851 210.461 97.4535 214.834 101.971C219.65 106.946 225.468 112.956 227.148 119.194C219.262 115.355 214.173 114.317 211.248 115.923Z" fill="white"/>
</g>
</svg>
