<svg width="234" height="233" viewBox="0 0 234 233" fill="none" xmlns="http://www.w3.org/2000/svg">
<path d="M47.1874 75.2826C46.7548 75.0898 46.3296 75.0936 45.9119 75.2941C45.4914 75.4928 45.1333 75.8437 44.8377 76.3466C44.6261 76.7066 44.5002 77.0516 44.4599 77.3817C44.4169 77.71 44.4511 78.005 44.5626 78.2667C44.6729 78.5237 44.8523 78.7253 45.1009 78.8714C45.3095 78.9941 45.5181 79.0513 45.7266 79.0432C45.9368 79.0322 46.1404 78.9769 46.3373 78.8774C46.5331 78.7733 46.7198 78.6485 46.8976 78.5031C47.0725 78.356 47.2317 78.2093 47.3753 78.0631L48.1021 77.3369C48.3353 77.0972 48.5969 76.8646 48.8871 76.6392C49.1772 76.4137 49.4919 76.2315 49.8311 76.0926C50.1704 75.9537 50.5268 75.8902 50.9004 75.9022C51.2756 75.9113 51.6604 76.0318 52.0547 76.2636C52.5519 76.5558 52.9177 76.9439 53.1523 77.4278C53.3886 77.9088 53.4754 78.4577 53.4127 79.0745C53.3518 79.6884 53.1197 80.3382 52.7166 81.0239C52.3304 81.6811 51.8918 82.1884 51.4011 82.5459C50.9103 82.9033 50.3937 83.1052 49.8513 83.1516C49.306 83.1963 48.7607 83.0776 48.2153 82.7954L48.9962 81.4668C49.3285 81.6275 49.6533 81.68 49.9705 81.6242C50.2866 81.564 50.5792 81.4226 50.8484 81.2002C51.1163 80.9733 51.3502 80.6898 51.5501 80.3498C51.7701 79.9755 51.9072 79.6082 51.9614 79.2479C52.0144 78.883 51.9847 78.5541 51.8723 78.2613C51.7571 77.9667 51.5567 77.7355 51.2709 77.5675C51.0109 77.4147 50.7544 77.3639 50.5013 77.415C50.2499 77.4633 49.996 77.5813 49.7397 77.7689C49.485 77.9537 49.2238 78.1789 48.9562 78.4445L48.0636 79.3154C47.459 79.9058 46.8501 80.2975 46.2368 80.4906C45.6251 80.6809 45.0136 80.5963 44.4021 80.2369C43.8964 79.9396 43.5355 79.543 43.3196 79.047C43.1037 78.551 43.0291 78.0073 43.096 77.4161C43.16 76.8233 43.365 76.2325 43.711 75.6439C44.0603 75.0496 44.4728 74.5865 44.9485 74.2548C45.4258 73.9203 45.9246 73.729 46.4448 73.6812C46.9622 73.6316 47.46 73.7396 47.9382 74.0053L47.1874 75.2826Z" fill="#101111"/>
<path d="M56.3134 63.9975L55.3321 65.1988C55.0377 65.0353 54.7415 64.9367 54.4437 64.9031C54.1459 64.8695 53.8545 64.8883 53.5696 64.9594C53.2847 65.0305 53.0153 65.1507 52.7615 65.3199C52.5097 65.4866 52.2811 65.6957 52.0756 65.9473C51.7045 66.4016 51.4863 66.9017 51.4212 67.4477C51.3582 67.9911 51.4625 68.5471 51.7341 69.1157C52.0078 69.6817 52.463 70.2247 53.0995 70.7447C53.7412 71.269 54.3666 71.6087 54.9759 71.7641C55.5872 71.9168 56.1526 71.9058 56.672 71.731C57.1915 71.5562 57.6347 71.2442 58.0016 70.795C58.205 70.546 58.3646 70.2826 58.4803 70.0048C58.5955 69.7223 58.6608 69.4354 58.6762 69.1442C58.6917 68.8529 58.6545 68.5657 58.5647 68.2827C58.4745 67.995 58.3235 67.724 58.1118 67.4697L59.0971 66.2716C59.4322 66.6524 59.6873 67.0684 59.8623 67.5195C60.0368 67.966 60.1247 68.4294 60.126 68.9098C60.1268 69.3855 60.0415 69.8593 59.8699 70.3312C59.6984 70.8031 59.4355 71.2559 59.0811 71.6897C58.5233 72.3725 57.8646 72.8487 57.1051 73.1183C56.3429 73.3859 55.5332 73.4263 54.6758 73.2394C53.8205 73.05 52.9732 72.6124 52.1339 71.9267C51.292 71.2389 50.6953 70.4946 50.3437 69.6938C49.9896 68.891 49.8689 68.0905 49.9817 67.2924C50.0918 66.4922 50.4248 65.752 50.9805 65.0718C51.3223 64.6534 51.7013 64.3126 52.1176 64.0492C52.5334 63.7812 52.9753 63.5965 53.4433 63.4952C53.9087 63.3918 54.3845 63.3804 54.8708 63.4609C55.3545 63.5394 55.8354 63.7183 56.3134 63.9975Z" fill="#101111"/>
<path d="M64.0525 65.7859L57.2595 58.2014L59.963 55.7801C60.5506 55.2538 61.1289 54.9183 61.6978 54.7736C62.2692 54.6267 62.8115 54.646 63.3247 54.8315C63.8357 55.0145 64.3002 55.3394 64.7181 55.806C65.1338 56.2701 65.4023 56.7661 65.5235 57.2938C65.6449 57.8169 65.5979 58.3506 65.3825 58.8951C65.1696 59.4373 64.7693 59.9715 64.1817 60.4978L62.1337 62.332L61.2514 61.3469L63.1957 59.6056C63.566 59.2739 63.8197 58.951 63.9567 58.637C64.0962 58.3208 64.1295 58.0128 64.0569 57.713C63.9842 57.4133 63.8207 57.1215 63.5664 56.8375C63.3099 56.5511 63.0321 56.3528 62.733 56.2424C62.4364 56.1299 62.1211 56.1231 61.7871 56.222C61.4533 56.3163 61.0975 56.5326 60.7198 56.8709L59.2828 58.1579L65.1968 64.761L64.0525 65.7859ZM64.7318 59.0106L69.6705 60.7542L68.3669 61.9218L63.4653 60.145L64.7318 59.0106Z" fill="#101111"/>
<path d="M76.7078 49.7542C77.2959 50.6685 77.6343 51.5622 77.7229 52.4352C77.8098 53.3054 77.6758 54.1049 77.3209 54.8337C76.9671 55.5578 76.4208 56.1575 75.6821 56.6327C74.9406 57.1096 74.1656 57.3599 73.3571 57.3834C72.5496 57.4023 71.767 57.1905 71.0094 56.7478C70.2517 56.3051 69.5797 55.628 68.9934 54.7165C68.4052 53.8022 68.0677 52.9099 67.9809 52.0397C67.8922 51.1667 68.0248 50.3681 68.3787 49.6439C68.7336 48.9152 69.2817 48.3123 70.0232 47.8353C70.7619 47.3602 71.535 47.1131 72.3425 47.0942C73.151 47.0707 73.9341 47.2802 74.6918 47.7229C75.4476 48.1628 76.1196 48.8399 76.7078 49.7542ZM75.4283 50.5772C74.98 49.8803 74.4897 49.3662 73.9573 49.0348C73.4259 48.6988 72.8862 48.5336 72.3381 48.5394C71.7911 48.5405 71.2723 48.6989 70.7817 49.0144C70.2883 49.3318 69.9276 49.7392 69.6998 50.2365C69.4701 50.731 69.3966 51.2906 69.4792 51.9153C69.5628 52.5354 69.8287 53.1939 70.277 53.8908C70.7253 54.5877 71.2151 55.1041 71.7465 55.4401C72.2789 55.7715 72.8186 55.9367 73.3657 55.9355C73.9109 55.9316 74.4303 55.7709 74.9236 55.4536C75.4142 55.138 75.7744 54.7329 76.004 54.2384C76.2347 53.7393 76.3082 53.1797 76.2246 52.5596C76.142 51.9349 75.8766 51.2741 75.4283 50.5772Z" fill="#101111"/>
<path d="M82.695 52.3231L78.5189 43.0371L79.9199 42.407L83.5537 50.4869L87.7614 48.5945L88.3038 49.8006L82.695 52.3231Z" fill="#101111"/>
<path d="M91.2146 48.6644L88.2407 38.9265L89.7099 38.4778L92.2976 46.9509L96.71 45.6033L97.0963 46.8681L91.2146 48.6644Z" fill="#101111"/>
<path d="M108.003 44.8888L104.72 45.182L103.814 35.0405L107.201 34.7381C108.195 34.6494 109.066 34.7762 109.816 35.1186C110.565 35.4577 111.163 35.9883 111.61 36.7104C112.06 37.4289 112.332 38.3147 112.426 39.3678C112.521 40.4242 112.408 41.3493 112.09 42.143C111.775 42.9365 111.272 43.5704 110.583 44.0446C109.893 44.5155 109.033 44.7969 108.003 44.8888ZM106.13 43.7083L107.799 43.5593C108.572 43.4904 109.201 43.2878 109.686 42.9516C110.172 42.6121 110.517 42.1537 110.722 41.5764C110.926 40.9958 110.992 40.3044 110.921 39.5022C110.85 38.7066 110.662 38.0428 110.359 37.5109C110.058 36.9787 109.646 36.5912 109.122 36.3485C108.598 36.1058 107.966 36.0175 107.226 36.0835L105.464 36.2409L106.13 43.7083Z" fill="#101111"/>
<path d="M125.784 39.9344C125.699 41.0182 125.427 41.9343 124.969 42.6828C124.511 43.428 123.921 43.9832 123.197 44.3483C122.477 44.7105 121.679 44.857 120.804 44.7879C119.925 44.7186 119.156 44.4486 118.499 43.9778C117.844 43.5039 117.35 42.8615 117.015 42.0504C116.68 41.2394 116.555 40.2936 116.64 39.2132C116.726 38.1294 116.997 37.215 117.455 36.4698C117.913 35.7213 118.502 35.166 119.222 34.8038C119.946 34.4387 120.747 34.2908 121.626 34.3601C122.502 34.4291 123.267 34.7006 123.921 35.1744C124.578 35.6452 125.075 36.2861 125.41 37.0972C125.745 37.9049 125.87 38.8507 125.784 39.9344ZM124.268 39.8148C124.333 38.9888 124.254 38.2827 124.031 37.6966C123.811 37.1074 123.482 36.6492 123.042 36.322C122.606 35.9917 122.097 35.8036 121.516 35.7577C120.931 35.7116 120.397 35.8175 119.915 36.0753C119.433 36.3298 119.035 36.7307 118.723 37.2779C118.414 37.8221 118.227 38.5072 118.162 39.3332C118.097 40.1592 118.174 40.8668 118.393 41.456C118.616 42.0421 118.946 42.5003 119.382 42.8306C119.818 43.1576 120.329 43.3442 120.914 43.3903C121.495 43.4361 122.027 43.3318 122.509 43.0773C122.995 42.8197 123.393 42.4188 123.701 41.8747C124.014 41.3275 124.203 40.6408 124.268 39.8148Z" fill="#101111"/>
<path d="M131.065 45.9602L131.092 35.3941L132.648 35.8299L132.431 43.9576L132.522 43.9831L136.635 36.9468L138.177 37.3786L138.036 45.5326L138.127 45.5581L142.16 38.4942L143.721 38.9313L138.251 47.9729L136.762 47.5559L136.755 39.6341L136.679 39.6127L132.558 46.3786L131.065 45.9602Z" fill="#101111"/>
<path d="M155.98 44.607L151.42 53.7107L150.157 53.0783L148.874 44.0839L148.79 44.0416L145.446 50.7182L144.072 50.0302L148.632 40.9266L149.903 41.5633L151.186 50.5689L151.271 50.6112L154.62 43.9257L155.98 44.607Z" fill="#101111"/>
<path d="M158.937 58.4214L165.466 50.6082L166.645 51.5932L163.808 54.9886L167.703 58.2433L170.54 54.8479L171.723 55.8361L165.194 63.6494L164.011 62.6612L166.858 59.2543L162.963 55.9996L160.116 59.4064L158.937 58.4214Z" fill="#101111"/>
<path d="M168.085 66.4301L175.721 59.6955L179.943 64.4832L178.951 65.3579L175.745 61.7224L173.419 63.7743L176.404 67.16L175.416 68.0314L172.43 64.6457L170.093 66.7076L173.338 70.3878L172.346 71.2625L168.085 66.4301Z" fill="#101111"/>
<path d="M174.503 73.9439L183.007 68.3438L185.003 71.3748C185.437 72.0336 185.683 72.6551 185.742 73.2391C185.803 73.826 185.704 74.3595 185.445 74.8397C185.189 75.3181 184.799 75.7296 184.276 76.0741C183.755 76.4169 183.225 76.6092 182.685 76.6512C182.15 76.6942 181.629 76.569 181.122 76.2756C180.618 75.9851 180.148 75.5104 179.714 74.8516L178.202 72.5555L179.307 71.8281L180.742 74.008C181.016 74.4232 181.298 74.7217 181.588 74.9035C181.88 75.0881 182.18 75.1665 182.487 75.1388C182.794 75.1111 183.107 74.9925 183.425 74.7828C183.746 74.5714 183.984 74.3259 184.137 74.0464C184.292 73.7696 184.345 73.4588 184.297 73.1138C184.252 72.7697 184.091 72.3859 183.812 71.9624L182.751 70.3514L175.348 75.2269L174.503 73.9439ZM181.104 75.615L178.651 80.2426L177.689 78.781L180.169 74.195L181.104 75.615Z" fill="#101111"/>
<path d="M180.122 82.8395L189.32 78.4738L192.057 84.2408L190.863 84.8078L188.784 80.4287L185.982 81.7589L187.917 85.8371L186.727 86.402L184.791 82.3238L181.975 83.6603L184.079 88.0933L182.884 88.6603L180.122 82.8395Z" fill="#101111"/>
<path d="M186.602 158.475C187.034 158.668 187.459 158.664 187.877 158.464C188.298 158.265 188.656 157.914 188.951 157.411C189.163 157.051 189.289 156.706 189.329 156.376C189.372 156.048 189.338 155.753 189.226 155.491C189.116 155.234 188.937 155.032 188.688 154.886C188.48 154.764 188.271 154.707 188.062 154.715C187.852 154.726 187.649 154.781 187.452 154.88C187.256 154.985 187.069 155.109 186.891 155.255C186.717 155.402 186.557 155.548 186.414 155.695L185.687 156.421C185.454 156.661 185.192 156.893 184.902 157.119C184.612 157.344 184.297 157.526 183.958 157.665C183.619 157.804 183.262 157.868 182.889 157.856C182.513 157.846 182.129 157.726 181.734 157.494C181.237 157.202 180.871 156.814 180.637 156.33C180.4 155.849 180.314 155.3 180.376 154.683C180.437 154.069 180.669 153.42 181.072 152.734C181.459 152.077 181.897 151.569 182.388 151.212C182.879 150.855 183.395 150.653 183.938 150.606C184.483 150.562 185.028 150.68 185.574 150.962L184.793 152.291C184.461 152.13 184.136 152.078 183.819 152.134C183.502 152.194 183.21 152.335 182.941 152.558C182.673 152.785 182.439 153.068 182.239 153.408C182.019 153.782 181.882 154.15 181.828 154.51C181.775 154.875 181.804 155.204 181.917 155.497C182.032 155.791 182.232 156.022 182.518 156.19C182.778 156.343 183.035 156.394 183.288 156.343C183.539 156.294 183.793 156.177 184.049 155.989C184.304 155.804 184.565 155.579 184.833 155.313L185.725 154.442C186.33 153.852 186.939 153.46 187.552 153.267C188.164 153.077 188.775 153.162 189.387 153.521C189.893 153.818 190.254 154.215 190.469 154.711C190.685 155.207 190.76 155.75 190.693 156.342C190.629 156.935 190.424 157.525 190.078 158.114C189.729 158.708 189.316 159.171 188.841 159.503C188.363 159.838 187.865 160.029 187.344 160.077C186.827 160.126 186.329 160.018 185.851 159.752L186.602 158.475Z" fill="#101111"/>
<path d="M177.476 169.76L178.457 168.559C178.751 168.723 179.048 168.821 179.345 168.855C179.643 168.888 179.935 168.87 180.219 168.798C180.504 168.727 180.774 168.607 181.028 168.438C181.279 168.271 181.508 168.062 181.713 167.811C182.085 167.356 182.303 166.856 182.368 166.31C182.431 165.767 182.327 165.211 182.055 164.642C181.781 164.076 181.326 163.533 180.69 163.013C180.048 162.489 179.422 162.149 178.813 161.994C178.202 161.841 177.636 161.852 177.117 162.027C176.598 162.202 176.154 162.514 175.787 162.963C175.584 163.212 175.424 163.475 175.309 163.753C175.194 164.035 175.128 164.322 175.113 164.614C175.097 164.905 175.135 165.192 175.224 165.475C175.315 165.763 175.466 166.034 175.677 166.288L174.692 167.486C174.357 167.105 174.102 166.689 173.927 166.238C173.752 165.792 173.664 165.328 173.663 164.848C173.662 164.372 173.748 163.898 173.919 163.427C174.091 162.955 174.354 162.502 174.708 162.068C175.266 161.385 175.924 160.909 176.684 160.639C177.446 160.372 178.256 160.332 179.113 160.518C179.969 160.708 180.816 161.145 181.655 161.831C182.497 162.519 183.094 163.263 183.445 164.064C183.799 164.867 183.92 165.667 183.807 166.465C183.697 167.266 183.364 168.006 182.809 168.686C182.467 169.104 182.088 169.445 181.671 169.709C181.256 169.977 180.814 170.161 180.346 170.263C179.88 170.366 179.405 170.377 178.918 170.297C178.435 170.218 177.954 170.04 177.476 169.76Z" fill="#101111"/>
<path d="M169.737 167.972L176.53 175.556L173.826 177.978C173.238 178.504 172.66 178.839 172.091 178.984C171.52 179.131 170.978 179.112 170.464 178.926C169.953 178.743 169.489 178.418 169.071 177.952C168.655 177.488 168.387 176.992 168.266 176.464C168.144 175.941 168.191 175.407 168.407 174.863C168.62 174.321 169.02 173.786 169.607 173.26L171.655 171.426L172.538 172.411L170.593 174.152C170.223 174.484 169.969 174.807 169.832 175.121C169.693 175.437 169.66 175.745 169.732 176.045C169.805 176.345 169.968 176.636 170.223 176.92C170.479 177.207 170.757 177.405 171.056 177.515C171.353 177.628 171.668 177.635 172.002 177.536C172.336 177.441 172.692 177.225 173.069 176.887L174.506 175.6L168.592 168.997L169.737 167.972ZM169.057 174.747L164.119 173.004L165.422 171.836L170.324 173.613L169.057 174.747Z" fill="#101111"/>
<path d="M157.081 184.004C156.493 183.089 156.155 182.196 156.066 181.323C155.979 180.452 156.113 179.653 156.468 178.924C156.822 178.2 157.368 177.6 158.107 177.125C158.848 176.648 159.623 176.398 160.432 176.374C161.239 176.355 162.022 176.567 162.78 177.01C163.537 177.453 164.209 178.13 164.796 179.041C165.384 179.956 165.721 180.848 165.808 181.718C165.897 182.591 165.764 183.39 165.41 184.114C165.056 184.843 164.507 185.446 163.766 185.922C163.027 186.398 162.254 186.645 161.447 186.664C160.638 186.687 159.855 186.478 159.097 186.035C158.341 185.595 157.669 184.918 157.081 184.004ZM158.361 183.181C158.809 183.877 159.299 184.392 159.832 184.723C160.363 185.059 160.903 185.224 161.451 185.218C161.998 185.217 162.517 185.059 163.007 184.743C163.501 184.426 163.861 184.019 164.089 183.521C164.319 183.027 164.392 182.467 164.31 181.842C164.226 181.222 163.96 180.564 163.512 179.867C163.064 179.17 162.574 178.654 162.043 178.318C161.51 177.986 160.97 177.821 160.423 177.822C159.878 177.826 159.359 177.987 158.865 178.304C158.375 178.62 158.015 179.025 157.785 179.519C157.554 180.019 157.481 180.578 157.564 181.198C157.647 181.823 157.912 182.484 158.361 183.181Z" fill="#101111"/>
<path d="M151.094 181.435L155.27 190.721L153.869 191.351L150.235 183.271L146.028 185.163L145.485 183.957L151.094 181.435Z" fill="#101111"/>
<path d="M142.574 185.093L145.548 194.831L144.079 195.28L141.491 186.807L137.079 188.154L136.693 186.89L142.574 185.093Z" fill="#101111"/>
<path d="M125.786 188.869L129.07 188.576L129.975 198.717L126.588 199.02C125.594 199.108 124.723 198.982 123.973 198.639C123.224 198.3 122.626 197.77 122.179 197.047C121.729 196.329 121.457 195.443 121.363 194.39C121.269 193.334 121.381 192.409 121.699 191.615C122.014 190.821 122.517 190.187 123.206 189.713C123.896 189.242 124.756 188.961 125.786 188.869ZM127.659 190.049L125.99 190.198C125.217 190.267 124.588 190.47 124.103 190.806C123.617 191.146 123.272 191.604 123.067 192.181C122.863 192.762 122.797 193.453 122.868 194.256C122.939 195.051 123.127 195.715 123.43 196.247C123.731 196.779 124.143 197.167 124.667 197.409C125.191 197.652 125.823 197.74 126.563 197.674L128.325 197.517L127.659 190.049Z" fill="#101111"/>
<path d="M108.005 193.823C108.09 192.74 108.362 191.824 108.82 191.075C109.278 190.33 109.868 189.775 110.592 189.409C111.312 189.047 112.11 188.901 112.985 188.97C113.864 189.039 114.633 189.309 115.29 189.78C115.945 190.254 116.439 190.896 116.774 191.707C117.109 192.518 117.234 193.464 117.149 194.545C117.063 195.628 116.792 196.543 116.334 197.288C115.876 198.037 115.287 198.592 114.567 198.954C113.843 199.319 113.042 199.467 112.163 199.398C111.287 199.329 110.523 199.057 109.868 198.583C109.211 198.113 108.714 197.472 108.379 196.661C108.044 195.853 107.919 194.907 108.005 193.823ZM109.521 193.943C109.456 194.769 109.535 195.475 109.758 196.061C109.978 196.65 110.307 197.109 110.747 197.436C111.183 197.766 111.692 197.954 112.273 198C112.858 198.046 113.392 197.94 113.874 197.683C114.356 197.428 114.754 197.027 115.066 196.48C115.375 195.936 115.562 195.251 115.627 194.425C115.692 193.599 115.615 192.891 115.396 192.302C115.173 191.716 114.843 191.257 114.407 190.927C113.971 190.6 113.46 190.414 112.875 190.368C112.294 190.322 111.762 190.426 111.28 190.681C110.794 190.938 110.397 191.339 110.088 191.883C109.775 192.43 109.586 193.117 109.521 193.943Z" fill="#101111"/>
<path d="M102.724 187.798L102.697 198.364L101.142 197.928L101.358 189.8L101.267 189.775L97.1537 196.811L95.6121 196.379L95.7533 188.225L95.6624 188.2L91.629 195.264L90.0684 194.827L95.5384 185.785L97.0273 186.202L97.0338 194.124L97.1104 194.145L101.231 187.379L102.724 187.798Z" fill="#101111"/>
<path d="M77.8092 189.151L82.3691 180.047L83.6316 180.679L84.9147 189.674L84.9992 189.716L88.3434 183.04L89.717 183.728L85.1571 192.831L83.8858 192.194L82.6026 183.189L82.5181 183.147L79.1695 189.832L77.8092 189.151Z" fill="#101111"/>
<path d="M74.8518 175.336L68.3232 183.15L67.1444 182.165L69.9815 178.769L66.0863 175.514L63.2492 178.91L62.0665 177.922L68.5951 170.108L69.7778 171.097L66.9311 174.503L70.8263 177.758L73.673 174.351L74.8518 175.336Z" fill="#101111"/>
<path d="M65.7045 167.328L58.0681 174.062L53.8458 169.275L54.8377 168.4L58.0438 172.035L60.3705 169.983L57.3847 166.598L58.3728 165.726L61.3587 169.112L63.6966 167.05L60.4509 163.37L61.4428 162.495L65.7045 167.328Z" fill="#101111"/>
<path d="M59.286 159.814L50.7825 165.414L48.7864 162.383C48.3526 161.724 48.106 161.103 48.0468 160.519C47.9858 159.932 48.0848 159.398 48.344 158.918C48.6004 158.44 48.9902 158.028 49.5134 157.684C50.0338 157.341 50.5639 157.149 51.1037 157.107C51.639 157.064 52.1599 157.189 52.6666 157.482C53.1715 157.773 53.6409 158.247 54.0747 158.906L55.5869 161.202L54.4824 161.93L53.0469 159.75C52.7734 159.335 52.4915 159.036 52.2011 158.854C51.9089 158.67 51.6092 158.591 51.302 158.619C50.9948 158.647 50.6821 158.765 50.3638 158.975C50.0427 159.186 49.8055 159.432 49.6522 159.711C49.4972 159.988 49.4439 160.299 49.4926 160.644C49.5366 160.988 49.698 161.372 49.977 161.795L51.0379 163.406L58.4411 158.531L59.286 159.814ZM52.685 158.143L55.1379 153.515L56.1004 154.977L53.6202 159.563L52.685 158.143Z" fill="#101111"/>
<path d="M53.6672 150.918L44.4688 155.284L41.7318 149.517L42.9265 148.95L45.0048 153.329L47.8075 151.999L45.8719 147.921L47.0622 147.356L48.9977 151.434L51.8138 150.098L49.7099 145.664L50.9046 145.097L53.6672 150.918Z" fill="#101111"/>
</svg>
