<svg width="113" height="276" viewBox="0 0 113 276" fill="none" xmlns="http://www.w3.org/2000/svg">
<path opacity="0.1" d="M112.073 230.044C110.022 228.995 102.378 233.598 96.928 239.162C92.5926 243.587 82.2621 249.71 75.2767 249.641C73.1601 249.619 71.5369 249.022 70.452 247.867C65.2964 242.378 62.6981 229.849 62.523 228.979L58.655 119.375C63.5236 118.477 66.6691 115.396 67.9988 110.205C68.0012 110.195 68.0022 110.184 68.0048 110.174C68.0061 110.168 68.0073 110.162 68.0085 110.155C68.8568 106.717 66.7513 101.268 64.3127 94.9602C62.0043 88.9894 59.3878 82.222 59.5058 77.0205C59.6273 71.6639 61.6101 62.9207 63.5273 54.4652C63.737 53.5412 63.9446 52.6241 64.1496 51.7145C64.1497 51.714 64.1498 51.7134 64.1499 51.7128C65.8059 44.3635 67.251 37.5772 67.4479 32.9372C67.4764 32.2655 67.4989 31.5791 67.5144 30.8827C67.5158 30.8674 67.5154 30.8523 67.5156 30.8368C67.6853 23.0033 66.8442 13.8013 60.974 7.53134C56.9752 3.25999 51.1178 1.0049 43.5641 0.827743C43.1467 0.817891 42.7372 0.82025 42.3344 0.834354C37.6417 1.00023 33.9522 2.79452 31.3558 6.17839C21.9072 18.4927 30.2142 47.332 30.2992 47.6219C32.8344 56.2658 38.5678 81.0572 37.7131 91.1136C37.567 92.8326 37.1138 94.9551 36.6336 97.2023C35.7264 101.45 34.6758 106.374 35.2953 110.584L35.2952 110.585C35.2963 110.641 35.3061 110.694 35.3201 110.745C35.6649 112.926 36.4671 114.91 37.9854 116.498C39.5568 118.141 41.7643 119.238 44.6319 119.8L48.5002 229.41C48.3151 229.971 47.4221 232.701 45.3993 239.271C43.3467 245.938 26.5008 247.583 24.7669 247.735C24.1352 247.485 21.2059 246.216 18.7989 243.355C17.0333 241.256 13.635 239.973 10.3386 240.161C7.31295 240.334 4.78809 241.725 3.22935 244.079C-0.353788 249.489 0.895323 261.255 1.42905 266.279L1.48819 266.839C1.50649 267.015 1.59515 267.176 1.73351 267.285C7.31143 271.689 20.4227 267.28 23.4451 265.701C24.937 264.921 27.3115 265.022 29.4945 265.956C30.7771 266.506 31.8565 267.271 32.665 268.177C32.6821 268.199 32.7014 268.219 32.7211 268.238C33.3552 268.966 33.8155 269.782 34.0654 270.651C34.3914 271.784 35.5365 272.775 37.4685 273.596C44.5476 276.605 62.5949 277.046 78.8493 268.441C98.0404 258.28 112.485 233.024 112.467 230.722C112.466 230.422 112.318 230.169 112.073 230.044ZM32.395 6.9756C34.9455 3.65167 38.6934 2.02213 43.5336 2.13721C50.7225 2.30552 56.2684 4.42141 60.0179 8.42636C60.7742 9.23406 61.442 10.0964 62.0316 11.0022C59.965 10.5321 56.3193 10.0432 53.6845 11.5721C52.1397 12.4687 51.1665 13.9183 50.7923 15.8805C50.3298 18.3054 50.9312 23.4627 51.6272 29.4338C52.8422 39.8546 54.5063 54.1262 50.6571 58.5204C49.8875 59.3992 48.939 59.8247 47.7531 59.8547C46.5603 59.8738 45.5371 59.4291 44.6257 58.496C39.1314 52.871 39.9588 31.9721 40.3564 21.9291C40.4679 19.1114 40.5486 17.0755 40.4729 16.1469C40.3088 14.1337 39.3591 12.5197 37.7264 11.4806C36.3906 10.6302 34.6598 10.2312 32.8119 10.2964C31.9862 10.3255 31.1371 10.4565 30.2895 10.6723C30.8556 9.32076 31.5502 8.0765 32.395 6.9756ZM37.9147 97.4757C38.4036 95.1872 38.8652 93.0254 39.0184 91.2245C39.4059 86.6643 38.4716 79.1637 37.092 71.4786C37.1468 71.3843 38.9773 68.2912 42.2413 67.6745C42.5968 67.6075 42.8303 67.2649 42.7634 66.9098C42.7024 66.5875 42.4155 66.3656 42.0976 66.3769C42.0647 66.378 42.0316 66.3815 41.9983 66.3878C39.4596 66.8674 37.7067 68.5372 36.7635 69.6909C36.2658 67.0369 35.7241 64.3894 35.1723 61.8554C35.2291 61.8097 35.2809 61.7558 35.3211 61.6902C35.3384 61.6623 37.078 58.901 40.4092 58.7128C40.7703 58.6927 41.0463 58.3835 41.026 58.0223C41.006 57.6659 40.7046 57.3922 40.3493 57.4048C40.3445 57.405 40.3399 57.4051 40.3354 57.4055C37.5254 57.5638 35.6876 59.1996 34.809 60.2113C34.173 57.3681 33.5351 54.7069 32.9498 52.4059C33.3777 51.967 35.2053 50.2869 38.2855 50.0605C38.646 50.0339 38.9169 49.7199 38.8904 49.3594C38.8645 49.0073 38.5645 48.7406 38.2146 48.7531C38.2064 48.7536 38.198 48.7539 38.1894 48.7545C35.423 48.9579 33.535 50.1781 32.5791 50.9729C32.2044 49.5426 31.8571 48.2813 31.5559 47.2539C31.536 47.1862 31.0568 45.5226 30.4627 42.8723C30.4657 42.8684 30.4696 42.8658 30.4726 42.8623C30.4991 42.8298 33.1693 39.5987 37.1992 39.7171C37.562 39.7316 37.8624 39.4442 37.8735 39.0828C37.8847 38.7214 37.6006 38.4192 37.2392 38.4085C37.0428 38.4025 36.8497 38.4032 36.6593 38.4097C33.5068 38.5211 31.2026 40.3031 30.1282 41.329C29.5912 38.7584 29.0161 35.5388 28.62 32.0536C28.691 32.0146 28.7561 31.963 28.8104 31.897C28.8344 31.8675 31.2854 28.961 36.257 29.2649C36.6196 29.2838 36.9285 29.0121 36.9506 28.6512C36.9725 28.2903 36.6979 27.9797 36.337 27.9576C35.8984 27.931 35.4774 27.9262 35.0735 27.9405C31.6468 28.0614 29.4593 29.5409 28.4501 30.4213C28.2342 28.1304 28.1073 25.755 28.1262 23.3957C28.1709 23.3577 28.2131 23.3154 28.2477 23.2643C28.2685 23.2331 30.4025 20.1474 35.4685 19.9642C35.83 19.9512 36.1123 19.6475 36.0993 19.2864C36.0863 18.9253 35.7832 18.6428 35.4219 18.6556C31.7052 18.7898 29.3823 20.3175 28.1776 21.4163C28.3248 18.1656 28.787 15.004 29.7184 12.2035C32.4081 11.2774 35.1848 11.4164 37.0229 12.5861C38.2963 13.3967 39.0379 14.6648 39.1672 16.2536C39.2365 17.1034 39.1531 19.2105 39.0474 21.878C38.6115 32.8886 37.8003 53.3831 43.6886 59.4118C44.8489 60.5999 46.2233 61.1895 47.774 61.1646C49.321 61.1449 50.629 60.5408 51.6422 59.3839C55.8742 54.5525 54.2406 40.5411 52.928 29.283C52.2441 23.4189 51.6537 18.3545 52.0785 16.127C52.3825 14.5332 53.1221 13.4148 54.3393 12.7075C57.2367 11.0241 61.8933 12.2807 62.9685 12.6065C64.2495 15.0353 65.0556 17.7078 65.5451 20.449C64.2207 19.4437 61.9664 18.2712 58.6223 18.2637C58.614 18.2639 58.6056 18.2639 58.5975 18.2642C58.2474 18.2765 57.9669 18.5639 57.9661 18.917C57.9653 19.2786 58.2577 19.5725 58.6195 19.5734C63.1685 19.5835 65.4016 21.9641 65.8575 22.5143C66.1442 24.8373 66.2346 27.176 66.2245 29.4274C64.9896 28.5496 62.7491 27.4134 59.5092 27.5279C59.2514 27.537 58.9868 27.5542 58.7163 27.5797C58.3561 27.614 58.0922 27.9338 58.1264 28.2936C58.161 28.6538 58.4831 28.9164 58.8404 28.8834C63.1046 28.4758 65.5533 30.4721 66.1999 31.089C66.185 31.6962 66.1646 32.2956 66.1397 32.883C66.0506 34.9806 65.6791 37.6144 65.1502 40.5374C63.92 39.4987 61.534 37.9325 58.4249 38.0422C58.3399 38.0452 58.254 38.0494 58.1678 38.0548C57.8069 38.0781 57.5336 38.3896 57.5565 38.7506C57.58 39.1116 57.891 39.3802 58.2523 39.3618C61.6399 39.1395 64.1491 41.3434 64.8669 42.0557C64.3617 44.6823 63.7518 47.4981 63.1134 50.3522C62.0952 49.5933 60.2191 48.5325 57.5682 48.4279C57.5515 48.4271 57.5349 48.427 57.5186 48.4278C57.1795 48.4398 56.9018 48.7117 56.8881 49.0562C56.8738 49.4175 57.1549 49.7222 57.5164 49.7363C60.3355 49.8479 62.1698 51.2285 62.7932 51.7786C62.6126 52.5786 62.4314 53.3791 62.2506 54.1769C61.8498 55.9437 61.4472 57.7219 61.0584 59.4813C60.0663 58.5071 58.2716 57.2039 55.7157 57.1462C55.7028 57.146 55.6901 57.146 55.6773 57.1465C55.3332 57.1586 55.0543 57.4376 55.0464 57.7864C55.0382 58.1478 55.3247 58.4476 55.6863 58.4556C58.4604 58.518 60.2066 60.4173 60.7141 61.0518C60.0981 63.8897 59.5353 66.647 59.0975 69.191C58.0934 68.0784 56.3205 66.5674 53.8598 66.1881C53.818 66.1816 53.7768 66.1792 53.7362 66.1805C53.4281 66.1913 53.1616 66.4196 53.1129 66.7353C53.0579 67.093 53.303 67.427 53.6603 67.4824C56.5053 67.9206 58.3353 70.2527 58.812 70.9288C58.4616 73.204 58.236 75.2633 58.1968 76.992C58.0731 82.4532 60.7391 89.3491 63.0915 95.4337C65.247 101.008 67.2838 106.286 66.8209 109.398L57.7135 109.552C57.5776 108.347 57.0853 105.749 55.3221 104.155C54.3001 103.231 53.0238 102.791 51.5247 102.844C51.436 102.847 51.3467 102.852 51.2566 102.858C49.56 102.982 48.2561 103.625 47.381 104.77C46.1384 106.395 46.1215 108.596 46.2186 109.746L36.5344 109.91C36.091 106.025 37.0676 101.442 37.9147 97.4757ZM38.9324 115.593C37.7809 114.388 37.1005 112.888 36.7441 111.215L46.9706 111.043C47.1514 111.053 47.3465 110.951 47.4682 110.8C47.59 110.65 47.639 110.453 47.6019 110.263C47.5962 110.234 47.0545 107.352 48.4207 105.565C49.0587 104.731 50.0446 104.259 51.3514 104.164C52.6088 104.073 53.6221 104.385 54.4399 105.123C56.3294 106.826 56.4543 110.202 56.4553 110.236C56.4662 110.594 56.7629 110.877 57.121 110.871L66.4936 110.713C65.1623 114.992 62.4403 117.424 58.1933 118.133C55.5909 118.569 53.2186 118.824 51.0796 118.899C45.3046 119.103 41.2317 117.998 38.9324 115.593ZM45.95 120.013C49.0518 120.421 52.8431 120.276 57.352 119.588L61.193 228.424L49.7901 228.827L45.95 120.013ZM47.6993 236.269C48.7851 232.779 49.3874 230.911 49.6381 230.143L61.3406 229.73C61.5467 230.698 62.0314 232.823 62.8152 235.392C60.5401 235.976 52.7954 237.747 47.6993 236.269ZM30.0102 264.753C27.4415 263.652 24.6935 263.571 22.8393 264.541C19.171 266.457 7.58835 269.857 2.76104 266.419L2.73159 266.141C2.25765 261.677 0.998779 249.819 4.32181 244.802C5.64694 242.801 7.81043 241.617 10.4141 241.468C13.2795 241.307 16.3079 242.427 17.7972 244.198C20.7254 247.679 24.3059 248.964 24.4567 249.017C24.5422 249.047 24.6315 249.057 24.7227 249.053C25.0194 249.03 27.8093 248.808 31.3163 248.132C31.2737 254.098 32.0109 262.526 32.3552 266.116C31.6623 265.584 30.8761 265.123 30.0102 264.753ZM78.2369 267.283C62.3583 275.69 44.8287 275.301 37.9812 272.391C36.4733 271.751 35.53 271.004 35.3243 270.289C35.0346 269.283 34.5151 268.34 33.8081 267.499C33.6423 265.892 32.5464 254.961 32.6287 247.864C38.3291 246.63 45.247 244.217 46.651 239.656C46.8865 238.892 47.1056 238.182 47.3111 237.519C52.8357 239.132 60.9076 237.249 63.2116 236.645C64.5676 240.797 66.6387 245.72 69.4975 248.764C70.8361 250.189 72.776 250.925 75.263 250.951C82.8693 251.037 93.46 244.573 97.8632 240.078C103.332 234.495 109.165 231.442 111.014 231.19C109.491 235.094 96.2321 257.756 78.2369 267.283Z" fill="white"/>
</svg>
