<svg width="111" height="132" viewBox="0 0 111 132" fill="none" xmlns="http://www.w3.org/2000/svg">
<path opacity="0.3" d="M109.444 79.1385C108.21 79.3698 106.445 83.9049 105.948 88.1232C105.552 91.4787 103.135 97.5657 100.098 99.8651C99.1775 100.561 98.2781 100.845 97.4249 100.708C93.3709 100.058 88.0739 95.516 87.7081 95.1985L49.5083 49.1798C51.3098 47.1691 51.6403 44.7906 50.4836 42.1064C50.4814 42.1013 50.4781 42.0962 50.476 42.0911C50.4745 42.088 50.4729 42.0849 50.4714 42.0818C49.6915 40.315 46.9665 38.6647 43.8121 36.7552C40.8259 34.9477 37.4413 32.899 35.7586 30.6145C34.0256 28.2619 31.9671 23.827 29.9762 19.5381C29.7587 19.0694 29.5426 18.6044 29.3279 18.1434C29.3278 18.1431 29.3276 18.1429 29.3275 18.1426C27.5925 14.4183 25.9542 11.0073 24.4927 8.93887C24.2811 8.63946 24.062 8.33567 23.8366 8.02992C23.8321 8.02286 23.8269 8.0165 23.8218 8.00973C21.2841 4.57196 17.8542 0.880522 13.2314 0.131311C10.0823 -0.379169 6.80311 0.600323 3.48459 3.04225C3.30123 3.17713 3.12532 3.31467 2.9562 3.45506C0.986557 5.09119 -0.00743388 7.09572 4.18549e-05 9.42195C0.0272648 17.8873 13.2239 27.5657 13.3572 27.6625C17.3322 30.5483 28.0691 39.3375 31.0521 43.9632C31.562 44.7539 32.0739 45.8211 32.6157 46.9511C33.6398 49.0869 34.8279 51.5628 36.4984 53.1734L36.4987 53.1738C36.5177 53.1975 36.5396 53.2171 36.5627 53.2346C37.4385 54.0612 38.4458 54.6498 39.6302 54.829C40.8559 55.0144 42.174 54.7518 43.5988 54.0384L81.801 100.06C81.908 100.364 82.4327 101.84 83.7497 105.35C85.086 108.912 78.3652 115.238 77.6675 115.882C77.3117 115.985 75.6248 116.414 73.6325 115.981C72.1709 115.664 70.2771 116.243 68.9172 117.423C67.6694 118.507 67.0437 119.949 67.1554 121.484C67.4125 125.014 71.8731 129.677 73.778 131.667L73.9902 131.889C74.0566 131.959 74.1484 131.999 74.2446 132C78.1194 132.041 82.3074 125.767 83.0853 124.077C83.4693 123.244 84.5273 122.495 85.7807 122.171C86.5172 121.98 87.238 121.951 87.8891 122.073C87.9038 122.076 87.9187 122.078 87.9337 122.08C88.4498 122.183 88.9205 122.382 89.318 122.673C89.8363 123.054 90.6606 123.1 91.768 122.81C95.8254 121.748 103.76 115.922 107.906 106.788C112.8 96.0046 110.615 80.2874 109.84 79.2997C109.74 79.1709 109.592 79.1108 109.444 79.1385ZM0.714184 9.41957C0.706849 7.13455 1.78097 5.18164 3.90789 3.61761C7.06603 1.2935 10.1644 0.357777 13.1171 0.83637C13.7127 0.932878 14.2883 1.08241 14.8446 1.27684C13.7961 1.76291 12.0601 2.76737 11.4327 4.30572C11.065 5.20774 11.1282 6.15789 11.6207 7.12961C12.2293 8.33047 14.2077 10.356 16.4983 12.7013C20.4958 16.7942 25.9706 22.3994 25.7742 25.5794C25.735 26.2153 25.4676 26.7152 24.9659 27.1235C24.4575 27.5295 23.8678 27.6786 23.1635 27.5797C18.9179 26.9836 12.3093 17.6871 9.13354 13.2197C8.24252 11.9663 7.59878 11.0606 7.25658 10.685C6.51479 9.87079 5.56707 9.4908 4.51624 9.58661C3.65639 9.66491 2.77651 10.0697 2.00087 10.7139C1.6543 11.0018 1.33156 11.3414 1.03775 11.7171C0.831531 10.9451 0.716582 10.1764 0.714184 9.41957ZM33.2596 46.642C32.7078 45.4912 32.1865 44.4042 31.6523 43.5758C30.2996 41.4783 27.3965 38.5523 24.2398 35.6952C24.232 35.6362 23.9909 33.6908 25.1938 32.3364C25.3249 32.189 25.3115 31.9632 25.1642 31.8323C25.0305 31.7135 24.8327 31.7134 24.6993 31.8243C24.6855 31.8357 24.6724 31.8482 24.6601 31.862C23.7245 32.9155 23.5246 34.2206 23.5022 35.033C22.4028 34.0534 21.2867 33.0913 20.204 32.1815C20.2133 32.1428 20.2177 32.1023 20.2131 32.0606C20.2113 32.0428 20.0416 30.2709 21.4163 29.0791C21.5654 28.95 21.5815 28.7245 21.4523 28.5754C21.3249 28.4282 21.1036 28.4106 20.9545 28.5345C20.9526 28.5362 20.9506 28.5377 20.9487 28.5394C19.789 29.5446 19.5412 30.8634 19.4993 31.593C18.2772 30.5778 17.115 29.6418 16.0954 28.8438C16.1338 28.5116 16.3625 27.1772 17.6161 26.0525C17.7628 25.9209 17.7751 25.695 17.6435 25.5482C17.515 25.4049 17.2966 25.3898 17.1498 25.5118C17.1464 25.5148 17.1429 25.5177 17.1394 25.5208C16.0135 26.5309 15.6054 27.6871 15.4579 28.3488C14.8195 27.8564 14.2492 27.4277 13.7768 27.0847C13.7457 27.0622 12.9844 26.5038 11.8447 25.5579C11.8447 25.5553 11.8455 25.5529 11.8457 25.5503C11.8462 25.5275 11.9216 23.2426 13.6999 21.9502C13.8613 21.8354 13.8952 21.6113 13.7795 21.4515C13.6638 21.2918 13.4406 21.2561 13.281 21.372C13.1943 21.4349 13.1112 21.4995 13.0312 21.5658C11.708 22.665 11.3077 24.2023 11.186 25.0033C10.0975 24.0728 8.77626 22.8749 7.44375 21.5026C7.46138 21.4621 7.47226 21.4181 7.47367 21.3715C7.47424 21.3508 7.5631 19.2791 9.80963 17.7528C9.9724 17.64 10.0151 17.4198 9.9044 17.2567C9.79353 17.0936 9.57154 17.0511 9.40848 17.1618C9.2103 17.2966 9.02708 17.4349 8.85753 17.5757C7.41923 18.7703 6.96841 20.1382 6.82637 20.8547C5.96962 19.9379 5.12317 18.9549 4.34499 17.9302C4.35162 17.8989 4.35571 17.8666 4.3536 17.833C4.35219 17.8126 4.24456 15.7692 6.3695 14.0012C6.52113 13.875 6.54174 13.6499 6.41579 13.4983C6.28983 13.3468 6.06485 13.3259 5.91322 13.4519L5.91308 13.452C4.35404 14.7491 3.86104 16.1828 3.70743 17.0587C2.68749 15.6065 1.83315 14.0878 1.30167 12.5685C2.15362 11.272 3.39812 10.4063 4.58112 10.2983C5.40077 10.2237 6.14341 10.5238 6.72878 11.1664C7.04191 11.5102 7.70822 12.4474 8.5517 13.634C12.0334 18.5319 18.5142 27.6484 23.0644 28.2874C23.961 28.4134 24.7506 28.2097 25.4115 27.682C26.0724 27.1577 26.4355 26.4608 26.4871 25.6237C26.7029 22.1274 21.328 16.6243 17.0093 12.2025C14.7597 9.89942 12.817 7.91027 12.2579 6.80719C11.8578 6.01791 11.8042 5.28859 12.0937 4.57748C12.7828 2.88491 15.211 1.87481 15.7836 1.65696C17.1458 2.2782 18.3844 3.16302 19.5093 4.18299C18.6028 4.19061 17.2392 4.43609 15.7937 5.54778C15.7902 5.5506 15.7865 5.55343 15.7831 5.55625C15.6362 5.6783 15.6109 5.89587 15.7283 6.04853C15.8485 6.20486 16.0726 6.23423 16.229 6.11401C18.1953 4.60176 19.9523 4.88477 20.3325 4.97027C21.2304 5.87737 22.0489 6.85671 22.7949 7.83181C21.9695 7.86469 20.624 8.12121 19.2641 9.25082C19.156 9.34069 19.0475 9.43635 18.9393 9.53752C18.7953 9.67241 18.788 9.89842 18.9227 10.0423C19.0577 10.1863 19.2842 10.1922 19.4273 10.0589C21.1315 8.46126 22.8535 8.50654 23.3381 8.55719C23.5341 8.82429 23.725 9.08981 23.9101 9.35168C24.5708 10.2867 25.2883 11.5474 26.0343 12.9854C25.1573 12.9472 23.6057 13.0667 22.3007 14.1506C22.265 14.1802 22.2293 14.2107 22.1939 14.2418C22.046 14.3721 22.0319 14.5977 22.1621 14.7459C22.2925 14.8939 22.5163 14.9061 22.666 14.7778C24.0537 13.5523 25.871 13.6671 26.4181 13.7352C27.0756 15.0374 27.7509 16.4561 28.4267 17.9009C27.7344 17.9127 26.5713 18.0804 25.3926 18.919C25.3851 18.9243 25.3779 18.9297 25.3711 18.9355C25.2288 19.0538 25.1996 19.2637 25.3085 19.417C25.4227 19.5777 25.6456 19.6155 25.8063 19.501C27.0599 18.6093 28.3116 18.5937 28.764 18.6233C28.9527 19.0288 29.1413 19.4347 29.3292 19.8394C29.7451 20.7356 30.1641 21.6373 30.5827 22.5264C29.8299 22.4366 28.6211 22.4725 27.499 23.2997C27.4934 23.304 27.4879 23.3082 27.4825 23.3127C27.3381 23.4326 27.3107 23.646 27.4236 23.7992C27.5405 23.958 27.764 23.9918 27.9227 23.8747C29.1406 22.9768 30.5271 23.2144 30.9576 23.3191C31.6376 24.7493 32.3138 26.1271 32.9728 27.3712C32.1687 27.2257 30.9001 27.1646 29.7118 27.8212C29.6917 27.8324 29.6731 27.8451 29.656 27.8592C29.5266 27.9666 29.4877 28.1539 29.5719 28.3065C29.6674 28.4792 29.8845 28.5417 30.0571 28.4464C31.4308 27.6871 32.9978 28.0835 33.4288 28.2165C34.0359 29.3153 34.625 30.2794 35.1842 31.0386C36.951 33.4371 40.3999 35.5247 43.4429 37.3667C46.2311 39.0544 48.8689 40.6531 49.7064 42.1508L45.8278 45.2536C45.3676 44.7788 44.2892 43.8215 42.9972 43.7215C42.2484 43.6635 41.5508 43.899 40.9216 44.4216C40.8844 44.4525 40.8474 44.4844 40.8108 44.5172C40.1199 45.1362 39.7716 45.8486 39.7756 46.6345C39.7811 47.7503 40.5074 48.7059 40.9325 49.1698L36.8083 52.4692C35.3222 50.9403 34.2159 48.6362 33.2596 46.642ZM39.7371 54.1225C38.8389 53.9867 38.0452 53.5659 37.3339 52.9627L41.6891 49.4787C41.7705 49.4228 41.8207 49.3138 41.823 49.2081C41.8254 49.1025 41.7809 49.0012 41.7016 48.9317C41.6895 48.9211 40.4952 47.8578 40.4892 46.631C40.4863 46.0581 40.7546 45.5259 41.2868 45.0492C41.7991 44.5908 42.3403 44.3876 42.9391 44.4333C44.3221 44.5386 45.5011 45.954 45.5128 45.9683C45.6368 46.1191 45.8594 46.1427 46.0119 46.0206L50.0034 42.8274C50.8552 45.1183 50.4911 47.0754 48.8951 48.7978C47.9172 49.8531 46.9785 50.7542 46.0807 51.4999C43.6566 53.5132 41.5308 54.394 39.7371 54.1225ZM44.2386 53.6909C45.713 52.8329 47.3007 51.5063 49.0169 49.706L86.9494 95.4027L82.1633 99.3782L44.2386 53.6909ZM83.7414 103.287C83.0468 101.419 82.684 100.412 82.5362 99.9967L87.4482 95.9168C87.8599 96.2662 88.7773 97.0218 89.9719 97.8695C89.1847 98.8798 86.433 102.226 83.7414 103.287ZM85.6021 121.479C84.127 121.861 82.9141 122.742 82.4372 123.779C81.4928 125.829 77.6282 131.158 74.3994 131.283L74.294 131.173C72.6017 129.404 68.1062 124.706 67.8678 121.432C67.7728 120.127 68.3117 118.895 69.3855 117.962C70.5684 116.938 72.2483 116.411 73.4811 116.679C75.905 117.205 77.8784 116.566 77.9612 116.539C78.008 116.523 78.0499 116.498 78.0877 116.466C78.2083 116.357 79.3381 115.331 80.6261 113.87C82.5961 116.459 85.7234 119.851 87.0683 121.286C86.5921 121.287 86.0993 121.351 85.6021 121.479ZM107.256 106.493C103.206 115.416 95.5121 121.092 91.5876 122.119C90.7234 122.345 90.0675 122.337 89.7406 122.097C89.28 121.76 88.7416 121.526 88.1561 121.398C87.549 120.76 83.4329 116.407 81.1028 113.316C83.1516 110.884 85.3324 107.536 84.4181 105.099C84.2648 104.69 84.1229 104.311 83.9906 103.956C86.9122 102.811 89.7675 99.3068 90.5605 98.2781C92.5294 99.6181 95.064 101.053 97.3119 101.413C98.3646 101.582 99.4469 101.253 100.529 100.435C103.84 97.9363 106.255 91.615 106.657 88.207C107.156 83.974 108.655 80.7117 109.369 79.9863C110.013 82.179 111.845 96.3813 107.256 106.493Z" fill="#101840"/>
</svg>
