<svg width="461" height="88" viewBox="0 0 461 88" fill="none" xmlns="http://www.w3.org/2000/svg">
<path d="M0 83V83C2.97991 83 4.46986 83 5.9388 82.9784C37.4114 82.516 68.3305 74.6318 96.1816 59.9671C97.4815 59.2826 98.7895 58.5691 101.406 57.1422L139.042 36.613C181.126 13.6582 202.168 2.18078 224.982 1.0347C228.325 0.866781 231.674 0.866782 235.017 1.0347C257.831 2.18078 278.873 13.6582 320.957 36.613L357.715 56.6632C361.204 58.5658 362.948 59.5171 364.685 60.4213C392.021 74.644 422.273 82.3581 453.081 82.9616C455.04 83 457.026 83 461 83V83V85.0244L239.8 87.0201L0 85.0255V83Z" fill="#E1E4E6"/>
</svg>
