<svg width="20" height="20" viewBox="0 0 20 20" fill="none" xmlns="http://www.w3.org/2000/svg">
<g clip-path="url(#clip0_833_15311)">
<path d="M16.9823 8.9304L16.8098 8.93025V7.83068C16.8098 6.97626 17.1483 6.15947 17.5982 5.65576C18.1988 4.98384 18.5296 4.11701 18.5296 3.21497C18.5296 1.96435 17.8797 0.772904 16.8336 0.105599C16.3874 -0.178971 15.8016 0.145482 15.8016 0.674389V2.98263C15.8016 3.49876 15.3818 3.91865 14.8656 3.91865C14.3495 3.91865 13.9296 3.49876 13.9296 2.98263V0.674428C13.9296 0.144271 13.3427 -0.178307 12.8977 0.105639C11.8515 0.772904 11.2016 1.96435 11.2016 3.21501C11.2016 4.11704 11.5324 4.98388 12.1329 5.6556C12.5188 6.08829 12.8404 6.78298 12.9072 7.5256C12.0966 7.59912 11.3846 7.96337 10.9222 8.5506L10.4222 9.18556C10.1719 9.50341 9.79629 9.68572 9.39168 9.68572H8.9477C8.93102 9.06978 8.42512 8.57376 7.80527 8.57376C7.27684 8.57376 6.83117 8.93427 6.70078 9.4222H2.4132C1.89348 9.4222 1.4707 9.84501 1.4707 10.3647V15.2924C1.4707 15.8121 1.89352 16.2349 2.4132 16.2349H6.79535C6.98758 16.5964 7.36809 16.8433 7.80535 16.8433C8.36973 16.8433 8.83961 16.432 8.93184 15.8935H10.0495C10.2165 15.8935 10.3798 15.9249 10.5349 15.9867C11.4134 16.3063 11.8481 16.5993 12.9215 16.7887V18.056C12.9215 19.128 13.7937 20.0001 14.8657 20.0001C15.9377 20.0001 16.8098 19.128 16.8098 18.056V16.3609C16.9511 16.1474 17.0211 15.8957 17.0088 15.6333C16.9977 15.3967 16.9142 15.1718 16.7765 14.9842C17.2248 14.816 17.5445 14.389 17.5451 13.8901C17.5455 13.5355 17.4147 13.2203 17.1977 12.9935C17.5095 12.7801 17.7201 12.4308 17.7332 12.037C17.7429 11.7471 17.648 11.4744 17.4818 11.2575C17.9055 11.0667 18.201 10.6409 18.201 10.1475C18.201 9.47634 17.6542 8.9304 16.9823 8.9304ZM8.36262 15.6999C8.36262 16.0072 8.11262 16.2572 7.80531 16.2572C7.49801 16.2572 7.24805 16.0072 7.24805 15.6999V14.9858C7.24805 14.824 7.11688 14.6928 6.95508 14.6928C6.79328 14.6928 6.66211 14.824 6.66211 14.9858V15.6489H2.4132C2.2166 15.6489 2.05664 15.4889 2.05664 15.2923V10.3647C2.05664 10.1681 2.2166 10.0081 2.4132 10.0081H6.66211V13.6152C6.66211 13.777 6.79328 13.9082 6.95508 13.9082C7.11688 13.9082 7.24805 13.777 7.24805 13.6152V9.71798C7.24805 9.71751 7.24805 9.71704 7.24805 9.71658C7.24824 9.40947 7.49816 9.15966 7.80531 9.15966C8.11262 9.15966 8.36258 9.40966 8.36258 9.71697L8.36262 15.6999ZM12.5699 5.26525C12.0654 4.70087 11.7876 3.97275 11.7876 3.21497C11.7876 2.16247 12.3337 1.16033 13.2128 0.599623C13.2694 0.563451 13.3437 0.606654 13.3437 0.674428V2.98267C13.3437 3.82189 14.0264 4.50462 14.8656 4.50462C15.7048 4.50462 16.3876 3.82189 16.3876 2.98267V0.674428C16.3876 0.606771 16.4617 0.563373 16.5185 0.599623C17.3976 1.16037 17.9437 2.16251 17.9437 3.21497C17.9437 3.97275 17.6658 4.70087 17.1613 5.26533C16.6191 5.87255 16.2238 6.82693 16.2238 7.83068V8.92978L15.7104 8.92939V8.32486C15.7104 8.16306 15.5793 8.03189 15.4175 8.03189C15.2557 8.03189 15.1245 8.16306 15.1245 8.32486V8.92892L14.6067 8.92849V6.74572C14.6067 6.60294 14.7229 6.48681 14.8656 6.48681C15.0084 6.48681 15.1245 6.60294 15.1245 6.74572V6.95431C15.1245 7.11611 15.2557 7.24728 15.4175 7.24728C15.5793 7.24728 15.7104 7.11611 15.7104 6.95431V6.74572C15.7104 6.27986 15.3314 5.90087 14.8656 5.90087C14.3997 5.90087 14.0207 6.27986 14.0207 6.74572V8.92802L13.8058 8.92787C13.6224 8.92787 13.5071 8.7849 13.5071 8.60775C13.5074 7.91302 13.6384 6.46247 12.5699 5.26525ZM16.2238 18.0559C16.2238 18.8048 15.6145 19.4141 14.8656 19.4141C14.1167 19.4141 13.5074 18.8048 13.5074 18.0559V16.8667C13.6779 16.8821 13.8491 16.8914 14.0208 16.8943V17.97C14.0208 18.4359 14.3998 18.8149 14.8656 18.8149C15.3315 18.8149 15.7105 18.4359 15.7105 17.97V16.908C15.7444 16.9056 15.9664 16.9278 16.2238 16.8307V18.0559ZM14.6067 17.97V16.8992L15.1245 16.9033V17.97C15.1245 18.1128 15.0084 18.2289 14.8656 18.2289C14.7229 18.2289 14.6067 18.1128 14.6067 17.97ZM16.9821 10.7785H16.6214C16.4596 10.7785 16.3285 10.9097 16.3285 11.0715V11.0775C16.3285 11.2266 16.4405 11.3519 16.5886 11.3686C16.913 11.4052 17.1585 11.6901 17.1476 12.0174C17.1364 12.3533 16.8426 12.6266 16.4925 12.6266L16.367 12.6267C16.2053 12.6267 16.0742 12.7589 16.0742 12.9206C16.0742 13.078 16.1986 13.2073 16.3558 13.2134C16.7059 13.227 16.9596 13.5112 16.9592 13.8893C16.9587 14.2121 16.6868 14.4747 16.3529 14.4747H16.1558C15.9726 14.4747 15.8236 14.6237 15.8236 14.8069C15.8236 14.941 15.9036 15.0612 16.0276 15.1131C16.2605 15.2108 16.4122 15.4207 16.4235 15.6608C16.4405 16.0227 16.1521 16.3227 15.7955 16.3227C14.2136 16.2988 13.9047 16.339 13.2497 16.2475C13.2475 16.2472 13.2454 16.2468 13.2432 16.2466C12.1004 16.0857 11.5582 15.7306 10.7518 15.4423C10.5273 15.3529 10.2911 15.3076 10.0495 15.3076H8.94855V10.2716H9.39176C9.97711 10.2716 10.5205 10.0079 10.8826 9.54802L11.3826 8.9131C11.7371 8.46287 12.2875 8.17939 12.9213 8.11271V8.60775C12.9211 9.10931 13.2987 9.51388 13.8056 9.51388C14.1866 9.51419 16.1386 9.51576 16.5166 9.51607H16.5168H16.5171L16.9821 9.51646C17.3312 9.51646 17.6151 9.79954 17.6151 10.1476C17.6151 10.4954 17.3311 10.7785 16.9821 10.7785Z" fill="#101111"/>
</g>
<defs>
<clipPath id="clip0_833_15311">
<rect width="20" height="20" fill="white"/>
</clipPath>
</defs>
</svg>
