<svg width="20" height="20" viewBox="0 0 20 20" fill="none" xmlns="http://www.w3.org/2000/svg">
<path d="M12.8191 9.83773C12.7998 9.74535 12.7197 9.66227 12.6099 9.65102C12.5619 9.64598 9.37323 9.64676 9.3539 9.64816V7.42938C9.5853 7.335 9.74917 7.10824 9.74917 6.84328V6.18023C9.74917 5.83098 9.46503 5.54688 9.11581 5.54688H4.47476C4.1255 5.54688 3.8414 5.83102 3.8414 6.18023V6.84328C3.8414 7.19254 4.12554 7.47664 4.47476 7.47664H4.52991V9.64816H3.35124C3.10534 9.64816 2.88445 9.79457 2.78855 10.021C2.32562 11.1145 1.44257 13.2005 0.283235 15.9391C0.126672 16.3091 0.398235 16.7205 0.801086 16.7205H10.2056C10.4725 16.7205 10.7064 16.5496 10.7876 16.2954L10.9329 15.8407H13.3657C13.7284 15.8407 13.9993 15.5072 13.9255 15.1525L12.8191 9.83773ZM11.3581 12.9462H9.54554L10.5764 10.1244H12.2599L11.3581 12.9462ZM10.0694 10.1244L9.03851 12.9462H7.13577L7.35464 12.3471H8.18507C8.26433 12.3471 8.34741 12.2982 8.38663 12.2358L9.31734 10.7568C9.34124 10.7189 9.3539 10.6749 9.3539 10.6301V10.1244H10.0694V10.1244ZM5.93089 16.2443L6.96183 13.4224H8.86456L7.83366 16.2443H5.93089ZM3.52116 16.2443L4.55206 13.4224H6.4548L5.42386 16.2443H3.52116ZM4.94488 12.3471H6.84761L6.62874 12.9462H4.72601L4.94488 12.3471ZM8.4232 10.1244H8.87773V10.5614L8.4232 11.2836V10.1244ZM8.4232 9.6482V7.47668H8.87773V9.6482H8.4232ZM4.31757 6.84328V6.18023C4.31757 6.09355 4.38808 6.02305 4.47476 6.02305H9.11581C9.20249 6.02305 9.273 6.09355 9.273 6.18023V6.84328C9.273 6.92996 9.20249 7.00047 9.11581 7.00047C9.09671 7.00047 4.16116 7.00043 4.47476 7.00047C4.38808 7.00047 4.31757 6.92996 4.31757 6.84328ZM7.94698 7.47668V11.871H5.00613V7.47668H7.94698ZM3.22698 10.2067C3.2482 10.1567 3.29691 10.1244 3.35124 10.1244H4.52991V12.0952L4.21898 12.9463H2.06726L3.22698 10.2067ZM0.72175 16.1246L1.8657 13.4224H4.04503L3.01413 16.2443H0.801086C0.739055 16.2443 0.697805 16.1813 0.72175 16.1246ZM10.2056 16.2443H8.3407L9.37159 13.4224H11.2059L10.334 16.1505C10.3162 16.2066 10.2645 16.2443 10.2056 16.2443ZM13.3657 15.3645H11.0852L12.5373 10.8207L13.4593 15.2495C13.4716 15.3088 13.4265 15.3645 13.3657 15.3645Z" fill="black"/>
<path d="M19.5368 9.06141L16.1227 5.64723L16.2604 5.5095C16.305 5.46485 16.3302 5.4043 16.3302 5.34114C16.3302 5.3036 16.3188 5.26837 16.3023 5.23544L16.5584 4.97927C17.0341 4.50364 17.457 4.20212 17.9787 4.27481C18.0822 4.28962 18.1845 4.23388 18.2282 4.13809C18.272 4.04231 18.2477 3.92911 18.1684 3.85981C17.2549 3.06087 15.878 3.09251 14.9999 3.91817C14.9063 3.83993 14.7684 3.84177 14.6805 3.92966L13.3131 5.29712C13.2218 5.38845 13.2213 5.53481 13.3093 5.62813L12.7369 6.20056C12.7178 6.19575 12.5476 5.97602 12.3616 6.16196L11.9137 6.60989C11.5862 6.93724 11.5859 7.46778 11.9137 7.79536L12.3946 8.27622C12.722 8.60376 13.2525 8.60399 13.5801 8.27622L14.0279 7.82841C14.1209 7.7354 14.1209 7.58474 14.0279 7.49173L13.9893 7.45309L14.5618 6.88063C14.6076 6.92391 14.6658 6.94673 14.7246 6.94673C14.7855 6.94673 14.8464 6.92348 14.8929 6.87696L15.0307 6.73923L18.4448 10.1534C18.7465 10.4551 19.2351 10.4553 19.5368 10.1535C19.8385 9.85184 19.8388 9.36317 19.5368 9.06141ZM13.2434 7.93954C13.1067 8.07626 12.868 8.07626 12.7313 7.93954L12.2504 7.45868C12.1089 7.3172 12.1089 7.08806 12.2504 6.94657L12.53 6.667L13.5229 7.66005L13.2434 7.93954ZM17.295 3.88009C16.8878 4.02528 16.541 4.32325 16.2217 4.64255L15.9759 4.88833L15.3411 4.25348C15.878 3.75899 16.6409 3.62817 17.295 3.88009ZM14.8488 4.4347L15.7554 5.34114C15.5657 5.52634 14.7763 6.28692 14.7246 6.37192L13.8181 5.46548L14.8488 4.4347ZM13.653 7.11606L13.0739 6.537L13.6448 5.96614L14.2238 6.5452L13.653 7.11606ZM19.2002 9.81673C19.0884 9.92852 18.8933 9.92852 18.7815 9.81673L15.3673 6.40255L15.786 5.98391L19.2002 9.39809C19.3156 9.51352 19.3161 9.70083 19.2002 9.81673Z" fill="black"/>
<path d="M11.2075 4.57064C11.2631 4.69009 11.405 4.74154 11.5238 4.68607C11.643 4.63064 11.6948 4.489 11.6392 4.36974L11.2373 3.50591C11.1819 3.38685 11.0403 3.33486 10.9209 3.39048C10.8017 3.44591 10.75 3.58755 10.8055 3.70681L11.2075 4.57064Z" fill="black"/>
<path d="M12.3285 4.65189C12.4509 4.69681 12.5884 4.6342 12.6337 4.50978L12.9603 3.61466C13.0054 3.49115 12.9418 3.35451 12.8182 3.30943C12.6952 3.26431 12.558 3.32794 12.5129 3.45154L12.1864 4.34662C12.1413 4.47013 12.2049 4.60677 12.3285 4.65189Z" fill="black"/>
<path d="M9.77773 5.09567L10.6728 5.42223C10.7952 5.46716 10.9327 5.40454 10.978 5.28012C11.0232 5.15661 10.9595 5.01997 10.8359 4.97489L9.94082 4.64833C9.81805 4.60313 9.68078 4.66684 9.63559 4.79044C9.59051 4.91391 9.6541 5.05055 9.77773 5.09567Z" fill="black"/>
</svg>
