<svg width="20" height="20" viewBox="0 0 20 20" fill="none" xmlns="http://www.w3.org/2000/svg">
<path d="M16.6959 14.6875H16.5621V14.005C16.925 13.8756 17.1871 13.5319 17.1871 13.125V12.8125C17.1871 12.4678 16.9068 12.1875 16.5621 12.1875H16.0459C16.0956 11.9819 16.0653 11.7575 15.9409 11.5641L14.8731 9.90469C14.8075 9.80281 14.7628 9.69125 14.7406 9.57313L14.1943 6.72C14.1059 6.25812 13.8181 5.865 13.4053 5.64094L12.5653 5.18469C12.9543 4.63875 12.865 3.91344 12.4334 3.59375C12.6912 2.16656 11.7278 1.25 10.6246 1.25C9.51371 1.25 8.55965 2.17406 8.81621 3.59406C8.3859 3.91281 8.29465 4.63812 8.68434 5.185L7.79121 5.67C7.42059 5.87125 7.1434 6.21969 7.03059 6.62656L6.18965 9.66719C6.17309 9.72687 6.1509 9.78469 6.12309 9.83969L5.42465 11.2244L4.04621 7.08844C4.00371 6.96094 3.88434 6.875 3.74965 6.875H2.81215C2.3984 6.875 2.39871 7.5 2.81215 7.5H3.52434L5.02809 12.0106L4.90246 12.26C4.69934 12.6622 4.84996 13.2028 5.49309 13.4081L5.62465 13.8009V15.4956L3.96934 17.1509C3.3834 17.7369 3.79527 18.75 4.63402 18.75H7.49965C7.9134 18.75 7.91309 18.125 7.49965 18.125H4.63402C4.35309 18.125 4.21715 17.7869 4.41121 17.5928L6.15809 15.8459C6.21684 15.7875 6.24965 15.7081 6.24965 15.625V13.75C6.24965 13.6684 6.22402 13.6344 6.16277 13.4403C6.54777 13.3584 6.84996 13.1184 7.02434 12.8087L8.03059 11.0238C8.06715 10.9591 8.09777 10.8913 8.12465 10.8222V17.8125C8.12465 18.3294 8.54527 18.75 9.06215 18.75C9.1884 18.725 10.039 18.9019 10.6246 18.1153C11.2106 18.9022 12.0618 18.7253 12.1871 18.75C12.704 18.75 13.1246 18.3294 13.1246 17.8125V11.3C13.8771 12.3212 13.8825 12.4016 14.1081 12.5894C14.0806 12.6597 14.0621 12.7341 14.0621 12.8125V13.125C14.0621 13.5319 14.3243 13.8756 14.6871 14.005V14.6875H14.5534C14.1103 14.6875 13.7496 15.0481 13.7496 15.4912V17.9459C13.7496 18.3894 14.1103 18.75 14.5534 18.75H16.6956C17.139 18.75 17.4996 18.3894 17.4996 17.9463V15.4916C17.4996 15.0481 17.139 14.6875 16.6959 14.6875ZM10.2656 4.96406C10.3471 4.67406 10.3234 4.35219 10.1581 4.03188C10.4653 3.6575 10.7834 3.65688 11.0909 4.03188C10.9275 4.34844 10.9009 4.67063 10.9834 4.96406C10.6809 5.01125 10.5684 5.01125 10.2656 4.96406ZM11.7453 4.995C11.5734 4.95281 11.5325 4.66781 11.5862 4.46531C11.6643 4.17 11.9715 3.90875 12.1265 4.16969C12.1912 4.27938 12.205 4.43875 12.1628 4.59688C12.0912 4.86656 11.8809 5.02781 11.7453 4.995ZM11.8493 3.03625C11.8568 3.16719 11.8496 3.30594 11.8253 3.4525C11.7165 3.47063 11.6121 3.51125 11.5143 3.56969C10.9759 2.97625 10.274 2.97563 9.73496 3.56969C9.63683 3.51094 9.53277 3.47062 9.42402 3.45219C9.3984 3.29687 9.39152 3.15 9.40184 3.01219C10.1918 2.73312 11.0643 2.74125 11.8493 3.03625ZM9.12246 4.16969C9.27809 3.90844 9.58496 4.17156 9.66309 4.46594C9.71715 4.67031 9.67246 4.95375 9.5034 4.995C9.36715 5.02906 9.15746 4.86688 9.0859 4.59688C9.04402 4.43875 9.05777 4.27906 9.12246 4.16969ZM11.5609 2.29594C10.9521 2.1525 10.3165 2.14594 9.70496 2.27719C10.2078 1.73406 11.079 1.75156 11.5609 2.29594ZM13.539 10.8059C13.4471 10.6784 13.3887 10.5287 13.369 10.3737L13.1221 8.39875C13.0765 8.03656 12.4996 8.03688 12.4996 8.4375V17.8125C12.4996 17.985 12.3596 18.125 12.1871 18.125H11.8746C11.3578 18.125 10.9371 17.7044 10.9371 17.1875V13.4375C10.9371 13.2647 10.7975 13.125 10.6246 13.125C10.4518 13.125 10.3121 13.2647 10.3121 13.4375V17.1875C10.3121 17.7044 9.89152 18.125 9.37465 18.125H9.06215C8.88965 18.125 8.74965 17.985 8.74965 17.8125V8.4375C8.65309 8.00937 8.21715 8.04562 8.13465 8.35844L7.57652 10.4938C7.55652 10.5713 7.5259 10.6462 7.48621 10.7169L6.47996 12.5022C6.34121 12.7484 6.05965 12.8891 5.76621 12.8344C5.76527 12.8344 5.76465 12.8338 5.76371 12.8338C5.58965 12.8006 5.3809 12.6994 5.45996 12.5416L6.68059 10.1216C6.72652 10.0303 6.76434 9.93344 6.79152 9.83406L7.63246 6.79344C7.69996 6.54938 7.86621 6.34031 8.08871 6.21969L9.24277 5.59313C9.45433 5.65063 9.64277 5.63594 9.84496 5.52312C9.96152 5.54719 10.1356 5.58 10.3112 5.60219V10.3125C10.3112 10.7263 10.9362 10.7259 10.9362 10.3125V5.60156C11.1118 5.57969 11.2862 5.54688 11.4025 5.5225C11.6075 5.63688 11.7962 5.64937 12.005 5.5925L13.1059 6.19031C13.3537 6.32469 13.5262 6.56094 13.5793 6.83781L14.1256 9.69063C14.1631 9.88719 14.2371 10.0728 14.3462 10.2425L15.4143 11.9022C15.4671 11.9844 15.4456 12.0916 15.3646 12.1469C15.0446 12.3637 14.6109 12.2944 14.3806 11.9734L13.539 10.8059ZM15.4209 12.8125H16.5621V13.125C16.5621 13.2975 16.4221 13.4375 16.2496 13.4375H14.9996C14.8271 13.4375 14.6871 13.2975 14.6871 13.125L14.6843 12.8684C14.924 12.9191 15.1587 12.9091 15.4209 12.8125ZM15.3121 14.0625H15.9371V14.6875H15.3121V14.0625ZM16.8746 17.9463C16.8746 18.0447 16.7943 18.125 16.6959 18.125H14.5537C14.455 18.125 14.3746 18.0447 14.3746 17.9463V15.4916C14.3746 15.3928 14.455 15.3125 14.5534 15.3125H16.6956C16.7943 15.3125 16.8746 15.3928 16.8746 15.4912V17.9463Z" fill="black"/>
</svg>
