<svg width="20" height="20" viewBox="0 0 20 20" fill="none" xmlns="http://www.w3.org/2000/svg">
<g clip-path="url(#clip0_833_15467)">
<path d="M17.1875 5V4.0625C17.1875 3.375 16.625 2.8125 15.9375 2.8125H13.4375V0.625H0.9375V15.9375C0.9375 16.8125 1.625 17.5 2.5 17.5H4.0625V17.8125C4.0625 18.6875 4.75 19.375 5.625 19.375H17.8125C18.5 19.375 19.0625 18.8125 19.0625 18.125V5H17.1875ZM14.875 3.4375C14.7812 3.625 14.6875 3.84375 14.6875 4.0625V16.25C14.6875 16.5938 14.4063 16.875 14.0625 16.875C13.7187 16.875 13.4375 16.5938 13.4375 16.25V3.4375H14.875ZM1.5625 15.9375V1.25H12.8125V16.25C12.8125 16.4687 12.875 16.6875 12.9688 16.875H2.5C1.96875 16.875 1.5625 16.4688 1.5625 15.9375ZM4.6875 17.8125V17.5H14.0625C14.75 17.5 15.3125 16.9375 15.3125 16.25V4.0625C15.3125 3.71875 15.5937 3.4375 15.9375 3.4375C16.2813 3.4375 16.5625 3.71875 16.5625 4.0625V18.125C16.5625 18.3437 16.625 18.5625 16.75 18.75H5.625C5.09375 18.75 4.6875 18.3438 4.6875 17.8125ZM18.4375 18.125C18.4375 18.4688 18.1563 18.75 17.8125 18.75C17.4687 18.75 17.1875 18.4688 17.1875 18.125V5.625H18.4375V18.125Z" fill="black"/>
<path d="M8.125 5.9375H5.625V5.125C5.21875 4.78125 5 4.28125 5 3.75C5 2.71875 5.84375 1.875 6.875 1.875C7.90625 1.875 8.75 2.71875 8.75 3.75C8.75 4.28125 8.53125 4.78125 8.125 5.125V5.9375ZM6.25 5.625H7.5V4.84375L7.625 4.75C7.9375 4.5 8.125 4.15625 8.125 3.75C8.125 3.0625 7.5625 2.5 6.875 2.5C6.1875 2.5 5.625 3.0625 5.625 3.75C5.625 4.15625 5.8125 4.5 6.125 4.75L6.25 4.84375V5.625Z" fill="black"/>
<path d="M6.875 7.1875C6.1875 7.1875 5.625 6.625 5.625 5.9375V5.625H8.125V5.9375C8.125 6.625 7.5625 7.1875 6.875 7.1875ZM6.34375 6.25C6.4375 6.4375 6.65625 6.5625 6.875 6.5625C7.09375 6.5625 7.3125 6.4375 7.40625 6.25H6.34375Z" fill="black"/>
<path d="M3.375 9.03125L2.71875 8.375L2.28125 8.8125L3.375 9.90625L4.90625 8.375L4.46875 7.9375L3.375 9.03125Z" fill="black"/>
<path d="M3.375 11.8438L2.71875 11.1875L2.28125 11.625L3.375 12.7187L4.90625 11.1875L4.46875 10.75L3.375 11.8438Z" fill="black"/>
<path d="M3.375 14.6563L2.71875 14L2.28125 14.4375L3.375 15.5312L4.90625 14L4.46875 13.5625L3.375 14.6563Z" fill="black"/>
<path d="M5.625 8.125H12.1875V8.75H5.625V8.125Z" fill="black"/>
<path d="M5.625 9.375H11.25V10H5.625V9.375Z" fill="black"/>
<path d="M5.625 10.9375H12.1875V11.5625H5.625V10.9375Z" fill="black"/>
<path d="M5.625 12.1875H11.25V12.8125H5.625V12.1875Z" fill="black"/>
<path d="M5.625 13.75H12.1875V14.375H5.625V13.75Z" fill="black"/>
<path d="M5.625 15H11.25V15.625H5.625V15Z" fill="black"/>
</g>
<defs>
<clipPath id="clip0_833_15467">
<rect width="20" height="20" fill="white"/>
</clipPath>
</defs>
</svg>
