<svg width="20" height="20" viewBox="0 0 20 20" fill="none" xmlns="http://www.w3.org/2000/svg">
<path d="M9.99926 1.5752C9.18547 1.5752 8.52344 2.23723 8.52344 3.05102C8.52344 3.86481 9.18547 4.52681 9.99926 4.52681C10.8131 4.52681 11.4751 3.86474 11.4751 3.05102C11.4751 2.23723 10.8131 1.5752 9.99926 1.5752ZM9.99926 3.93778C9.51028 3.93778 9.11242 3.53997 9.11242 3.05098C9.11242 2.562 9.51024 2.16414 9.99926 2.16414C10.4883 2.16414 10.8861 2.56196 10.8861 3.05098C10.8861 3.54001 10.4883 3.93778 9.99926 3.93778Z" fill="black"/>
<path d="M9.99957 0C9.83688 0 9.70508 0.131876 9.70508 0.294493V0.688245C9.70508 0.850902 9.83691 0.982738 9.99957 0.982738C10.1622 0.982738 10.2941 0.850863 10.2941 0.688245V0.294493C10.2941 0.131876 10.1623 0 9.99957 0Z" fill="black"/>
<path d="M8.53703 1.17225L8.25859 0.893853C8.14363 0.778852 7.95714 0.778891 7.8421 0.893853C7.7271 1.00885 7.7271 1.19534 7.84214 1.31038L8.12054 1.58882C8.17804 1.64632 8.25343 1.67507 8.32879 1.67507C8.40414 1.67507 8.47953 1.64632 8.53707 1.58878C8.65207 1.47374 8.65207 1.28725 8.53703 1.17225Z" fill="black"/>
<path d="M7.63746 2.75586H7.24371C7.08102 2.75586 6.94922 2.88773 6.94922 3.05035C6.94922 3.21301 7.08106 3.34485 7.24371 3.34485H7.63746C7.80016 3.34485 7.93196 3.21297 7.93196 3.05035C7.93196 2.88773 7.80012 2.75586 7.63746 2.75586Z" fill="black"/>
<path d="M8.53707 4.51301C8.42203 4.39801 8.23559 4.39801 8.12051 4.51301L7.84211 4.79141C7.72711 4.90641 7.72711 5.09289 7.84211 5.20789C7.89965 5.26539 7.97504 5.29418 8.05039 5.29418C8.12574 5.29418 8.20113 5.26543 8.25867 5.20789L8.53707 4.92949C8.65207 4.81449 8.65207 4.62801 8.53707 4.51301Z" fill="black"/>
<path d="M9.99957 5.11914C9.83688 5.11914 9.70508 5.25102 9.70508 5.41363V5.80739C9.70508 5.97004 9.83691 6.10188 9.99957 6.10188C10.1622 6.10188 10.2941 5.97 10.2941 5.80739V5.41363C10.2941 5.25102 10.1623 5.11914 9.99957 5.11914Z" fill="black"/>
<path d="M12.1582 4.79143L11.8798 4.51303C11.7648 4.39803 11.5783 4.39799 11.4632 4.51299C11.3482 4.62799 11.3482 4.81447 11.4632 4.92951L11.7416 5.20791C11.7991 5.26541 11.8745 5.29416 11.9499 5.29416C12.0252 5.29416 12.1006 5.26541 12.1581 5.20791C12.2732 5.09291 12.2732 4.90643 12.1582 4.79143Z" fill="black"/>
<path d="M12.7566 2.75586H12.3629C12.2002 2.75586 12.0684 2.88773 12.0684 3.05035C12.0684 3.21297 12.2002 3.34485 12.3629 3.34485H12.7566C12.9193 3.34485 13.0511 3.21297 13.0511 3.05035C13.0511 2.88773 12.9193 2.75586 12.7566 2.75586Z" fill="black"/>
<path d="M12.1581 0.893853C12.0431 0.778852 11.8566 0.778891 11.7416 0.893853L11.4632 1.17225C11.3482 1.28725 11.3482 1.47374 11.4632 1.58878C11.5207 1.64632 11.5961 1.67507 11.6714 1.67507C11.7468 1.67507 11.8222 1.64632 11.8797 1.58878L12.1581 1.31038C12.2731 1.19538 12.2731 1.00889 12.1581 0.893853Z" fill="black"/>
<path d="M18.1687 15.0852C18.1684 15.08 18.1684 15.0749 18.1679 15.0698C18.1669 15.0594 18.1653 15.0492 18.1632 15.0392C18.1632 15.039 18.1632 15.0388 18.1631 15.0385L17.6386 12.5472C17.6384 12.5463 17.6382 12.5454 17.638 12.5446L17.1136 10.0534C17.1134 10.0525 17.1132 10.0516 17.113 10.0507L16.5881 7.55707C16.5594 7.42078 16.4392 7.32324 16.2999 7.32324H3.69946C3.56016 7.32324 3.43997 7.42078 3.41126 7.55707L2.88641 10.0504C2.88618 10.0515 2.88594 10.0525 2.88575 10.0536L2.36133 12.5448C2.36117 12.5455 2.36102 12.5462 2.3609 12.5469L1.83645 15.0383C1.83426 15.0488 1.83258 15.0596 1.83152 15.0704C1.83129 15.0729 1.83133 15.0755 1.83113 15.078C1.83063 15.085 1.83008 15.092 1.83008 15.0991V16.2805C1.83008 16.4432 1.96191 16.575 2.12457 16.575H9.11444V18.2295H6.84951C6.68682 18.2295 6.55502 18.3614 6.55502 18.524V19.4109H3.6995C3.5368 19.4109 3.40501 19.5428 3.40501 19.7054C3.40501 19.868 3.53684 19.9999 3.6995 19.9999H6.84955H13.1498H16.2994C16.4621 19.9999 16.5939 19.868 16.5939 19.7054C16.5939 19.5428 16.462 19.4109 16.2994 19.4109H13.4443V18.524C13.4443 18.3614 13.3125 18.2295 13.1498 18.2295H10.8849V16.575H17.8748C18.0375 16.575 18.1693 16.4431 18.1693 16.2805V15.1044C18.1693 15.104 18.1693 15.1035 18.1693 15.1031V15.0992C18.1694 15.0944 18.1689 15.0899 18.1687 15.0852ZM17.5119 14.8047H12.8994L12.7657 12.8999H17.1109L17.5119 14.8047ZM16.5859 10.4061L16.987 12.3109H12.7243L12.5906 10.4061H16.5859ZM16.0609 7.91227L16.462 9.81708H12.5493L12.4156 7.91227H16.0609ZM8.17417 7.91227H11.8252L11.9589 9.81708H8.04049L8.17417 7.91227ZM7.9992 10.4061H12.0002L12.1339 12.3109H7.86553L7.9992 10.4061ZM7.82424 12.8999H12.1752L12.3089 14.8047H7.69057L7.82424 12.8999ZM3.93845 7.91227H7.58373L7.45006 9.81708H3.53743L3.93845 7.91227ZM3.41348 10.4061H7.40873L7.27506 12.3109H3.01247L3.41348 10.4061ZM12.8553 18.8186V19.411H7.14408V18.8186H9.40901H10.5904H12.8553ZM9.70351 18.2296V16.5751H10.2959V18.2296H9.70351ZM10.5938 15.9861C10.5927 15.9861 10.5916 15.9859 10.5904 15.9859H9.40901C9.40788 15.9859 9.40675 15.9861 9.40562 15.9861H2.41906V15.3937H3.822C3.9847 15.3937 4.11649 15.2618 4.11649 15.0992C4.11649 14.9366 3.98466 14.8047 3.822 14.8047H2.4875L2.88848 12.8999H7.23373L7.10006 14.8047H5.0956C4.9329 14.8047 4.80107 14.9366 4.80107 15.0992C4.80107 15.2618 4.9329 15.3937 5.09556 15.3937H7.3744C7.37459 15.3937 7.37475 15.3937 7.37494 15.3937C7.37506 15.3937 7.37522 15.3937 7.37533 15.3937H12.6241C12.6242 15.3937 12.6243 15.3937 12.6245 15.3937C12.6247 15.3937 12.6248 15.3937 12.625 15.3937H17.5803V15.986H10.5938V15.9861Z" fill="black"/>
</svg>
