<svg width="60" height="60" viewBox="0 0 60 60" fill="none" xmlns="http://www.w3.org/2000/svg">
<g clip-path="url(#clip0_798_12623)">
<path d="M59.3638 22.425C59.774 21.9121 60 21.2681 60 20.6113V1.93548C60 0.868306 59.1317 0 58.0645 0H48.3871C47.3199 0 46.4516 0.868306 46.4516 1.93548V20.6115C46.4516 21.2681 46.6776 21.9121 47.0878 22.4251L50.3226 26.4685V29.0323H48.3871C47.3199 29.0323 46.4516 29.9006 46.4516 30.9677V54.9728L38.7097 48.2407V10.6452H39.2767C39.7936 10.6452 40.2797 10.4438 40.6452 10.0782L43.8318 6.89153C44.2731 6.45036 44.5161 5.86355 44.5161 5.23948C44.5161 3.95129 43.4681 2.90323 42.1799 2.90323H25.1613C24.0941 2.90323 23.2258 3.77153 23.2258 4.83871V8.70968C23.2258 9.77685 24.0941 10.6452 25.1613 10.6452H29.0323V39.8256L23.2258 34.7765V17.644C23.2258 17.4203 23.1998 17.1965 23.1486 16.979L19.5508 1.6881C19.3169 0.694113 18.4404 0 17.4194 0C16.3983 0 15.5219 0.694113 15.2879 1.6881L11.6901 16.9789C11.6389 17.1965 11.6129 17.4202 11.6129 17.644V24.6783L3.91343 17.9831C3.49524 17.6196 2.95996 17.4194 2.40593 17.4194H2.29742C1.03065 17.4194 0 18.45 0 19.7168V57.7026C0 58.9694 1.03065 60 2.29742 60H46.0898C46.6744 60 47.2071 59.7786 47.613 59.4178C48.0986 59.7831 48.7019 60 49.355 60H57.0969C58.6978 60 60.0001 58.6975 60.0001 57.0968V30.9677C60.0001 29.9006 59.1318 29.0323 58.0646 29.0323H56.1292V26.4685L59.3638 22.425ZM51.7554 25.1613L48.6587 21.2903H57.7929L54.6962 25.1613H51.7554ZM50.3226 5.23948C50.6881 5.60504 51.1742 5.80645 51.6911 5.80645H54.7604C55.2773 5.80645 55.7635 5.60504 56.1289 5.23948L58.0644 3.30399V19.3548H48.387V3.30399L50.3226 5.23948ZM49.7556 1.93548H56.6959L54.7604 3.87097H51.6911L49.7556 1.93548ZM30.9677 10.6452H32.9032V8.70968H25.1613V4.83871H42.1799C42.4009 4.83871 42.5807 5.01847 42.5807 5.23948C42.5807 5.34653 42.5389 5.44718 42.4633 5.5229L39.2767 8.70968H34.8387V10.6452H36.7742V46.5577L30.9677 41.5086V10.6452ZM11.6129 50.3226H9.67742V33.1004L11.6129 34.794V50.3226ZM13.5484 19.3548H16.4516V50.3226H13.5484V19.3548ZM21.264 17.4194H13.5749L15.8519 7.74194H18.987L21.264 17.4194ZM18.3871 19.3548H21.2903V50.3226H18.3871V19.3548ZM23.2258 44.9552L29.3598 50.3226H23.2258V44.9552ZM17.4194 1.93548C17.5379 1.93548 17.6396 2.01605 17.6667 2.13145L18.5315 5.80645H16.3073L17.172 2.13145C17.1991 2.01605 17.3008 1.93548 17.4194 1.93548ZM46.0897 58.0645H38.7097V56.129H36.7742V58.0645H34.8387V54.1935H32.9032V58.0645H30.9677V56.129H29.0323V58.0645H27.0968V54.1935H25.1613V58.0645H23.2258V56.129H21.2903V58.0645H19.3548V54.1935H17.4194V58.0645H15.4839V56.129H13.5484V58.0645H11.6129V54.1935H9.67742V58.0645H7.74194V56.129H5.80645V58.0645H2.29742C2.09794 58.0645 1.93548 57.9022 1.93548 57.7026V56.129H3.87097V54.1935H1.93548V52.2581H5.80645V50.3226H1.93548V48.3871H3.87097V46.4516H1.93548V44.5161H5.80645V42.5806H1.93548V40.6452H3.87097V38.7097H1.93548V36.7742H5.80645V34.8387H1.93548V32.9032H3.87097V30.9677H1.93548V29.0323H5.80645V27.0968H1.93548V25.1613H3.87097V23.2258H1.93548V19.7168C1.93548 19.5173 2.09782 19.3548 2.29742 19.3548H2.40593C2.49327 19.3548 2.57758 19.3864 2.64339 19.4436L11.6129 27.2431V32.2222L7.74194 28.8351V52.2581H34.5111L23.2258 42.3835V37.3414L46.3271 57.4294C46.4063 57.4983 46.4516 57.5978 46.4516 57.7026C46.4516 57.9022 46.2893 58.0645 46.0897 58.0645ZM57.0968 58.0645H49.3548C48.8213 58.0645 48.3871 57.6304 48.3871 57.0968V34.8387H58.0645V57.0968C58.0645 57.6304 57.6304 58.0645 57.0968 58.0645ZM58.0645 32.9032H48.3871V30.9677H58.0645V32.9032ZM52.2581 29.0323V27.0968H54.1936V29.0323H52.2581Z" fill="#F47629"/>
</g>
<defs>
<clipPath id="clip0_798_12623">
<rect width="60" height="60" fill="white"/>
</clipPath>
</defs>
</svg>
