<svg width="61" height="60" viewBox="0 0 61 60" fill="none" xmlns="http://www.w3.org/2000/svg">
<g clip-path="url(#clip0_798_12635)">
<path d="M60.333 25.1613H58.1584L54.9173 26.8667C54.5525 26.6654 54.1731 26.4948 53.7639 26.3922L49.6869 25.372V24.9085C51.4905 23.6497 52.5911 21.5701 52.5911 19.3548V17.6632C52.5911 13.9037 49.6453 10.7576 46.0248 10.648C45.841 10.6433 45.66 10.6499 45.4781 10.6589L46.5351 8.18422L41.4105 3.06105L38.3896 5.02725C37.2419 4.38083 36.0279 3.87758 34.7672 3.5246L34.0211 0H26.6458L25.8997 3.52555C24.639 3.87853 23.4241 4.38177 22.2773 5.02819L19.2564 3.062L14.1361 8.18233L15.1752 10.6589C15.1355 10.657 15.0977 10.6499 15.058 10.6489C13.2047 10.5951 11.4592 11.2713 10.1333 12.5584C8.80548 13.8447 8.07495 15.5708 8.07495 17.4194V19.3548C8.07495 21.5701 9.17452 23.6487 10.9782 24.9075V25.372L8.31877 26.0369L3.49849 23.2258H0.333008V43.2786L9.85355 46.4516H11.7077L11.9393 45.6408L14.8576 47.3924C14.9054 48.9792 16.1779 50.256 17.7632 50.3117C17.819 51.8904 19.0877 53.1592 20.6665 53.2149C20.7222 54.7937 21.991 56.0624 23.5697 56.1182C23.6273 57.7337 24.9504 59.0323 26.5792 59.0323C27.1841 59.0323 27.7771 58.8437 28.2756 58.5078L29.1328 59.2647C29.67 59.7378 30.3618 60 31.0801 60H31.2592C32.8695 60 34.1799 58.6982 34.2002 57.093C35.7931 57.0727 37.0831 55.7827 37.1034 54.1898C38.6973 54.1695 39.9882 52.8776 40.0066 51.2837C41.6151 51.2459 42.9137 49.9318 42.9137 48.3143C42.9137 48.217 42.9089 48.1211 42.899 48.0242L60.333 39.3079V25.1613ZM50.6556 17.6632V19.3548C50.6556 21.0725 49.7275 22.6772 48.2334 23.5424L47.7495 23.8221L47.7533 26.8846L52.5882 28.0924L41.9459 33.6938V31.0868C41.9459 29.7859 41.4205 28.5947 40.56 27.7144L43.8814 26.8846V23.8198L43.3985 23.5405C41.9053 22.6772 40.9782 21.0725 40.9782 19.3548V17.4194C40.9782 16.0996 41.4998 14.8653 42.4482 13.9463C43.3956 13.0277 44.6526 12.5324 45.9667 12.5835C48.5519 12.661 50.6556 14.94 50.6556 17.6632ZM31.7922 32.933L27.4113 31.5329C25.4149 30.8931 23.254 30.7976 21.2103 31.2503L20.6556 31.3732V31.0868C20.6556 29.7524 21.5605 28.5938 22.8543 28.2696L28.3975 26.8846V23.8198L27.9146 23.5405C26.4214 22.6772 25.4943 21.0725 25.4943 19.3548V17.4194C25.4943 16.0996 26.016 14.8653 26.9643 13.9463C27.9118 13.0277 29.1767 12.5324 30.4828 12.5835C33.068 12.661 35.1717 14.94 35.1717 17.6632V19.3548C35.1717 21.0725 34.2437 22.6772 32.7495 23.5424L32.2657 23.8221L32.2694 26.8846L37.8117 28.2696C39.1055 28.5938 40.0104 29.7524 40.0104 31.0868V34.713L39.7713 34.8387H39.1783L33.2287 33.1385C32.7599 33.0058 32.277 32.9514 31.7922 32.933ZM20.8725 14.484C22.6898 10.9627 26.3477 8.70968 30.333 8.70968C34.2805 8.70968 37.9228 10.9325 39.7538 14.406C39.2931 15.3298 39.0427 16.3529 39.0427 17.4194V19.3548C39.0427 21.5701 40.1423 23.6487 41.9459 24.9075V25.372L38.0749 26.3412L34.203 25.372V24.9085C36.0067 23.6497 37.1072 21.5701 37.1072 19.3548V17.6632C37.1072 13.9037 34.1614 10.7576 30.5409 10.648C28.6886 10.5937 26.9421 11.2703 25.6162 12.5575C24.2893 13.8447 23.5588 15.5708 23.5588 17.4194V19.3548C23.5588 21.5701 24.6584 23.6487 26.462 24.9075V25.372L22.5911 26.3412L18.7192 25.372V24.9085C20.5228 23.6497 21.6233 21.5701 21.6233 19.3548V17.6632C21.6233 16.5244 21.3493 15.4432 20.8725 14.484ZM16.4217 8.63124L19.5135 5.53947L22.2348 7.31052L22.7555 6.99109C24.0602 6.19156 25.4702 5.6061 26.9459 5.25312L27.5413 5.11041L28.2146 1.93548H32.4523L33.1238 5.10947L33.7192 5.2517C35.1949 5.60515 36.6049 6.19062 37.9096 6.99014L38.4303 7.30957L41.1516 5.53853L44.2396 8.62746L43.1419 11.1975C42.3948 11.5189 41.7021 11.9711 41.0991 12.5556C41.0594 12.5943 41.0254 12.6359 40.9867 12.6756C38.7067 9.05132 34.676 6.77419 30.333 6.77419C25.9588 6.77419 21.9168 9.07258 19.6425 12.7337C19.0339 12.0968 18.3099 11.5808 17.5076 11.2202L16.4217 8.63124ZM12.9136 26.8846V23.8198L12.4307 23.5405C10.9375 22.6772 10.0104 21.0725 10.0104 19.3548V17.4194C10.0104 16.0996 10.5321 14.8653 11.4805 13.9463C12.4279 13.0277 13.6877 12.5324 14.9989 12.5835C17.5841 12.661 19.6878 14.94 19.6878 17.6632V19.3548C19.6878 21.0725 18.7598 22.6772 17.2656 23.5424L16.7818 23.8221L16.7856 26.8846L20.106 27.7144C19.2456 28.5947 18.7201 29.7859 18.7201 31.0868V31.8037L15.7016 32.4746L15.78 32.2006L15.8169 30.412L10.7131 27.4346L12.9136 26.8846ZM2.26849 25.1613H2.97398L9.93388 29.2208L6.42204 43.2677L2.26849 41.8827V25.1613ZM10.1673 44.5161L8.26254 43.8815L11.6742 30.2363L13.8814 31.5234V31.7999L10.2486 44.5161H10.1673ZM16.7846 47.3022C16.7846 47.0168 16.8999 46.737 17.1022 46.5348L18.8033 44.8337C19.0055 44.6314 19.2852 44.5161 19.5707 44.5161C20.1689 44.5161 20.6556 45.0028 20.6556 45.6011C20.6556 45.8865 20.5403 46.1662 20.338 46.3685L18.6369 48.0696C18.4347 48.2718 18.155 48.3871 17.8695 48.3871C17.2713 48.3871 16.7846 47.9004 16.7846 47.3022ZM19.6878 50.2054C19.6878 49.92 19.8031 49.6403 20.0054 49.438L21.7065 47.7369C21.9087 47.5347 22.1885 47.4194 22.4739 47.4194C23.0721 47.4194 23.5588 47.9061 23.5588 48.5043C23.5588 48.7897 23.4435 49.0694 23.2413 49.2717L21.5402 50.9728C21.3379 51.175 21.0582 51.2903 20.7728 51.2903C20.1745 51.2903 19.6878 50.8036 19.6878 50.2054ZM22.5911 53.1086C22.5911 52.8232 22.7064 52.5435 22.9086 52.3412L24.6097 50.6401C24.812 50.4379 25.0917 50.3226 25.3771 50.3226C25.9753 50.3226 26.462 50.8093 26.462 51.4075C26.462 51.6929 26.3467 51.9727 26.1445 52.1749L24.4434 53.876C24.2411 54.0783 23.9614 54.1936 23.676 54.1936C23.0778 54.1936 22.5911 53.7068 22.5911 53.1086ZM26.5792 57.0968C25.981 57.0968 25.4943 56.6101 25.4943 56.0118C25.4943 55.7264 25.6096 55.4467 25.8118 55.2445L27.5129 53.5434C27.7152 53.3411 27.9949 53.2258 28.2803 53.2258C28.8786 53.2258 29.3653 53.7125 29.3653 54.3107C29.3653 54.5961 29.25 54.8759 29.0477 55.0781L27.3466 56.7792C27.1444 56.9815 26.8646 57.0968 26.5792 57.0968ZM31.2592 58.0645H31.0801C30.8334 58.0645 30.5971 57.9747 30.4133 57.8117L29.6894 57.1733L30.4162 56.4466C30.6756 56.1872 30.8769 55.8786 31.0257 55.5474L31.9056 56.2798C32.1357 56.4716 32.2685 56.7542 32.2685 57.0552C32.2685 57.6118 31.8158 58.0645 31.2592 58.0645ZM39.9377 49.3548H39.7704C39.5275 49.3548 39.2903 49.2688 39.1046 49.1129L33.8567 44.7396L32.6167 46.2272L37.713 50.4733C37.9422 50.6652 38.0749 50.9477 38.0749 51.2487C38.0749 51.8054 37.6223 52.2581 37.0656 52.2581H36.8544C36.6195 52.2581 36.3899 52.1749 36.2089 52.0237L30.9525 47.6438L29.7126 49.1313L34.8088 53.378C35.0389 53.5684 35.1717 53.851 35.1717 54.152C35.1717 54.7086 34.719 55.1613 34.1624 55.1613C33.791 55.1613 33.429 55.0295 33.1441 54.7927L30.9841 52.9924C30.5083 52.0199 29.5306 51.3418 28.3857 51.3012C28.3299 49.7225 27.0612 48.4537 25.4825 48.398C25.4267 46.8192 24.158 45.5505 22.5793 45.4947C22.5226 43.8792 21.1995 42.5807 19.5707 42.5807C18.7754 42.5807 17.9971 42.9029 17.4348 43.4652L15.7337 45.1663C15.6321 45.2679 15.548 45.3832 15.4625 45.4976L12.4898 43.7138L15.0958 34.593L21.629 33.1404C23.3429 32.7572 25.1498 32.8404 26.8212 33.3753L28.2468 33.8313L23.4137 36.2478C22.3094 36.8011 21.6233 37.912 21.6233 39.1472V39.3386C21.6233 41.1262 23.0778 42.5807 24.8654 42.5807C25.4527 42.5807 26.0306 42.4209 26.5329 42.118L30.1364 39.9572C30.8603 39.5234 31.8319 39.6184 32.457 40.1807L40.6337 47.5394C40.8525 47.7378 40.9782 48.0195 40.9782 48.3143C40.9782 48.8885 40.5118 49.3548 39.9377 49.3548ZM58.3975 38.1115L42.0938 46.264C42.0409 46.2078 41.9856 46.1544 41.9275 46.1024L33.7522 38.7437C33.0359 38.0973 32.1097 37.7419 31.1448 37.7419C30.4393 37.7419 29.7466 37.9338 29.1399 38.2976L25.5349 40.4595C25.3327 40.5814 25.1016 40.6452 24.8654 40.6452C24.1443 40.6452 23.5588 40.0597 23.5588 39.3386V39.1472C23.5588 38.6487 23.8357 38.2017 24.2808 37.9791L29.679 35.2801C30.6028 34.8174 31.6996 34.714 32.6952 35.0003L38.7766 36.7373L40.2495 36.7742L58.3975 27.2225V38.1115Z" fill="#F47629"/>
</g>
<defs>
<clipPath id="clip0_798_12635">
<rect width="60" height="60" fill="white" transform="translate(0.333008)"/>
</clipPath>
</defs>
</svg>
