<svg width="60" height="60" viewBox="0 0 60 60" fill="none" xmlns="http://www.w3.org/2000/svg">
<path d="M16.1827 42.8704C16.1827 42.4257 16.3455 42.0063 16.6664 41.6238C17.0823 41.1279 17.0176 40.3887 16.5218 39.9728C16.0259 39.5569 15.2867 39.6216 14.8708 40.1174C13.4555 41.8045 13.5126 44.3494 15.0638 45.9329C15.8027 46.6871 15.8027 48.0189 15.0638 48.7732C14.2625 49.5911 13.8389 50.6501 13.8389 51.8356C13.8389 52.4828 14.3635 53.0075 15.0107 53.0075C15.658 53.0075 16.1826 52.4828 16.1826 51.8356C16.1826 51.26 16.3643 50.7948 16.738 50.4134C18.3589 48.7587 18.3589 45.9474 16.738 44.2927C16.3696 43.9164 16.1827 43.4379 16.1827 42.8704Z" fill="#F47629"/>
<path d="M26.3521 42.8704C26.3521 42.4257 26.5147 42.0063 26.8356 41.6238C27.2516 41.128 27.1869 40.3888 26.6911 39.9729C26.1953 39.5568 25.4562 39.6217 25.0401 40.1175C23.6249 41.8044 23.6821 44.3496 25.2331 45.9329C25.972 46.6871 25.972 48.019 25.2331 48.7733C24.4318 49.5911 24.0083 50.6502 24.0083 51.8356C24.0083 52.4829 24.5329 53.0075 25.1802 53.0075C25.8274 53.0075 26.3521 52.4829 26.3521 51.8356C26.3521 51.26 26.5337 50.7949 26.9074 50.4134C28.5283 48.7588 28.5283 45.9474 26.9074 44.2927C26.5388 43.9166 26.3521 43.4381 26.3521 42.8704Z" fill="#F47629"/>
<path d="M36.521 42.8704C36.521 42.4256 36.6838 42.0062 37.0045 41.6238C37.4206 41.1281 37.3558 40.3889 36.8601 39.9729C36.3645 39.557 35.6251 39.6215 35.2092 40.1174C33.7937 41.8043 33.8509 44.3495 35.4021 45.9328C36.1408 46.6872 36.141 48.0189 35.4021 48.7732C34.6008 49.5911 34.1772 50.6501 34.1772 51.8356C34.1772 52.4828 34.702 53.0074 35.3491 53.0074C35.9962 53.0074 36.521 52.4828 36.521 51.8356C36.521 51.2599 36.7026 50.7948 37.0763 50.4133C37.8661 49.607 38.3011 48.5201 38.3011 47.3529C38.3011 46.1857 37.8661 45.0989 37.0763 44.2926C36.7079 43.9164 36.521 43.4379 36.521 42.8704Z" fill="#F47629"/>
<path d="M57.9817 36.162L56.6045 33.7369C55.963 32.6075 55.6241 31.324 55.6241 30.0252V25.9455C55.6241 25.2983 55.0993 24.7737 54.4522 24.7737H54.0299V11.3406C54.0299 11.153 54.0859 10.9719 54.1916 10.8171L55.5398 8.84519C56.166 7.92914 56.286 6.77039 55.8607 5.7457L53.7771 0.722813C53.5957 0.285234 53.1685 0 52.6947 0H47.9281C47.4544 0 47.0272 0.285234 46.8458 0.722813L44.7622 5.74559C44.6042 6.12609 44.5219 6.52523 44.5124 6.92344H33.2675C32.6204 6.92344 32.0956 7.44809 32.0956 8.09531C32.0956 8.74254 32.6204 9.26719 33.2675 9.26719H45.3713L46.4312 10.8175C46.5311 10.9634 46.593 11.1638 46.593 11.3406V24.7736L3.07557 24.7734V23.5523C3.07557 16.8185 3.27877 14.6091 3.7058 12.4569L4.22611 9.83742C4.29174 9.50695 4.584 9.26719 4.92127 9.26719H22.9599C23.6072 9.26719 24.1318 8.74254 24.1318 8.09531C24.1318 7.44809 23.6072 6.92344 22.9599 6.92344H4.92127C3.46896 6.92344 2.2099 7.95715 1.92736 9.38109L1.40705 12.0005C0.949551 14.306 0.731934 16.6227 0.731934 23.5523V32.6719C0.731934 33.3191 1.25658 33.8437 1.90381 33.8437H6.64287V36.3949C6.64287 37.0421 7.16752 37.5668 7.81475 37.5668H41.9849C41.5708 38.6711 41.3552 39.8461 41.3552 41.0311V51.1366C41.3552 53.2996 42.0815 55.4348 43.4005 57.1492L45.2421 59.5427C45.464 59.831 45.807 60 46.1709 60H54.4524C54.8162 60 55.1593 59.831 55.3813 59.5427L57.2229 57.1492C58.5418 55.435 59.2681 53.2996 59.2681 51.1366V41.0311C59.2679 39.3272 58.8232 37.6434 57.9817 36.162ZM46.9269 6.64371L48.7107 2.34375H51.9122L53.696 6.64383C53.8165 6.93434 53.7825 7.26281 53.6051 7.5225L52.2568 9.49441C51.8835 10.0405 51.6862 10.6789 51.6862 11.3406V24.7736H48.9369V11.3402C48.9369 10.6876 48.7345 10.0332 48.3661 9.49441L47.0181 7.52262C46.8404 7.26281 46.8064 6.93434 46.9269 6.64371ZM3.07557 27.1173H44.9988V29.7539H9.56072C8.41592 29.7539 7.34963 30.4526 6.8885 31.5H3.07557V27.1173ZM8.9865 32.6719C8.9865 32.3552 9.24408 32.0977 9.56072 32.0977H44.7061C44.3829 33.2229 43.7479 34.2132 43.1744 35.223H8.9865V32.6719ZM56.9242 51.1366C56.9242 52.7855 56.3704 54.4131 55.365 55.72L53.8752 57.6562H46.7477L45.2579 55.72C44.2524 54.4131 43.6987 52.7854 43.6987 51.1366V41.0311C43.6987 39.5636 44.1615 38.2373 44.8759 36.9735C44.8759 36.9735 46.0003 35.0148 46.2192 34.5934C46.9502 33.1857 47.3431 31.612 47.3431 30.0247V27.1174H53.2803V30.0252C53.2803 31.7291 53.7251 33.4129 54.5666 34.8943L55.9438 37.3194C56.5852 38.4488 56.9242 39.7323 56.9242 41.0311V51.1366Z" fill="#F47629"/>
<path d="M47.7651 38.6348C47.118 38.6348 46.5933 39.1594 46.5933 39.8066V51.6491C46.5933 52.2964 47.118 52.821 47.7651 52.821C48.4122 52.821 48.937 52.2964 48.937 51.6491V39.8066C48.937 39.1594 48.4122 38.6348 47.7651 38.6348Z" fill="#F47629"/>
<path d="M52.8579 38.6348C52.2108 38.6348 51.686 39.1594 51.686 39.8066V51.6491C51.686 52.2964 52.2108 52.821 52.8579 52.821C53.505 52.821 54.0298 52.2964 54.0298 51.6491V39.8066C54.0298 39.1594 53.505 38.6348 52.8579 38.6348Z" fill="#F47629"/>
<path d="M7.6167 12.1172C6.96947 12.1172 6.44482 12.6418 6.44482 13.2891C6.44482 13.9363 6.96947 14.4609 7.6167 14.4609H11.3134C11.9606 14.4609 12.4853 13.9363 12.4853 13.2891C12.4853 12.6418 11.9606 12.1172 11.3134 12.1172H7.6167Z" fill="#F47629"/>
<path d="M28.1777 21.2822C30.7045 21.2822 32.7602 19.2265 32.7602 16.6997C32.7602 14.1729 30.7045 12.1172 28.1777 12.1172C25.6509 12.1172 23.5952 14.1729 23.5952 16.6997C23.5952 19.2265 25.6509 21.2822 28.1777 21.2822ZM28.1777 14.4609C29.4122 14.4609 30.4165 15.4652 30.4165 16.6997C30.4165 17.9341 29.4122 18.9384 28.1777 18.9384C26.9433 18.9384 25.939 17.9341 25.939 16.6997C25.939 15.4652 26.9433 14.4609 28.1777 14.4609Z" fill="#F47629"/>
<path d="M27.2122 8.54304C27.4011 9.00382 27.883 9.30194 28.3798 9.2635C28.8891 9.22413 29.3239 8.85112 29.4362 8.3519C29.6662 7.32874 28.479 6.53761 27.6198 7.13807C27.1764 7.44768 27.0043 8.04393 27.2122 8.54304Z" fill="#F47629"/>
</svg>
