<svg width="24" height="24" viewBox="0 0 24 24" fill="none" xmlns="http://www.w3.org/2000/svg">
<g clip-path="url(#clip0_798_25590)">
<path d="M23.9296 7.40354L21.3213 3.15754C21.2476 3.03831 21.1259 2.95717 20.9874 2.93502C20.8492 2.91288 20.708 2.9522 20.601 3.04266L13.7005 8.88373L11.2048 6.446C11.3872 5.82855 11.3911 5.17198 11.216 4.55245C12.4555 3.50715 14.0383 2.5939 15.0168 2.95966C15.2285 3.04018 15.4678 2.96131 15.5899 2.77067C15.7123 2.57983 15.6841 2.32958 15.5222 2.17081C15.485 2.13376 11.7695 -1.41199 8.05091 2.0224C7.02858 1.94105 6.02095 2.30474 5.28613 3.0201C4.56042 3.7218 4.18453 4.70976 4.25987 5.71636C3.50539 6.41082 2.94983 6.61719 2.71055 6.67845C2.03162 6.19513 1.10492 6.26364 0.504437 6.84136C0.181945 7.15371 0 7.58321 0 8.03197C0 8.48072 0.181945 8.91044 0.50423 9.22279L3.98188 12.6195C4.6544 13.269 5.7204 13.269 6.39291 12.6195C6.99132 12.0432 7.06626 11.1112 6.56782 10.4465C6.63468 10.2037 6.84974 9.67009 7.54896 8.94666C7.96563 8.97564 8.38417 8.93258 8.78614 8.81998L11.103 11.0826L7.87 13.8192C7.3813 13.5125 5.99922 13.0571 3.62131 15.3795C3.34663 15.6478 2.98129 16.0634 2.98129 16.5716C2.98129 17.1358 3.39175 17.5364 3.9113 18.0435C4.54945 18.6672 5.31284 18.5454 5.84646 18.2354L8.3438 20.6748C8.18069 20.9329 8.09107 21.2303 8.08444 21.5354C8.08403 21.9177 8.24465 22.2763 8.5481 22.5731C9.0219 23.0355 9.47915 23.4824 10.0424 23.4824C10.3936 23.4822 10.7861 23.3083 11.2491 22.8558C12.4766 21.6571 13.0988 20.5671 13.0988 19.6164C13.1042 19.3043 13.0251 18.9963 12.8699 18.7255L13.4227 18.1853C13.5148 18.0957 13.5666 17.9725 13.5666 17.844V16.6237H14.8257C15.0903 16.6242 15.3053 16.4101 15.3057 16.1456V15.1874L18.7625 18.5641C19.435 19.2134 20.5008 19.2134 21.1733 18.5643C21.4958 18.2519 21.6777 17.8224 21.6777 17.3737C21.6777 16.9249 21.4958 16.4952 21.1735 16.1829L18.1471 13.2266H18.3034C18.5679 13.2272 18.783 13.013 18.7834 12.7485V11.5283H20.0423C20.3068 11.5287 20.5217 11.3146 20.5223 11.0501V9.82989H21.7812C22.046 9.8303 22.2608 9.61628 22.2612 9.35153V8.13132H23.5202C23.6934 8.13194 23.8536 8.0388 23.9385 7.88769C24.0236 7.73659 24.0201 7.55133 23.9296 7.40354ZM5.72061 11.9369C5.42316 12.2242 4.95164 12.2242 4.65398 11.9369L1.17633 8.53992C1.03806 8.40724 0.960024 8.22385 0.960024 8.03217C0.960024 7.8405 1.03806 7.65711 1.17633 7.52443C1.47378 7.23692 1.94551 7.23692 2.24295 7.52443L5.72061 10.9211C5.85888 11.054 5.93691 11.2374 5.93691 11.4291C5.93691 11.6208 5.85888 11.804 5.72061 11.9369ZM7.42269 7.97215C7.24758 7.94876 7.07391 8.0239 6.97145 8.16775C6.36994 8.76575 6.02778 9.28716 5.833 9.69162L3.49339 7.40644C3.89847 7.21787 4.41781 6.89083 5.01332 6.32326C5.02429 6.31643 5.03485 6.30939 5.0454 6.30194C5.19009 6.19782 5.26461 6.02147 5.23873 5.84511C5.11702 5.05647 5.38528 4.2579 5.95823 3.70275C6.54567 3.13332 7.36598 2.8721 8.17428 2.99712C8.3527 3.02113 8.52947 2.94186 8.63007 2.79261C10.5793 0.939218 12.5085 1.41302 13.6904 2.03875C12.3329 2.39312 10.9867 3.46948 10.3392 4.04429C10.1891 4.17738 10.1384 4.39017 10.2123 4.57667C10.4427 5.15976 10.4427 5.80868 10.2117 6.39136C9.92728 7.07174 9.40836 7.55258 8.73026 7.83243C8.31275 7.98684 7.86338 8.03487 7.42269 7.97215ZM9.73064 8.4031C10.1506 8.13857 10.5087 7.78627 10.7801 7.37063L12.9659 9.50574L11.8376 10.4608L9.73064 8.4031ZM10.577 22.1732C10.044 22.6938 10.013 22.6644 9.22041 21.8902C9.06372 21.737 9.04488 21.6162 9.04426 21.5387C9.0424 21.2982 9.24235 21.0442 9.31707 20.9687C9.40919 20.8791 9.46114 20.7559 9.46114 20.6274C9.46114 20.4988 9.40919 20.3759 9.31707 20.286L6.22567 17.2665C6.03875 17.0841 5.74048 17.0841 5.55357 17.2665C5.49871 17.3194 5.00752 17.775 4.58319 17.3606C4.25325 17.0383 3.94131 16.7339 3.94131 16.5716C3.94131 16.5219 3.97547 16.3727 4.29361 16.0622C6.46598 13.9401 7.38709 14.6476 7.38895 14.6468L7.53364 14.7881H7.53385L11.8813 19.0346C11.8817 19.035 11.8821 19.035 11.8825 19.0354L12.0138 19.1633C12.0212 19.172 12.7434 20.0569 10.577 22.1732ZM20.7177 17.3737C20.7175 17.5653 20.6395 17.7485 20.5014 17.8812C20.2038 18.1685 19.7322 18.1685 19.4348 17.8812L16.4082 14.9252H16.5647C16.8292 14.9256 17.044 14.7116 17.0447 14.4468V13.4891L20.5014 16.8657C20.6395 16.9986 20.7175 17.182 20.7177 17.3737ZM21.7812 7.17503C21.5167 7.17461 21.3018 7.38864 21.3014 7.65317V8.87339H20.0423C19.7776 8.87297 19.5627 9.087 19.5623 9.35153V10.572H18.3034C18.0388 10.5713 17.824 10.7854 17.8234 11.0501V12.2703H16.5647C16.2999 12.2697 16.0851 12.4839 16.0846 12.7485V13.9687H14.8257C14.5612 13.9683 14.3463 14.1823 14.3457 14.4468V15.6674H13.0866C12.8221 15.6668 12.6072 15.8809 12.6066 16.1456V17.6432L12.2174 18.0234L8.58143 14.4721L12.1247 11.4728L12.1253 11.4724L13.9882 9.89551L13.9887 9.89489L20.7951 4.13329L22.6638 7.17503H21.7812Z" fill="#F47629"/>
<path d="M7.77218 16.2286C7.58361 16.0431 7.28037 16.0454 7.0947 16.234C6.90902 16.4225 6.91151 16.7258 7.10008 16.9115L9.70837 19.4591C9.83029 19.5794 10.0071 19.6255 10.1722 19.58C10.3374 19.5344 10.4657 19.404 10.5086 19.2382C10.5517 19.0724 10.5028 18.8963 10.3805 18.7762L7.77218 16.2286Z" fill="#F47629"/>
</g>
<defs>
<clipPath id="clip0_798_25590">
<rect width="24" height="24" fill="white"/>
</clipPath>
</defs>
</svg>
