<svg width="20" height="20" viewBox="0 0 20 20" fill="none" xmlns="http://www.w3.org/2000/svg">
<g clip-path="url(#clip0_798_9250)">
<path d="M19.8376 12.7734C19.8301 12.7402 19.8149 12.7097 19.7946 12.6827C19.7946 12.6827 15.8763 7.64373 15.8763 7.64373C15.8319 7.58662 15.7636 7.55322 15.6913 7.55322H15.3132L15.3385 7.37645C17.327 6.97666 18.4677 4.66269 17.5501 2.84268C17.3792 2.4887 17.0463 2.23536 16.6596 2.16504C16.2451 2.08958 15.8462 2.36563 15.7708 2.78037L15.5087 4.2215C15.4856 4.34863 15.3635 4.43324 15.2362 4.41016L14.049 4.19429C13.9246 4.17428 13.8352 4.04528 13.8604 3.92176C13.8604 3.92176 14.1223 2.48101 14.1223 2.48101C14.2043 2.07814 13.9127 1.6569 13.5067 1.59175C13.1236 1.52213 12.7293 1.63604 12.452 1.89658C10.9332 3.27968 11.1828 5.83865 12.9092 6.93438L12.2111 10.0889C11.9364 8.70544 11.5482 6.753 11.2728 5.36648C11.2068 4.99442 10.8152 4.73241 10.4461 4.81389C10.4461 4.81389 8.2089 5.2584 8.2089 5.2584C7.82865 5.33398 7.58077 5.70483 7.65634 6.08508L8.09711 8.30342L7.58413 7.64373C7.53973 7.58662 7.47144 7.55322 7.39912 7.55322H5.92459L5.52843 5.67572C5.65117 5.66046 5.74109 5.55209 5.73335 5.42865C5.73335 5.42865 5.65809 4.21418 5.65809 4.21418L6.15215 4.14648C6.22672 4.44497 6.52113 4.67104 6.82871 4.66589C6.78208 4.68421 8.1901 4.48437 8.20356 4.48417C8.58766 4.43152 8.85732 4.07622 8.80472 3.6921L8.4049 0.774314C8.37942 0.588252 8.28298 0.423229 8.13341 0.309684C7.9838 0.19614 7.79874 0.147617 7.61285 0.173156L6.33493 0.348251C5.98114 0.396736 5.72511 0.702159 5.72793 1.0502L2.65489 1.47126C2.07063 1.55131 1.54737 1.85115 1.18158 2.31551C0.74476 2.87003 0.410439 3.50861 0.187852 4.21359C0.112359 4.45286 0.174386 4.71112 0.34971 4.88753C0.633787 5.18353 1.14888 5.13632 1.37346 4.79269C1.57564 4.4946 1.80273 4.22143 2.05137 3.97679L2.11797 4.46269C2.13556 4.59094 2.25385 4.68064 2.38199 4.66307L2.85124 4.5988L3.10545 5.78873C3.13073 5.91024 3.24929 5.99026 3.3693 5.97158L3.63956 10.1629L1.68199 12.6782C1.64999 12.7193 1.63259 12.77 1.63259 12.8221V16.6419L0.332391 16.9765C0.228822 17.0032 0.156419 17.0965 0.156419 17.2035V18.2567C0.156419 18.3636 0.228822 18.457 0.332391 18.4836L1.63259 18.8182V19.6094C1.63259 19.7388 1.73753 19.8438 1.86697 19.8438C1.86697 19.8438 17.0047 19.8452 19.6095 19.8438C19.739 19.8438 19.8439 19.7388 19.8439 19.6094V12.8265C19.8439 12.8082 19.8416 12.7905 19.8376 12.7734ZM6.39856 0.812652L7.67648 0.637557C7.7378 0.629069 7.80017 0.645093 7.85001 0.683067C7.89987 0.720909 7.93199 0.775916 7.9405 0.837943L8.34032 3.75573C8.35786 3.88377 8.26795 4.00222 8.13993 4.01976L6.86201 4.19486C6.73766 4.21439 6.61245 4.11976 6.59799 3.99447C6.59799 3.99447 6.39808 2.53558 6.39808 2.53558C6.38789 2.46706 6.20173 1.09818 6.19817 1.07668C6.18063 0.948646 6.27054 0.8302 6.39856 0.812652ZM3.26418 4.28809C3.23905 4.16762 3.12238 4.08778 3.00317 4.10485C3.00317 4.10485 2.55056 4.16686 2.55056 4.16686L2.45561 3.47407C2.44405 3.38979 2.38775 3.31839 2.30852 3.28751C2.22917 3.25658 2.13945 3.27109 2.07395 3.32534C1.663 3.66553 1.29678 4.07067 0.985543 4.52954C0.909228 4.63482 0.775263 4.64537 0.682237 4.55715C0.630128 4.50473 0.612008 4.42713 0.634858 4.35469C0.840318 3.70394 1.14816 3.11545 1.54978 2.60558C1.84007 2.23708 2.25515 1.99916 2.71852 1.93566L5.78518 1.51547C5.85921 2.05571 6.00817 3.14284 6.08217 3.68294L5.37889 3.77932C5.25732 3.79597 5.1692 3.90357 5.17679 4.02602L5.25205 5.24047L3.51839 5.47803L3.26418 4.28809ZM15.5767 8.02197L19.1304 12.5922H18.1102L15.1392 8.77135L15.2463 8.02197H15.5767ZM15.7392 16.8706C15.7109 16.6347 15.6719 16.4002 15.6218 16.1678C15.5524 15.8483 15.2636 15.6164 14.935 15.6164H11.5518V13.061C13.1875 13.061 16.0964 13.0609 17.7577 13.0609V18.0482H15.7832C15.8004 17.6555 15.7857 17.2625 15.7392 16.8706ZM10.1713 15.6164C10.0888 15.617 10.0069 15.6378 9.93433 15.6765V13.0609H11.083V15.6164H10.1713ZM15.0468 9.41752L17.5132 12.5922H14.5932L15.0468 9.41752ZM12.2306 12.5922H11.432L11.2558 12.3655L12.1502 12.1878L12.2306 12.5922ZM13.403 6.87253C13.4251 6.77254 13.3798 6.66978 13.291 6.61872C12.3186 6.05946 11.7751 4.94147 11.9387 3.83673C12.0303 3.21759 12.3188 2.66486 12.7729 2.23824C12.9424 2.07904 13.1853 2.00976 13.4229 2.05294C13.5835 2.08215 13.6904 2.23655 13.6611 2.39714L13.3992 3.83792C13.3656 4.0227 13.406 4.20951 13.5129 4.36393C13.6197 4.51834 13.7804 4.62189 13.9652 4.65548L15.1524 4.87136C15.5227 4.94665 15.9101 4.67858 15.9699 4.30534C15.9699 4.30535 16.232 2.86423 16.232 2.86423C16.2611 2.70383 16.415 2.59703 16.5758 2.62624C16.8155 2.66984 17.022 2.82695 17.128 3.04648C17.9369 4.65444 16.8725 6.68601 15.0927 6.94611C14.9915 6.9625 14.9127 7.0428 14.8982 7.14434L14.811 7.75419C14.7098 8.46292 14.2301 11.8192 14.1197 12.5922H12.7085C12.6809 12.4534 12.5933 12.0123 12.5643 11.8663C12.5643 11.8663 12.4383 11.232 12.4383 11.232L13.403 6.87253ZM8.11609 5.99372C8.09091 5.86695 8.17354 5.74334 8.30026 5.71814L10.5375 5.27364C10.6605 5.24662 10.791 5.33376 10.813 5.45785C10.813 5.45785 10.8761 5.77534 10.8761 5.77534L9.93352 5.96265C9.80653 5.98786 9.72406 6.11125 9.74931 6.2382C9.77396 6.36597 9.90104 6.44799 10.0248 6.42239C10.0248 6.42239 10.9675 6.23509 10.9675 6.23509L11.0733 6.76745L10.5521 6.871C10.4251 6.89622 10.3427 7.01958 10.3679 7.14656C10.3925 7.27433 10.5196 7.35634 10.6434 7.33075C10.6434 7.33075 11.1646 7.22719 11.1646 7.22719L11.2704 7.75958L10.3278 7.94686C10.2008 7.97208 10.1183 8.09544 10.1436 8.22242C10.1682 8.35019 10.2953 8.4322 10.4191 8.40661C10.4191 8.40661 11.3617 8.21932 11.3617 8.21932L11.4675 8.75169L10.9464 8.85524C10.8194 8.88045 10.7369 9.00382 10.7622 9.13079C10.7868 9.25856 10.9139 9.34058 11.0377 9.31498C11.0377 9.31498 11.5589 9.21143 11.5589 9.21143L11.6646 9.74379L10.722 9.93108C10.595 9.95629 10.5126 10.0797 10.5378 10.2066C10.5625 10.3344 10.6895 10.4164 10.8133 10.3908C10.8133 10.3908 11.756 10.2035 11.756 10.2035L11.8617 10.7359L11.3406 10.8394C11.2136 10.8647 11.1312 10.988 11.1564 11.115C11.1811 11.2428 11.3081 11.3248 11.4319 11.2992C11.4319 11.2992 11.9531 11.1956 11.9531 11.1956L12.0589 11.728L11.1163 11.9153C11.0575 11.927 11.0084 11.9599 10.9749 12.0043L8.73905 9.12896L8.11609 5.99372ZM10.8382 12.5922H9.81805C8.93617 11.4581 7.1391 9.14699 6.26432 8.02197H7.28449C7.28449 8.02197 10.8381 12.592 10.8382 12.5922ZM3.83489 5.90779L5.06281 5.73954L5.4935 7.78077L4.07334 9.60554L3.83489 5.90779ZM2.10134 16.5213V12.9026C3.01863 11.7239 4.87323 9.34122 5.78516 8.16937L9.46558 12.9025V16.1615L8.92553 16.2175C8.90218 16.22 8.88582 16.2101 8.87624 16.2014C8.86659 16.1928 8.85515 16.1775 8.85515 16.1541C8.85515 15.8604 8.61623 15.6215 8.32258 15.6215H8.03205C7.64435 15.6215 7.32889 15.9369 7.32889 16.3246V16.9387H3.1587L2.96108 16.7714C2.94336 16.7587 2.59483 16.455 2.58622 16.4611C2.53464 16.433 2.47359 16.4252 2.4167 16.4401C2.4167 16.4401 2.10134 16.5213 2.10134 16.5213ZM0.625169 17.3852L2.41617 16.9243L2.92139 17.3519C2.96373 17.3878 3.01737 17.4074 3.07283 17.4074H7.32893V18.0527H3.07283C3.01737 18.0527 2.96373 18.0724 2.92139 18.1082L2.41617 18.5359L0.625169 18.075V17.3852ZM2.10134 19.375V18.9389L2.4167 19.02C2.46216 19.0317 2.51075 19.0289 2.55495 19.0134C2.58081 19.0035 2.60507 18.9896 2.62655 18.9719C2.74993 18.8675 3.03806 18.6236 3.1587 18.5215H7.32889V19.1355C7.32892 19.2173 7.34448 19.2979 7.37089 19.375H2.10134ZM8.85168 19.3651C8.85368 19.3455 8.85514 19.326 8.85515 19.3061C8.85515 19.2826 8.86659 19.2674 8.87621 19.2587C8.88582 19.25 8.90215 19.2402 8.92553 19.2426L9.46558 19.2987V19.375H8.85072C8.85114 19.3718 8.85131 19.3684 8.85168 19.3651ZM10.1425 19.3462C10.1452 19.0958 9.94687 18.8752 9.69629 18.8513C9.69629 18.8513 8.9739 18.7764 8.9739 18.7764C8.91341 18.7702 8.85211 18.7746 8.79317 18.7892C8.5591 18.8425 8.38312 19.0659 8.3864 19.3061C8.3864 19.3412 8.35775 19.3699 8.32258 19.3699H8.03205C7.90281 19.3699 7.79768 19.2647 7.79768 19.1355V16.3246C7.79768 16.1954 7.90281 16.0903 8.03205 16.0903H8.32258C8.35775 16.0903 8.3864 16.1189 8.3864 16.1541C8.37991 16.4609 8.66915 16.7222 8.97391 16.6838C8.9739 16.6838 9.69656 16.6088 9.69656 16.6088C9.71381 16.6067 9.73092 16.6042 9.74763 16.6006C9.94684 16.5584 10.1 16.4 10.1347 16.201C10.1393 16.1722 10.1428 16.1433 10.1425 16.1139C10.1425 16.098 10.1555 16.0851 10.1713 16.0851C10.999 16.0979 14.1366 16.0603 15.0138 16.0987C15.0881 16.1252 15.1465 16.1881 15.1637 16.2673C15.187 16.3749 15.2076 16.4828 15.2258 16.5912C15.3187 17.1434 15.3434 17.7045 15.2999 18.2644C15.2823 18.4899 15.2536 18.7154 15.2136 18.9381C15.1908 19.042 15.1844 19.1533 15.1416 19.2508C15.1019 19.3251 15.0231 19.375 14.935 19.375H10.1713C10.1555 19.375 10.1425 19.3621 10.1425 19.3462ZM15.6032 19.3599C15.6757 19.0831 15.7147 18.7979 15.748 18.5169H17.7577V19.375H15.5984C15.6001 19.37 15.6015 19.3649 15.6032 19.3599ZM19.3752 19.375H18.2265V13.0609H19.3752V19.375Z" fill="#F47629"/>
<path d="M12.7307 18.6358C13.6869 18.6358 14.6548 18.3246 14.6548 17.7299C14.6471 16.5256 10.8144 16.5256 10.8066 17.7299C10.8066 18.3246 11.7746 18.6358 12.7307 18.6358ZM12.7307 17.2927C13.6761 17.2927 14.1861 17.603 14.1861 17.7299C14.1861 17.8568 13.6761 18.1671 12.7307 18.1671C11.7854 18.1671 11.2754 17.8568 11.2754 17.7299C11.2754 17.603 11.7854 17.2927 12.7307 17.2927Z" fill="#F47629"/>
<path d="M9.26367 16.9692C9.13424 16.9692 9.0293 17.0742 9.0293 17.2036V18.1864C9.0293 18.3158 9.13424 18.4207 9.26367 18.4207C9.3931 18.4207 9.49805 18.3158 9.49805 18.1864V17.2036C9.49805 17.0742 9.3931 16.9692 9.26367 16.9692Z" fill="#F47629"/>
</g>
<defs>
<clipPath id="clip0_798_9250">
<rect width="20" height="20" fill="white"/>
</clipPath>
</defs>
</svg>
