<svg width="24" height="24" viewBox="0 0 24 24" fill="none" xmlns="http://www.w3.org/2000/svg">
<path d="M6.4727 17.1481C6.4727 16.9702 6.53781 16.8025 6.66616 16.6495C6.83252 16.4511 6.80664 16.1554 6.60831 15.9891C6.40998 15.8227 6.1143 15.8486 5.94794 16.0469C5.38183 16.7217 5.40466 17.7397 6.02514 18.3731C6.32069 18.6748 6.32069 19.2075 6.02514 19.5093C5.70461 19.8364 5.53516 20.26 5.53516 20.7342C5.53516 20.9931 5.74502 21.2029 6.00391 21.2029C6.2628 21.2029 6.47266 20.9931 6.47266 20.7342C6.47266 20.5039 6.54531 20.3179 6.6948 20.1653C7.34317 19.5034 7.34317 18.3789 6.6948 17.717C6.54747 17.5665 6.4727 17.3751 6.4727 17.1481Z" fill="#F47629"/>
<path d="M10.541 17.1481C10.541 16.9702 10.6061 16.8025 10.7344 16.6495C10.9008 16.4512 10.875 16.1555 10.6766 15.9891C10.4783 15.8227 10.1827 15.8486 10.0162 16.047C9.45014 16.7217 9.47302 17.7398 10.0935 18.3731C10.389 18.6748 10.389 19.2075 10.0935 19.5093C9.77292 19.8364 9.60352 20.26 9.60352 20.7342C9.60352 20.9931 9.81338 21.203 10.0723 21.203C10.3312 21.203 10.541 20.9931 10.541 20.7342C10.541 20.504 10.6137 20.3179 10.7632 20.1653C11.4115 19.5035 11.4115 18.3789 10.7632 17.7171C10.6157 17.5666 10.541 17.3752 10.541 17.1481Z" fill="#F47629"/>
<path d="M14.6094 17.1482C14.6094 16.9703 14.6745 16.8025 14.8028 16.6496C14.9692 16.4513 14.9433 16.1556 14.745 15.9892C14.5468 15.8228 14.251 15.8486 14.0847 16.047C13.5185 16.7217 13.5413 17.7398 14.1618 18.3732C14.4573 18.6749 14.4574 19.2076 14.1618 19.5093C13.8413 19.8365 13.6719 20.2601 13.6719 20.7342C13.6719 20.9931 13.8818 21.203 14.1406 21.203C14.3995 21.203 14.6094 20.9931 14.6094 20.7342C14.6094 20.504 14.682 20.318 14.8315 20.1653C15.1474 19.8428 15.3214 19.4081 15.3214 18.9412C15.3214 18.4743 15.1474 18.0396 14.8315 17.717C14.6841 17.5666 14.6094 17.3752 14.6094 17.1482Z" fill="#F47629"/>
<path d="M23.1929 14.4648L22.642 13.4948C22.3854 13.043 22.2498 12.5296 22.2498 12.0101V10.3782C22.2498 10.1193 22.0399 9.90947 21.7811 9.90947H21.6121V4.53623C21.6121 4.46119 21.6345 4.38877 21.6768 4.32684L22.2161 3.53808C22.4666 3.17166 22.5146 2.70816 22.3445 2.29828L21.511 0.289125C21.4385 0.114094 21.2676 0 21.0781 0H19.1715C18.9819 0 18.8111 0.114094 18.7385 0.289125L17.9051 2.29823C17.8419 2.45044 17.8089 2.61009 17.8051 2.76938H13.3072C13.0484 2.76938 12.8385 2.97923 12.8385 3.23813C12.8385 3.49702 13.0484 3.70688 13.3072 3.70688H18.1487L18.5727 4.32698C18.6127 4.38534 18.6374 4.4655 18.6374 4.53623V9.90942L1.23042 9.90937V9.42094C1.23042 6.72741 1.3117 5.84363 1.48252 4.98277L1.69064 3.93497C1.71689 3.80278 1.8338 3.70688 1.9687 3.70688H9.18417C9.44306 3.70688 9.65292 3.49702 9.65292 3.23813C9.65292 2.97923 9.44306 2.76938 9.18417 2.76938H1.9687C1.38778 2.76938 0.884156 3.18286 0.771141 3.75244L0.563016 4.80019C0.380016 5.72241 0.292969 6.64908 0.292969 9.42094V13.0687C0.292969 13.3276 0.502828 13.5375 0.761719 13.5375H2.65734V14.558C2.65734 14.8169 2.8672 15.0267 3.12609 15.0267H16.7941C16.6285 15.4684 16.5423 15.9384 16.5423 16.4124V20.4547C16.5423 21.3198 16.8328 22.1739 17.3604 22.8597L18.097 23.8171C18.1858 23.9324 18.323 24 18.4686 24H21.7812C21.9267 24 22.0639 23.9324 22.1527 23.8171L22.8893 22.8597C23.4169 22.174 23.7075 21.3198 23.7075 20.4547V16.4124C23.7074 15.7309 23.5295 15.0574 23.1929 14.4648ZM18.771 2.65748L19.4845 0.9375H20.7651L21.4786 2.65753C21.5268 2.77373 21.5132 2.90513 21.4422 3.009L20.9029 3.79777C20.7536 4.0162 20.6747 4.27158 20.6747 4.53623V9.90942H19.575V4.53609C19.575 4.27505 19.494 4.0133 19.3466 3.79777L18.8074 3.00905C18.7364 2.90513 18.7228 2.77373 18.771 2.65748ZM1.23042 10.8469H17.9997V11.9016H3.82448C3.36656 11.9016 2.94005 12.181 2.75559 12.6H1.23042V10.8469ZM3.5948 13.0687C3.5948 12.9421 3.69783 12.8391 3.82448 12.8391H17.8826C17.7533 13.2892 17.4994 13.6853 17.27 14.0892H3.5948V13.0687ZM22.7699 20.4547C22.7699 21.1142 22.5484 21.7652 22.1462 22.288L21.5503 23.0625H18.6993L18.1034 22.288C17.7012 21.7652 17.4797 21.1141 17.4797 20.4547V16.4124C17.4797 15.8254 17.6648 15.2949 17.9505 14.7894C17.9505 14.7894 18.4003 14.0059 18.4879 13.8374C18.7803 13.2743 18.9375 12.6448 18.9375 12.0099V10.847H21.3123V12.0101C21.3123 12.6916 21.4902 13.3651 21.8268 13.9577L22.3777 14.9278C22.6343 15.3795 22.7699 15.8929 22.7699 16.4124V20.4547Z" fill="#F47629"/>
<path d="M19.1055 15.4539C18.8466 15.4539 18.6367 15.6638 18.6367 15.9227V20.6597C18.6367 20.9186 18.8466 21.1284 19.1055 21.1284C19.3643 21.1284 19.5742 20.9186 19.5742 20.6597V15.9227C19.5742 15.6638 19.3643 15.4539 19.1055 15.4539Z" fill="#F47629"/>
<path d="M21.1426 15.4539C20.8837 15.4539 20.6738 15.6638 20.6738 15.9227V20.6597C20.6738 20.9186 20.8837 21.1284 21.1426 21.1284C21.4014 21.1284 21.6113 20.9186 21.6113 20.6597V15.9227C21.6113 15.6638 21.4014 15.4539 21.1426 15.4539Z" fill="#F47629"/>
<path d="M3.04688 4.84686C2.78798 4.84686 2.57812 5.05672 2.57812 5.31561C2.57812 5.5745 2.78798 5.78436 3.04688 5.78436H4.52555C4.78444 5.78436 4.9943 5.5745 4.9943 5.31561C4.9943 5.05672 4.78444 4.84686 4.52555 4.84686H3.04688Z" fill="#F47629"/>
<path d="M11.2705 8.51286C12.2812 8.51286 13.1035 7.69058 13.1035 6.67986C13.1035 5.66914 12.2812 4.84686 11.2705 4.84686C10.2598 4.84686 9.4375 5.66914 9.4375 6.67986C9.4375 7.69058 10.2598 8.51286 11.2705 8.51286ZM11.2705 5.78436C11.7643 5.78436 12.166 6.18608 12.166 6.67986C12.166 7.17364 11.7643 7.57536 11.2705 7.57536C10.7767 7.57536 10.375 7.17364 10.375 6.67986C10.375 6.18608 10.7767 5.78436 11.2705 5.78436Z" fill="#F47629"/>
<path d="M10.8847 3.41718C10.9602 3.60149 11.153 3.72074 11.3517 3.70537C11.5555 3.68962 11.7294 3.54041 11.7743 3.34072C11.8663 2.93146 11.3914 2.61501 11.0477 2.85519C10.8704 2.97904 10.8015 3.21754 10.8847 3.41718Z" fill="#F47629"/>
</svg>
