<svg width="48" height="48" viewBox="0 0 48 48" fill="none" xmlns="http://www.w3.org/2000/svg">
<path d="M15.8449 28.2637C22.6939 28.2637 28.2659 22.6917 28.2659 15.8427C27.5835 -0.635504 4.10366 -0.630722 3.42383 15.8427C3.42383 22.6917 8.99585 28.2637 15.8449 28.2637ZM15.8449 4.82778C21.9185 4.82778 26.8597 9.769 26.8597 15.8427C26.2547 30.4554 5.43275 30.4511 4.82998 15.8426C4.82998 9.769 9.77121 4.82778 15.8449 4.82778Z" fill="#F47629"/>
<path d="M47.9987 39.9291V35.4418L46.5213 33.6963V31.166H46.5212V28.3269L47.602 27.3483L46.179 20.3424H44.4045V3.51538C44.4045 1.57695 42.8276 0 40.8892 0H6.95023V1.40615H40.8892C42.0521 1.40615 42.9984 2.3524 42.9984 3.51538V20.3424H42.2513L40.8283 27.3482L41.9091 28.3268V30.0154C41.5988 30.1883 41.2518 30.2791 40.8891 30.2791H38.6512C41.0622 27.3521 40.032 22.5905 36.5286 21.0212C36.5287 21.0212 35.5252 20.5474 35.5252 20.5474L35.5261 25.0148L32.3532 25.0143L32.3523 20.5476L31.3492 21.0212C27.8461 22.5897 26.8159 27.3542 29.2279 30.2791H3.51734C2.35436 30.2791 1.40811 29.3328 1.40811 28.1699V3.51529C1.40811 2.35231 2.35436 1.40606 3.51734 1.40606H5.54407V0H3.51734C1.57891 0 0.00195312 1.57695 0.00195312 3.51538V28.17C0.00195312 30.1084 1.57891 31.6853 3.51734 31.6853H4.84072V35.4351H13.7464V31.6853H30.8569C30.887 31.7031 30.9166 31.7211 30.9471 31.7383V45.0061C30.9471 45.805 31.2582 46.5562 31.82 47.1182C32.6874 48.0011 33.9568 48.2301 35.0768 47.7639C36.2242 47.2912 36.9352 46.2339 36.9323 45.0061L36.9315 31.7391C36.9624 31.7216 36.9926 31.7032 37.0231 31.6853H40.8891C41.2399 31.6853 41.5823 31.6344 41.909 31.5355V33.6963L40.4316 35.4418V44.2131C40.4316 46.2994 42.1288 47.9966 44.215 47.9966C46.2472 48.0387 48.0408 46.2454 47.9985 44.213V41.3352H46.5923V44.213C46.5923 44.8475 46.3449 45.4443 45.8954 45.8936C44.4158 47.3864 41.8328 46.315 41.8377 44.213V35.957L43.3151 34.2114V32.5722H45.1149V34.2115L46.5923 35.957V39.9291H47.9987ZM12.3402 34.0289H6.24687V31.6853H12.3402V34.0289ZM35.9284 30.6762L35.5254 30.8663L35.5263 45.0078C35.5185 46.4155 33.8136 47.1178 32.8176 46.1272C32.5182 45.8277 32.3533 45.4296 32.3533 45.0062V30.8655C29.0162 29.5979 28.2481 25.2369 30.9467 22.9345L30.9473 26.4204L36.9327 26.4214L36.932 22.9349C39.4688 25.0181 38.9529 29.3088 35.9284 30.6762ZM43.4006 21.7485H45.0297L46.0646 26.8435L45.115 27.7033V31.1658H43.3153V27.7033L42.3658 26.8435L43.4006 21.7485Z" fill="#F47629"/>
<path d="M8.47126 15.1744C9.26649 16.0029 10.6955 16.0029 11.4907 15.1744C11.9428 14.7222 12.6242 15.029 13.1354 15.3853C13.1086 15.5484 13.0935 15.7167 13.098 15.8849C11.4751 16.7296 9.17753 18.1871 8.97195 19.7519C8.62238 22.0058 10.7037 24.0866 12.9812 24.0675C13.8263 24.0675 14.6136 23.7777 15.1759 23.2154C16.0043 22.4202 16.0046 20.9913 15.1759 20.1959C14.7238 19.7439 15.0305 19.0625 15.3868 18.5513C15.5499 18.5781 15.7182 18.5932 15.8864 18.5887C16.8508 20.3741 18.3091 22.8319 20.2267 22.7458C21.6443 22.7457 22.9474 21.9081 23.6327 20.5179C24.6112 18.6166 23.9068 15.9667 21.7076 15.8852C21.1373 15.8851 20.6009 16.1073 20.1975 16.5108C19.7455 16.9631 19.064 16.6563 18.5528 16.2999C18.5796 16.1367 18.5947 15.9685 18.5902 15.8003C20.2131 14.9556 22.5107 13.4981 22.7163 11.9333C22.9256 10.3377 22.0633 8.8149 20.5194 8.05389C18.6183 7.07568 15.9681 7.77969 15.8868 9.97901C15.8866 10.5493 16.1088 11.0856 16.5123 11.4891C16.9644 11.9412 16.6578 12.6226 16.3014 13.1338C16.1383 13.107 15.97 13.0919 15.8018 13.0964C14.9571 11.4735 13.4996 9.17591 11.9348 8.97033C8.70909 8.45858 6.23332 12.8258 8.47126 15.1744ZM14.896 14.8944C15.7344 14.053 17.1872 14.6548 17.1851 15.8426C17.1999 16.5634 16.565 17.1984 15.8441 17.1835C14.6564 17.1856 14.0544 15.7327 14.896 14.8944ZM14.1816 21.1903C14.4658 21.4744 14.4658 21.9368 14.1816 22.221C13.5674 22.8354 12.538 22.7383 11.7905 22.3699C10.9987 21.9796 10.2087 21.1349 10.3663 19.9348C10.4508 19.292 11.704 18.2358 13.4943 17.267C13.6511 17.5255 13.8585 17.7659 14.0947 17.9605C13.3328 19.1875 13.3517 20.3604 14.1816 21.1903ZM21.1918 17.5051C21.4757 17.2208 21.9382 17.2207 22.2225 17.5051C22.8368 18.1193 22.7399 19.1485 22.3714 19.8961C21.9811 20.6881 21.1361 21.4789 19.9363 21.3204C19.2935 21.2359 18.2373 19.9827 17.2684 18.1923C17.4545 18.079 17.6285 17.943 17.7865 17.785C17.8482 17.7233 17.9068 17.6585 17.962 17.5919C19.1892 18.3538 20.3619 18.3348 21.1918 17.5051ZM17.5066 10.4949C17.2224 10.2107 17.2224 9.74831 17.5066 9.46417C18.1208 8.84987 19.1503 8.9468 19.8977 9.31531C20.6895 9.70556 21.4795 10.5503 21.3219 11.7504C21.2375 12.3932 19.9842 13.4494 18.1939 14.4181C18.0371 14.1597 17.8297 13.9192 17.5935 13.7246C18.3554 12.4976 18.3365 11.3248 17.5066 10.4949ZM9.31683 11.789C9.70718 10.9973 10.5524 10.2067 11.7519 10.3648C12.3947 10.4492 13.4509 11.7025 14.4197 13.4928C14.1612 13.6495 13.9207 13.857 13.7261 14.0931C12.499 13.3314 11.3263 13.3502 10.4964 14.18C10.2123 14.4643 9.74983 14.4645 9.46569 14.18C8.85139 13.5658 8.94832 12.5365 9.31683 11.789Z" fill="#F47629"/>
<path d="M31.0645 8.25757H40.8895V9.66372H31.0645V8.25757Z" fill="#F47629"/>
<path d="M31.0645 11.1638H40.8895V12.57H31.0645V11.1638Z" fill="#F47629"/>
<path d="M31.0645 14.0698H40.8895V15.476H31.0645V14.0698Z" fill="#F47629"/>
<path d="M31.0645 16.9758H40.8895V18.382H31.0645V16.9758Z" fill="#F47629"/>
<path d="M43.5117 37.4719H44.9179V38.8781H43.5117V37.4719Z" fill="#F47629"/>
<path d="M43.5117 40.2842H44.9179V41.6903H43.5117V40.2842Z" fill="#F47629"/>
</svg>
