<svg width="32" height="32" viewBox="0 0 32 32" fill="none" xmlns="http://www.w3.org/2000/svg">
<g clip-path="url(#clip0_798_29943)">
<path d="M28.7803 0H19.0847C17.7026 0 16.5781 1.12427 16.5781 2.50659V11.512C16.5781 12.894 17.7026 14.0183 19.0847 14.0183H28.7803C30.1624 14.0183 31.2869 12.894 31.2869 11.512V2.50659C31.2869 1.12427 30.1624 0 28.7803 0ZM30.0369 11.5117C30.0369 12.2046 29.4731 12.7683 28.7803 12.7683H19.0847C18.3918 12.7683 17.8281 12.2046 17.8281 11.5117V2.50659C17.8281 1.81372 18.3918 1.25 19.0847 1.25H28.7803C29.4731 1.25 30.0369 1.81372 30.0369 2.50659V11.5117Z" fill="#101840"/>
<path d="M23.9321 2.58838C21.4946 2.58838 19.5117 4.57153 19.5117 7.00903C19.5117 9.44653 21.4946 11.4294 23.9321 11.4294C26.3696 11.4294 28.3528 9.44653 28.3528 7.00903C28.3528 4.57153 26.3696 2.58838 23.9321 2.58838ZM23.9321 10.1794C22.1841 10.1794 20.7617 8.75708 20.7617 7.00879C20.7617 5.26074 22.1841 3.83838 23.9321 3.83838C25.6804 3.83838 27.1028 5.26074 27.1028 7.00879C27.1028 8.75708 25.6804 10.1794 23.9321 10.1794Z" fill="#101840"/>
<path d="M22.4805 5.7417C22.1353 5.7417 21.8555 6.02148 21.8555 6.3667V7.65112C21.8555 7.99634 22.1353 8.27612 22.4805 8.27612C22.8257 8.27612 23.1055 7.99634 23.1055 7.65112V6.3667C23.1055 6.02148 22.8257 5.7417 22.4805 5.7417Z" fill="#101840"/>
<path d="M25.3867 5.7417C25.0415 5.7417 24.7617 6.02148 24.7617 6.3667V7.65112C24.7617 7.99634 25.0415 8.27612 25.3867 8.27612C25.7319 8.27612 26.0117 7.99634 26.0117 7.65112V6.3667C26.0117 6.02148 25.7319 5.7417 25.3867 5.7417Z" fill="#101840"/>
<path d="M26.7075 30.75H19.1106C18.1179 30.75 17.3103 29.9424 17.3103 28.9497V23.8857C17.3103 22.4102 16.1099 21.2097 14.6343 21.2097C13.1587 21.2097 11.9583 22.4102 11.9583 23.8857V28.9336C11.9583 29.9351 11.1433 30.75 10.1418 30.75C9.14014 30.75 8.3252 29.9351 8.3252 28.9336V23.7217C9.10425 23.6843 9.72632 23.0388 9.72632 22.2507V21.5867H9.75659C11.6599 21.5867 13.2083 20.0383 13.2083 18.135V14.2742H13.9729C14.3464 14.2742 14.6504 13.9702 14.6504 13.5964V12.4092C14.6504 11.4519 13.8716 10.6731 12.9143 10.6731H11.7212V6.05835C11.7212 5.16382 10.9934 4.43604 10.0989 4.43604C9.20435 4.43604 8.47632 5.16382 8.47632 6.05835V10.6731H6.92407V6.05835C6.92407 5.16382 6.19629 4.43604 5.30151 4.43604C4.40698 4.43604 3.6792 5.16382 3.6792 6.05835V10.6731H2.48608C1.52881 10.6731 0.75 11.4519 0.75 12.4092V13.5964C0.75 13.9702 1.05396 14.2742 1.42773 14.2742H2.19214V18.135C2.19214 20.0383 3.74072 21.5867 5.6438 21.5867H5.67407V22.2507C5.67407 23.0388 6.29639 23.6843 7.0752 23.7217V28.9336C7.0752 30.6245 8.45093 32 10.1418 32C11.8325 32 13.2083 30.6243 13.2083 28.9336V23.8857C13.2083 23.0994 13.8479 22.4597 14.6343 22.4597C15.4207 22.4597 16.0603 23.0994 16.0603 23.8857V28.9497C16.0603 30.6316 17.4287 32 19.1106 32H26.7075C27.0527 32 27.3325 31.7202 27.3325 31.375C27.3325 31.0298 27.0527 30.75 26.7075 30.75ZM9.72632 6.05835C9.72632 5.85303 9.89355 5.68604 10.0989 5.68604C10.3042 5.68604 10.4712 5.85303 10.4712 6.05835V10.6731H9.72632V6.05835ZM4.9292 6.05835C4.9292 5.85303 5.09619 5.68604 5.30151 5.68604C5.50684 5.68604 5.67407 5.85303 5.67407 6.05835V10.6731H4.9292V6.05835ZM3.44214 18.135V14.2742H6.78955C7.13477 14.2742 7.41455 13.9941 7.41455 13.6492C7.41455 13.304 7.13477 13.0242 6.78955 13.0242H2V12.4092C2 12.1411 2.21802 11.9231 2.48608 11.9231H12.9146C13.1824 11.9231 13.4004 12.1411 13.4004 12.4092V13.0242H11.7896C11.4443 13.0242 11.1646 13.304 11.1646 13.6492C11.1646 13.9941 11.4443 14.2742 11.7896 14.2742H11.9583V18.135C11.9583 19.3491 10.9707 20.3367 9.75659 20.3367H5.6438C4.42993 20.3367 3.44214 19.3491 3.44214 18.135ZM6.92407 22.2507V21.5867H8.47632V22.2507C8.47632 22.3735 8.37646 22.4734 8.25391 22.4734H7.14648C7.02393 22.4731 6.92407 22.3735 6.92407 22.2507Z" fill="#101840"/>
<path d="M9.28906 14.2744H9.29053C9.63574 14.2744 9.91479 13.9944 9.91479 13.6494C9.91479 13.3042 9.63428 13.0244 9.28906 13.0244C8.94385 13.0244 8.66406 13.3042 8.66406 13.6494C8.66406 13.9944 8.94385 14.2744 9.28906 14.2744Z" fill="#101840"/>
</g>
<defs>
<clipPath id="clip0_798_29943">
<rect width="32" height="32" fill="white"/>
</clipPath>
</defs>
</svg>
