<svg width="48" height="48" viewBox="0 0 48 48" fill="none" xmlns="http://www.w3.org/2000/svg">
<g clip-path="url(#clip0_798_25276)">
<path d="M45.6 23.1985H40V17.4274C42.8725 15.9634 44.7134 13.0446 44.7968 9.82162C44.8803 6.59859 43.193 3.58846 40.4001 1.97784C40.1526 1.83496 39.8476 1.83496 39.6001 1.97784C39.3526 2.12071 39.2001 2.38481 39.2001 2.67065V9.94584L36 11.8657L32.8 9.94574V2.67046C32.8 2.38462 32.6475 2.12053 32.4 1.97765C32.1525 1.83478 31.8475 1.83478 31.6 1.97765C28.8071 3.58828 27.1198 6.59849 27.2033 9.82143C27.2867 13.0445 29.1276 15.9633 32.0001 17.4272V23.1983H18.4V11.6161C18.4 9.8729 18.7664 8.62968 19.4608 8.02246C19.6405 7.86524 19.8516 7.74806 20.08 7.67849C20.289 8.34281 20.9036 8.79571 21.6 8.79852H24C24.8837 8.79852 25.6 8.08218 25.6 7.19849V3.19846C25.6 2.31478 24.8837 1.59843 24 1.59843H21.6C21.0989 1.59965 20.6276 1.83684 20.328 2.23846C17.2604 0.122994 13.4164 -0.532881 9.82078 0.445682C6.58716 1.19324 3.95597 3.53446 2.83763 6.65924C2.63653 7.28812 2.84241 7.97587 3.35588 8.39081C3.86934 8.80584 4.58494 8.86284 5.15766 8.53443C6.46359 7.6469 8.14078 7.51378 9.57047 8.18399C10.6401 8.79196 11.2 9.97837 11.2 11.616V23.1984H2.4C1.07456 23.1984 0 24.273 0 25.5984V42.3984C0.0035625 45.4897 2.50866 47.9949 5.59997 47.9984H42.3999C45.4912 47.9948 47.9964 45.4897 47.9999 42.3984V25.5984C48 24.273 46.9255 23.1985 45.6 23.1985ZM21.6 3.19846H24V7.19849H21.6V3.19846ZM28.8 9.59849C28.8053 7.55268 29.6774 5.60493 31.2 4.23853V10.3986C31.2001 10.6793 31.3473 10.9396 31.588 11.0842L35.5881 13.4841C35.8416 13.6365 36.1585 13.6365 36.412 13.4841L40.4121 11.0842C40.6527 10.9396 40.8 10.6793 40.8001 10.3986V4.23853C43.2668 6.44474 43.9118 10.0483 42.3638 12.9732C40.8157 15.8981 37.4732 17.3911 34.2617 16.5922C31.0502 15.793 28.797 12.9079 28.8 9.59849ZM33.6 18.0577C35.1678 18.5121 36.8323 18.5121 38.4 18.0577V23.1985H33.6V18.0577ZM10.364 6.79453C8.44013 5.83715 6.15234 5.97515 4.35759 7.15696C5.31422 4.54612 7.53122 2.59968 10.244 1.98899C13.632 1.06312 17.2585 1.81424 20 4.00978V6.05381C19.4271 6.15262 18.8915 6.40406 18.4495 6.78178C17.3543 7.70981 16.7999 9.33534 16.7999 11.6162V15.9986H12.7999V11.6162C12.8 9.40246 11.9344 7.68974 10.364 6.79453ZM12.8 17.5985H16.8V23.1984H12.8V17.5985ZM12 24.7985H42.4V31.1985C42.4 32.0822 41.6837 32.7985 40.8 32.7985H7.2C6.31631 32.7985 5.59997 32.0822 5.59997 31.1985V24.7985H12ZM9.6 46.3985V44.7984C9.6 43.9147 10.3163 43.1984 11.2 43.1984H36.8001C37.6838 43.1984 38.4001 43.9147 38.4001 44.7984V46.3985H9.6ZM46.4 42.3985C46.3973 44.6065 44.608 46.3958 42.3999 46.3986H39.9999V44.7985C39.9999 43.0312 38.5672 41.5986 36.8 41.5986H11.2C9.43275 41.5986 8.00006 43.0312 8.00006 44.7985V46.3986H5.60006C3.39206 46.3959 1.60275 44.6066 1.60003 42.3985V25.5985C1.60003 25.1567 1.95825 24.7986 2.4 24.7986H4.00003V31.1986C4.00003 32.9659 5.43272 34.3986 7.2 34.3986H40.8C42.5673 34.3986 44 32.9659 44 31.1986V24.7986H45.6C46.0418 24.7986 46.4 25.1567 46.4 25.5985V42.3985Z" fill="white"/>
<path d="M28.8004 38.3984H19.2004C18.7585 38.3984 18.4004 38.7566 18.4004 39.1984C18.4004 39.6402 18.7586 39.9984 19.2004 39.9984H28.8004C29.2422 39.9984 29.6003 39.6402 29.6003 39.1984C29.6003 38.7566 29.2422 38.3984 28.8004 38.3984Z" fill="white"/>
<path d="M7.99919 31.1986H39.9992C40.441 31.1986 40.7991 30.8404 40.7991 30.3986C40.7991 29.9568 40.441 29.5986 39.9992 29.5986H7.99919C7.55734 29.5986 7.19922 29.9568 7.19922 30.3986C7.19922 30.8404 7.55744 31.1986 7.99919 31.1986Z" fill="white"/>
<path d="M7.99919 27.9984H39.9992C40.441 27.9984 40.7991 27.6403 40.7991 27.1984C40.7991 26.7566 40.441 26.3984 39.9992 26.3984H7.99919C7.55734 26.3984 7.19922 26.7567 7.19922 27.1984C7.19922 27.6402 7.55744 27.9984 7.99919 27.9984Z" fill="white"/>
<path d="M39.9992 39.9984C40.441 39.9984 40.7992 39.6402 40.7992 39.1984C40.7992 38.7566 40.441 38.3984 39.9992 38.3984C39.5574 38.3984 39.1992 38.7566 39.1992 39.1984C39.1992 39.6402 39.5574 39.9984 39.9992 39.9984Z" fill="white"/>
<path d="M43.2004 39.9984C43.6422 39.9984 44.0003 39.6402 44.0003 39.1984C44.0003 38.7566 43.6422 38.3984 43.2004 38.3984C42.7585 38.3984 42.4004 38.7566 42.4004 39.1984C42.4004 39.6402 42.7585 39.9984 43.2004 39.9984Z" fill="white"/>
</g>
<defs>
<clipPath id="clip0_798_25276">
<rect width="48" height="48" fill="white"/>
</clipPath>
</defs>
</svg>
