<svg width="48" height="48" viewBox="0 0 48 48" fill="none" xmlns="http://www.w3.org/2000/svg">
<g clip-path="url(#clip0_798_26824)">
<path d="M47.8592 14.8071L42.6426 6.31508C42.4952 6.07663 42.2518 5.91434 41.9749 5.87005C41.6983 5.82575 41.416 5.90441 41.202 6.08532L27.401 17.7675L22.4097 12.892C22.7744 11.6571 22.7822 10.344 22.432 9.1049C24.9109 7.01429 28.0767 5.18781 30.0336 5.91931C30.4571 6.08035 30.9356 5.92262 31.1799 5.54135C31.4245 5.15966 31.3682 4.65915 31.0445 4.34163C30.97 4.26753 23.539 -2.82398 16.1018 4.0448C14.0572 3.88211 12.0419 4.60947 10.5723 6.0402C9.12085 7.44359 8.36906 9.41953 8.51974 11.4327C7.01078 12.8216 5.89965 13.2344 5.42109 13.3569C4.06323 12.3903 2.20983 12.5273 1.00887 13.6827C0.36389 14.3074 0 15.1664 0 16.0639C0 16.9614 0.36389 17.8209 1.00846 18.4456L7.96377 25.239C9.30879 26.5381 11.4408 26.5381 12.7858 25.239C13.9826 24.0865 14.1325 22.2223 13.1356 20.893C13.2694 20.4074 13.6995 19.3402 15.0979 17.8933C15.9313 17.9513 16.7683 17.8652 17.5723 17.64L22.206 22.1652L15.74 27.6385C14.7626 27.0249 11.9984 26.1142 7.24261 30.759C6.69326 31.2956 5.96258 32.1268 5.96258 33.1432C5.96258 34.2717 6.78351 35.0727 7.8226 36.087C9.09891 37.3343 10.6257 37.0909 11.6929 36.4708L16.6876 41.3495C16.3614 41.8658 16.1821 42.4607 16.1689 43.0709C16.1681 43.8355 16.4893 44.5525 17.0962 45.1462C18.0438 46.071 18.9583 46.9648 20.0847 46.9648C20.7873 46.9644 21.5722 46.6166 22.4983 45.7117C24.9532 43.3143 26.1976 41.1343 26.1976 39.2328C26.2084 38.6086 26.0502 37.9925 25.7397 37.4511L26.8455 36.3706C27.0297 36.1913 27.1332 35.945 27.1332 35.6879V33.2475H29.6514C30.1805 33.2483 30.6106 32.8203 30.6115 32.2912V30.3749L37.525 37.1282C38.87 38.4268 41.0016 38.4268 42.3466 37.1286C42.9916 36.5039 43.3555 35.6449 43.3555 34.7473C43.3555 33.8498 42.9916 32.9904 42.347 32.3657L36.2942 26.4532H36.6068C37.1358 26.4545 37.5659 26.026 37.5668 25.4969V23.0565H40.0846C40.6137 23.0573 41.0434 22.6293 41.0446 22.1002V19.6598H43.5625C44.092 19.6606 44.5217 19.2326 44.5225 18.7031V16.2626H47.0403C47.3868 16.2639 47.7073 16.0776 47.877 15.7754C48.0471 15.4732 48.0401 15.1027 47.8592 14.8071ZM11.4412 23.8737C10.8463 24.4483 9.90327 24.4483 9.30797 23.8737L2.35266 17.0798C2.07612 16.8145 1.92005 16.4477 1.92005 16.0643C1.92005 15.681 2.07612 15.3142 2.35266 15.0489C2.94755 14.4738 3.89101 14.4738 4.48591 15.0489L11.4412 21.8423C11.7178 22.1081 11.8738 22.4749 11.8738 22.8582C11.8738 23.2416 11.7178 23.6079 11.4412 23.8737ZM14.8454 15.9443C14.4952 15.8975 14.1478 16.0478 13.9429 16.3355C12.7399 17.5315 12.0556 18.5743 11.666 19.3832L6.98677 14.8129C7.79693 14.4357 8.83561 13.7817 10.0266 12.6465C10.0486 12.6329 10.0697 12.6188 10.0908 12.6039C10.3802 12.3956 10.5292 12.0429 10.4775 11.6902C10.234 10.1129 10.7706 8.51581 11.9165 7.40551C13.0913 6.26664 14.732 5.7442 16.3486 5.99424C16.7054 6.04227 17.0589 5.88371 17.2601 5.58523C21.1586 1.87844 25.0169 2.82604 27.3808 4.07751C24.6659 4.78624 21.9733 6.93895 20.6784 8.08858C20.3783 8.35477 20.2768 8.78034 20.4246 9.15334C20.8854 10.3195 20.8854 11.6174 20.4234 12.7827C19.8546 14.1435 18.8167 15.1052 17.4605 15.6649C16.6255 15.9737 15.7268 16.0697 14.8454 15.9443ZM19.4613 16.8062C20.3013 16.2771 21.0174 15.5725 21.5602 14.7413L25.9318 19.0115L23.6752 20.9216L19.4613 16.8062ZM21.1541 44.3463C20.0881 45.3875 20.026 45.3287 18.4408 43.7804C18.1274 43.4741 18.0898 43.2323 18.0885 43.0775C18.0848 42.5964 18.4847 42.0885 18.6341 41.9374C18.8184 41.7581 18.9223 41.5118 18.9223 41.2547C18.9223 40.9976 18.8184 40.7517 18.6341 40.5721L12.4513 34.5329C12.0775 34.1682 11.481 34.1682 11.1071 34.5329C10.9974 34.6389 10.015 35.5501 9.16638 34.7213C8.5065 34.0767 7.88263 33.4677 7.88263 33.1432C7.88263 33.0438 7.95093 32.7453 8.58722 32.1244C12.932 27.8802 14.7742 29.2952 14.7779 29.2936L15.0673 29.5763H15.0677L23.7626 38.0691C23.7634 38.07 23.7642 38.07 23.765 38.0708L24.0275 38.3266C24.0424 38.344 25.4868 40.1138 21.1541 44.3463ZM41.4354 34.7473C41.435 35.1307 41.279 35.4971 41.0028 35.7624C40.4075 36.337 39.4645 36.337 38.8696 35.7624L32.8163 29.8504H33.1293C33.6584 29.8512 34.0881 29.4231 34.0893 28.8936V26.9781L41.0028 33.7314C41.279 33.9972 41.435 34.364 41.4354 34.7473ZM43.5625 14.3501C43.0334 14.3492 42.6037 14.7773 42.6029 15.3063V17.7468H40.0846C39.5551 17.7459 39.1254 18.174 39.1246 18.7031V21.1439H36.6068C36.0777 21.1427 35.648 21.5707 35.6467 22.1002V24.5406H33.1293C32.5998 24.5394 32.1701 24.9679 32.1693 25.4969V27.9373H29.6514C29.1224 27.9365 28.6927 28.3646 28.6914 28.8936V31.3349H26.1732C25.6441 31.3337 25.2144 31.7617 25.2131 32.2912V35.2864L24.4349 36.0468L17.1629 28.9441L24.2494 22.9456L24.2506 22.9447L27.9765 19.791L27.9773 19.7898L41.5903 8.26659L45.3277 14.3501H43.5625Z" fill="#F47629"/>
<path d="M15.5424 32.4573C15.1653 32.0864 14.5588 32.0909 14.1874 32.4681C13.8161 32.8452 13.8211 33.4517 14.1982 33.823L19.4148 38.9183C19.6586 39.1588 20.0122 39.2512 20.3425 39.1601C20.6729 39.069 20.9295 38.8082 21.0152 38.4766C21.1013 38.145 21.0036 37.7927 20.759 37.5526L15.5424 32.4573Z" fill="#F47629"/>
</g>
<defs>
<clipPath id="clip0_798_26824">
<rect width="48" height="48" fill="white"/>
</clipPath>
</defs>
</svg>
