<svg width="32" height="32" viewBox="0 0 32 32" fill="none" xmlns="http://www.w3.org/2000/svg">
<g clip-path="url(#clip0_798_29930)">
<path d="M23.2585 2.98831C21.316 1.05944 18.7441 0 16.0084 0C15.9836 0 15.9583 6.25e-05 15.9335 0.00025C13.2627 0.0190625 10.7339 1.0655 8.81285 2.94681C6.89148 4.8285 5.79329 7.335 5.72073 10.0044C5.64504 12.7863 6.66398 15.4209 8.58985 17.4233C10.1064 19 10.9416 21.0972 10.9416 23.3286V27.6213C10.9416 28.5032 11.5539 29.2444 12.3755 29.4432V30.0156C12.3755 31.1097 13.2657 31.9999 14.3599 31.9999H17.6412C18.7354 31.9999 19.6255 31.1097 19.6255 30.0156V29.4465C20.4544 29.2528 21.0737 28.5082 21.0737 27.6213V23.3287C21.0737 21.1265 21.9319 19.0051 23.4902 17.3553C25.3012 15.438 26.2985 12.9291 26.2985 10.2908C26.2985 7.52831 25.2189 4.93488 23.2585 2.98831ZM18.3756 30.0156C18.3756 30.4206 18.0462 30.75 17.6412 30.75H14.36C13.955 30.75 13.6256 30.4206 13.6256 30.0156V29.4961H18.3756V30.0156ZM19.8238 27.6213C19.8238 27.9657 19.5435 28.2461 19.199 28.2461H19.0006H13.0006H12.8165C12.4719 28.2461 12.1917 27.9657 12.1917 27.6213V24.0666H19.8238V27.6213ZM15.0259 22.8166V14.9111H16.973V22.8165H15.0259V22.8166ZM22.5815 16.4969C20.9239 18.2519 19.9604 20.4791 19.8373 22.8165H18.223V14.9111H18.7848C19.7838 14.9111 20.5966 14.0984 20.5966 13.0993V13.0024C20.5966 12.0034 19.7838 11.1906 18.7848 11.1906C17.7858 11.1906 16.973 12.0034 16.973 13.0024V13.6611H15.0259V13.0024C15.0259 12.0034 14.2132 11.1906 13.2142 11.1906H13.091C12.092 11.1906 11.2793 12.0034 11.2793 13.0024V13.0993C11.2793 14.0983 12.092 14.9111 13.091 14.9111H13.7759V22.8165H12.1788C12.0595 20.4526 11.1157 18.246 9.49079 16.5567C7.79892 14.7977 6.90373 12.4827 6.97029 10.0384C7.10117 5.22656 11.126 1.28419 15.9424 1.25019C18.3732 1.23312 20.6557 2.16538 22.3779 3.87531C24.1002 5.58544 25.0486 7.86387 25.0486 10.2908C25.0486 12.6087 24.1724 14.8127 22.5815 16.4969ZM18.223 13.6611V13.0024C18.223 12.6926 18.475 12.4406 18.7848 12.4406C19.0946 12.4406 19.3466 12.6927 19.3466 13.0024V13.0993C19.3466 13.4091 19.0946 13.6611 18.7848 13.6611H18.223ZM13.7759 13.0024V13.6611H13.091C12.7812 13.6611 12.5292 13.4091 12.5292 13.0993V13.0024C12.5292 12.6926 12.7812 12.4406 13.091 12.4406H13.2141C13.5239 12.4406 13.7759 12.6927 13.7759 13.0024Z" fill="#101840"/>
<path d="M22.7069 7.58537C22.17 6.2525 21.2569 5.11818 20.0663 4.30506C18.846 3.47162 17.4155 3.03662 15.9331 3.04706C15.588 3.0495 15.3101 3.33131 15.3125 3.6765C15.315 4.02018 15.5943 4.29706 15.9374 4.29706C15.9389 4.29706 15.9405 4.29706 15.9419 4.29706C15.9566 4.297 15.9709 4.29693 15.9855 4.29693C18.4467 4.29693 20.6269 5.76725 21.5475 8.05243C21.6456 8.29606 21.88 8.44406 22.1274 8.44406C22.2051 8.44406 22.2843 8.4295 22.3608 8.39862C22.6809 8.26962 22.836 7.9055 22.7069 7.58537Z" fill="#101840"/>
<path d="M23.0454 9.84865C22.9291 9.7324 22.7679 9.66553 22.6035 9.66553C22.4391 9.66553 22.2779 9.7324 22.1616 9.84865C22.0448 9.9649 21.9785 10.1262 21.9785 10.2905C21.9785 10.4555 22.0448 10.6162 22.1616 10.7324C22.2779 10.8493 22.4385 10.9155 22.6035 10.9155C22.7679 10.9155 22.9291 10.8493 23.0454 10.7324C23.1616 10.6162 23.2285 10.4555 23.2285 10.2905C23.2285 10.1262 23.1616 9.9649 23.0454 9.84865Z" fill="#101840"/>
<path d="M29.0263 3.11322C28.7822 2.86916 28.3866 2.86916 28.1424 3.11322L26.978 4.27766C26.7339 4.52172 26.7339 4.91747 26.978 5.1616C27.1 5.28366 27.26 5.34466 27.42 5.34466C27.58 5.34466 27.7398 5.28366 27.8619 5.1616L29.0263 3.99716C29.2704 3.7531 29.2704 3.35735 29.0263 3.11322Z" fill="#101840"/>
<path d="M29.0263 16.5848L27.8619 15.4204C27.6178 15.1763 27.2222 15.1763 26.978 15.4204C26.7339 15.6644 26.7339 16.0602 26.978 16.3042L28.1424 17.4687C28.2645 17.5907 28.4244 17.6517 28.5843 17.6517C28.7443 17.6517 28.9042 17.5907 29.0263 17.4687C29.2703 17.2246 29.2703 16.8289 29.0263 16.5848Z" fill="#101840"/>
<path d="M31.3753 9.66602H29.7285C29.3834 9.66602 29.1035 9.94583 29.1035 10.291C29.1035 10.6362 29.3834 10.916 29.7285 10.916H31.3753C31.7205 10.916 32.0003 10.6362 32.0003 10.291C32.0003 9.94583 31.7205 9.66602 31.3753 9.66602Z" fill="#101840"/>
<path d="M5.02238 4.27766L3.858 3.11322C3.61388 2.86916 3.21825 2.86916 2.97406 3.11322C2.73 3.35729 2.73 3.75303 2.97406 3.99716L4.1385 5.1616C4.26056 5.28366 4.4205 5.34466 4.58044 5.34466C4.74038 5.34466 4.90031 5.28366 5.02238 5.1616C5.26644 4.91747 5.26644 4.52179 5.02238 4.27766Z" fill="#101840"/>
<path d="M5.02238 15.4204C4.77831 15.1763 4.38262 15.1763 4.1385 15.4204L2.97406 16.5849C2.73 16.829 2.73 17.2247 2.97406 17.4688C3.09613 17.5908 3.25606 17.6518 3.416 17.6518C3.57594 17.6518 3.73588 17.5908 3.85794 17.4688L5.02238 16.3043C5.26644 16.0602 5.26644 15.6645 5.02238 15.4204Z" fill="#101840"/>
<path d="M2.27181 9.66602H0.625C0.279875 9.66602 0 9.94583 0 10.291C0 10.6362 0.279875 10.916 0.625 10.916H2.27181C2.61694 10.916 2.89681 10.6362 2.89681 10.291C2.89681 9.94583 2.61694 9.66602 2.27181 9.66602Z" fill="#101840"/>
</g>
<defs>
<clipPath id="clip0_798_29930">
<rect width="32" height="32" fill="white"/>
</clipPath>
</defs>
</svg>
