<svg width="48" height="48" viewBox="0 0 48 48" fill="none" xmlns="http://www.w3.org/2000/svg">
<g clip-path="url(#clip0_897_13721)">
<path d="M47.8592 14.8076L42.6426 6.31557C42.4952 6.07711 42.2518 5.91483 41.9749 5.87054C41.6983 5.82624 41.416 5.9049 41.202 6.08581L27.401 17.768L22.4097 12.8925C22.7744 11.6576 22.7822 10.3444 22.432 9.10539C24.9109 7.01478 28.0767 5.1883 30.0336 5.9198C30.4571 6.08084 30.9356 5.92311 31.1799 5.54184C31.4245 5.16014 31.3682 4.65964 31.0445 4.34212C30.97 4.26801 23.539 -2.82349 16.1018 4.04529C14.0572 3.8826 12.0419 4.60996 10.5723 6.04068C9.12085 7.44408 8.36906 9.42002 8.51975 11.4332C7.01078 12.8221 5.89965 13.2349 5.42109 13.3574C4.06323 12.3907 2.20983 12.5278 1.00887 13.6832C0.36389 14.3079 0 15.1669 0 16.0644C0 16.9619 0.36389 17.8214 1.00846 18.4461L7.96377 25.2395C9.30879 26.5386 11.4408 26.5386 12.7858 25.2395C13.9826 24.087 14.1325 22.2228 13.1356 20.8935C13.2694 20.4079 13.6995 19.3407 15.0979 17.8938C15.9313 17.9518 16.7683 17.8657 17.5723 17.6405L22.206 22.1657L15.74 27.6389C14.7626 27.0254 11.9984 26.1147 7.24261 30.7595C6.69326 31.2961 5.96258 32.1273 5.96258 33.1437C5.96258 34.2722 6.78351 35.0732 7.8226 36.0875C9.09891 37.3348 10.6257 37.0914 11.6929 36.4712L16.6876 41.35C16.3614 41.8662 16.1821 42.4611 16.1689 43.0713C16.1681 43.836 16.4893 44.553 17.0962 45.1466C18.0438 46.0715 18.9583 46.9653 20.0847 46.9653C20.7873 46.9648 21.5722 46.6171 22.4983 45.7121C24.9532 43.3148 26.1976 41.1347 26.1976 39.2333C26.2084 38.609 26.0502 37.993 25.7397 37.4515L26.8455 36.3711C27.0297 36.1918 27.1332 35.9455 27.1332 35.6884V33.248H29.6514C30.1805 33.2488 30.6106 32.8207 30.6115 32.2917V30.3754L37.525 37.1286C38.87 38.4273 41.0016 38.4273 42.3466 37.1291C42.9916 36.5044 43.3555 35.6453 43.3555 34.7478C43.3555 33.8503 42.9916 32.9909 42.347 32.3662L36.2942 26.4537H36.6068C37.1358 26.455 37.5659 26.0265 37.5668 25.4974V23.057H40.0846C40.6137 23.0578 41.0434 22.6298 41.0446 22.1007V19.6603H43.5625C44.092 19.6611 44.5217 19.233 44.5225 18.7036V16.2631H47.0403C47.3868 16.2644 47.7073 16.0781 47.877 15.7759C48.0471 15.4737 48.0401 15.1032 47.8592 14.8076ZM11.4412 23.8742C10.8463 24.4488 9.90327 24.4488 9.30797 23.8742L2.35266 17.0803C2.07612 16.815 1.92005 16.4482 1.92005 16.0648C1.92005 15.6815 2.07612 15.3147 2.35266 15.0493C2.94755 14.4743 3.89101 14.4743 4.48591 15.0493L11.4412 21.8428C11.7178 22.1086 11.8738 22.4753 11.8738 22.8587C11.8738 23.242 11.7178 23.6084 11.4412 23.8742ZM14.8454 15.9448C14.4952 15.898 14.1478 16.0483 13.9429 16.336C12.7399 17.532 12.0556 18.5748 11.666 19.3837L6.98677 14.8134C7.79693 14.4362 8.83561 13.7821 10.0266 12.647C10.0486 12.6333 10.0697 12.6193 10.0908 12.6044C10.3802 12.3961 10.5292 12.0434 10.4775 11.6907C10.234 10.1134 10.7706 8.51629 11.9165 7.406C13.0913 6.26713 14.732 5.74469 16.3486 5.99473C16.7054 6.04275 17.0589 5.8842 17.2601 5.58572C21.1586 1.87893 25.0169 2.82653 27.3808 4.078C24.6659 4.78673 21.9733 6.93944 20.6784 8.08907C20.3783 8.35526 20.2768 8.78083 20.4246 9.15383C20.8854 10.32 20.8854 11.6178 20.4234 12.7832C19.8546 14.144 18.8167 15.1056 17.4605 15.6653C16.6255 15.9742 15.7268 16.0702 14.8454 15.9448ZM19.4613 16.8067C20.3013 16.2776 21.0174 15.573 21.5602 14.7418L25.9318 19.012L23.6752 20.9221L19.4613 16.8067ZM21.1541 44.3468C20.0881 45.388 20.026 45.3292 18.4408 43.7809C18.1274 43.4746 18.0898 43.2328 18.0885 43.078C18.0848 42.5969 18.4847 42.089 18.6341 41.9379C18.8184 41.7586 18.9223 41.5123 18.9223 41.2552C18.9223 40.9981 18.8184 40.7522 18.6341 40.5726L12.4513 34.5334C12.0775 34.1687 11.481 34.1687 11.1071 34.5334C10.9974 34.6394 10.015 35.5505 9.16638 34.7218C8.5065 34.0772 7.88263 33.4682 7.88263 33.1437C7.88263 33.0443 7.95093 32.7458 8.58722 32.1248C12.932 27.8807 14.7742 29.2957 14.7779 29.294L15.0673 29.5768H15.0677L23.7626 38.0696C23.7634 38.0705 23.7642 38.0705 23.765 38.0713L24.0275 38.3271C24.0424 38.3445 25.4868 40.1143 21.1541 44.3468ZM41.4354 34.7478C41.435 35.1312 41.279 35.4976 41.0028 35.7629C40.4075 36.3375 39.4645 36.3375 38.8696 35.7629L32.8163 29.8508H33.1293C33.6584 29.8517 34.0881 29.4236 34.0893 28.8941V26.9786L41.0028 33.7319C41.279 33.9977 41.435 34.3645 41.4354 34.7478ZM43.5625 14.3505C43.0334 14.3497 42.6037 14.7778 42.6029 15.3068V17.7473H40.0846C39.5551 17.7464 39.1254 18.1745 39.1246 18.7036V21.1444H36.6068C36.0777 21.1432 35.648 21.5712 35.6467 22.1007V24.5411H33.1293C32.5998 24.5399 32.1701 24.9683 32.1693 25.4974V27.9378H29.6514C29.1224 27.937 28.6927 28.3651 28.6914 28.8941V31.3354H26.1732C25.6441 31.3341 25.2144 31.7622 25.2131 32.2917V35.2868L24.4349 36.0473L17.1629 28.9446L24.2494 22.946L24.2506 22.9452L27.9765 19.7915L27.9773 19.7903L41.5903 8.26708L45.3277 14.3505H43.5625Z" fill="#F47629"/>
<path d="M15.5434 32.4568C15.1662 32.0859 14.5598 32.0904 14.1884 32.4676C13.8171 32.8447 13.822 33.4512 14.1992 33.8225L19.4158 38.9178C19.6596 39.1583 20.0131 39.2507 20.3435 39.1596C20.6739 39.0685 20.9305 38.8077 21.0162 38.4761C21.1023 38.1445 21.0046 37.7922 20.76 37.5521L15.5434 32.4568Z" fill="#F47629"/>
</g>
<defs>
<clipPath id="clip0_897_13721">
<rect width="48" height="48" fill="white"/>
</clipPath>
</defs>
</svg>
