<svg width="48" height="48" viewBox="0 0 48 48" fill="none" xmlns="http://www.w3.org/2000/svg">
<g clip-path="url(#clip0_798_25296)">
<path d="M44.25 20.625H33.75C33.5511 20.625 33.3603 20.704 33.2197 20.8447C33.079 20.9853 33 21.1761 33 21.375C33 21.5739 33.079 21.7647 33.2197 21.9053C33.3603 22.046 33.5511 22.125 33.75 22.125H44.25C44.4489 22.125 44.6397 22.046 44.7803 21.9053C44.921 21.7647 45 21.5739 45 21.375C45 21.1761 44.921 20.9853 44.7803 20.8447C44.6397 20.704 44.4489 20.625 44.25 20.625Z" fill="white"/>
<path d="M44.25 24.375H33.75C33.5511 24.375 33.3603 24.454 33.2197 24.5947C33.079 24.7353 33 24.9261 33 25.125C33 25.3239 33.079 25.5147 33.2197 25.6553C33.3603 25.796 33.5511 25.875 33.75 25.875H44.25C44.4489 25.875 44.6397 25.796 44.7803 25.6553C44.921 25.5147 45 25.3239 45 25.125C45 24.9261 44.921 24.7353 44.7803 24.5947C44.6397 24.454 44.4489 24.375 44.25 24.375Z" fill="white"/>
<path d="M44.25 28.125H33.75C33.5511 28.125 33.3603 28.204 33.2197 28.3447C33.079 28.4853 33 28.6761 33 28.875C33 29.0739 33.079 29.2647 33.2197 29.4053C33.3603 29.546 33.5511 29.625 33.75 29.625H44.25C44.4489 29.625 44.6397 29.546 44.7803 29.4053C44.921 29.2647 45 29.0739 45 28.875C45 28.6761 44.921 28.4853 44.7803 28.3447C44.6397 28.204 44.4489 28.125 44.25 28.125Z" fill="white"/>
<path d="M44.25 31.875H33.75C33.5511 31.875 33.3603 31.954 33.2197 32.0947C33.079 32.2353 33 32.4261 33 32.625C33 32.8239 33.079 33.0147 33.2197 33.1553C33.3603 33.296 33.5511 33.375 33.75 33.375H44.25C44.4489 33.375 44.6397 33.296 44.7803 33.1553C44.921 33.0147 45 32.8239 45 32.625C45 32.4261 44.921 32.2353 44.7803 32.0947C44.6397 31.954 44.4489 31.875 44.25 31.875Z" fill="white"/>
<path d="M44.25 35.625H33.75C33.5511 35.625 33.3603 35.704 33.2197 35.8447C33.079 35.9853 33 36.1761 33 36.375C33 36.5739 33.079 36.7647 33.2197 36.9053C33.3603 37.046 33.5511 37.125 33.75 37.125H44.25C44.4489 37.125 44.6397 37.046 44.7803 36.9053C44.921 36.7647 45 36.5739 45 36.375C45 36.1761 44.921 35.9853 44.7803 35.8447C44.6397 35.704 44.4489 35.625 44.25 35.625Z" fill="white"/>
<path d="M44.25 9.375H33.75C33.5511 9.375 33.3603 9.45402 33.2197 9.59467C33.079 9.73532 33 9.92609 33 10.125C33 10.3239 33.079 10.5147 33.2197 10.6553C33.3603 10.796 33.5511 10.875 33.75 10.875H44.25C44.4489 10.875 44.6397 10.796 44.7803 10.6553C44.921 10.5147 45 10.3239 45 10.125C45 9.92609 44.921 9.73532 44.7803 9.59467C44.6397 9.45402 44.4489 9.375 44.25 9.375Z" fill="white"/>
<path d="M44.25 13.125H33.75C33.5511 13.125 33.3603 13.204 33.2197 13.3447C33.079 13.4853 33 13.6761 33 13.875C33 14.0739 33.079 14.2647 33.2197 14.4053C33.3603 14.546 33.5511 14.625 33.75 14.625H44.25C44.4489 14.625 44.6397 14.546 44.7803 14.4053C44.921 14.2647 45 14.0739 45 13.875C45 13.6761 44.921 13.4853 44.7803 13.3447C44.6397 13.204 44.4489 13.125 44.25 13.125Z" fill="white"/>
<path d="M44.25 16.875H33.75C33.5511 16.875 33.3603 16.954 33.2197 17.0947C33.079 17.2353 33 17.4261 33 17.625C33 17.8239 33.079 18.0147 33.2197 18.1553C33.3603 18.296 33.5511 18.375 33.75 18.375H44.25C44.4489 18.375 44.6397 18.296 44.7803 18.1553C44.921 18.0147 45 17.8239 45 17.625C45 17.4261 44.921 17.2353 44.7803 17.0947C44.6397 16.954 44.4489 16.875 44.25 16.875Z" fill="white"/>
<path d="M45 4.5H3C2.20435 4.5 1.44129 4.81607 0.87868 5.37868C0.316071 5.94129 0 6.70435 0 7.5L0 39C0 39.7957 0.316071 40.5587 0.87868 41.1213C1.44129 41.6839 2.20435 42 3 42V45C3 45.1989 3.07902 45.3897 3.21967 45.5303C3.36032 45.671 3.55109 45.75 3.75 45.75H7.5C7.62942 45.75 7.75662 45.7165 7.86925 45.6527C7.98188 45.589 8.0761 45.4972 8.14275 45.3862L10.1745 42H37.8255L39.8573 45.3862C39.9239 45.4972 40.0181 45.589 40.1307 45.6527C40.2434 45.7165 40.3706 45.75 40.5 45.75H44.25C44.4489 45.75 44.6397 45.671 44.7803 45.5303C44.921 45.3897 45 45.1989 45 45V42C45.7957 42 46.5587 41.6839 47.1213 41.1213C47.6839 40.5587 48 39.7957 48 39V7.5C48 6.70435 47.6839 5.94129 47.1213 5.37868C46.5587 4.81607 45.7957 4.5 45 4.5ZM7.0755 44.25H4.5V42H8.4255L7.0755 44.25ZM43.5 44.25H40.9245L39.5745 42H43.5V44.25ZM46.5 39C46.5 39.3978 46.342 39.7794 46.0607 40.0607C45.7794 40.342 45.3978 40.5 45 40.5H3C2.60218 40.5 2.22064 40.342 1.93934 40.0607C1.65804 39.7794 1.5 39.3978 1.5 39V7.5C1.5 7.10218 1.65804 6.72064 1.93934 6.43934C2.22064 6.15804 2.60218 6 3 6H45C45.3978 6 45.7794 6.15804 46.0607 6.43934C46.342 6.72064 46.5 7.10218 46.5 7.5V39Z" fill="white"/>
<path d="M17.25 9C14.4316 9 11.6765 9.83575 9.33313 11.4016C6.98973 12.9674 5.16327 15.1929 4.08472 17.7968C3.00617 20.4006 2.72398 23.2658 3.27382 26.03C3.82366 28.7943 5.18084 31.3334 7.17373 33.3263C9.16663 35.3192 11.7057 36.6764 14.47 37.2262C17.2342 37.776 20.0994 37.4938 22.7032 36.4153C25.3071 35.3367 27.5326 33.5103 29.0984 31.1669C30.6643 28.8235 31.5 26.0684 31.5 23.25C31.4958 19.4719 29.9932 15.8498 27.3217 13.1783C24.6502 10.5068 21.0281 9.00417 17.25 9ZM17.25 36C14.7283 36 12.2632 35.2522 10.1665 33.8512C8.06976 32.4502 6.43556 30.459 5.47054 28.1292C4.50552 25.7995 4.25303 23.2359 4.74499 20.7626C5.23696 18.2893 6.45128 16.0175 8.2344 14.2344C10.0175 12.4513 12.2893 11.2369 14.7626 10.745C17.2359 10.253 19.7995 10.5055 22.1292 11.4705C24.459 12.4356 26.4503 14.0698 27.8512 16.1665C29.2522 18.2632 30 20.7283 30 23.25C29.9962 26.6304 28.6517 29.8712 26.2615 32.2614C23.8712 34.6517 20.6304 35.9962 17.25 36Z" fill="white"/>
<path d="M22.269 19.8465L20.058 20.7675C19.8576 20.5414 19.631 20.34 19.383 20.1675C19.6255 19.2745 20.0979 18.4606 20.7533 17.8073C21.2293 17.3316 21.5535 16.7255 21.6849 16.0655C21.8163 15.4056 21.749 14.7214 21.4915 14.0997C21.234 13.478 20.7979 12.9467 20.2383 12.5729C19.6788 12.1992 19.0209 11.9998 18.348 12H18C17.2592 12 16.5298 12.183 15.8767 12.5326C15.2235 12.8822 14.6668 13.3876 14.2559 14.0041C13.845 14.6205 13.5926 15.3288 13.5212 16.0662C13.4498 16.8036 13.5615 17.5472 13.8465 18.231L14.7675 20.442C14.5414 20.6424 14.34 20.869 14.1675 21.117C13.2745 20.8745 12.4606 20.4021 11.8073 19.7468C11.3316 19.2707 10.7255 18.9465 10.0655 18.8151C9.40555 18.6837 8.72144 18.751 8.09974 19.0085C7.47803 19.266 6.94668 19.7021 6.57292 20.2617C6.19915 20.8212 5.99977 21.4791 6 22.152V22.5C6.00004 23.2408 6.18298 23.9702 6.53258 24.6233C6.88218 25.2765 7.38763 25.8332 8.00406 26.2441C8.62048 26.655 9.32882 26.9074 10.0662 26.9788C10.8036 27.0502 11.5472 26.9385 12.231 26.6535L14.442 25.7325C14.6424 25.9586 14.869 26.16 15.117 26.3325C14.8745 27.2255 14.4021 28.0394 13.7468 28.6927C13.2707 29.1684 12.9465 29.7745 12.8151 30.4345C12.6837 31.0945 12.751 31.7786 13.0085 32.4003C13.266 33.022 13.7021 33.5533 14.2617 33.9271C14.8212 34.3008 15.4791 34.5002 16.152 34.5H16.5C17.2408 34.5 17.9702 34.317 18.6233 33.9674C19.2765 33.6178 19.8332 33.1124 20.2441 32.4959C20.655 31.8795 20.9074 31.1712 20.9788 30.4338C21.0502 29.6964 20.9385 28.9528 20.6535 28.269L19.7325 26.058C19.9586 25.8576 20.16 25.631 20.3325 25.383C21.2255 25.6255 22.0394 26.0979 22.6927 26.7533C23.1684 27.2293 23.7745 27.5535 24.4345 27.6849C25.0945 27.8163 25.7786 27.749 26.4003 27.4915C27.022 27.234 27.5533 26.7979 27.9271 26.2383C28.3008 25.6788 28.5002 25.0209 28.5 24.348V24C28.5 23.2592 28.317 22.5298 27.9674 21.8767C27.6178 21.2235 27.1124 20.6668 26.4959 20.2559C25.8795 19.845 25.1712 19.5926 24.4338 19.5212C23.6964 19.4498 22.9528 19.5615 22.269 19.8465ZM11.6535 25.269C11.1976 25.4589 10.702 25.5333 10.2104 25.4856C9.71893 25.438 9.24678 25.2697 8.8359 24.9958C8.42502 24.7219 8.0881 24.3507 7.85506 23.9154C7.62202 23.48 7.50006 22.9938 7.5 22.5V22.152C7.50007 21.7759 7.61165 21.4082 7.82065 21.0955C8.02965 20.7828 8.32668 20.539 8.67418 20.3951C9.02169 20.2512 9.40406 20.2135 9.77297 20.2869C10.1419 20.3602 10.4808 20.5413 10.7468 20.8073C11.5351 21.5977 12.5063 22.1814 13.5743 22.5068C13.4456 23.144 13.4846 23.8038 13.6875 24.4215L11.6535 25.269ZM18 13.5H18.348C18.7241 13.5001 19.0918 13.6117 19.4045 13.8207C19.7172 14.0296 19.961 14.3267 20.1049 14.6742C20.2488 15.0217 20.2865 15.4041 20.2131 15.773C20.1398 16.1419 19.9587 16.4808 19.6927 16.7468C18.9023 17.5351 18.3186 18.5063 17.9932 19.5743C17.356 19.4456 16.6962 19.4846 16.0785 19.6875L15.231 17.6535C15.0411 17.1976 14.9667 16.702 15.0144 16.2104C15.062 15.7189 15.2303 15.2468 15.5042 14.8359C15.7781 14.425 16.1493 14.0881 16.5846 13.8551C17.02 13.622 17.5062 13.5001 18 13.5ZM16.5 33H16.152C15.7759 32.9999 15.4082 32.8883 15.0955 32.6793C14.7828 32.4703 14.539 32.1733 14.3951 31.8258C14.2512 31.4783 14.2135 31.0959 14.2869 30.727C14.3602 30.3581 14.5413 30.0192 14.8073 29.7533C15.5977 28.9649 16.1814 27.9937 16.5068 26.9258C17.144 27.0544 17.8038 27.0154 18.4215 26.8125L19.269 28.8465C19.4589 29.3024 19.5333 29.798 19.4856 30.2896C19.438 30.7811 19.2697 31.2532 18.9958 31.6641C18.7219 32.075 18.3507 32.4119 17.9154 32.6449C17.48 32.878 16.9938 32.9999 16.5 33ZM17.25 25.5C16.805 25.5 16.37 25.368 16 25.1208C15.63 24.8736 15.3416 24.5222 15.1713 24.111C15.001 23.6999 14.9564 23.2475 15.0432 22.811C15.13 22.3746 15.3443 21.9737 15.659 21.659C15.9737 21.3443 16.3746 21.13 16.811 21.0432C17.2475 20.9564 17.6999 21.001 18.111 21.1713C18.5222 21.3416 18.8736 21.63 19.1208 22C19.368 22.37 19.5 22.805 19.5 23.25C19.5 23.8467 19.2629 24.419 18.841 24.841C18.419 25.2629 17.8467 25.5 17.25 25.5ZM27 24V24.348C26.9999 24.7241 26.8883 25.0918 26.6793 25.4045C26.4703 25.7172 26.1733 25.961 25.8258 26.1049C25.4783 26.2488 25.0959 26.2865 24.727 26.2131C24.3581 26.1398 24.0192 25.9587 23.7533 25.6927C22.9649 24.9023 21.9937 24.3186 20.9257 23.9932C21.0544 23.356 21.0154 22.6962 20.8125 22.0785L22.8465 21.231C23.3024 21.0411 23.798 20.9667 24.2896 21.0144C24.7811 21.062 25.2532 21.2303 25.6641 21.5042C26.075 21.7781 26.4119 22.1493 26.6449 22.5846C26.878 23.02 26.9999 23.5062 27 24Z" fill="white"/>
</g>
<defs>
<clipPath id="clip0_798_25296">
<rect width="48" height="48" fill="white"/>
</clipPath>
</defs>
</svg>
