<svg width="32" height="32" viewBox="0 0 32 32" fill="none" xmlns="http://www.w3.org/2000/svg">
<path d="M31.9819 12.562L31.5578 9.36837C31.4919 8.87187 31.2366 8.43075 30.8389 8.12631C30.4412 7.82181 29.9487 7.69037 29.4519 7.7565C29.2764 7.77994 29.11 7.82756 28.955 7.89469V5.625C28.955 5.27988 28.6751 5 28.33 5H27.2879V3.75H28.4875C28.8326 3.75 29.1125 3.47012 29.1125 3.125V0.625C29.1125 0.279875 28.8326 0 28.4875 0H19.0646C18.7194 0 18.4396 0.279875 18.4396 0.625C18.4396 0.970125 18.7194 1.25 19.0646 1.25H27.8625V2.5H4.625V1.25H13.4396C13.7848 1.25 14.0646 0.970125 14.0646 0.625C14.0646 0.279875 13.7848 0 13.4396 0H0.625C0.279813 0 0 0.279875 0 0.625V16C0 16.3451 0.279813 16.625 0.625 16.625H4C4.34519 16.625 4.625 16.3451 4.625 16V3.75H8.18706V5H7.14494C6.79975 5 6.51994 5.27988 6.51994 5.625V16C6.51994 16.3451 6.79975 16.625 7.14494 16.625H15.6952L17.5959 17.8124L17.5466 17.9256C17.4334 18.1857 17.5097 18.4894 17.7323 18.6653L19.8981 20.3762L19.6412 25.4748C19.2555 26.8882 19.2318 28.3856 19.5749 29.8106L19.9869 31.5214C20.0544 31.8022 20.3057 32.0001 20.5945 32.0001H26.827C27.1166 32.0001 27.3682 31.8011 27.4351 31.5194L27.7797 30.0676C28.1352 28.5704 28.1277 26.9926 27.7605 25.4984L27.7654 19.1875L29.5234 17.1407C29.7294 16.9009 29.7238 16.5451 29.5105 16.3117L29.4955 16.2952L31.5131 14.0676C31.8837 13.6581 32.0547 13.1094 31.9819 12.562ZM3.375 15.375H1.25V1.25H3.375V15.375ZM25.0227 14.2353C25.0227 15.1923 24.2441 15.9708 23.2871 15.9708C22.3301 15.9708 21.5515 15.1923 21.5515 14.2353V13.5456C21.5515 12.5886 22.3301 11.81 23.2871 11.81C24.2441 11.81 25.0227 12.5886 25.0227 13.5456V14.2353ZM27.7049 12.6859L26.2719 14.2683C26.272 14.2572 26.2727 14.2463 26.2727 14.2353V13.5456C26.2727 11.8993 24.9333 10.56 23.2871 10.56C21.6408 10.56 20.3015 11.8993 20.3015 13.5456V14.2353C20.3015 14.5569 20.3533 14.8665 20.4478 15.1569L18.0592 13.6802L16.3049 10.3786C16.2411 10.2585 16.1652 10.1475 16.0796 10.0461V7.66106C16.0796 6.91831 16.6547 6.30769 17.383 6.25006H27.7049V12.6859ZM15.0308 6.64631C14.9015 6.95931 14.8296 7.30187 14.8296 7.661V9.38519H13.1055C12.745 9.38519 12.4012 9.4575 12.0872 9.58775C12.6323 8.25556 13.6981 7.19044 15.0308 6.64631ZM11.6896 12.0511C11.6896 11.3489 12.2034 10.7648 12.8748 10.6543C12.8686 10.6726 12.8619 10.6909 12.8562 10.7096C12.7097 11.1886 12.7584 11.6959 12.9934 12.1381L14.7133 15.375H11.6896V12.0511ZM9.43706 3.75H26.0378V5H9.43706V3.75ZM7.77 6.25H13.1868C11.5239 7.45187 10.4396 9.40706 10.4396 11.611V15.375H7.77V6.25ZM16.3082 15.534C16.2152 15.4759 16.1389 15.3941 16.0875 15.2972L14.0972 11.5516C14.0189 11.4042 14.0027 11.2351 14.0516 11.0754C14.1004 10.9158 14.2085 10.7848 14.356 10.7064C14.5034 10.6281 14.6726 10.6118 14.8321 10.6608C14.9917 10.7096 15.1228 10.8178 15.2011 10.9651L17.0341 14.4148C17.0856 14.5117 17.1618 14.5934 17.2549 14.6516L18.6041 15.4944L18.1001 16.6533L16.3082 15.534ZM26.5635 29.7788L26.333 30.75H24.4046L24.5438 28.9225C24.5701 28.5783 24.3123 28.278 23.9681 28.2519C23.6234 28.2248 23.3236 28.4834 23.2975 28.8276L23.151 30.75H21.0869L20.7903 29.5179C20.5279 28.4283 20.5155 27.2893 20.7507 26.1962H26.6352C26.8651 27.3779 26.8418 28.6067 26.5635 29.7788ZM26.6666 18.5484C26.5693 18.6616 26.5158 18.8059 26.5157 18.9551L26.511 24.9461H20.9195L21.1629 20.117C21.1731 19.915 21.0848 19.7205 20.9261 19.5951L18.8849 17.9827L19.6795 16.1558L21.3756 17.1451C21.4711 17.2009 21.5799 17.2302 21.6905 17.2302H24.5061C24.6539 17.2302 24.797 17.1779 24.9099 17.0824L26.9463 15.3592L28.2144 16.7462L26.6666 18.5484ZM30.5866 13.2284L28.6483 15.3684L27.8011 14.4418L29.2711 12.8187C29.3944 12.6825 29.4516 12.499 29.4274 12.3169L29.0796 9.69744C29.0342 9.356 29.2755 9.04112 29.6169 8.99562C29.7825 8.9735 29.9466 9.01744 30.0791 9.11894C30.2117 9.22044 30.2968 9.36744 30.3188 9.53294L30.7429 12.7267C30.7671 12.9091 30.7101 13.092 30.5866 13.2284Z" fill="#101840"/>
<path d="M16.252 1.25C16.5971 1.25 16.877 0.970178 16.877 0.625C16.877 0.279822 16.5971 0 16.252 0C15.9068 0 15.627 0.279822 15.627 0.625C15.627 0.970178 15.9068 1.25 16.252 1.25Z" fill="#101840"/>
</svg>
