<svg width="48" height="48" viewBox="0 0 48 48" fill="none" xmlns="http://www.w3.org/2000/svg">
<g clip-path="url(#clip0_897_12271)">
<path d="M46.6586 2.98134H46.0126V0.745312C46.0126 0.333656 45.679 0 45.2673 0H39.5034C39.0916 0 38.7581 0.33375 38.7581 0.745312V2.98134H37.9134C37.5016 2.98134 37.1681 3.31509 37.1681 3.72666V6.11175C37.1681 6.52341 37.5017 6.85706 37.9134 6.85706H38.7581V9.09309C38.7581 9.50475 39.0917 9.83841 39.5034 9.83841C39.9151 9.83841 40.2487 9.50466 40.2487 9.09309V6.85716H44.522V17.6397C44.522 22.1605 40.844 25.8384 36.3233 25.8384H30.7084V21.3664H36.5221C38.577 21.3664 40.2488 19.6946 40.2488 17.6396V13.0682C40.2488 12.6565 39.9151 12.3229 39.5035 12.3229C39.0917 12.3229 38.7582 12.6566 38.7582 13.0682V17.6396C38.7582 18.8726 37.7551 19.8757 36.5221 19.8757H30.7085V18.8322C30.7085 18.4206 30.3749 18.0869 29.9632 18.0869H27.5781C27.1664 18.0869 26.8328 18.4207 26.8328 18.8322V19.8757H25.1431V14.6086H25.9428C26.2682 15.7542 27.3231 16.5962 28.5716 16.5962C30.0784 16.5962 31.3045 15.3702 31.3045 13.8633C31.3045 12.3563 30.0784 11.1304 28.5716 11.1304C27.3231 11.1304 26.2681 11.9723 25.9428 13.118H22.8526C22.5271 11.9723 21.4723 11.1304 20.2238 11.1304C18.717 11.1304 17.4909 12.3563 17.4909 13.8633C17.4909 15.3702 18.717 16.5962 20.2238 16.5962C21.4723 16.5962 22.5272 15.7542 22.8526 14.6086H23.6523V19.8757H21.9629V18.8322C21.9629 18.4206 21.6292 18.0869 21.2176 18.0869H18.8325C18.4207 18.0869 18.0871 18.4207 18.0871 18.8322V19.8757H11.8759C6.53312 19.8757 2.18649 24.2223 2.18649 29.5651V32.9439C2.18649 33.3556 2.52015 33.6892 2.9318 33.6892C3.34355 33.6892 3.67712 33.3555 3.67712 32.9439V29.5651C3.67712 25.0443 7.35512 21.3664 11.8758 21.3664H18.0871V25.8384H11.6771C9.62209 25.8384 7.95034 27.5102 7.95034 29.5652V40.9441H3.6773V36.9192C3.6773 36.5076 3.34365 36.1739 2.93199 36.1739C2.52024 36.1739 2.18668 36.5077 2.18668 36.9192V40.9441H1.34199C0.930242 40.9441 0.59668 41.2778 0.59668 41.6894V44.0745C0.59668 44.4862 0.930336 44.8198 1.34199 44.8198H2.18668V47.0558C2.18668 47.4675 2.52034 47.8012 2.93199 47.8012H8.69593C9.10768 47.8012 9.44124 47.4674 9.44124 47.0558V44.8198H10.0872C10.4989 44.8198 10.8325 44.4861 10.8325 44.0745V41.6894C10.8325 41.2778 10.4988 40.9441 10.0872 40.9441H9.44124V29.5652C9.44124 28.3322 10.4444 27.3292 11.6773 27.3292H18.0872V28.3726C18.0872 28.7842 18.4209 29.1179 18.8326 29.1179H21.2176C21.6294 29.1179 21.963 28.7842 21.963 28.3726V27.3292H26.8325V28.3726C26.8325 28.7842 27.1662 29.1179 27.5778 29.1179H29.9629C30.3747 29.1179 30.7082 28.7842 30.7082 28.3726V27.3292H36.3231C41.6659 27.3292 46.0126 22.9825 46.0126 17.6397V6.85716H46.6585C47.0702 6.85716 47.4038 6.52341 47.4038 6.11184V3.72675C47.404 3.31509 47.0703 2.98134 46.6586 2.98134ZM28.5717 12.6211C29.2567 12.6211 29.814 13.1783 29.814 13.8634C29.814 14.5484 29.2567 15.1056 28.5717 15.1056C27.8866 15.1056 27.3295 14.5483 27.3295 13.8634C27.3295 13.1784 27.8866 12.6211 28.5717 12.6211ZM20.2238 15.1056C19.5388 15.1056 18.9815 14.5483 18.9815 13.8634C18.9815 13.1784 19.5388 12.6211 20.2238 12.6211C20.9088 12.6211 21.466 13.1783 21.466 13.8634C21.466 14.5484 20.9088 15.1056 20.2238 15.1056ZM7.95052 46.3105H3.6773V44.8198H7.95062L7.95052 46.3105ZM9.34187 43.3292H2.08721V42.4348H9.34187V43.3292ZM20.4723 27.6274H19.578V19.5777H20.4723V27.6274ZM26.8325 25.8385H21.963V21.3665H26.8325V25.8385ZM29.2176 27.6274H28.3232V19.5777H29.2176V27.6274ZM40.2487 1.49072H44.522V2.98144H40.2487V1.49072ZM45.9133 5.36644H38.6586V4.47206H45.9133V5.36644Z" fill="#F47629"/>
<path d="M28.2779 34.9524C28.0695 34.5973 27.6129 34.4783 27.2579 34.6866C26.9028 34.895 26.7839 35.3516 26.9921 35.7066C29.1009 39.301 29.4157 40.8735 29.4157 41.4908C29.4157 44.2581 27.1643 46.5095 24.397 46.5095C21.6297 46.5095 19.3784 44.2581 19.3784 41.4908C19.3784 39.3473 22.5846 34.2704 24.3953 31.6538C24.66 32.0372 24.9946 32.5303 25.364 33.0934C25.5897 33.4376 26.0519 33.5336 26.396 33.3079C26.7402 33.0822 26.8362 32.62 26.6105 32.2758C25.7098 30.9025 25.0288 29.9621 25.0003 29.9227C24.7076 29.5192 24.0864 29.5192 23.7936 29.9227C23.1892 30.7563 17.8877 38.1618 17.8877 41.4908C17.8877 45.0801 20.8077 48.0002 24.397 48.0002C27.9864 48.0002 30.9064 45.0801 30.9064 41.4908C30.9064 40.106 30.0466 37.9671 28.2779 34.9524Z" fill="#F47629"/>
<path d="M26.2214 36.1593C26.013 35.8042 25.5564 35.6853 25.2014 35.8936C24.8462 36.1019 24.7274 36.5585 24.9356 36.9136C26.9571 40.3595 27.0292 41.4549 27.0312 41.4907C27.0312 42.9428 25.8497 44.1243 24.3977 44.1243C23.9859 44.1243 23.6523 44.458 23.6523 44.8696C23.6523 45.2811 23.986 45.6149 24.3977 45.6149C26.6717 45.6149 28.5219 43.7647 28.5219 41.4906C28.5219 41.16 28.3561 39.7981 26.2214 36.1593Z" fill="#F47629"/>
</g>
<defs>
<clipPath id="clip0_897_12271">
<rect width="48" height="48" fill="white"/>
</clipPath>
</defs>
</svg>
