<svg width="48" height="48" viewBox="0 0 48 48" fill="none" xmlns="http://www.w3.org/2000/svg">
<g clip-path="url(#clip0_798_26838)">
<path d="M47.4911 17.94C47.8192 17.5297 48 17.0145 48 16.4891V1.54839C48 0.694645 47.3054 0 46.4516 0H38.7097C37.8559 0 37.1613 0.694645 37.1613 1.54839V16.4892C37.1613 17.0145 37.3421 17.5297 37.6702 17.9401L40.2581 21.1748V23.2258H38.7097C37.8559 23.2258 37.1613 23.9205 37.1613 24.7742V43.9783L30.9677 38.5926V8.51613H31.4213C31.8348 8.51613 32.2238 8.355 32.5161 8.06255L35.0655 5.51323C35.4185 5.16029 35.6129 4.69084 35.6129 4.19158C35.6129 3.16103 34.7745 2.32258 33.7439 2.32258H20.129C19.2753 2.32258 18.5806 3.01723 18.5806 3.87097V6.96774C18.5806 7.82148 19.2753 8.51613 20.129 8.51613H23.2258V31.8605L18.5806 27.8212V14.1152C18.5806 13.9363 18.5598 13.7572 18.5189 13.5832L15.6406 1.35048C15.4535 0.55529 14.7524 0 13.9355 0C13.1186 0 12.4175 0.55529 12.2303 1.35048L9.35207 13.5831C9.31113 13.7572 9.29032 13.9362 9.29032 14.1152V19.7426L3.13074 14.3865C2.79619 14.0956 2.36797 13.9355 1.92474 13.9355H1.83794C0.824516 13.9355 0 14.76 0 15.7734V46.1621C0 47.1755 0.824516 48 1.83794 48H36.8718C37.3396 48 37.7656 47.8229 38.0904 47.5342C38.4789 47.8265 38.9615 48 39.484 48H45.6775C46.9582 48 48.0001 46.958 48.0001 45.6774V24.7742C48.0001 23.9205 47.3055 23.2258 46.4517 23.2258H44.9033V21.1748L47.4911 17.94ZM41.4044 20.129L38.9269 17.0323H46.2344L43.7569 20.129H41.4044ZM40.2581 4.19158C40.5505 4.48403 40.9394 4.64516 41.3529 4.64516H43.8083C44.2218 4.64516 44.6108 4.48403 44.9031 4.19158L46.4515 2.64319V15.4839H38.7096V2.64319L40.2581 4.19158ZM39.8045 1.54839H45.3567L43.8083 3.09677H41.3529L39.8045 1.54839ZM24.7742 8.51613H26.3226V6.96774H20.129V3.87097H33.7439C33.9207 3.87097 34.0645 4.01477 34.0645 4.19158C34.0645 4.27723 34.0311 4.35774 33.9706 4.41832L31.4213 6.96774H27.871V8.51613H29.4194V37.2462L24.7742 33.2069V8.51613ZM9.29032 40.2581H7.74194V26.4803L9.29032 27.8352V40.2581ZM10.8387 15.4839H13.1613V40.2581H10.8387V15.4839ZM17.0112 13.9355H10.8599L12.6815 6.19355H15.1896L17.0112 13.9355ZM14.7097 15.4839H17.0323V40.2581H14.7097V15.4839ZM18.5806 35.9642L23.4879 40.2581H18.5806V35.9642ZM13.9355 1.54839C14.0303 1.54839 14.1117 1.61284 14.1334 1.70516L14.8252 4.64516H13.0458L13.7376 1.70516C13.7593 1.61284 13.8406 1.54839 13.9355 1.54839ZM36.8717 46.4516H30.9677V44.9032H29.4194V46.4516H27.871V43.3548H26.3226V46.4516H24.7742V44.9032H23.2258V46.4516H21.6774V43.3548H20.129V46.4516H18.5806V44.9032H17.0323V46.4516H15.4839V43.3548H13.9355V46.4516H12.3871V44.9032H10.8387V46.4516H9.29032V43.3548H7.74194V46.4516H6.19355V44.9032H4.64516V46.4516H1.83794C1.67835 46.4516 1.54839 46.3217 1.54839 46.1621V44.9032H3.09677V43.3548H1.54839V41.8064H4.64516V40.2581H1.54839V38.7097H3.09677V37.1613H1.54839V35.6129H4.64516V34.0645H1.54839V32.5161H3.09677V30.9677H1.54839V29.4194H4.64516V27.871H1.54839V26.3226H3.09677V24.7742H1.54839V23.2258H4.64516V21.6774H1.54839V20.129H3.09677V18.5806H1.54839V15.7734C1.54839 15.6138 1.67826 15.4839 1.83794 15.4839H1.92474C1.99461 15.4839 2.06206 15.5091 2.11471 15.5549L9.29032 21.7945V25.7777L6.19355 23.0681V41.8064H27.6089L18.5806 33.9068V29.8731L37.0617 45.9435C37.125 45.9986 37.1613 46.0783 37.1613 46.1621C37.1613 46.3217 37.0314 46.4516 36.8717 46.4516ZM45.6774 46.4516H39.4839C39.057 46.4516 38.7097 46.1043 38.7097 45.6774V27.871H46.4516V45.6774C46.4516 46.1043 46.1043 46.4516 45.6774 46.4516ZM46.4516 26.3226H38.7097V24.7742H46.4516V26.3226ZM41.8065 23.2258V21.6774H43.3548V23.2258H41.8065Z" fill="#F47629"/>
</g>
<defs>
<clipPath id="clip0_798_26838">
<rect width="48" height="48" fill="white"/>
</clipPath>
</defs>
</svg>
