<svg width="48" height="48" viewBox="0 0 48 48" fill="none" xmlns="http://www.w3.org/2000/svg">
<g clip-path="url(#clip0_798_25318)">
<path d="M17.6066 16.8008C17.1679 16.8008 16.811 17.1541 16.8066 17.5928C16.8049 18.0348 17.1599 18.3955 17.6018 18.4008C18.0437 18.4008 18.4018 18.0426 18.4018 17.6008C18.4018 17.1591 18.0436 16.8009 17.6018 16.8009H17.6066V16.8008Z" fill="white"/>
<path d="M29.3139 13.0796C29.3185 12.0993 29.1167 11.129 28.7219 10.2317C28.0781 8.54073 26.7082 7.22897 24.991 6.6591C23.9764 6.26274 22.8447 6.29396 21.8535 6.74553C20.6669 7.23647 19.9011 8.40293 19.9225 9.68695C19.9267 10.3699 19.8149 11.0485 19.5921 11.694C19.4729 12.1727 19.1934 12.5961 18.8002 12.8939C18.682 10.9937 17.9717 9.1782 16.7691 7.70228C15.8803 6.57135 14.5276 5.90314 13.0893 5.88477C12.1093 5.88814 11.1403 6.09035 10.2407 6.47911C8.54563 7.12051 7.23012 8.49208 6.66015 10.2125C6.26989 11.2253 6.30336 12.3524 6.75296 13.3403C7.24033 14.5319 8.40792 15.3033 9.69522 15.2842C10.3782 15.2862 11.0564 15.3981 11.7039 15.6154C12.1824 15.7331 12.606 16.0115 12.9038 16.4041C11.0058 16.5251 9.19275 17.2348 7.71693 18.4344C6.5844 19.3243 5.91469 20.6781 5.89463 22.1182C5.88938 23.1001 6.0899 24.072 6.48344 24.9716C7.12672 26.6644 8.49829 27.9773 10.2177 28.5458C10.706 28.7187 11.2195 28.8098 11.7375 28.8154C12.2946 28.817 12.8449 28.6935 13.3479 28.4538C14.5353 27.9642 15.3027 26.7983 15.283 25.514C15.279 24.83 15.3925 24.1503 15.6181 23.5045C15.7359 23.0262 16.014 22.6028 16.406 22.3046C16.5258 24.2035 17.2359 26.0175 18.4371 27.4931C19.3215 28.6299 20.6765 29.3006 22.1168 29.3145H22.2464C23.1836 29.2964 24.1079 29.0934 24.9662 28.717C26.6594 28.0733 27.9726 26.7011 28.5411 24.9812C28.9308 23.9692 28.8979 22.8432 28.4499 21.8557C27.9652 20.6622 26.7957 19.8902 25.5077 19.9134C24.8243 19.916 24.1453 19.8038 23.499 19.5815C23.0197 19.4632 22.5959 19.1832 22.2991 18.7887C24.1983 18.6695 26.0133 17.9616 27.4916 16.7633C28.6261 15.8752 29.2964 14.5202 29.3139 13.0796ZM17.6026 20.8007C15.8354 20.7994 14.4038 19.3657 14.4051 17.5985C14.4064 15.8313 15.8402 14.3998 17.6074 14.4011C19.3745 14.4024 20.8061 15.8361 20.8048 17.6033C20.8035 19.3705 19.3697 20.802 17.6026 20.8007ZM12.2197 14.1067C11.4047 13.8273 10.5487 13.6859 9.68697 13.6883C9.0182 13.704 8.41533 13.2875 8.19343 12.6564C7.92729 12.0457 7.91923 11.3533 8.17103 10.7365C8.5925 9.45353 9.5771 8.43349 10.8444 7.96711C11.5381 7.65644 12.2891 7.49483 13.0491 7.49277C14.0186 7.49352 14.9326 7.9449 15.5226 8.71426C16.4774 9.88625 17.0574 11.3184 17.1873 12.8244C15.7673 12.9489 14.4762 13.6981 13.6635 14.8691C13.2338 14.5273 12.7441 14.2684 12.2196 14.1059V14.1067H12.2197ZM14.1075 22.9862C13.824 23.8009 13.6804 24.6578 13.6827 25.5205C13.6966 26.1881 13.2824 26.79 12.654 27.0156C12.0429 27.2812 11.3502 27.2879 10.7341 27.034C9.45064 26.6136 8.42995 25.6294 7.9631 24.3622C7.65422 23.6691 7.49269 22.9195 7.48876 22.1607C7.49157 21.187 7.94792 20.2701 8.72309 19.6809C9.89424 18.7285 11.3239 18.149 12.8277 18.017C12.9228 19.14 13.4128 20.1929 14.2108 20.9888C14.4148 21.192 14.6365 21.3768 14.8732 21.5408C14.5308 21.9708 14.2712 22.4607 14.1077 22.9855V22.9862H14.1075ZM22.987 21.0983C23.7761 21.3745 24.6059 21.5173 25.4421 21.5207C26.1329 21.4906 26.7654 21.906 27.0124 22.5518C27.2768 23.1632 27.2835 23.8554 27.0307 24.4717C26.611 25.7547 25.6277 26.7754 24.3613 27.2427C23.6696 27.5551 22.9195 27.717 22.1606 27.7179C21.1881 27.7137 20.2724 27.2594 19.6808 26.4876C18.7273 25.316 18.1474 23.8854 18.0161 22.3806C19.4365 22.2568 20.7282 21.5078 21.5414 20.3367C21.9716 20.6777 22.4615 20.9357 22.9861 21.0974L22.987 21.0983ZM26.4876 15.521C25.3151 16.472 23.8847 17.0498 22.3806 17.1801C22.2542 15.7611 21.5039 14.4716 20.3328 13.6603C20.6735 13.2308 20.9335 12.7428 21.0999 12.2204C21.3838 11.4042 21.5265 10.5456 21.5223 9.68132C21.5079 9.0133 21.9221 8.41099 22.5511 8.18544C23.1645 7.91893 23.8602 7.91405 24.4773 8.17185C25.7595 8.59267 26.7796 9.57558 27.2476 10.8413C27.5571 11.5332 27.7161 12.2831 27.7139 13.0412C27.7152 14.014 27.2614 14.9315 26.4876 15.521Z" fill="white"/>
<path d="M17.6018 35.1997C19.5677 35.2024 21.5201 34.8735 23.3766 34.2269C23.6533 34.1381 23.8601 33.9064 23.9169 33.6214C23.9736 33.3364 23.8714 33.0431 23.6498 32.8551C23.4282 32.6672 23.1222 32.6141 22.8503 32.7166C16.4337 34.9462 9.30879 32.8808 5.07941 27.5653C0.850032 22.2498 0.438213 14.8429 4.05253 9.09134C7.66685 3.33974 14.5189 0.497596 21.143 2.00229C27.7671 3.50698 32.7188 9.0306 33.4936 15.7792C33.5433 16.2184 33.9397 16.534 34.3788 16.4843C34.8179 16.4346 35.1336 16.0383 35.0839 15.5992C34.0081 6.20064 25.6949 -0.666054 16.2624 0.052591C6.82981 0.771236 -0.347273 8.8178 0.0129875 18.2709C0.373248 27.724 8.14185 35.2011 17.6018 35.1997Z" fill="white"/>
<path d="M46.5408 0.627305L45.5328 0.192143C44.6502 -0.180023 43.631 0.00493527 42.9353 0.663303L39.8796 3.58391C39.3268 4.1191 39.0599 4.88415 39.1596 5.64695L39.6228 9.01716C39.6425 9.16031 39.6234 9.30617 39.5676 9.43957L33.7335 23.1027L33.6726 23.0771C32.9308 22.7601 32.0793 22.837 31.4063 23.2818C30.7333 23.7266 30.3288 24.4798 30.3296 25.2866L30.3336 28.212C30.3346 28.4472 30.2308 28.6706 30.0504 28.8215L26.8154 31.5678C26.5305 31.8093 26.3055 32.1135 26.1579 32.4566L22.8509 40.2017C22.219 41.6848 22.2562 43.3681 22.953 44.8218C23.6498 46.2754 24.9387 47.3587 26.4907 47.7949C26.9679 47.9305 27.4617 47.9991 27.9578 47.9989C30.2616 47.9697 32.3277 46.5746 33.2159 44.4487L36.4573 36.8556C36.6041 36.5129 36.669 36.1406 36.6469 35.7685L36.3909 31.5287C36.3771 31.2941 36.4673 31.0653 36.6372 30.9031L38.7523 28.88C39.3216 28.3398 39.5889 27.5542 39.4672 26.7788C39.3454 26.0035 38.8502 25.3376 38.1427 24.9979L43.9823 11.3187C44.0412 11.1843 44.1344 11.0679 44.2526 10.9811L47.0069 8.98763C47.627 8.5354 47.9952 7.81526 47.9988 7.04777L47.9908 2.82561C47.9928 1.86811 47.4217 1.00247 46.5408 0.627305ZM37.6484 27.7265L35.5318 29.7472C35.0212 30.234 34.7514 30.9213 34.7942 31.6254L35.0502 35.8652C35.0571 35.9893 35.0352 36.1133 34.9862 36.2276L31.7439 43.82C30.9748 45.7229 28.9169 46.7639 26.9282 46.2559C25.818 45.9456 24.8952 45.1723 24.3958 44.1332C23.8964 43.0942 23.8689 41.8904 24.3203 40.8297L27.6273 33.0854C27.6766 32.9709 27.7519 32.8696 27.8474 32.7895L31.084 30.0425C31.623 29.5865 31.9333 28.9158 31.9319 28.2098L31.9279 25.2851C31.9276 25.0161 32.0627 24.7649 32.2872 24.6167C32.5117 24.4685 32.7957 24.4431 33.043 24.5491L33.803 24.8739C33.8159 24.8796 33.8238 24.8907 33.8366 24.8964C33.8494 24.902 33.863 24.8964 33.8758 24.9043L36.7556 26.1339C36.766 26.1339 36.7724 26.1475 36.7828 26.1515C36.7932 26.1555 36.8036 26.1515 36.814 26.1587L37.4099 26.4131C37.6572 26.5185 37.8351 26.741 37.8834 27.0053C37.9316 27.2697 37.844 27.5407 37.6499 27.7267H37.6484V27.7265ZM46.0656 7.69733L43.3121 9.69081C42.9601 9.94757 42.6838 10.2943 42.5122 10.6947L36.6765 24.3595L35.2054 23.7315L41.045 10.0563C41.2103 9.658 41.2655 9.22255 41.205 8.79554L40.7434 5.43574C40.7092 5.17813 40.7981 4.91949 40.9834 4.73735L44.0376 1.81908C44.27 1.5985 44.6107 1.53578 44.9063 1.65906L45.9111 2.09347C46.2033 2.21749 46.3925 2.50482 46.3911 2.82224L46.399 7.04918C46.3973 7.30613 46.2735 7.54668 46.0656 7.69733Z" fill="white"/>
</g>
<defs>
<clipPath id="clip0_798_25318">
<rect width="48" height="48" fill="white"/>
</clipPath>
</defs>
</svg>
