<svg width="48" height="48" viewBox="0 0 48 48" fill="none" xmlns="http://www.w3.org/2000/svg">
<g clip-path="url(#clip0_897_16715)">
<path d="M40.7572 21.433L40.343 21.4326V18.7936C40.343 16.743 41.1555 14.7827 42.2353 13.5738C43.6768 11.9612 44.4707 9.88081 44.4707 7.71594C44.4707 4.71444 42.911 1.85497 40.4001 0.253439C39.3293 -0.42953 37.9235 0.349158 37.9235 1.61853V7.15831C37.9235 8.39703 36.9158 9.40475 35.6771 9.40475C34.4384 9.40475 33.4306 8.39703 33.4306 7.15831V1.61863C33.4306 0.346251 32.022 -0.427936 30.954 0.253532C28.4432 1.85497 26.8835 4.71444 26.8835 7.71603C26.8835 9.88091 27.6773 11.9613 29.1185 13.5734C30.0446 14.6119 30.8165 16.2792 30.977 18.0614C29.0315 18.2379 27.3228 19.1121 26.2129 20.5214L25.0129 22.0453C24.4122 22.8082 23.5107 23.2457 22.5396 23.2457H21.4741C21.434 21.7675 20.2199 20.577 18.7323 20.577C17.464 20.577 16.3944 21.4423 16.0815 22.6133H5.7913C4.54395 22.6133 3.5293 23.628 3.5293 24.8753V36.7017C3.5293 37.949 4.54405 38.9637 5.7913 38.9637H16.3085C16.7698 39.8314 17.683 40.4238 18.7325 40.4238C20.087 40.4238 21.2147 39.4369 21.436 38.1445H24.1185C24.5192 38.1445 24.9111 38.2197 25.2834 38.368C27.3919 39.1352 28.435 39.8383 31.0113 40.2928V43.3344C31.0113 45.9072 33.1044 48.0003 35.6772 48.0003C38.25 48.0003 40.343 45.9072 40.343 43.3344V39.2661C40.6822 38.7538 40.8503 38.1497 40.8207 37.52C40.794 36.952 40.5936 36.4123 40.2632 35.9621C41.3391 35.5585 42.1063 34.5337 42.1079 33.3363C42.1089 32.4852 41.7949 31.7287 41.2741 31.1844C42.0224 30.6721 42.5278 29.8339 42.5593 28.8887C42.5825 28.1931 42.3547 27.5386 41.956 27.018C42.9727 26.56 43.682 25.5382 43.682 24.354C43.682 22.7432 42.3697 21.433 40.7572 21.433ZM20.0699 37.6798C20.0699 38.4174 19.4699 39.0174 18.7324 39.0174C17.9948 39.0174 17.3949 38.4174 17.3949 37.6798V35.9658C17.3949 35.5775 17.0801 35.2627 16.6918 35.2627C16.3035 35.2627 15.9887 35.5775 15.9887 35.9658V37.5573H5.7913C5.31945 37.5573 4.93555 37.1734 4.93555 36.7016V24.8752C4.93555 24.4033 5.31945 24.0194 5.7913 24.0194H15.9887V32.6766C15.9887 33.0649 16.3035 33.3797 16.6918 33.3797C17.0801 33.3797 17.3949 33.0649 17.3949 32.6766V23.3232C17.3949 23.322 17.3949 23.3209 17.3949 23.3198C17.3954 22.5827 17.9952 21.9832 18.7324 21.9832C19.4699 21.9832 20.0698 22.5832 20.0698 23.3207L20.0699 37.6798ZM30.1674 12.6366C28.9566 11.2821 28.2898 9.53459 28.2898 7.71594C28.2898 5.18994 29.6004 2.78478 31.7103 1.4391C31.8462 1.35228 32.0244 1.45597 32.0244 1.61863V7.15841C32.0244 9.17253 33.663 10.8111 35.6771 10.8111C37.6912 10.8111 39.3298 9.17253 39.3298 7.15841V1.61863C39.3298 1.45625 39.5076 1.3521 39.644 1.4391C41.7538 2.78488 43.0644 5.19003 43.0644 7.71594C43.0644 9.53459 42.3976 11.2821 41.1866 12.6368C39.8855 14.0941 38.9367 16.3846 38.9367 18.7936V21.4315L37.7046 21.4305V19.9797C37.7046 19.5913 37.3898 19.2765 37.0015 19.2765C36.6132 19.2765 36.2984 19.5913 36.2984 19.9797V21.4294L35.0556 21.4284V16.1897C35.0556 15.8471 35.3345 15.5683 35.677 15.5683C36.0197 15.5683 36.2984 15.8471 36.2984 16.1897V16.6903C36.2984 17.0787 36.6132 17.3935 37.0015 17.3935C37.3898 17.3935 37.7046 17.0787 37.7046 16.6903V16.1897C37.7046 15.0717 36.7951 14.1621 35.677 14.1621C34.559 14.1621 33.6494 15.0717 33.6494 16.1897V21.4273L33.1335 21.4269C32.6933 21.4269 32.4166 21.0838 32.4167 20.6586C32.4174 18.9913 32.7318 15.5099 30.1674 12.6366ZM38.9368 43.3341C38.9368 45.1315 37.4745 46.5938 35.6771 46.5938C33.8797 46.5938 32.4174 45.1315 32.4174 43.3341V40.48C32.8266 40.517 33.2375 40.5394 33.6495 40.5463V43.128C33.6495 44.2461 34.5591 45.1557 35.6771 45.1557C36.7952 45.1557 37.7047 44.2461 37.7047 43.128V40.5792C37.7862 40.5735 38.3189 40.6267 38.9368 40.3936V43.3341ZM35.0557 43.128V40.5582L36.2985 40.568V43.128C36.2985 43.4707 36.0198 43.7494 35.6771 43.7494C35.3345 43.7494 35.0557 43.4707 35.0557 43.128ZM40.7567 25.8684H39.8911C39.5028 25.8684 39.188 26.1832 39.188 26.5715V26.5859C39.188 26.9438 39.4567 27.2445 39.8123 27.2847C40.5908 27.3724 41.18 28.0562 41.1538 28.8417C41.1269 29.6478 40.4218 30.3038 39.5816 30.3038L39.2805 30.304C38.8923 30.3042 38.5777 30.6214 38.5777 31.0095C38.5777 31.3873 38.8761 31.6975 39.2536 31.7121C40.0938 31.7447 40.7028 32.4269 40.7016 33.3343C40.7006 34.109 40.0478 34.7392 39.2465 34.7392H38.7736C38.3339 34.7392 37.9761 35.0968 37.9761 35.5365C37.9761 35.8583 38.1683 36.1468 38.4658 36.2715C39.0248 36.5059 39.389 37.0096 39.416 37.5859C39.4569 38.4546 38.7648 39.1746 37.9088 39.1746C34.1121 39.1172 33.371 39.2137 31.7989 38.9939C31.7937 38.9933 31.7886 38.9923 31.7834 38.9919C29.0406 38.6057 27.7394 37.7534 25.8038 37.0615C25.2652 36.847 24.6982 36.7381 24.1185 36.7381H21.4761V24.6519H22.5398C23.9447 24.6519 25.2488 24.0189 26.1179 22.9153L27.3178 21.3914C28.1688 20.3109 29.4895 19.6305 31.0106 19.4705V20.6586C31.0102 21.8623 31.9165 22.8333 33.1331 22.8333C34.0475 22.8341 38.7322 22.8378 39.6395 22.8386H39.64H39.6406L40.7568 22.8395C41.5944 22.8395 42.2759 23.5189 42.2759 24.3541C42.2758 25.189 41.5943 25.8684 40.7567 25.8684Z" fill="#F47629"/>
</g>
<defs>
<clipPath id="clip0_897_16715">
<rect width="48" height="48" fill="white"/>
</clipPath>
</defs>
</svg>
