<svg width="94" height="90" viewBox="0 0 94 90" fill="none" xmlns="http://www.w3.org/2000/svg">
<path d="M93.7243 26.9973L83.5084 10.3671C83.2198 9.90016 82.7431 9.58236 82.2008 9.49561C81.6592 9.40887 81.1063 9.5629 80.6872 9.91719L53.6604 32.7947L43.8856 23.247C44.5998 20.8286 44.6152 18.257 43.9294 15.8305C48.7839 11.7364 54.9835 8.15956 58.8157 9.59209C59.6451 9.90746 60.5822 9.59858 61.0606 8.85191C61.5397 8.10443 61.4294 7.12428 60.7955 6.50246C60.6495 6.35734 46.0972 -7.5302 31.5327 5.92118C27.5286 5.60256 23.5821 7.02699 20.704 9.82882C17.8617 12.5771 16.3894 16.4467 16.6845 20.3892C13.7294 23.1091 11.5535 23.9174 10.6163 24.1574C7.95716 22.2644 4.32759 22.5327 1.97571 24.7954C0.712618 26.0188 0 27.701 0 29.4586C0 31.2163 0.712618 32.8993 1.9749 34.1227L15.5957 47.4265C18.2297 49.9705 22.4049 49.9705 25.0389 47.4265C27.3827 45.1695 27.6762 41.5188 25.724 38.9156C25.9858 37.9647 26.8282 35.8746 29.5668 33.0412C31.1987 33.1547 32.838 32.9861 34.4124 32.545L43.4867 41.407L30.8242 52.1254C28.9101 50.9239 23.4969 49.1404 14.1834 58.2366C13.1076 59.2873 11.6767 60.9152 11.6767 62.9055C11.6767 65.1155 13.2844 66.6842 15.3193 68.6705C17.8187 71.1131 20.8086 70.6364 22.8986 69.422L32.6799 78.9763C32.0411 79.9872 31.69 81.1522 31.6641 82.3472C31.6624 83.8446 32.2916 85.2488 33.4801 86.4113C35.3358 88.2225 37.1267 89.9728 39.3326 89.9728C40.7084 89.972 42.2455 89.291 44.0591 87.5188C48.8666 82.8239 51.3036 78.5547 51.3036 74.8311C51.3247 73.6085 51.015 72.4022 50.407 71.3418L52.5724 69.2258C52.9332 68.8748 53.1358 68.3924 53.1358 67.8889V63.1098H58.0674C59.1035 63.1114 59.9458 62.2731 59.9475 61.237V57.4842L73.4864 70.7094C76.1204 73.2526 80.2948 73.2526 82.9288 70.7102C84.1919 69.4869 84.9045 67.8046 84.9045 66.047C84.9045 64.2894 84.1919 62.6063 82.9296 61.3829L71.0761 49.8043H71.6882C72.7243 49.8068 73.5666 48.9677 73.5683 47.9316V43.1524H78.499C79.5351 43.154 80.3766 42.3158 80.3791 41.2797V36.5005H85.3098C86.3467 36.5021 87.1883 35.6638 87.1899 34.6269V29.8478H92.1207C92.7992 29.8502 93.4267 29.4854 93.7591 28.8936C94.0923 28.3018 94.0785 27.5762 93.7243 26.9973ZM22.4057 44.7528C21.2407 45.878 19.3939 45.878 18.2281 44.7528L4.60729 31.4481C4.06573 30.9285 3.76009 30.2102 3.76009 29.4595C3.76009 28.7087 4.06573 27.9904 4.60729 27.4708C5.77229 26.3447 7.6199 26.3447 8.7849 27.4708L22.4057 40.7746C22.9473 41.2951 23.2529 42.0134 23.2529 42.7641C23.2529 43.5148 22.9473 44.2323 22.4057 44.7528ZM29.0722 29.2243C28.3864 29.1327 27.7062 29.427 27.3049 29.9905C24.9489 32.3326 23.6088 34.3748 22.8459 35.959L13.6824 27.0087C15.269 26.2701 17.3031 24.9892 19.6355 22.7662C19.6785 22.7394 19.7198 22.7119 19.7612 22.6827C20.3279 22.2749 20.6197 21.5842 20.5184 20.8934C20.0417 17.8046 21.0924 14.6769 23.3364 12.5026C25.6372 10.2723 28.8501 9.24916 32.0159 9.73883C32.7148 9.83287 33.4071 9.52237 33.8011 8.93784C41.4356 1.67871 48.9915 3.53443 53.6206 5.98522C48.304 7.37316 43.0311 11.5889 40.4952 13.8402C39.9074 14.3615 39.7088 15.1949 39.9982 15.9254C40.9005 18.2092 40.9005 20.7508 39.9958 23.0329C38.8819 25.6977 36.8494 27.581 34.1935 28.6771C32.5583 29.2819 30.7982 29.47 29.0722 29.2243ZM38.1117 30.9123C39.7566 29.8762 41.1592 28.4963 42.222 26.8684L50.7831 35.2309L46.3639 38.9716L38.1117 30.9123ZM41.4267 84.845C39.3391 86.884 39.2175 86.7688 36.1133 83.7368C35.4996 83.1368 35.4258 82.6634 35.4234 82.3602C35.4161 81.4181 36.1992 80.4234 36.4919 80.1275C36.8526 79.7764 37.0561 79.2941 37.0561 78.7906C37.0561 78.2872 36.8526 77.8056 36.4919 77.4537L24.3839 65.627C23.6518 64.9128 22.4835 64.9128 21.7515 65.627C21.5366 65.8346 19.6128 67.619 17.9508 65.9959C16.6586 64.7336 15.4368 63.5411 15.4368 62.9055C15.4368 62.7109 15.5706 62.1264 16.8166 60.9103C25.3251 52.5989 28.9328 55.3699 28.9401 55.3666L46.535 72.5522C46.5366 72.5538 46.5382 72.5538 46.5399 72.5554L47.0539 73.0564C47.083 73.0905 49.9116 76.5563 41.4267 84.845ZM81.1444 66.047C81.1436 66.7977 80.8379 67.5152 80.2972 68.0349C79.1314 69.1601 77.2846 69.1601 76.1196 68.0349L64.2653 56.4571H64.8782C65.9143 56.4587 66.7558 55.6204 66.7583 54.5835V50.8323L80.2972 64.0575C80.8379 64.578 81.1436 65.2963 81.1444 66.047ZM85.3098 26.1023C84.2738 26.1007 83.4322 26.9389 83.4306 27.975V32.7542H78.499C77.4621 32.7526 76.6206 33.5909 76.619 34.6269V39.4069H71.6882C70.6521 39.4045 69.8106 40.2428 69.8082 41.2797V46.0588H64.8782C63.8413 46.0564 62.9998 46.8955 62.9982 47.9316V52.7107H58.0674C57.0313 52.7091 56.1898 53.5474 56.1874 54.5835V59.3643H51.2558C50.2197 59.3618 49.3782 60.2001 49.3757 61.237V67.1025L47.8516 68.5918L33.6106 54.6824L47.4884 42.9351L47.4908 42.9335L54.7873 36.7575L54.7889 36.7551L81.4476 14.1888L88.7667 26.1023H85.3098Z" fill="white" fill-opacity="0.1"/>
<path d="M30.4383 61.5621C29.6997 60.8357 28.512 60.8446 27.7848 61.5832C27.0576 62.3218 27.0673 63.5095 27.8059 64.2367L38.0217 74.2149C38.4992 74.686 39.1916 74.8667 39.8385 74.6884C40.4855 74.51 40.9881 73.9993 41.1559 73.3499C41.3245 72.7005 41.1332 72.0106 40.6541 71.5404L30.4383 61.5621Z" fill="white" fill-opacity="0.1"/>
</svg>
