<svg width="108" height="48" viewBox="0 0 108 48" fill="none" xmlns="http://www.w3.org/2000/svg">
<mask id="mask0_798_30068" style="mask-type:alpha" maskUnits="userSpaceOnUse" x="0" y="0" width="108" height="49">
<path fill-rule="evenodd" clip-rule="evenodd" d="M102.222 26.3079H103.338V25.9609H100.727V26.3079H101.843V29.2851H102.222L102.222 26.3079ZM106.847 26.5927V29.2851H107.222V25.9609H106.842L105.632 27.7744L104.42 25.9609H104.041V29.2851H104.406V26.5969L105.617 28.3728H105.636L106.847 26.5927Z" fill="white"/>
<path fill-rule="evenodd" clip-rule="evenodd" d="M76.6307 35.2262H74.0845C73.6169 35.2262 73.2275 35.3824 72.9152 35.7199C72.2399 36.3693 71.487 36.7073 70.6813 36.7073C68.9927 36.7073 68.0837 35.6418 67.9537 33.5377H76.8385C77.0979 28.1603 75.0456 25.4846 70.6813 25.4846C66.4987 25.51 64.3945 27.8486 64.3945 32.5249C64.3945 37.201 66.4726 39.6169 70.6294 39.7469C74.0064 39.7467 75.8771 38.1363 76.6307 35.2262ZM70.6292 28.3158C72.1103 28.3158 72.9678 29.2515 73.1751 31.0697H68.0053C68.2654 29.2515 69.1488 28.3158 70.6292 28.3158ZM78.4489 39.4347H81.9561V32.2906C81.9561 30.2903 82.9172 29.2768 84.8401 29.2768H86.0089V25.6919H85.5155C80.9171 25.6919 78.5531 27.9005 78.4489 32.343V39.4347ZM90.7627 34.9145H87.2299C87.2299 36.4991 87.7492 37.6945 88.7887 38.4738C89.7239 39.2791 91.1785 39.6948 93.1009 39.6948C96.7382 39.6948 99.3876 38.4478 99.3876 35.0704C99.3876 34.1351 99.0764 33.3038 98.4271 32.6282C97.6737 31.927 96.1407 31.3293 93.8021 30.8619C92.0097 30.5241 91.1268 29.9788 91.1268 29.2768C91.1268 28.5754 91.802 28.212 93.1533 28.212C94.2963 28.212 94.9973 28.5496 95.2313 29.1473C95.4391 29.6931 95.9588 29.9788 96.7643 30.0048H98.9463C98.8681 28.5754 98.3228 27.4584 97.3101 26.6532C96.2708 25.8734 94.8679 25.4844 93.1009 25.4844C89.9575 25.5363 87.6196 26.9392 87.6196 29.9006C87.6459 32.0564 89.2047 33.4078 92.2436 33.9532C94.608 34.3685 95.8032 34.9403 95.8032 35.6415C95.8032 36.5254 95.0757 36.9407 93.6206 36.9407C91.9321 36.9409 90.8404 36.4212 90.7627 34.9145Z" fill="#06132C" stroke="#231F20" stroke-width="0.5" stroke-miterlimit="2.6131"/>
<path fill-rule="evenodd" clip-rule="evenodd" d="M57.197 15.0891L55.6396 14.1797L54.7305 15.7371L56.2871 16.6463L57.197 15.0891Z" fill="url(#paint0_linear_798_30068)"/>
<path fill-rule="evenodd" clip-rule="evenodd" d="M60.4665 16.4566L58.9097 15.5469L58 17.1042L59.5571 18.0139L60.4665 16.4566Z" fill="url(#paint1_linear_798_30068)"/>
<path fill-rule="evenodd" clip-rule="evenodd" d="M62.3298 18.1978L60.773 17.2881L59.8633 18.845L61.4207 19.7549L62.3298 18.1978Z" fill="url(#paint2_linear_798_30068)"/>
<path fill-rule="evenodd" clip-rule="evenodd" d="M60.1618 13.9009L58.6045 12.9912L57.6953 14.5486L59.2526 15.4585L60.1618 13.9009Z" fill="url(#paint3_linear_798_30068)"/>
<path fill-rule="evenodd" clip-rule="evenodd" d="M62.114 7.84877L61.2321 7.33301L60.7168 8.21546L61.5988 8.73075L62.114 7.84877Z" fill="url(#paint4_linear_798_30068)"/>
<path fill-rule="evenodd" clip-rule="evenodd" d="M65.2582 6.59799L64.0384 5.88574L63.3262 7.1053L64.546 7.81777L65.2582 6.59799Z" fill="url(#paint5_linear_798_30068)"/>
<path fill-rule="evenodd" clip-rule="evenodd" d="M62.6157 10.504L61.6262 9.92578L61.1471 10.7453L60.1832 10.1819L59.6055 11.1719L60.5949 11.7501L61.0736 10.931L62.0375 11.4939L62.6157 10.504Z" fill="url(#paint6_linear_798_30068)"/>
<path fill-rule="evenodd" clip-rule="evenodd" d="M62.6585 13.053L61.1011 12.1436L60.1914 13.7009L61.7486 14.6104L62.6585 13.053Z" fill="url(#paint7_linear_798_30068)"/>
<path fill-rule="evenodd" clip-rule="evenodd" d="M65.7134 16.7559L64.156 15.8467L63.2461 17.4038L64.8035 18.3137L65.7134 16.7559Z" fill="url(#paint8_linear_798_30068)"/>
<path fill-rule="evenodd" clip-rule="evenodd" d="M65.5547 19.8518L63.9978 18.9424L63.0879 20.4997L64.6453 21.4097L65.5547 19.8518Z" fill="url(#paint9_linear_798_30068)"/>
<path fill-rule="evenodd" clip-rule="evenodd" d="M67.4881 13.7451L65.9309 12.8359L65.0215 14.3933L66.5761 15.3006L65.7133 16.7772L67.2709 17.6869L68.1806 16.1295L66.6261 15.2215L67.4881 13.7451Z" fill="url(#paint10_linear_798_30068)"/>
<path fill-rule="evenodd" clip-rule="evenodd" d="M66.4646 11.2404L65.3622 10.5965L65.981 9.53636L64.7983 8.8457L64.1074 10.0286L65.2096 10.6723L64.5908 11.7325L65.7735 12.4234L66.4646 11.2404Z" fill="url(#paint11_linear_798_30068)"/>
<path fill-rule="evenodd" clip-rule="evenodd" d="M69.2689 11.2587L67.8722 10.4434L67.0566 11.8397L68.4537 12.6557L69.2689 11.2587Z" fill="url(#paint12_linear_798_30068)"/>
<path fill-rule="evenodd" clip-rule="evenodd" d="M67.4918 8.21535L66.4258 7.59277L65.8027 8.65903L66.869 9.28184L67.4918 8.21535Z" fill="url(#paint13_linear_798_30068)"/>
<path fill-rule="evenodd" clip-rule="evenodd" d="M67.6112 1.5748L66.2142 0.758789L65.3984 2.15582L66.7952 2.97158L67.6112 1.5748Z" fill="url(#paint14_linear_798_30068)"/>
<path fill-rule="evenodd" clip-rule="evenodd" d="M69.6652 8.25507L68.8151 7.75879L68.3184 8.6086L69.1689 9.10558L69.6652 8.25507Z" fill="url(#paint15_linear_798_30068)"/>
<path fill-rule="evenodd" clip-rule="evenodd" d="M54.2052 36.3944C52.349 37.7487 50.4235 38.715 48.5058 39.2958L48.5048 39.2972L48.5029 39.2967C43.2167 40.898 37.9906 39.5674 34.4467 35.3338L34.4449 35.3333C34.0279 34.8847 33.6512 34.3638 33.3075 33.7821C33.1622 33.5548 33.0202 33.3222 32.8828 33.0832C32.9044 33.098 32.9257 33.1123 32.9485 33.1271C31.9703 31.2136 31.2916 28.7562 30.7587 26.0337L30.7606 26.0354C30.101 23.5399 29.8498 20.547 30.132 17.0541C30.1362 17.0764 30.1413 17.0961 30.1449 17.1184C30.1897 21.032 30.7155 25.3562 32.4102 28.9116C33.6511 31.516 35.5565 33.7386 38.3167 34.7655C40.5567 35.5988 42.9775 35.485 45.2457 34.8265C47.6064 34.1405 49.8378 32.8778 51.8276 31.4019C51.9673 31.5024 52.1278 31.5796 52.3039 31.6263C53.081 31.8317 53.8784 31.3688 54.0838 30.5908C54.2894 29.8138 53.8263 29.0163 53.0485 28.8106C52.271 28.6052 51.474 29.0686 51.2684 29.8457C51.186 30.157 51.2111 30.4711 51.3202 30.749C39.6219 39.4117 32.1302 31.2277 31.4379 20.1381C36.6737 37.3546 47.4484 28.7602 54.2592 16.4473L55.7564 17.3215L54.9226 18.75L56.4799 19.6592L57.3138 18.2314L58.9975 19.2148L58.1723 20.6273L59.7292 21.5372L60.5548 20.1242L61.935 20.9304L61.0708 22.4096L62.6277 23.32L63.4921 21.8403L65.0365 22.5725C61.7408 28.1583 59.6109 32.4505 54.2052 36.3944ZM57.0725 26.3558C57.3533 25.9316 57.5831 25.5783 57.6363 25.4914L56.5804 25.3609L57.0725 26.3558ZM56.3518 25.6832L54.8801 24.8243L53.9706 26.3812L55.3055 27.161L56.3518 25.6832ZM54.0535 28.9271L54.0425 28.94H54.0448L54.0535 28.9271ZM55.0864 19.9461L53.5291 19.0364L52.6191 20.5937L54.177 21.5037L55.0864 19.9461ZM56.221 22.8793L54.6637 21.9706L53.7537 23.5273L55.3111 24.4372L56.221 22.8793ZM57.6749 21.225L56.1175 20.3156L55.2078 21.8729L56.7652 22.7821L57.6749 21.225ZM59.9102 22.7986L58.3533 21.8891L57.4434 23.446L59.0007 24.3559L59.9102 22.7986ZM62.8744 24.7475L61.3171 23.8378L60.4074 25.3952L61.9648 26.3044L62.8744 24.7475ZM60.0409 25.6006L58.4841 24.6912L57.5746 26.2485L59.1315 27.158L60.0409 25.6006Z" fill="url(#paint16_linear_798_30068)"/>
<path fill-rule="evenodd" clip-rule="evenodd" d="M64.4838 14.2638L63.5572 13.7227L63.0156 14.6495L63.9427 15.1908L64.4838 14.2638Z" fill="url(#paint17_linear_798_30068)"/>
<path fill-rule="evenodd" clip-rule="evenodd" d="M62.9065 15.6471L61.6461 14.9111L60.9102 16.1713L62.1703 16.907L62.9065 15.6471Z" fill="url(#paint18_linear_798_30068)"/>
<path fill-rule="evenodd" clip-rule="evenodd" d="M67.7381 5.3712L66.8336 4.84277L66.3047 5.74752L67.2099 6.27618L67.7381 5.3712Z" fill="url(#paint19_linear_798_30068)"/>
<path fill-rule="evenodd" clip-rule="evenodd" d="M70.1253 5.67049L69.0313 5.03125L68.3926 6.12522L69.4865 6.76445L70.1253 5.67049Z" fill="url(#paint20_linear_798_30068)"/>
<path fill-rule="evenodd" clip-rule="evenodd" d="M64.6057 3.19948L63.7486 2.69922L63.248 3.55607L64.1052 4.05657L64.6057 3.19948Z" fill="url(#paint21_linear_798_30068)"/>
<path fill-rule="evenodd" clip-rule="evenodd" d="M69.8792 0.639244L68.7852 0L68.1465 1.09397L69.2409 1.7332L69.8792 0.639244Z" fill="url(#paint22_linear_798_30068)"/>
<path fill-rule="evenodd" clip-rule="evenodd" d="M7.19992 25.6067C3.06682 25.6067 1 27.9573 1 32.7097C1 37.4114 3.06659 39.7873 7.19992 39.7873C11.3326 39.7873 13.4247 37.4114 13.4247 32.7097C13.4247 27.9573 11.3328 25.6067 7.19992 25.6067ZM7.19992 28.6289C8.95613 28.6289 9.83433 29.9461 9.83433 32.6069C9.80851 35.319 8.93005 36.7137 7.17385 36.7137C5.41717 36.7137 4.5129 35.3709 4.48754 32.7099C4.48778 29.9978 5.39137 28.6289 7.19992 28.6289ZM26.7275 39.4774V31.4441C26.7534 27.5436 24.8422 25.6064 20.9418 25.6064C17.0413 25.6064 15.0778 27.5434 15.0778 31.4441V39.4774H18.5653V30.7471C18.5912 29.3259 19.3659 28.6287 20.8901 28.6287C22.4142 28.6287 23.1889 29.3259 23.2666 30.7471V37.7724C23.2666 38.8574 23.8344 39.4 24.9713 39.4774H26.7275Z" fill="#06132C" stroke="#231F20" stroke-width="0.5" stroke-miterlimit="2.6131"/>
<path fill-rule="evenodd" clip-rule="evenodd" d="M16.5297 47.9998C17.2546 47.9998 17.6971 47.7343 18.1004 47.3143L17.6638 46.8716C17.3316 47.181 17.0279 47.3693 16.5518 47.3693C15.8109 47.3693 15.2742 46.7554 15.2742 45.9973V45.9861C15.2742 45.2285 15.8163 44.6203 16.5518 44.6203C16.9945 44.6203 17.3265 44.8137 17.6359 45.1013L18.073 44.5982C17.7025 44.244 17.2708 43.9951 16.5574 43.9951C15.3848 43.9951 14.5605 44.897 14.5605 45.9973V46.0084C14.5608 47.1206 15.4017 47.9998 16.5297 47.9998ZM21.0978 47.9336H21.7777V46.584H22.6296L23.5808 47.9336H24.3883L23.343 46.4678C23.8797 46.3129 24.2611 45.9314 24.2611 45.2954V45.2842C24.2611 44.9464 24.1449 44.659 23.9402 44.4489C23.6914 44.2057 23.3097 44.0616 22.8228 44.0616H21.0976L21.0978 47.9336ZM21.7777 45.9809V44.6811H22.7681C23.2714 44.6811 23.57 44.9081 23.57 45.3227V45.3339C23.57 45.7271 23.2601 45.9809 22.7735 45.9809H21.7777ZM27.3799 47.9336H30.2782V47.3249H28.0597V46.2852H30.0014V45.6764H28.0597V44.67H30.2502V44.0618H27.3799V47.9336ZM33.037 47.9336H33.7335L34.1319 46.9983H35.963L36.3553 47.9336H37.0745L35.3709 44.0341H34.7406L33.037 47.9336ZM34.3808 46.396L35.0444 44.8475L35.7137 46.396H34.3808ZM40.475 47.9336H41.1609V44.6923H42.3889V44.0618H39.247V44.6923H40.475V47.9336ZM45.4297 47.9336H46.11V44.0618H45.4297V47.9336ZM50.7049 47.9613H51.308L52.9121 44.0616H52.1766L51.0148 47.0376L49.8478 44.0616H49.0957L50.7049 47.9613ZM55.8587 47.9336H58.757V47.3249H56.5393V46.2852H58.4805V45.6764H56.5393V44.67H58.7298V44.0618H55.8587V47.9336ZM65.4938 47.9336H66.1797V44.6923H67.4077V44.0618H64.2663V44.6923H65.4938V47.9336ZM70.41 47.9336H73.3083V47.3249H71.0901V46.2852H73.0318V45.6764H71.0901V44.67H73.2806V44.0618H70.41V47.9336ZM78.1962 47.9998C78.9208 47.9998 79.3632 47.7343 79.7669 47.3143L79.3303 46.8716C78.9981 47.181 78.6943 47.3693 78.2182 47.3693C77.4773 47.3693 76.9407 46.7554 76.9407 45.9973V45.9861C76.9407 45.2285 77.4827 44.6203 78.2182 44.6203C78.6607 44.6203 78.9925 44.8137 79.3024 45.1013L79.7394 44.5982C79.3685 44.244 78.9373 43.9951 78.2239 43.9951C77.0513 43.9951 76.227 44.897 76.227 45.9973V46.0084C76.2273 47.1206 77.0681 47.9998 78.1962 47.9998ZM82.7636 47.9336H83.4439V46.3018H85.2912V47.9336H85.9715V44.0618H85.2912V45.6715H83.4439V44.0618H82.7636V47.9336Z" fill="#06132C" stroke="#231F20" stroke-width="0.5" stroke-miterlimit="2.6131"/>
</mask>
<g mask="url(#mask0_798_30068)">
<rect x="-2.59961" width="114" height="48" fill="#101111"/>
<path d="M28.5996 0H74.1996L70.5996 14.4L63.9996 28.2L59.7996 40.2L28.5996 40.8V0Z" fill="#FA2D39"/>
</g>
<defs>
<linearGradient id="paint0_linear_798_30068" x1="54.282" y1="16.0925" x2="57.6457" y2="14.7334" gradientUnits="userSpaceOnUse">
<stop stop-color="#1F316F"/>
<stop offset="0.35" stop-color="#00ABE2"/>
<stop offset="1" stop-color="#8DD7F4"/>
</linearGradient>
<linearGradient id="paint1_linear_798_30068" x1="57.5516" y1="17.4599" x2="60.9147" y2="16.1011" gradientUnits="userSpaceOnUse">
<stop stop-color="#1F316F"/>
<stop offset="0.35" stop-color="#00ABE2"/>
<stop offset="1" stop-color="#8DD7F4"/>
</linearGradient>
<linearGradient id="paint2_linear_798_30068" x1="59.415" y1="19.201" x2="62.7785" y2="17.8421" gradientUnits="userSpaceOnUse">
<stop stop-color="#1F316F"/>
<stop offset="0.35" stop-color="#00ABE2"/>
<stop offset="1" stop-color="#8DD7F4"/>
</linearGradient>
<linearGradient id="paint3_linear_798_30068" x1="57.247" y1="14.9042" x2="60.6105" y2="13.5453" gradientUnits="userSpaceOnUse">
<stop stop-color="#1F316F"/>
<stop offset="0.35" stop-color="#00ABE2"/>
<stop offset="1" stop-color="#8DD7F4"/>
</linearGradient>
<linearGradient id="paint4_linear_798_30068" x1="60.463" y1="8.41665" x2="62.3681" y2="7.64693" gradientUnits="userSpaceOnUse">
<stop stop-color="#1F316F"/>
<stop offset="0.35" stop-color="#00ABE2"/>
<stop offset="1" stop-color="#8DD7F4"/>
</linearGradient>
<linearGradient id="paint5_linear_798_30068" x1="62.9751" y1="7.38392" x2="65.6101" y2="6.31929" gradientUnits="userSpaceOnUse">
<stop stop-color="#1F316F"/>
<stop offset="0.35" stop-color="#00ABE2"/>
<stop offset="1" stop-color="#8DD7F4"/>
</linearGradient>
<linearGradient id="paint6_linear_798_30068" x1="59.3018" y1="12.0578" x2="62.9197" y2="9.61752" gradientUnits="userSpaceOnUse">
<stop stop-color="#1F316F"/>
<stop offset="0.35" stop-color="#00ABE2"/>
<stop offset="1" stop-color="#8DD7F4"/>
</linearGradient>
<linearGradient id="paint7_linear_798_30068" x1="59.7428" y1="14.0565" x2="63.1072" y2="12.6972" gradientUnits="userSpaceOnUse">
<stop stop-color="#1F316F"/>
<stop offset="0.35" stop-color="#00ABE2"/>
<stop offset="1" stop-color="#8DD7F4"/>
</linearGradient>
<linearGradient id="paint8_linear_798_30068" x1="62.7982" y1="17.7595" x2="66.1619" y2="16.4005" gradientUnits="userSpaceOnUse">
<stop stop-color="#1F316F"/>
<stop offset="0.35" stop-color="#00ABE2"/>
<stop offset="1" stop-color="#8DD7F4"/>
</linearGradient>
<linearGradient id="paint9_linear_798_30068" x1="62.6396" y1="20.8555" x2="66.003" y2="19.4966" gradientUnits="userSpaceOnUse">
<stop stop-color="#1F316F"/>
<stop offset="0.35" stop-color="#00ABE2"/>
<stop offset="1" stop-color="#8DD7F4"/>
</linearGradient>
<linearGradient id="paint10_linear_798_30068" x1="25.238" y1="26.3445" x2="107.969" y2="4.17669" gradientUnits="userSpaceOnUse">
<stop stop-color="#1F316F"/>
<stop offset="0.35" stop-color="#00ABE2"/>
<stop offset="1" stop-color="#8DD7F4"/>
</linearGradient>
<linearGradient id="paint11_linear_798_30068" x1="49.8609" y1="14.7677" x2="80.7137" y2="6.50072" gradientUnits="userSpaceOnUse">
<stop stop-color="#1F316F"/>
<stop offset="0.35" stop-color="#00ABE2"/>
<stop offset="1" stop-color="#8DD7F4"/>
</linearGradient>
<linearGradient id="paint12_linear_798_30068" x1="66.6547" y1="12.1588" x2="69.6711" y2="10.9401" gradientUnits="userSpaceOnUse">
<stop stop-color="#1F316F"/>
<stop offset="0.35" stop-color="#00ABE2"/>
<stop offset="1" stop-color="#8DD7F4"/>
</linearGradient>
<linearGradient id="paint13_linear_798_30068" x1="65.4957" y1="8.90259" x2="67.799" y2="7.97198" gradientUnits="userSpaceOnUse">
<stop stop-color="#1F316F"/>
<stop offset="0.35" stop-color="#00ABE2"/>
<stop offset="1" stop-color="#8DD7F4"/>
</linearGradient>
<linearGradient id="paint14_linear_798_30068" x1="65.0266" y1="2.46247" x2="67.983" y2="1.26798" gradientUnits="userSpaceOnUse">
<stop stop-color="#1F316F"/>
<stop offset="0.35" stop-color="#00ABE2"/>
<stop offset="1" stop-color="#8DD7F4"/>
</linearGradient>
<linearGradient id="paint15_linear_798_30068" x1="68.0738" y1="8.80312" x2="69.9104" y2="8.06107" gradientUnits="userSpaceOnUse">
<stop stop-color="#1F316F"/>
<stop offset="0.35" stop-color="#00ABE2"/>
<stop offset="1" stop-color="#8DD7F4"/>
</linearGradient>
<linearGradient id="paint16_linear_798_30068" x1="36.6202" y1="30.2247" x2="56.6491" y2="17.7093" gradientUnits="userSpaceOnUse">
<stop stop-color="#1F316F"/>
<stop offset="0.35" stop-color="#00ABE2"/>
<stop offset="1" stop-color="#8DD7F4"/>
</linearGradient>
<linearGradient id="paint17_linear_798_30068" x1="62.749" y1="14.8611" x2="64.7503" y2="14.0525" gradientUnits="userSpaceOnUse">
<stop stop-color="#1F316F"/>
<stop offset="0.35" stop-color="#00ABE2"/>
<stop offset="1" stop-color="#8DD7F4"/>
</linearGradient>
<linearGradient id="paint18_linear_798_30068" x1="60.5471" y1="16.459" x2="63.2696" y2="15.3591" gradientUnits="userSpaceOnUse">
<stop stop-color="#1F316F"/>
<stop offset="0.35" stop-color="#00ABE2"/>
<stop offset="1" stop-color="#8DD7F4"/>
</linearGradient>
<linearGradient id="paint19_linear_798_30068" x1="66.0443" y1="5.95436" x2="67.9997" y2="5.16432" gradientUnits="userSpaceOnUse">
<stop stop-color="#1F316F"/>
<stop offset="0.35" stop-color="#00ABE2"/>
<stop offset="1" stop-color="#8DD7F4"/>
</linearGradient>
<linearGradient id="paint20_linear_798_30068" x1="68.1488" y1="6.34647" x2="70.3693" y2="5.44935" gradientUnits="userSpaceOnUse">
<stop stop-color="#1F316F"/>
<stop offset="0.35" stop-color="#00ABE2"/>
<stop offset="1" stop-color="#8DD7F4"/>
</linearGradient>
<linearGradient id="paint21_linear_798_30068" x1="63.0012" y1="3.75184" x2="64.8528" y2="3.00372" gradientUnits="userSpaceOnUse">
<stop stop-color="#1F316F"/>
<stop offset="0.35" stop-color="#00ABE2"/>
<stop offset="1" stop-color="#8DD7F4"/>
</linearGradient>
<linearGradient id="paint22_linear_798_30068" x1="67.9731" y1="1.28676" x2="70.0525" y2="0.446601" gradientUnits="userSpaceOnUse">
<stop stop-color="#1F316F"/>
<stop offset="0.35" stop-color="#00ABE2"/>
<stop offset="1" stop-color="#8DD7F4"/>
</linearGradient>
</defs>
</svg>
