<svg width="59" height="49" viewBox="0 0 59 49" fill="none" xmlns="http://www.w3.org/2000/svg">
<mask id="mask0_798_30100" style="mask-type:alpha" maskUnits="userSpaceOnUse" x="0" y="35" width="59" height="14">
<path fill-rule="evenodd" clip-rule="evenodd" d="M8.03429 40.9745C8.03429 41.2732 7.9593 41.5551 7.8106 41.8195C7.36342 42.6001 6.51709 42.9905 5.27087 42.9905H0.292969V36.0381H5.27087C6.45622 36.0381 7.28576 36.4073 7.75954 37.1475C7.94234 37.4457 8.03429 37.765 8.03429 38.1041C8.03429 38.681 7.79026 39.1662 7.30273 39.5601C7.79026 39.9396 8.03429 40.4119 8.03429 40.9745ZM6.8659 38.0939C6.8659 37.8024 6.69649 37.5782 6.35803 37.4223C6.094 37.3067 5.79286 37.2495 5.45386 37.2495H1.50222V41.7791H5.45386C5.78572 41.7791 6.08026 41.7279 6.3375 41.6261C6.68971 41.4773 6.8659 41.2634 6.8659 40.9852C6.8659 40.6997 6.68971 40.4829 6.3375 40.3335C6.07365 40.2251 5.77911 40.1704 5.45386 40.1704H2.21325V38.959H5.45386C5.79286 38.959 6.094 38.8982 6.35803 38.7758C6.69631 38.6199 6.8659 38.3927 6.8659 38.0939ZM18.061 39.4481C18.061 40.4727 17.7321 41.3208 17.0757 41.993C16.4188 42.6647 15.5819 43.0007 14.5662 43.0007H12.6257C11.6169 43.0007 10.7818 42.6645 10.1218 41.993C9.46169 41.321 9.13145 40.4727 9.13145 39.4481C9.13145 38.4301 9.45812 37.609 10.1117 36.9845C10.765 36.3604 11.6033 36.0479 12.6259 36.0479H14.5663C15.5955 36.0479 16.4358 36.3604 17.0856 36.9845C17.7354 37.609 18.061 38.4301 18.061 39.4481ZM16.8624 39.5493C16.8624 38.8776 16.6469 38.3283 16.2171 37.9006C15.7872 37.4729 15.237 37.2591 14.5662 37.2591H12.6257C11.9622 37.2591 11.4154 37.4729 10.9855 37.9006C10.5551 38.3283 10.3402 38.8776 10.3402 39.5493C10.3402 40.2149 10.5551 40.7546 10.9855 41.1684C11.4154 41.5821 11.9622 41.7893 12.6257 41.7893H14.5662C15.2368 41.7893 15.7872 41.5821 16.2171 41.1684C16.6468 40.7544 16.8624 40.2149 16.8624 39.5493ZM27.1222 43.0109H25.3851L22.9469 40.4761L20.4991 43.0109H18.762L22.1445 39.5395L18.762 36.0477H20.4481C22.7309 38.3913 24.8424 40.6639 27.1222 43.0109ZM23.8586 37.6741L24.7269 38.5274L27.1222 36.0479H25.4463L23.8586 37.6741ZM34.2641 37.2591H31.5308V43.0007H30.3323V37.2591H27.5894V36.0477H34.2641V37.2591ZM40.7653 40.0793H36.8033V38.868H40.7653V40.0793ZM41.0802 43.0007V41.7893H36.2958V37.2591H41.0802V36.0477H35.0865V43.0005L41.0802 43.0007ZM49.6641 43.0007H45.7532C44.7439 43.0007 43.9093 42.6645 43.2491 41.993C42.5886 41.321 42.2587 40.4727 42.2587 39.4481C42.2587 38.4301 42.5849 37.609 43.2388 36.9845C43.8922 36.3604 44.7305 36.0479 45.753 36.0479H49.6639V37.2593H45.753C45.0893 37.2593 44.5421 37.4731 44.1123 37.9008C43.6824 38.3285 43.4675 38.8778 43.4675 39.5495C43.4675 40.2151 43.6824 40.7548 44.1123 41.1685C44.5421 41.5823 45.0895 41.7895 45.753 41.7895H49.6639L49.6641 43.0007ZM57.8928 43.0007H56.6838V40.1096H52.6101V38.8982H56.6838V36.0479H57.8928V43.0007ZM52.0619 43.0007H50.853V36.0479H52.0619V43.0007Z" fill="#06132C" stroke="#231F20" stroke-width="0.5" stroke-miterlimit="2.6131"/>
<path fill-rule="evenodd" clip-rule="evenodd" d="M4.82051 47.9566H5.27017V47.1314H5.77859C6.34163 47.1314 6.80255 46.8312 6.80255 46.2561V46.2484C6.80255 45.7318 6.42946 45.3905 5.82947 45.3905H4.82031V47.9566H4.82051ZM5.27017 46.7248V45.8016H5.79289C6.12974 45.8016 6.34521 45.9592 6.34521 46.2595V46.2672C6.34521 46.5343 6.13332 46.725 5.79289 46.725L5.27017 46.7248ZM7.5184 47.9566H7.96809V47.0623H8.53166L9.16021 47.9566H9.69469L9.00348 46.9851C9.35784 46.8822 9.61042 46.6296 9.61042 46.208V46.2008C9.61042 45.9774 9.53331 45.7866 9.398 45.6474C9.23358 45.4862 8.98097 45.3905 8.65929 45.3905H7.5184V47.9566ZM7.96809 46.6624V45.8014H8.62253C8.95546 45.8014 9.15289 45.9518 9.15289 46.2264V46.2336C9.15289 46.494 8.94813 46.6624 8.62662 46.6624H7.96809ZM11.6385 48.0006C12.4247 48.0006 12.9812 47.396 12.9812 46.6736V46.6665C12.9812 45.9447 12.4324 45.3467 11.6462 45.3467C10.86 45.3467 10.3041 45.9518 10.3041 46.6736V46.6808C10.3041 47.4031 10.8524 48.0006 11.6385 48.0006ZM11.6462 47.5827C11.1378 47.5827 10.7758 47.1718 10.7758 46.6736V46.6665C10.7758 46.1678 11.1307 45.761 11.6385 45.761C12.1475 45.761 12.509 46.1753 12.509 46.6736V46.6808C12.509 47.1795 12.1541 47.5827 11.6462 47.5827ZM13.7811 47.9566H14.2308V46.9115H15.5213V46.5014H14.2308V45.8016H15.6862V45.3907H13.7811V47.9566ZM16.4347 47.9566H18.3516V47.553H16.8844V46.864H18.1683V46.4615H16.8844V45.7944H18.3332V45.3909H16.4347V47.9566ZM20.0363 47.9929C20.574 47.9929 20.9506 47.7074 20.9506 47.2271V47.2194C20.9506 46.7947 20.6725 46.5999 20.1312 46.4684C19.6371 46.3507 19.5207 46.2627 19.5207 46.0653V46.0576C19.5207 45.8887 19.6739 45.7536 19.9377 45.7536C20.1711 45.7536 20.4019 45.8452 20.632 46.0171L20.8735 45.6769C20.6141 45.4676 20.3176 45.354 19.9443 45.354C19.4363 45.354 19.0703 45.6585 19.0703 46.0978V46.1055C19.0703 46.5781 19.3777 46.7393 19.9222 46.8713C20.3979 46.9813 20.5006 47.08 20.5006 47.2632V47.2709C20.5006 47.4618 20.3249 47.5933 20.0468 47.5933C19.7324 47.5933 19.4838 47.4725 19.2387 47.2596L18.968 47.5825C19.2756 47.8573 19.6446 47.9929 20.0363 47.9929ZM21.7613 47.9566H22.2109V45.3907H21.7613V47.9566ZM24.3713 48.0006C25.1575 48.0006 25.7134 47.396 25.7134 46.6736V46.6665C25.7134 45.9447 25.165 45.3467 24.3785 45.3467C23.5925 45.3467 23.0364 45.9518 23.0364 46.6736V46.6808C23.0364 47.4031 23.5851 48.0006 24.3713 48.0006ZM24.3785 47.5827C23.8706 47.5827 23.5082 47.1718 23.5082 46.6736V46.6665C23.5082 46.1678 23.8629 45.761 24.3715 45.761C24.8799 45.761 25.2418 46.1753 25.2418 46.6736V46.6808C25.2418 47.1795 24.8869 47.5827 24.3785 47.5827ZM26.5133 47.9566H26.9559V46.1314L28.3674 47.9566H28.7443V45.3907H28.3021V47.1648L26.9304 45.3907H26.5133V47.9566ZM29.4381 47.9566H29.8991L30.1626 47.3371H31.3729L31.6328 47.9566H32.108L30.9814 45.3728H30.5644L29.4381 47.9566ZM30.3268 46.9375L30.7658 45.9114L31.2083 46.9375H30.3268ZM32.8017 47.9566H34.597V47.5457H33.2514V45.3905H32.8017V47.9566ZM36.5996 47.9566H37.0531V45.8086H37.8653V45.3905H35.7881V45.8086H36.5998V47.9566H36.5996ZM38.047 47.9566H38.5074L38.7709 47.3371H39.9813L40.2412 47.9566H40.7164L39.5901 45.3728H39.1731L38.047 47.9566ZM38.9357 46.9375L39.3747 45.9114L39.8169 46.9375H38.9357ZM42.4633 48.0006C42.9171 48.0006 43.2792 47.8169 43.5318 47.6009V46.5237H42.4419V46.9155H43.0964V47.3958C42.9391 47.5124 42.7197 47.5897 42.4782 47.5897C41.9555 47.5897 41.6077 47.2015 41.6077 46.6736V46.6665C41.6077 46.1754 41.9662 45.761 42.4378 45.761C42.7636 45.761 42.9575 45.8674 43.1551 46.0357L43.4398 45.695C43.1769 45.4714 42.9023 45.3467 42.4562 45.3467C41.6848 45.3467 41.1361 45.9554 41.1361 46.6736V46.6808C41.1359 47.4287 41.6629 48.0006 42.4633 48.0006ZM44.3715 47.9566H46.1674V47.5457H44.8212V45.3905H44.3715V47.9566ZM46.9159 47.9566H47.3655V45.3907H46.9159V47.9566ZM48.3044 47.9566H48.7469V46.1314L50.159 47.9566H50.5356V45.3907H50.0931V47.1648L48.7214 45.3907H48.3044V47.9566ZM51.4486 47.9566H53.3649V47.553H51.8983V46.864H53.1821V46.4615H51.8983V45.7944H53.3465V45.3909H51.4486V47.9566Z" fill="#06132C" stroke="#231F20" stroke-width="0.5" stroke-miterlimit="2.6131"/>
</mask>
<g mask="url(#mask0_798_30100)">
<rect x="-2.10156" y="36" width="61.0748" height="13.1999" fill="#101111"/>
</g>
<mask id="mask1_798_30100" style="mask-type:alpha" maskUnits="userSpaceOnUse" x="17" y="0" width="30" height="28">
<path fill-rule="evenodd" clip-rule="evenodd" d="M23.2716 9.37196L27.3 5.32175C28.5155 4.09999 28.3991 3.69302 28.0016 3.42363C27.337 2.97446 26.1879 3.73667 25.5102 4.41571L23.7529 6.17661L23.7497 6.17392C22.4622 7.43736 20.8479 8.42748 19.2386 7.94718C18.1309 7.61715 16.696 5.8523 18.8586 3.31631C19.1074 3.0233 19.6512 2.35875 19.6512 2.35875H22.353C21.8151 2.89772 21.1966 3.55529 20.8265 3.99193C19.8079 5.19222 19.9429 5.55428 20.3243 5.77037C20.8012 6.04048 21.4781 5.6727 22.0263 5.19097C23.5914 3.81806 24.3629 2.64712 26.1104 1.46954C27.096 0.806255 28.3004 0.726822 29.3742 1.142C30.5545 1.59779 31.9689 3.64689 29.3904 6.22921L24.9224 10.7221C23.516 12.1366 23.0215 12.8065 21.9165 14.1357C20.7765 15.5067 20.9329 15.9154 21.3683 16.1564C21.81 16.4005 22.396 16.1655 22.9312 15.7723L22.9221 15.7528C24.0921 14.576 25.2549 13.4068 26.4262 12.2292L33.5149 5.10136C34.6393 3.97065 36.1231 2.29311 37.4534 1.31678C38.8534 0.288931 40.4593 -0.354863 41.9793 0.210043C43.2065 0.666368 44.6967 2.76696 42.0638 5.47235C36.6259 11.0822 30.7727 16.6877 25.1612 22.3034L24.7553 22.7916C23.6151 24.1625 23.7717 24.5713 24.2069 24.8122C24.7403 25.1078 25.4847 24.7022 26.0942 24.1645C27.0276 23.3391 28.488 21.7051 29.3683 20.82L40.2372 9.88124L40.2581 9.98802C41.7287 8.82673 43.4594 8.0384 45.0939 8.64642C46.321 9.10202 47.8113 11.2021 45.1789 13.9082L42.9085 16.1168L36.8163 22.243C36.3636 22.7871 34.4401 24.7037 35.1203 25.0798C35.7393 25.4222 36.6585 24.7655 37.2712 24.1055L39.0089 22.4657C40.3484 21.4371 41.9076 20.7608 43.3821 21.3083C44.5196 21.7314 45.9013 23.6797 43.4607 26.1885L42.6331 27.042C41.6962 27.042 40.7672 27.0334 39.8293 27.0334L40.3133 26.5484L41.4442 25.3441C42.5947 24.1566 42.4785 23.7674 42.0933 23.5143C41.4513 23.0918 40.3568 23.8379 39.7163 24.4972C39.3082 24.9164 38.8659 25.4007 38.4437 25.792C37.1437 26.9937 35.569 27.8664 33.9867 27.4121C32.8024 27.0722 31.2536 25.2079 33.5313 22.4805L35.2054 20.8538L41.4177 14.6073L41.3663 14.5552L43.0047 12.9968C44.2456 11.7171 44.1201 11.2978 43.7043 11.025C43.0119 10.5694 41.8321 11.3726 41.1416 12.0841L40.6653 12.5738L40.6087 12.5165L30.8546 22.3342C29.8789 23.3157 28.9986 24.326 28.0528 25.2661C26.6152 26.6942 24.8138 27.8099 23.0021 27.2899C21.7444 26.928 20.0991 24.9478 22.5181 22.0491C23.8102 20.4966 24.6782 19.7882 26.1306 18.3341L39.6253 4.82356L39.6305 4.83L39.8904 4.56168C41.1312 3.28197 41.0057 2.86213 40.5907 2.58934C40.1405 2.29311 39.4851 2.52817 38.8919 2.92457C38.732 3.03136 36.7572 4.85004 36.546 5.06166L27.799 13.8579C26.807 14.8552 25.1823 16.7742 24.0805 17.5964L23.87 17.8085L23.8493 17.7636C22.7079 18.5559 21.4385 18.9997 20.164 18.6339C18.9052 18.2725 17.2596 16.2918 19.6801 13.3937C21.0122 11.7915 21.7275 10.925 23.2716 9.37196Z" fill="url(#paint0_linear_798_30100)"/>
</mask>
<g mask="url(#mask1_798_30100)">
<rect x="5.08398" y="-7.2002" width="56.2846" height="40.7998" fill="#FA2D39"/>
</g>
<defs>
<linearGradient id="paint0_linear_798_30100" x1="41.5077" y1="24.5904" x2="23.269" y2="2.89882" gradientUnits="userSpaceOnUse">
<stop stop-color="#66499C"/>
<stop offset="1" stop-color="#58AFE2"/>
</linearGradient>
</defs>
</svg>
