<svg width="64" height="48" viewBox="0 0 64 48" fill="none" xmlns="http://www.w3.org/2000/svg">
<mask id="mask0_798_30109" style="mask-type:alpha" maskUnits="userSpaceOnUse" x="0" y="0" width="64" height="49">
<path fill-rule="evenodd" clip-rule="evenodd" d="M26.1989 14.1988C34.8214 17.806 43.3593 13.2458 53.2035 5.1866L53.2019 5.18556C53.546 5.35877 53.9347 5.4563 54.3461 5.4563C55.7546 5.4563 56.8959 4.3146 56.8959 2.90628C56.8959 1.49817 55.7546 0.356445 54.3461 0.356445C52.9376 0.356445 51.7962 1.49817 51.7962 2.90628C51.7962 3.07825 51.8127 3.24546 51.8453 3.40753L51.8447 3.40549C42.1933 11.7445 33.592 16.2824 26.1989 14.1988ZM51.4099 15.8368C52.8184 15.8368 53.9597 16.9785 53.9597 18.3866C53.9597 19.7948 52.8184 20.9365 51.4099 20.9365C50.6321 20.9365 49.9357 20.5884 49.4679 20.0391C41.3031 22.6434 30.3888 23.1673 24.7835 18.698C29.8364 21.8066 40.7043 20.9558 48.8771 18.0901C49.0243 16.8216 50.1017 15.8368 51.4099 15.8368ZM51.4099 17.0864C52.1284 17.0864 52.7105 17.6685 52.7105 18.3866C52.7105 19.1048 52.1284 19.6869 51.4099 19.6869C50.8049 19.6869 50.2964 19.2737 50.1514 18.7143L50.3255 17.6689C50.5589 17.3177 50.9573 17.0864 51.4099 17.0864ZM51.6814 9.82601C53.0134 9.82601 54.0931 10.9061 54.0931 12.2381C54.0931 13.5697 53.0134 14.6502 51.6814 14.6502C51.1958 14.6502 50.7438 14.5067 50.3654 14.2599C41.9941 18.5522 26.9944 19.3512 20.4258 15.4525C26.1599 17.9726 41.0308 16.9569 49.2817 12.4826C49.2737 12.4024 49.2691 12.3208 49.2691 12.2381C49.2691 10.9059 50.3494 9.82601 51.6814 9.82601ZM54.3458 1.6058C55.0638 1.6058 55.6459 2.18808 55.6459 2.90606C55.6459 3.62424 55.0638 4.20654 54.3458 4.20654C53.6274 4.20654 53.0454 3.62424 53.0454 2.90606C53.0454 2.18808 53.6274 1.6058 54.3458 1.6058Z" fill="#3B76BA"/>
<path fill-rule="evenodd" clip-rule="evenodd" d="M38.4744 7.83157C29.8519 4.22438 21.3139 8.78461 11.4697 16.8438L11.4714 16.8446C11.1272 16.6716 10.7385 16.5741 10.3272 16.5741C8.91863 16.5741 7.77734 17.7158 7.77734 19.1239C7.77734 20.5324 8.91863 21.6739 10.3272 21.6739C11.7357 21.6739 12.877 20.5322 12.877 19.1239C12.877 18.9523 12.8605 18.7849 12.8279 18.6228L12.8285 18.6249C22.48 10.2857 31.0812 5.74796 38.4744 7.83157ZM13.2634 6.19355C11.8549 6.19355 10.7136 5.05164 10.7136 3.64311C10.7136 2.23521 11.8549 1.0935 13.2634 1.0935C14.0412 1.0935 14.7375 1.44155 15.2053 1.99085C23.3695 -0.613198 34.2845 -1.13735 39.8897 3.33216C34.8369 0.22334 23.9689 1.07391 15.7961 3.93962C15.6489 5.20855 14.5713 6.19355 13.2634 6.19355ZM13.2634 4.94399C12.545 4.94399 11.9629 4.36171 11.9629 3.64311C11.9629 2.92514 12.545 2.34304 13.2634 2.34304C13.8684 2.34304 14.3769 2.75626 14.5218 3.31567L14.3472 4.36107C14.1142 4.71243 13.716 4.94399 13.2634 4.94399ZM12.9918 12.2044C11.6598 12.2044 10.5802 11.1241 10.5802 9.79229C10.5802 8.46027 11.6598 7.38021 12.9918 7.38021C13.4774 7.38021 13.9294 7.52371 14.3078 7.77073C22.6785 3.47835 37.6789 2.67913 44.2469 6.57768C38.5132 4.05755 23.6423 5.07327 15.3915 9.54731C15.3996 9.62814 15.4035 9.70938 15.4035 9.79207C15.4035 11.1241 14.3237 12.2044 12.9918 12.2044ZM10.3272 20.4244C9.60918 20.4244 9.0265 19.8421 9.0265 19.1239C9.0265 18.4059 9.60918 17.8236 10.3272 17.8236C11.0455 17.8236 11.6277 18.4059 11.6277 19.1239C11.6279 19.8421 11.0457 20.4244 10.3272 20.4244Z" fill="#22BEEF"/>
<path fill-rule="evenodd" clip-rule="evenodd" d="M12.9404 32.1455H14.2867L11.1592 41.9629H9.89695L7.77911 35.1468L7.62507 34.4874L7.47042 35.1468L5.35259 41.9629H4.09089L0.962891 32.1455H2.30976L4.58162 39.2844L4.74985 39.9854L4.8897 39.2844L7.07761 32.1455H8.17172L10.3596 39.2844L10.5001 39.9854L10.6683 39.2844L12.9404 32.1455ZM17.1058 32.7203C17.1058 32.9449 17.0241 33.1364 16.8604 33.2956C16.6967 33.4542 16.4981 33.534 16.2647 33.534C16.0306 33.534 15.8344 33.4544 15.6752 33.2956C15.5164 33.1364 15.4372 32.9449 15.4372 32.7203C15.4372 32.4867 15.5166 32.2904 15.6752 32.131C15.8344 31.9724 16.0306 31.8926 16.2647 31.8926C16.4981 31.8926 16.6967 31.9722 16.8604 32.131C17.0241 32.2904 17.1058 32.4867 17.1058 32.7203ZM15.6614 34.8944H16.8672V41.9629H15.6614V34.8944ZM22.1831 34.74C22.9124 34.74 23.478 34.9786 23.8803 35.4553C24.282 35.932 24.4831 36.5772 24.4831 37.3907V41.9626H23.263V37.587C23.263 37.054 23.1415 36.6424 22.8984 36.3527C22.6553 36.0628 22.3192 35.9182 21.8889 35.9182C21.4027 35.9182 21.0072 36.1213 20.7035 36.5284C20.3999 36.935 20.2476 37.4843 20.2476 38.1761V41.9629H19.0417V34.8944H20.1216L20.1917 35.8619C20.5841 35.114 21.2482 34.74 22.1831 34.74ZM31.5937 31.7246H32.8002V41.9629H31.7203L31.6502 40.9251C31.1081 41.7198 30.2988 42.1171 29.2237 42.1171C28.2422 42.1171 27.4471 41.7713 26.8395 41.0793C26.2316 40.3685 25.928 39.485 25.928 38.4284C25.928 37.3812 26.2316 36.5024 26.8395 35.7918C27.4564 35.0905 28.2558 34.7398 29.2379 34.7398C30.313 34.7398 31.0984 35.1138 31.5937 35.8617V31.7246ZM29.4198 35.89C28.7651 35.89 28.2277 36.1285 27.8071 36.6053C27.3865 37.0727 27.1759 37.6804 27.1759 38.4286C27.1759 39.186 27.3791 39.8009 27.7861 40.2731C28.1929 40.7451 28.733 40.9814 29.4062 40.9814C30.0044 40.9814 30.5184 40.7523 30.9487 40.2943C31.3881 39.8267 31.6079 39.2283 31.6079 38.499V38.4288C31.6079 37.6715 31.3881 37.0591 30.9487 36.5915C30.5093 36.1236 29.9996 35.89 29.4198 35.89ZM34.0202 32.1455H42.3373V33.9404H39.1392V41.9626H37.2177V33.9404H34.0202V32.1455ZM45.0861 34.6977C44.0482 34.6977 43.1972 35.0485 42.5335 35.75C41.8788 36.4325 41.552 37.3208 41.552 38.4146C41.552 39.5273 41.8744 40.4248 42.5192 41.1074C43.1739 41.7804 44.0298 42.1171 45.0861 42.1171C46.7879 42.1171 47.8723 41.3224 48.3401 39.7329H46.5726C46.3575 40.2844 45.881 40.5603 45.142 40.5603C44.6467 40.5603 44.2442 40.4131 43.9356 40.1186C43.6273 39.8242 43.459 39.4384 43.431 38.9617H48.3818V38.4006C48.3818 37.2129 48.0851 36.2991 47.491 35.6584C46.8976 35.0182 46.0957 34.6977 45.0861 34.6977ZM43.445 37.6993C43.4918 37.2504 43.6601 36.8906 43.95 36.6197C44.2399 36.3483 44.6047 36.2129 45.0441 36.2129C45.4927 36.2129 45.8528 36.3483 46.1239 36.6197C46.3955 36.8906 46.5353 37.2504 46.545 37.6993H43.445ZM53.0381 34.6977C53.9266 34.6977 54.6627 34.9293 55.2473 35.3922C55.8316 35.8551 56.1894 36.5118 56.3201 37.3624H54.5532C54.4506 37.0444 54.2679 36.7968 54.006 36.6195C53.7445 36.4418 53.4358 36.3527 53.0804 36.3527C52.5754 36.3527 52.1644 36.5492 51.8465 36.942C51.5188 37.3253 51.3551 37.8162 51.3551 38.4146C51.3551 39.0035 51.5211 39.4897 51.8533 39.8733C52.1855 40.2566 52.6084 40.4483 53.1225 40.4483C53.4779 40.4483 53.7861 40.3549 54.048 40.1679C54.3099 39.9811 54.4829 39.7425 54.5668 39.4526H56.3486C56.1803 40.3036 55.8013 40.9603 55.2125 41.4232C54.6236 41.8862 53.8987 42.1175 53.0381 42.1175C51.9817 42.1175 51.1262 41.7762 50.4718 41.0937C49.808 40.4017 49.4759 39.5089 49.4759 38.4151C49.4759 37.3492 49.808 36.4607 50.4718 35.7504C51.1452 35.0485 52.0005 34.6977 53.0381 34.6977ZM57.793 31.7246H59.6021V35.5955C60.0044 34.9971 60.6076 34.6977 61.4117 34.6977C62.1501 34.6977 62.718 34.9318 63.1157 35.399C63.5128 35.8667 63.7114 36.5164 63.7114 37.3488V41.9629H61.8744V37.7414C61.8744 36.8906 61.5377 36.4651 60.8643 36.4651C60.4807 36.4651 60.1747 36.6168 59.9454 36.9207C59.7166 37.2247 59.6019 37.6523 59.6019 38.2041V41.9626H57.7928L57.793 31.7246Z" fill="#06132C" stroke="#231F20" stroke-width="0.5" stroke-miterlimit="2.6131"/>
<path fill-rule="evenodd" clip-rule="evenodd" d="M11.1985 44.7391V45.1259H10.1948V47.9305H9.74854V45.1259H8.74414V44.7391H11.1985ZM13.6166 47.9305V44.7391H15.5643V45.1214H14.0634V46.0699H15.3987V46.4431H14.0634V47.5481H15.6795V47.9303L13.6166 47.9305ZM19.4375 47.9996C19.2131 47.9996 19.009 47.9627 18.8247 47.8891C18.641 47.8153 18.4828 47.7079 18.3504 47.5666C18.2187 47.4254 18.1164 47.2509 18.0444 47.0439C17.972 46.8367 17.936 46.5994 17.936 46.3323C17.936 46.0653 17.9766 45.8282 18.058 45.621C18.1391 45.4135 18.2492 45.2395 18.3873 45.0982C18.5255 44.957 18.6863 44.8494 18.8706 44.7758C19.055 44.7022 19.2513 44.665 19.4601 44.665C19.5925 44.665 19.7113 44.6745 19.8173 44.6927C19.9229 44.7112 20.0152 44.7327 20.0936 44.7572C20.1717 44.7822 20.2356 44.8067 20.2847 44.831C20.3338 44.8556 20.3674 44.8739 20.3858 44.8861L20.2569 45.2546C20.2295 45.2362 20.1895 45.2164 20.1371 45.195C20.0852 45.1733 20.0257 45.1519 19.9602 45.1302C19.894 45.109 19.8221 45.091 19.7439 45.0774C19.6651 45.0636 19.5864 45.0568 19.5066 45.0568C19.3377 45.0568 19.1859 45.0859 19.0507 45.1442C18.9154 45.2028 18.8001 45.2871 18.7055 45.3976C18.6102 45.5082 18.5372 45.6424 18.4863 45.8006C18.4362 45.9587 18.4104 46.1358 18.4104 46.3325C18.4104 46.5231 18.4327 46.6963 18.4772 46.853C18.5218 47.0097 18.5886 47.1437 18.6774 47.2559C18.7665 47.3681 18.8776 47.4549 19.0113 47.5161C19.1449 47.5778 19.3006 47.6083 19.4787 47.6083C19.6847 47.6083 19.8554 47.5868 19.9901 47.5437C20.1253 47.5006 20.2264 47.4623 20.2942 47.4287L20.4095 47.7971C20.3878 47.8122 20.3495 47.8316 20.2942 47.8545C20.2388 47.8776 20.1699 47.9 20.087 47.9215C20.0037 47.9429 19.9072 47.9611 19.7965 47.9765C19.6857 47.992 19.5666 47.9996 19.4375 47.9996ZM24.8761 44.7391H25.3229V47.9305H24.8761V46.4569H23.3146V47.9305H22.8684V44.7391H23.3146V46.0699H24.8761V44.7391ZM30.2502 47.9305C30.1828 47.8169 30.1052 47.6895 30.018 47.5483C29.9302 47.407 29.8359 47.2606 29.7345 47.1085C29.6335 46.9565 29.5285 46.8025 29.4194 46.6457C29.3103 46.489 29.2021 46.3379 29.0947 46.1921C28.9868 46.0463 28.8829 45.9088 28.7812 45.7797C28.6796 45.6511 28.586 45.5372 28.5004 45.4391V47.9308H28.0627V44.7393H28.4175C28.5615 44.8927 28.7161 45.0716 28.8804 45.2756C29.0441 45.4799 29.2068 45.6902 29.3683 45.9065C29.5293 46.1231 29.6817 46.3356 29.8242 46.5445C29.9669 46.7534 30.0873 46.9388 30.1855 47.1019V44.7393H30.6232V47.9308H30.2502V47.9305ZM33.2342 46.3323C33.2342 46.0593 33.2753 45.8181 33.3563 45.6092C33.438 45.4003 33.5487 45.2263 33.6879 45.0865C33.8277 44.9469 33.9904 44.8415 34.1764 44.7712C34.3619 44.7007 34.5593 44.665 34.7681 44.665C34.9735 44.665 35.1676 44.7007 35.3509 44.7712C35.5329 44.8418 35.694 44.9471 35.8319 45.0865C35.9701 45.2263 36.0796 45.4003 36.1612 45.6092C36.2422 45.8181 36.2833 46.0591 36.2833 46.3323C36.2833 46.6057 36.2422 46.8464 36.1612 47.0557C36.0796 47.2641 35.9701 47.4386 35.8319 47.578C35.6938 47.7178 35.5329 47.8229 35.3509 47.8936C35.1678 47.9642 34.9737 47.9996 34.7681 47.9996C34.5593 47.9996 34.3619 47.9642 34.1764 47.8936C33.9904 47.8229 33.8277 47.718 33.6879 47.578C33.5487 47.4386 33.438 47.2641 33.3563 47.0557C33.2755 46.8466 33.2342 46.6057 33.2342 46.3323ZM33.704 46.3323C33.704 46.5257 33.7292 46.7014 33.7782 46.8596C33.8273 47.0179 33.897 47.152 33.9877 47.2627C34.0784 47.3732 34.1885 47.4584 34.3192 47.5184C34.45 47.578 34.5962 47.6079 34.7593 47.6079C34.922 47.6079 35.0674 47.578 35.1964 47.5184C35.3253 47.4584 35.435 47.3732 35.5257 47.2627C35.6164 47.152 35.6862 47.0179 35.7352 46.8596C35.7849 46.7014 35.8094 46.5257 35.8094 46.3323C35.8094 46.1391 35.7849 45.9634 35.7352 45.8051C35.6862 45.6469 35.6164 45.5127 35.5257 45.4022C35.435 45.2919 35.3253 45.2065 35.1964 45.1465C35.0676 45.0865 34.922 45.0568 34.7593 45.0568C34.596 45.0568 34.45 45.0865 34.3192 45.1465C34.1885 45.2063 34.0784 45.2917 33.9877 45.4022C33.897 45.5127 33.8273 45.6471 33.7782 45.8051C33.7292 45.9634 33.704 46.1393 33.704 46.3323ZM40.8147 47.5437V47.9305H38.8944V44.7391H39.3412V47.5437H40.8147ZM42.8966 46.3323C42.8966 46.0593 42.9372 45.8181 43.018 45.6092C43.0997 45.4003 43.2104 45.2263 43.3496 45.0865C43.4894 44.9469 43.6521 44.8415 43.8381 44.7712C44.0235 44.7007 44.221 44.665 44.4299 44.665C44.6355 44.665 44.8299 44.7007 45.0126 44.7712C45.1951 44.8418 45.3555 44.9471 45.4936 45.0865C45.6318 45.2263 45.7419 45.4003 45.8229 45.6092C45.9046 45.8181 45.945 46.0591 45.945 46.3323C45.945 46.6057 45.9046 46.8464 45.8229 47.0557C45.7419 47.2641 45.6318 47.4386 45.4936 47.578C45.3555 47.7178 45.1951 47.8229 45.0126 47.8936C44.8299 47.9642 44.6355 47.9996 44.4299 47.9996C44.221 47.9996 44.0237 47.9642 43.8381 47.8936C43.6521 47.8229 43.4894 47.718 43.3496 47.578C43.2104 47.4386 43.0997 47.2641 43.018 47.0557C42.937 46.8466 42.8966 46.6057 42.8966 46.3323ZM43.3663 46.3323C43.3663 46.5257 43.3909 46.7014 43.4399 46.8596C43.489 47.0179 43.5587 47.152 43.6494 47.2627C43.7401 47.3732 43.8503 47.4584 43.981 47.5184C44.1117 47.578 44.2583 47.6079 44.421 47.6079C44.5837 47.6079 44.7291 47.578 44.8581 47.5184C44.987 47.4584 45.0973 47.3732 45.1874 47.2627C45.2781 47.152 45.3479 47.0179 45.3969 46.8596C45.4466 46.7014 45.4712 46.5257 45.4712 46.3323C45.4712 46.1391 45.4466 45.9634 45.3969 45.8051C45.3479 45.6469 45.2781 45.5127 45.1874 45.4022C45.0973 45.2919 44.9872 45.2065 44.8581 45.1465C44.7291 45.0865 44.5837 45.0568 44.421 45.0568C44.2583 45.0568 44.1117 45.0865 43.981 45.1465C43.8503 45.2063 43.7401 45.2917 43.6494 45.4022C43.5587 45.5127 43.489 45.6471 43.4399 45.8051C43.3909 45.9634 43.3663 46.1393 43.3663 46.3323ZM50.5044 46.3602H50.9512V47.8522C50.9141 47.8648 50.8611 47.8784 50.7921 47.8938C50.723 47.9091 50.6432 47.9244 50.5524 47.9398C50.4623 47.9553 50.363 47.9683 50.2557 47.9788C50.1485 47.9897 50.0394 47.9951 49.9287 47.9951C49.7044 47.9951 49.5 47.9582 49.3163 47.8844C49.132 47.8107 48.974 47.7031 48.8421 47.5621C48.7097 47.4208 48.6074 47.2474 48.5356 47.0417C48.4631 46.8359 48.4272 46.5994 48.4272 46.3323C48.4272 46.0653 48.4682 45.8282 48.5493 45.621C48.6309 45.4135 48.7404 45.2395 48.8786 45.0982C49.0167 44.957 49.1788 44.8494 49.3641 44.7758C49.5501 44.7022 49.7487 44.665 49.9611 44.665C50.1054 44.665 50.2333 44.6745 50.3452 44.6927C50.4576 44.7112 50.5535 44.7327 50.6335 44.7572C50.7133 44.7822 50.7784 44.8067 50.8292 44.831C50.8799 44.8556 50.9141 44.8739 50.9325 44.8861L50.7898 45.2593C50.7007 45.2009 50.5828 45.1527 50.4353 45.1141C50.2881 45.076 50.1374 45.0568 49.984 45.0568C49.8213 45.0568 49.673 45.0859 49.5394 45.1442C49.4058 45.2028 49.2924 45.2871 49.1988 45.3976C49.1052 45.5082 49.0322 45.6424 48.9802 45.8006C48.9276 45.9587 48.9015 46.1358 48.9015 46.3325C48.9015 46.5231 48.9237 46.6963 48.9683 46.853C49.0128 47.0097 49.0806 47.1437 49.1713 47.2559C49.2615 47.3681 49.3739 47.4549 49.5075 47.5161C49.6411 47.5778 49.798 47.6083 49.9794 47.6083C50.1083 47.6083 50.218 47.6015 50.3087 47.5879C50.3988 47.5738 50.4646 47.5611 50.5044 47.5485V46.3602ZM54.3586 47.9305V46.6503C54.1468 46.3218 53.9473 45.9977 53.7601 45.6787C53.5728 45.3591 53.3965 45.0461 53.2303 44.7391H53.7553C53.8718 44.9906 54.0023 45.2463 54.1469 45.5059C54.2912 45.7653 54.4401 46.015 54.5937 46.2544C54.7438 46.015 54.8916 45.7653 55.0353 45.5059C55.1797 45.2465 55.3115 44.9908 55.4315 44.7391H55.929C55.7634 45.0461 55.5865 45.3585 55.3995 45.6764C55.2123 45.994 55.0143 46.3156 54.8054 46.6412V47.9308H54.3586V47.9305Z" fill="#06132C" stroke="#231F20" stroke-width="0.5" stroke-miterlimit="2.6131"/>
</mask>
<g mask="url(#mask0_798_30109)">
<rect x="-25.4375" width="114" height="48" fill="#101111"/>
<rect x="2.16211" width="58.8" height="25.2" fill="#FA2D39"/>
</g>
</svg>
