<svg width="93" height="48" viewBox="0 0 93 48" fill="none" xmlns="http://www.w3.org/2000/svg">
<mask id="mask0_798_30136" style="mask-type:alpha" maskUnits="userSpaceOnUse" x="0" y="0" width="93" height="48">
<path d="M12.7559 18.2758C18.1934 10.6217 28.0468 6.31214 38.2345 8.04523C38.898 8.15837 39.5511 8.2955 40.1922 8.45321C40.8196 9.21262 41.4025 10.0183 41.939 10.8703C42.323 11.4806 42.671 12.1011 42.9898 12.7302C40.8813 11.7343 38.5928 11.0006 36.1569 10.5874C27.1589 9.05662 18.4197 12.24 12.7559 18.2758Z" fill="url(#paint0_linear_798_30136)"/>
<path d="M17.0726 1.42967C19.7914 0.498842 22.5702 0.035999 25.3078 0C26.0621 0.125139 26.8078 0.286276 27.5466 0.478271C25.1741 0.610267 22.781 1.06454 20.4325 1.86852C7.27405 6.37524 0.456532 20.1526 5.20497 32.6408C6.47521 35.9835 8.4483 38.8926 10.9048 41.2771C10.7471 40.924 10.6048 40.564 10.478 40.2005C10.7505 40.7302 11.0591 41.2462 11.4019 41.7468C12.859 43.0839 14.4738 44.2461 16.2069 45.2095C15.4955 45.069 14.7893 44.8993 14.0933 44.6987L14.095 44.7004C13.9956 44.673 13.8979 44.6404 13.7984 44.6113C13.6682 44.5718 13.5362 44.5341 13.4076 44.493C13.3716 44.481 13.3356 44.469 13.3013 44.457C12.4493 44.1827 11.6111 43.8639 10.7934 43.4987C6.81978 40.7662 3.63987 36.9144 1.84849 32.2036C-2.90337 19.712 3.91415 5.93468 17.0726 1.42967Z" fill="url(#paint1_linear_798_30136)"/>
<path d="M13.9706 13.1316C8.07533 19.7623 6.61138 28.5375 9.2873 36.2104C5.02228 27.9152 6.01654 17.6589 12.6918 10.1506C17.4488 4.80046 24.1412 1.9154 30.9724 1.6377C32.8923 2.44681 34.7094 3.49421 36.3688 4.76788C28.185 3.83705 19.6841 6.70669 13.9706 13.1316Z" fill="url(#paint2_linear_798_30136)"/>
<path d="M32.7587 44.1885V46.5422H32.6078V44.1885C32.6078 43.316 32.097 42.8052 31.2313 42.8052C30.261 42.8274 29.6679 43.4291 29.5925 44.4285V46.5405H29.4434V42.6543H29.5942V43.7514C29.8428 43.0674 30.4205 42.668 31.233 42.6543C32.1947 42.6543 32.7587 43.2269 32.7587 44.1885Z" fill="black"/>
<path d="M37.0981 45.8271L37.2027 45.9317C36.8495 46.3157 36.3233 46.5402 35.7216 46.5402C34.6467 46.5402 33.8496 45.7277 33.8496 44.5929C33.8496 43.4649 34.6467 42.6523 35.7216 42.6523C36.805 42.6523 37.5266 43.4649 37.5266 44.5929H34.0005C34.0005 45.6523 34.7222 46.3894 35.7216 46.3894C36.2855 46.3911 36.7741 46.1888 37.0981 45.8271ZM34.0073 44.4437H37.3758C37.3089 43.4735 36.685 42.8049 35.7216 42.8049C34.7667 42.8049 34.0673 43.4752 34.0073 44.4437Z" fill="black"/>
<path d="M38.0447 42.6543L39.435 46.369L40.8115 42.6543H40.9915L42.3818 46.369L43.7652 42.6543H43.9383L42.4572 46.5405H42.2909L40.9075 42.8651L39.5087 46.5405H39.3424L37.8613 42.6543H38.0447Z" fill="black"/>
<path d="M48.7376 46.2644C48.5113 46.4375 48.249 46.5352 47.9713 46.5421C47.4296 46.549 47.1451 46.1804 47.1451 45.4741V42.8805H46.5742V42.7296H47.1451V41.8057H47.2959V42.7296H48.6639V42.8805H47.2959V45.4741C47.2959 46.0758 47.529 46.3981 47.973 46.3912C48.213 46.3844 48.4547 46.3004 48.6502 46.1427L48.7376 46.2644Z" fill="black"/>
<path d="M52.4809 45.8271L52.5855 45.9317C52.2323 46.3157 51.7061 46.5402 51.1044 46.5402C50.0295 46.5402 49.2324 45.7277 49.2324 44.5929C49.2324 43.4649 50.0295 42.6523 51.1044 42.6523C52.1878 42.6523 52.9095 43.4649 52.9095 44.5929H49.3833C49.3833 45.6523 50.105 46.3894 51.1044 46.3894C51.6683 46.3911 52.1569 46.1888 52.4809 45.8271ZM49.3901 44.4437H52.7586C52.6917 43.4735 52.0678 42.8049 51.1044 42.8049C50.1495 42.8049 49.4501 43.4752 49.3901 44.4437Z" fill="black"/>
<path d="M55.5495 42.8049C54.5415 42.8049 53.8061 43.542 53.8061 44.5946C53.8061 45.654 54.5432 46.3911 55.5495 46.3911C56.0826 46.3911 56.542 46.1888 56.8574 45.8271L56.9552 45.9317C56.6175 46.3157 56.1203 46.5402 55.5495 46.5402C54.4661 46.5402 53.6621 45.7277 53.6621 44.5929C53.6621 43.4649 54.4661 42.6523 55.5495 42.6523C56.0689 42.6523 56.5335 42.8478 56.8729 43.1718L56.7752 43.278C56.4512 42.9866 56.038 42.8049 55.5495 42.8049Z" fill="black"/>
<path d="M61.6481 44.1883V46.542H61.4973V44.1883C61.4973 43.3158 60.9864 42.805 60.1207 42.805C59.0836 42.8272 58.4751 43.5112 58.4751 44.6392V46.542H58.3242V40.9639H58.4751V43.7752C58.7236 43.0758 59.2945 42.6695 60.1207 42.6558C61.0824 42.6541 61.6481 43.2267 61.6481 44.1883Z" fill="black"/>
<path d="M66.487 44.1885V46.5422H66.3361V44.1885C66.3361 43.316 65.8253 42.8052 64.9596 42.8052C63.9893 42.8274 63.3962 43.4291 63.3208 44.4285V46.5405H63.1699V42.6543H63.3208V43.7514C63.5693 43.0674 64.147 42.668 64.9596 42.6543C65.923 42.6543 66.487 43.2269 66.487 44.1885Z" fill="black"/>
<path d="M71.3529 44.5948C71.3529 45.7296 70.5489 46.5422 69.4655 46.5422C68.3821 46.5422 67.5781 45.7296 67.5781 44.5948C67.5781 43.4668 68.3821 42.6543 69.4655 42.6543C70.5489 42.6543 71.3529 43.4668 71.3529 44.5948ZM67.729 44.5948C67.729 45.6542 68.4575 46.3913 69.4655 46.3913C70.4735 46.3913 71.202 45.6542 71.202 44.5948C71.202 43.5423 70.4735 42.8052 69.4655 42.8052C68.4575 42.8052 67.729 43.5423 67.729 44.5948Z" fill="black"/>
<path d="M72.7583 40.9639V46.542H72.6074V40.9639H72.7583Z" fill="black"/>
<path d="M77.7884 44.5948C77.7884 45.7296 76.9844 46.5422 75.901 46.5422C74.8176 46.5422 74.0137 45.7296 74.0137 44.5948C74.0137 43.4668 74.8176 42.6543 75.901 42.6543C76.9844 42.6543 77.7884 43.4668 77.7884 44.5948ZM74.1662 44.5948C74.1662 45.6542 74.8948 46.3913 75.9028 46.3913C76.9107 46.3913 77.6393 45.6542 77.6393 44.5948C77.6393 43.5423 76.9107 42.8052 75.9028 42.8052C74.8948 42.8052 74.1662 43.5423 74.1662 44.5948Z" fill="black"/>
<path d="M82.2096 42.6543V46.0982C82.2096 47.2553 81.4811 48.001 80.36 47.9924C79.736 47.9701 79.2474 47.7593 78.7966 47.3153L78.9012 47.2107C79.3143 47.6239 79.7737 47.8193 80.36 47.8416C81.3902 47.8484 82.0588 47.1644 82.0588 46.0982V45.2942C81.7879 45.9628 81.1639 46.3999 80.3823 46.3999C79.3366 46.3999 78.5703 45.6096 78.5703 44.5348C78.5703 43.4446 79.3366 42.656 80.3823 42.656C81.1639 42.656 81.7879 43.0914 82.0588 43.7686V42.656L82.2096 42.6543ZM82.0605 44.5348C82.0605 43.5354 81.3542 42.7983 80.384 42.7983C79.4137 42.7983 78.7143 43.5354 78.7143 44.5348C78.7143 45.5274 79.4137 46.2559 80.384 46.2559C81.3525 46.2559 82.0605 45.5274 82.0605 44.5348Z" fill="black"/>
<path d="M83.5111 48.0003C83.2403 48.0003 83.0003 47.9317 82.8203 47.8048L82.8872 47.6763C83.0517 47.7894 83.2712 47.8494 83.4957 47.8494C83.8797 47.8494 84.202 47.5631 84.406 47.0523L84.6014 46.5569L82.9934 42.6553H83.1666L84.6785 46.37L86.1665 42.6553H86.3465L84.5277 47.1054C84.286 47.6831 83.926 48.0003 83.5111 48.0003Z" fill="black"/>
<path d="M25.3445 24.8848V37.1621H23.2754V24.8848H25.3445Z" fill="black"/>
<path d="M30.6071 24.8848L37.1846 33.7079V24.8848H39.2194V37.1621H37.1846L30.6413 28.3578V37.1621H28.5723V24.8848H30.6071Z" fill="black"/>
<path d="M44.4977 24.8848L51.0752 33.7079V24.8848H53.11V37.1621H51.0752L44.532 28.3578V37.1621H42.4629V24.8848H44.4977Z" fill="black"/>
<path d="M68.3504 31.0238C68.3504 34.5312 65.5082 37.25 61.8432 37.25C58.1781 37.25 55.3359 34.5312 55.3359 31.0238C55.3359 27.4977 58.1781 24.832 61.8432 24.832C65.5082 24.832 68.3504 27.5165 68.3504 31.0238ZM57.4393 31.0238C57.4393 33.4615 59.457 35.3917 61.8586 35.3917C64.262 35.3917 66.2265 33.4632 66.2265 31.0238C66.2265 28.5862 64.262 26.692 61.8586 26.692C59.4398 26.692 57.4393 28.5862 57.4393 31.0238Z" fill="black"/>
<path d="M71.0508 24.8848L74.8392 34.8651L78.6637 24.8848H80.8202L75.8558 37.1621H73.7164L68.8223 24.8848H71.0508Z" fill="black"/>
<path d="M89.5536 34.3931H83.3618L82.1858 37.1651H80.0293L85.4497 24.8877H87.5719L92.9392 37.1651H90.7296L89.5536 34.3931ZM88.765 32.5503L86.4491 27.0956L84.1332 32.5503H88.765Z" fill="black"/>
</mask>
<g mask="url(#mask0_798_30136)">
<rect x="-10.4648" width="114" height="48" fill="#101111"/>
<path d="M-10.4648 0H44.7352L45.9352 13.2L19.5352 22.2L18.3352 48H-10.4648V0Z" fill="#FA2D39"/>
</g>
<defs>
<linearGradient id="paint0_linear_798_30136" x1="42.9883" y1="12.9704" x2="12.7564" y2="12.9704" gradientUnits="userSpaceOnUse">
<stop stop-color="#E61717"/>
<stop offset="1" stop-color="#FF8C18"/>
</linearGradient>
<linearGradient id="paint1_linear_798_30136" x1="27.5445" y1="22.6032" x2="0.333621" y2="22.6032" gradientUnits="userSpaceOnUse">
<stop stop-color="#E61717"/>
<stop offset="1" stop-color="#FF8C18"/>
</linearGradient>
<linearGradient id="paint2_linear_798_30136" x1="36.3691" y1="18.9252" x2="6.7216" y2="18.9252" gradientUnits="userSpaceOnUse">
<stop stop-color="#E61717"/>
<stop offset="1" stop-color="#FF8C18"/>
</linearGradient>
</defs>
</svg>
