<svg width="68" height="48" viewBox="0 0 68 48" fill="none" xmlns="http://www.w3.org/2000/svg">
<mask id="mask0_798_30179" style="mask-type:alpha" maskUnits="userSpaceOnUse" x="4" y="0" width="61" height="40">
<path d="M35.6034 14.9854H32.3574C32.7109 15.8804 33.3628 16.7864 34.3448 17.7819C37.4519 20.9315 35.135 26.3844 35.135 26.3844C35.135 26.3844 39.4465 22.5533 37.3621 18.7914C36.5416 17.3103 35.8466 16.0629 35.6034 14.9854Z" fill="url(#paint0_linear_798_30179)"/>
<path d="M33.5873 12.8412C33.7417 10.6402 36.3111 9.90838 36.3111 9.90838C36.3079 9.92798 36.2304 9.94558 36.2279 9.96418C36.1948 10.1035 36.8789 10.5573 36.935 10.6994C37.1803 11.3221 37.4137 11.953 38.1015 11.953C38.7893 11.953 39.3469 11.2593 39.3469 10.4036C39.3469 9.92623 39.1732 9.49952 38.9005 9.2153C39.0606 9.066 39.2299 8.91662 39.4106 8.76733C42.4875 6.22375 41.407 0.687121 38.4142 0.00300401C38.4142 0.00300401 40.345 -0.114074 41.4851 1.11358C41.8712 1.52942 42.4033 2.35727 42.3723 3.49641C42.5437 3.19234 42.6451 2.69995 42.4523 2.06449C42.7276 2.41498 42.9798 2.82475 43.1928 3.3046C44.7346 6.77841 41.32 10.4037 41.32 10.4037C41.32 10.4037 47.1123 5.87127 43.4534 2.26203C43.4534 2.26203 46.1347 3.45299 46.1347 6.0762C46.1347 6.79178 45.8493 7.8312 44.8104 8.69144C44.8104 8.69144 45.6352 8.47779 46.2144 7.5655C46.2289 7.9565 46.1565 8.5502 45.5965 9.32856C42.2234 14.0172 47.064 11.7214 47.892 8.85427C47.892 8.85427 48.1884 10.3277 47.4017 11.8484C46.8996 12.8186 46.0696 13.5544 44.0726 14.0499C44.0726 14.0499 44.9444 14.2265 45.9248 13.826C45.5387 14.5017 44.5311 15.2166 43.5403 15.7291C38.8598 18.1501 45.922 16.3601 47.8536 13.3897C47.8541 13.3896 47.8546 13.3893 47.8551 13.3891C47.843 13.4454 47.3213 15.8233 45.305 17.8229C44.5499 18.4826 43.1121 19.3371 40.7408 19.3193C40.7408 19.3193 41.6036 19.5964 43.0589 19.447C42.0316 19.9698 40.7937 20.352 39.3076 20.4875C39.0291 22.6044 37.7868 24.3979 37.7868 24.3979C37.7868 24.3979 38.4336 21.7034 37.4695 20.1219C36.6125 18.7159 33.4355 15.0036 33.5873 12.8412Z" fill="url(#paint1_linear_798_30179)"/>
<path d="M35.5121 21.6074C35.5121 22.9936 34.8322 24.8287 34.8322 24.8287C34.8322 24.8287 34.1523 22.9936 34.1523 21.6074C34.1523 20.2213 34.8322 19.0615 34.8322 19.0615C34.8322 19.0615 35.5121 20.2213 35.5121 21.6074Z" fill="url(#paint2_linear_798_30179)"/>
<path d="M34.8322 19.974C34.8322 19.974 35.3711 20.8941 35.4891 22.0746C35.5036 21.9153 35.5121 21.7581 35.5121 21.6065C35.5121 20.2203 34.8322 19.0605 34.8322 19.0605C34.8322 19.0605 34.1523 20.2202 34.1523 21.6065C34.1523 21.7581 34.1609 21.9152 34.1753 22.0746C34.2933 20.8942 34.8322 19.974 34.8322 19.974Z" fill="url(#paint3_linear_798_30179)"/>
<path d="M35.8952 17.873C37.9248 15.6953 38.338 13.9189 37.4507 11.676C37.2195 11.4341 37.0785 11.0658 36.934 10.6992C36.878 10.5571 36.1938 10.1033 36.227 9.964C36.2295 9.94549 36.307 9.92788 36.3102 9.9082C36.3102 9.9082 34.1285 10.531 33.666 12.3522C33.856 12.8 34.056 13.2579 34.2485 13.7261C34.4556 14.2299 34.4646 14.7757 34.3333 15.3736C34.7726 16.2186 35.3467 17.0882 35.8952 17.873Z" fill="url(#paint4_linear_798_30179)"/>
<path d="M34.083 13.3115C32.949 10.5526 31.5533 8.15793 33.4909 6.01806C33.4909 6.01806 32.3836 5.58297 32.1145 4.18359C32.1145 4.18359 32.4868 4.86705 34.2614 4.58232C36.7464 4.18359 37.9314 5.78906 37.9314 6.70409C37.9314 6.70409 36.5362 6.04156 35.789 7.06903C35.2254 7.84407 36.5032 9.60671 36.9565 10.525C38.2992 13.2448 37.9511 15.2164 35.4204 17.7818C32.3133 20.9315 34.6302 26.3844 34.6302 26.3844C34.6302 26.3844 30.3188 22.5533 32.4031 18.7914C33.6869 16.4741 34.6652 14.7282 34.083 13.3115Z" fill="url(#paint5_linear_798_30179)"/>
<path d="M36.0782 12.8411C35.9237 10.6401 32.7504 9.9083 32.7504 9.9083C32.7537 9.92789 32.7557 9.9455 32.7582 9.9641C32.7913 10.1034 32.8094 10.2509 32.8094 10.4036C32.8094 11.2593 32.2518 11.953 31.564 11.953C30.8763 11.953 30.3187 11.2593 30.3187 10.4036C30.3187 9.92623 30.4923 9.49952 30.7651 9.2153C30.6049 9.066 30.4357 8.91662 30.255 8.76733C27.1781 6.22375 28.2585 0.687121 31.2513 0.00300401C31.2513 0.00300401 29.3205 -0.114074 28.1805 1.11358C27.7944 1.52942 27.2623 2.35727 27.2932 3.49641C27.1218 3.19234 27.0204 2.69995 27.2131 2.06449C26.9379 2.41498 26.6857 2.82475 26.4727 3.3046C24.9309 6.77841 28.3455 10.4037 28.3455 10.4037C28.3455 10.4037 22.5532 5.87127 26.2121 2.26203C26.2121 2.26203 23.5307 3.45298 23.5307 6.07619C23.5307 6.79178 23.8162 7.8312 24.8551 8.69143C24.8551 8.69143 24.0303 8.47779 23.451 7.56549C23.4366 7.9565 23.509 8.55019 24.069 9.32855C27.4421 14.0172 22.6015 11.7214 21.7735 8.85426C21.7735 8.85426 21.4771 10.3277 22.2638 11.8484C22.7658 12.8186 23.5958 13.5544 25.5929 14.0499C25.5929 14.0499 24.7211 14.2265 23.7407 13.826C24.1268 14.5017 25.1344 15.2166 26.1252 15.7291C30.8057 18.1501 23.7435 16.3601 21.8119 13.3897C21.8114 13.3896 21.8109 13.3893 21.8104 13.3891C21.8225 13.4454 22.3442 15.8233 24.3606 17.8229C25.1157 18.4826 26.5534 19.3371 28.9247 19.3193C28.9247 19.3193 28.062 19.5964 26.6067 19.447C27.6339 19.9698 28.8718 20.352 30.358 20.4875C30.6365 22.6044 31.8787 24.3979 31.8787 24.3979C31.8787 24.3979 31.232 21.7034 32.196 20.1219C33.053 18.7158 36.23 15.0035 36.0782 12.8411Z" fill="url(#paint6_linear_798_30179)"/>
<path d="M25.0311 13.8939C25.0731 13.8879 25.0959 13.8833 25.0959 13.8833C24.9145 13.8383 24.7429 13.7912 24.5801 13.7422C24.722 13.7947 24.8724 13.8452 25.0311 13.8939Z" fill="url(#paint7_linear_798_30179)"/>
<path d="M36.0781 12.841C35.9237 10.64 32.7504 9.9082 32.7504 9.9082C32.7516 9.91559 32.7524 9.92215 32.7533 9.92913C33.6154 10.293 35.2993 11.2081 35.4139 12.841C35.5657 15.0034 32.8039 18.5496 31.9469 19.9556C30.9828 21.5371 31.8787 24.3976 31.8787 24.3976C31.8787 24.3976 31.2319 21.7032 32.196 20.1216C33.053 18.7157 36.2299 15.0034 36.0781 12.841Z" fill="url(#paint8_linear_798_30179)"/>
<path d="M26.4137 16.5685C26.3694 16.5522 26.3244 16.5354 26.2788 16.5179C26.2785 16.5178 26.2782 16.5177 26.2779 16.5175C26.2324 16.5001 26.1862 16.482 26.1392 16.4633C26.1387 16.4632 26.1382 16.463 26.1377 16.4627C26.089 16.4433 26.0395 16.4232 25.9894 16.4025C25.9891 16.4024 25.9888 16.4022 25.9885 16.4021C25.8942 16.363 25.7977 16.3217 25.6994 16.2782H25.6994C25.6983 16.2777 25.6973 16.2772 25.6962 16.2768C25.5963 16.2325 25.4948 16.186 25.3917 16.1372C25.3916 16.1372 25.3916 16.1371 25.3915 16.1371C25.385 16.134 25.3784 16.1309 25.3719 16.1277C25.3224 16.1041 25.2727 16.0802 25.2227 16.0556C25.2168 16.0527 25.2109 16.0497 25.205 16.0468C25.2047 16.0467 25.2044 16.0466 25.2041 16.0464C25.1552 16.0223 25.1062 15.9978 25.0568 15.9728C25.0514 15.97 25.0458 15.9672 25.0403 15.9644C25.0401 15.9643 25.0399 15.9641 25.0397 15.964C24.9918 15.9397 24.9439 15.915 24.8958 15.8898C24.8888 15.8861 24.8818 15.8823 24.8748 15.8787C24.8747 15.8787 24.8746 15.8786 24.8745 15.8786C24.8346 15.8576 24.7947 15.8365 24.7547 15.815L24.7545 15.8149C24.7392 15.8066 24.7238 15.7981 24.7084 15.7897C24.6699 15.7687 24.6312 15.7477 24.5926 15.7262C24.5759 15.7169 24.5591 15.7074 24.5425 15.698C24.5423 15.6979 24.542 15.6977 24.5419 15.6977C24.4356 15.6379 24.3294 15.5762 24.2236 15.5126C24.2188 15.5097 24.2139 15.5068 24.2091 15.5038C24.209 15.5037 24.2089 15.5037 24.2088 15.5036C24.0672 15.4183 23.9264 15.3298 23.7877 15.238C23.7876 15.238 23.7876 15.2379 23.7875 15.2379C23.7689 15.2256 23.7505 15.2131 23.732 15.2005C23.6977 15.1776 23.6635 15.1547 23.6295 15.1314C23.606 15.1153 23.5828 15.0987 23.5595 15.0825C23.5594 15.0825 23.5594 15.0824 23.5593 15.0824C23.5309 15.0625 23.5024 15.0428 23.4741 15.0226L23.4741 15.0225C23.4496 15.005 23.4255 14.9872 23.4011 14.9695C23.4009 14.9694 23.4007 14.9692 23.4005 14.969C23.3739 14.9497 23.3472 14.9305 23.3209 14.9109C23.2959 14.8924 23.2714 14.8735 23.2467 14.8547C23.2466 14.8546 23.2465 14.8545 23.2464 14.8545C23.221 14.8352 23.1955 14.8161 23.1704 14.7967L23.1703 14.7966C23.1533 14.7834 23.1365 14.7699 23.1197 14.7566C23.0381 14.6923 22.9577 14.6271 22.8794 14.5607C22.8542 14.5393 22.8297 14.5176 22.8049 14.496C22.8046 14.4958 22.8045 14.4956 22.8042 14.4954C22.7827 14.4766 22.7609 14.4581 22.7397 14.4392C22.7148 14.4169 22.6906 14.3944 22.6661 14.3719L22.666 14.3719C22.6455 14.353 22.6246 14.3343 22.6044 14.3153C22.5986 14.3099 22.5931 14.3044 22.5875 14.299C22.5491 14.2627 22.5109 14.2261 22.4737 14.1892C22.4503 14.1659 22.4277 14.1423 22.4048 14.1189C22.4047 14.1188 22.4046 14.1186 22.4045 14.1185C22.3023 14.0137 22.2049 13.9071 22.1143 13.7983C22.0924 13.772 22.0717 13.7454 22.0506 13.7189C22.0503 13.7185 22.0499 13.718 22.0496 13.7177C22.0166 13.6763 21.9847 13.6346 21.9536 13.5926C21.9497 13.5872 21.9456 13.5819 21.9417 13.5765C21.9415 13.5762 21.9412 13.576 21.9411 13.5756C21.9295 13.5598 21.9172 13.5441 21.9059 13.5281C21.8734 13.4825 21.8421 13.4366 21.812 13.3903C21.8115 13.3901 21.811 13.3899 21.8105 13.3896C21.8109 13.391 21.8117 13.3949 21.8125 13.3988C21.8129 13.4003 21.8132 13.4019 21.8136 13.4037C21.8143 13.4067 21.8154 13.4112 21.8163 13.4152C21.817 13.4183 21.8175 13.4207 21.8184 13.4244C21.8191 13.4272 21.8199 13.4306 21.8207 13.4337C21.8218 13.4383 21.8231 13.4436 21.8243 13.4489C21.8247 13.4506 21.8251 13.4521 21.8255 13.4538C21.8268 13.4591 21.8281 13.4645 21.8296 13.4704C21.8311 13.476 21.8327 13.4826 21.8344 13.4889C21.8358 13.4943 21.837 13.4993 21.8385 13.5051C21.8404 13.5127 21.8426 13.5208 21.8448 13.5291C21.8469 13.5369 21.8492 13.5453 21.8514 13.5537C21.8554 13.5685 21.8597 13.5843 21.8643 13.6009C21.8669 13.6104 21.8696 13.6199 21.8724 13.6299C21.8758 13.642 21.8794 13.6545 21.8831 13.6674C21.8858 13.6766 21.8887 13.6865 21.8915 13.6961C21.8977 13.7172 21.9043 13.7392 21.9113 13.7623C21.9148 13.7739 21.9184 13.7856 21.9221 13.7978C21.9266 13.8123 21.9312 13.827 21.936 13.8422C21.9407 13.857 21.9457 13.8725 21.9507 13.8879C21.9533 13.8961 21.9558 13.9038 21.9584 13.9121C21.9632 13.9267 21.9683 13.942 21.9733 13.9571C21.9747 13.9613 21.9761 13.9657 21.9775 13.9698C22.0313 14.1308 22.0997 14.3196 22.1853 14.5304C23.4872 15.5915 25.4081 16.2732 26.4133 16.5688C26.4138 16.5685 26.4138 16.5685 26.4137 16.5685Z" fill="url(#paint9_linear_798_30179)"/>
<path d="M29.7574 8.60118C29.938 8.75048 30.1072 8.89994 30.2675 9.04915C29.9946 9.33338 29.8211 9.76017 29.8211 10.2375C29.8211 11.0648 30.6992 11.8868 31.3555 11.9308C31.3535 11.93 31.3519 11.9291 31.35 11.9284C30.7949 11.8081 30.3668 11.2318 30.3241 10.5203C30.321 10.4812 30.3194 10.4422 30.3194 10.4035C30.3194 9.92616 30.493 9.49945 30.7657 9.21522C30.6056 9.06593 30.4363 8.91655 30.2557 8.76725C27.1788 6.22367 28.2592 0.687047 31.252 0.00292969C31.252 0.00292969 30.5315 0.037804 29.8303 0.433046C27.4285 1.78692 26.9525 6.28246 29.7574 8.60118Z" fill="url(#paint10_linear_798_30179)"/>
<path d="M28.346 10.4047C28.346 10.4047 28.3005 10.3506 28.2148 10.2568C28.2973 10.353 28.346 10.4047 28.346 10.4047Z" fill="url(#paint11_linear_798_30179)"/>
<path d="M28.345 10.4041C28.345 10.4041 27.6792 9.88281 26.9418 9.05363L26.9417 9.05347C26.9205 9.02972 26.8994 9.00564 26.8782 8.98139C26.8735 8.97608 26.8689 8.97068 26.8642 8.96537C26.8278 8.92369 26.7915 8.88134 26.7549 8.83824C26.7477 8.82977 26.7406 8.8213 26.7334 8.81275C26.7148 8.79066 26.6962 8.76841 26.6776 8.74591C26.6681 8.73453 26.6586 8.72299 26.6492 8.71145C26.6193 8.67508 26.5894 8.6383 26.5595 8.60102C26.5481 8.58682 26.5366 8.57262 26.5253 8.55825C26.5087 8.53733 26.4921 8.51632 26.4756 8.49515C26.4621 8.47779 26.4485 8.46027 26.4351 8.44275C26.4111 8.41161 26.3872 8.38031 26.3634 8.34859C26.3486 8.32899 26.3338 8.30932 26.319 8.28947C26.3045 8.26996 26.29 8.25028 26.2756 8.2306C26.2581 8.2066 26.2405 8.18236 26.2231 8.15803C26.2049 8.1327 26.1868 8.10721 26.1689 8.08155C26.1519 8.05731 26.1348 8.03298 26.118 8.0084C26.1054 7.99013 26.0928 7.97178 26.0804 7.95343C26.0588 7.92163 26.0374 7.88958 26.0162 7.85736C26.0041 7.83893 25.9919 7.82033 25.9799 7.80173C25.9612 7.77283 25.9426 7.74385 25.9242 7.71471C25.9137 7.69818 25.9033 7.68166 25.8931 7.66506C25.8685 7.62553 25.8441 7.58584 25.8202 7.54574C25.8129 7.53353 25.8058 7.52116 25.7986 7.50895C25.7795 7.47665 25.7606 7.4441 25.7419 7.41139C25.7331 7.39602 25.7244 7.38066 25.7157 7.36522C25.6921 7.32329 25.6689 7.28119 25.6461 7.23867C25.64 7.2273 25.6341 7.21576 25.628 7.2043C25.6094 7.16918 25.5911 7.13389 25.5731 7.09843C25.5659 7.08415 25.5586 7.06987 25.5514 7.05559C25.5294 7.01149 25.5079 6.96715 25.4868 6.92256C25.4818 6.91185 25.477 6.90114 25.472 6.89043C25.4545 6.85273 25.4374 6.81487 25.4207 6.77684C25.4149 6.76364 25.409 6.75052 25.4033 6.73732C25.3834 6.69123 25.364 6.64498 25.3454 6.59848C25.3413 6.58835 25.3374 6.57806 25.3333 6.56793C25.3175 6.52799 25.3023 6.48788 25.2874 6.44761C25.2829 6.43549 25.2784 6.42345 25.274 6.41132C25.2568 6.36358 25.2402 6.31567 25.2244 6.26751C25.2211 6.25755 25.2181 6.24758 25.2148 6.23762C25.2014 6.19593 25.1885 6.15408 25.1762 6.11215C25.1729 6.10086 25.1695 6.08965 25.1663 6.07844C25.1522 6.02937 25.139 5.98013 25.1266 5.93072C25.1241 5.92076 25.1217 5.9108 25.1193 5.90091C25.1088 5.85765 25.0989 5.81431 25.0896 5.77088C25.0875 5.76059 25.0851 5.75029 25.083 5.73999C25.0727 5.68976 25.0632 5.63936 25.0547 5.58887C25.0531 5.57882 25.0516 5.56878 25.05 5.55881C25.0429 5.51447 25.0365 5.46997 25.0308 5.42546C25.0296 5.41583 25.0283 5.4062 25.0271 5.39657C25.0209 5.34558 25.0159 5.29443 25.0118 5.24328C25.011 5.23291 25.0103 5.22253 25.0096 5.21215C25.0063 5.16698 25.0038 5.12172 25.0023 5.07647C25.0019 5.0675 25.0014 5.05853 25.0012 5.04948C24.9997 4.99792 24.9994 4.94619 25.0002 4.89438C25.0004 4.88383 25.0007 4.8732 25.0009 4.86266C25.002 4.81657 25.0039 4.77049 25.0068 4.72432C25.0073 4.7161 25.0077 4.70796 25.0082 4.69974C25.0119 4.64776 25.0168 4.59579 25.0228 4.54372C25.024 4.53268 25.0255 4.52164 25.0269 4.51059C25.0327 4.46409 25.0395 4.41759 25.0473 4.37101C25.0485 4.36346 25.0496 4.3559 25.0509 4.34826C25.0601 4.2962 25.0706 4.24405 25.0822 4.19191C25.0848 4.18045 25.0875 4.16907 25.0903 4.1577C25.1013 4.11062 25.1134 4.06354 25.1266 4.01646C25.1286 4.00973 25.1302 4.00309 25.1321 3.99636C25.1472 3.9443 25.1638 3.89224 25.1814 3.84018C25.1854 3.82838 25.1897 3.81659 25.1939 3.8048C25.2107 3.75731 25.2285 3.70981 25.2476 3.66232C25.25 3.65642 25.2521 3.65061 25.2545 3.64471C25.2758 3.59282 25.2989 3.541 25.323 3.48927C25.3287 3.47715 25.3346 3.46503 25.3404 3.4529C25.3635 3.40491 25.3876 3.357 25.4133 3.30909C25.4159 3.30427 25.4183 3.29938 25.4208 3.29456C25.4488 3.243 25.4787 3.19151 25.5098 3.14012C25.5173 3.12774 25.525 3.11545 25.5326 3.10308C25.5627 3.05451 25.5939 3.00602 25.6268 2.95761C25.6293 2.95404 25.6315 2.95038 25.634 2.94681C25.6691 2.89566 25.7063 2.8446 25.7448 2.79361C25.7541 2.78124 25.7636 2.76887 25.7731 2.7565C25.8113 2.70701 25.8505 2.65752 25.8919 2.60828C25.8935 2.60637 25.895 2.60446 25.8965 2.60264C25.9392 2.55199 25.9842 2.5015 26.0304 2.4511C26.0418 2.43873 26.0533 2.42627 26.0648 2.4139C26.1121 2.36333 26.1605 2.31293 26.2114 2.2627C26.2114 2.2627 25.5684 2.54916 24.9122 3.14867C23.0151 7.20081 28.345 10.4041 28.345 10.4041Z" fill="url(#paint12_linear_798_30179)"/>
<path d="M24.7712 12.0032C24.7709 12.0031 24.7707 12.003 24.7704 12.0028C24.7688 12.0026 24.7672 12.0023 24.7656 12.002C24.7674 12.0024 24.7694 12.0029 24.7712 12.0032Z" fill="url(#paint13_linear_798_30179)"/>
<path d="M21.7721 8.86155C21.7717 8.86388 21.7712 8.86653 21.7705 8.87019C21.7701 8.87251 21.7695 8.87583 21.769 8.87866C21.7685 8.88189 21.768 8.88513 21.7673 8.88903C21.7666 8.89302 21.7659 8.89792 21.7651 8.90257C21.7645 8.9068 21.7638 8.91096 21.7631 8.91577C21.7622 8.921 21.7614 8.92706 21.7605 8.93288C21.7597 8.93819 21.7589 8.9435 21.7581 8.94932C21.7571 8.95613 21.7561 8.96352 21.7551 8.97099C21.7543 8.97697 21.7535 8.98303 21.7527 8.98942C21.7516 8.99781 21.7505 9.00669 21.7494 9.01583C21.7487 9.02239 21.7479 9.02911 21.747 9.036C21.746 9.0458 21.7448 9.0561 21.7436 9.06673C21.7428 9.0742 21.7421 9.08192 21.7412 9.08973C21.7401 9.10061 21.7391 9.11173 21.738 9.12327C21.7372 9.13174 21.7365 9.14046 21.7357 9.14926C21.7347 9.16147 21.7337 9.17384 21.7327 9.18679C21.732 9.19576 21.7313 9.20515 21.7307 9.21445C21.7298 9.22781 21.7288 9.24135 21.7279 9.25538C21.7274 9.26526 21.7268 9.27556 21.7262 9.28569C21.7254 9.30022 21.7246 9.31475 21.7239 9.32994C21.7234 9.34024 21.723 9.35112 21.7226 9.36175C21.722 9.37752 21.7214 9.3933 21.7209 9.40974C21.7205 9.42037 21.7204 9.4315 21.7201 9.44246C21.7197 9.45973 21.7193 9.47683 21.7191 9.49477C21.719 9.50432 21.719 9.51445 21.7189 9.52424C21.7186 9.57257 21.7188 9.62256 21.72 9.67495C22.3998 10.791 23.7325 11.7285 24.6296 11.9703C23.7528 11.7108 22.2087 10.362 21.7734 8.85449C21.7734 8.85449 21.773 8.85599 21.7726 8.85839C21.7725 8.85906 21.7723 8.86064 21.7721 8.86155Z" fill="url(#paint14_linear_798_30179)"/>
<path d="M43.252 16.5685C43.2962 16.5522 43.3412 16.5354 43.3869 16.5179H43.387C43.3873 16.5178 43.3875 16.5177 43.3878 16.5175C43.4333 16.5001 43.4795 16.482 43.5265 16.4633H43.5266C43.5271 16.4632 43.5275 16.4629 43.528 16.4627C43.5767 16.4433 43.6262 16.4232 43.6763 16.4025C43.6766 16.4024 43.6769 16.4022 43.6771 16.4021C43.7715 16.363 43.8679 16.3217 43.9662 16.2782H43.9663C43.9673 16.2777 43.9684 16.2772 43.9694 16.2768C44.0693 16.2325 44.1708 16.186 44.2739 16.1372C44.2739 16.1372 44.2741 16.1371 44.2741 16.1371C44.2806 16.134 44.2872 16.1309 44.2937 16.1277C44.3432 16.1041 44.3929 16.0802 44.4429 16.0556C44.4488 16.0527 44.4547 16.0497 44.4606 16.0468C44.4609 16.0467 44.4612 16.0466 44.4615 16.0464C44.5104 16.0223 44.5594 15.9978 44.6088 15.9728C44.6142 15.97 44.6198 15.9672 44.6253 15.9644C44.6255 15.9643 44.6257 15.9641 44.626 15.964C44.6738 15.9397 44.7217 15.915 44.7698 15.8898C44.7768 15.8861 44.7838 15.8823 44.7909 15.8787C44.7909 15.8787 44.791 15.8786 44.7911 15.8786C44.831 15.8576 44.8709 15.8365 44.9108 15.815C44.9108 15.815 44.9109 15.8149 44.911 15.8149C44.9264 15.8066 44.9417 15.7981 44.9571 15.7897C44.9571 15.7897 44.9571 15.7897 44.9572 15.7897C44.9958 15.7687 45.0343 15.7477 45.0729 15.7262C45.0896 15.7169 45.1064 15.7074 45.1231 15.698C45.1232 15.6979 45.1235 15.6977 45.1237 15.6977C45.2299 15.6379 45.3361 15.5762 45.4419 15.5126C45.4467 15.5097 45.4516 15.5068 45.4565 15.5038C45.4565 15.5037 45.4566 15.5037 45.4567 15.5036C45.5983 15.4183 45.7391 15.3298 45.8779 15.238C45.8779 15.238 45.8779 15.2379 45.878 15.2379C45.8966 15.2256 45.9151 15.2131 45.9336 15.2005C45.9678 15.1776 46.0021 15.1547 46.036 15.1314C46.0595 15.1153 46.0827 15.0987 46.1061 15.0825C46.1062 15.0825 46.1062 15.0824 46.1063 15.0824C46.1347 15.0625 46.1632 15.0428 46.1915 15.0226L46.1916 15.0225C46.2161 15.005 46.2401 14.9872 46.2645 14.9695C46.2647 14.9694 46.2649 14.9692 46.2651 14.969C46.2917 14.9497 46.3184 14.9305 46.3448 14.9109C46.3697 14.8924 46.3942 14.8735 46.4189 14.8547C46.419 14.8546 46.4191 14.8545 46.4192 14.8545C46.4446 14.8352 46.4701 14.8161 46.4952 14.7967L46.4953 14.7966C46.5123 14.7834 46.5291 14.7699 46.5459 14.7566C46.6275 14.6923 46.708 14.6271 46.7863 14.5607C46.8114 14.5393 46.8359 14.5176 46.8607 14.496C46.861 14.4958 46.8612 14.4956 46.8614 14.4954C46.8829 14.4766 46.9047 14.4581 46.9259 14.4392C46.9508 14.4169 46.9751 14.3944 46.9995 14.3719L46.9996 14.3719C47.0201 14.353 47.041 14.3343 47.0612 14.3153C47.0669 14.3099 47.0724 14.3044 47.078 14.299C47.1165 14.2627 47.1546 14.2261 47.1918 14.1892C47.2152 14.1659 47.2378 14.1423 47.2607 14.1189C47.2608 14.1188 47.261 14.1186 47.261 14.1185C47.3633 14.0137 47.4607 13.9071 47.5512 13.7983C47.5731 13.772 47.5938 13.7454 47.6149 13.7189C47.6153 13.7185 47.6156 13.718 47.6159 13.7177C47.6489 13.6763 47.6809 13.6346 47.7119 13.5926C47.7158 13.5872 47.7199 13.5819 47.7239 13.5765C47.724 13.5762 47.7243 13.576 47.7245 13.5756C47.7361 13.5598 47.7484 13.5441 47.7597 13.5281C47.7921 13.4825 47.8234 13.4366 47.8535 13.3903C47.854 13.3901 47.8545 13.3899 47.855 13.3896C47.8547 13.391 47.8538 13.3949 47.853 13.3988C47.8527 13.4003 47.8523 13.4019 47.8519 13.4037C47.8512 13.4067 47.8502 13.4112 47.8493 13.4152C47.8485 13.4183 47.848 13.4207 47.8472 13.4244C47.8465 13.4272 47.8457 13.4306 47.8449 13.4337C47.8439 13.4383 47.8425 13.4436 47.8413 13.4489C47.8409 13.4506 47.8405 13.4521 47.8401 13.4538C47.8388 13.4591 47.8375 13.4645 47.8361 13.4704C47.8346 13.476 47.8329 13.4826 47.8313 13.4889C47.8299 13.4943 47.8287 13.4993 47.8272 13.5051C47.8253 13.5127 47.8231 13.5208 47.8209 13.5291C47.8189 13.5369 47.8166 13.5453 47.8144 13.5537C47.8104 13.5685 47.8061 13.5843 47.8015 13.6009C47.7989 13.6104 47.7962 13.6199 47.7934 13.6299C47.79 13.642 47.7864 13.6545 47.7827 13.6674C47.78 13.6766 47.7771 13.6865 47.7743 13.6961C47.768 13.7172 47.7615 13.7392 47.7545 13.7623C47.7509 13.7739 47.7474 13.7856 47.7436 13.7978C47.7392 13.8123 47.7346 13.827 47.7298 13.8422C47.7251 13.857 47.7201 13.8725 47.7152 13.8879C47.7126 13.8961 47.7101 13.9038 47.7074 13.9121C47.7027 13.9267 47.6976 13.942 47.6926 13.9571C47.6912 13.9613 47.6897 13.9657 47.6883 13.9698C47.6346 14.1308 47.5662 14.3196 47.4806 14.5304C46.1787 15.5915 44.2577 16.2732 43.2526 16.5688C43.2519 16.5685 43.2519 16.5685 43.252 16.5685Z" fill="url(#paint15_linear_798_30179)"/>
<path d="M39.9085 8.60118C39.7279 8.75048 39.5587 8.89994 39.3985 9.04915C39.6713 9.33338 39.8448 9.76017 39.8448 10.2375C39.8448 11.0648 38.9667 11.8868 38.3105 11.9308C38.3124 11.93 38.3141 11.9291 38.316 11.9284C38.8711 11.8081 39.2991 11.2318 39.342 10.5203C39.3451 10.4812 39.3467 10.4422 39.3467 10.4035C39.3467 9.92616 39.1731 9.49945 38.9003 9.21522C39.0605 9.06593 39.2297 8.91655 39.4104 8.76725C42.4873 6.22367 41.4069 0.687047 38.4141 0.00292969C38.4141 0.00292969 39.1346 0.037804 39.8358 0.433046C42.2374 1.78692 42.7134 6.28246 39.9085 8.60118Z" fill="url(#paint16_linear_798_30179)"/>
<path d="M41.3203 10.4038C41.3203 10.4038 41.3658 10.3496 41.4515 10.2559C41.369 10.352 41.3203 10.4038 41.3203 10.4038Z" fill="url(#paint17_linear_798_30179)"/>
<path d="M41.3203 10.4031C41.3203 10.4031 41.9861 9.88183 42.7235 9.05266L42.7236 9.05249C42.7448 9.02874 42.7659 9.00466 42.7871 8.98042C42.7918 8.9751 42.7964 8.96971 42.8011 8.96439C42.8374 8.92271 42.8739 8.88036 42.9103 8.83727C42.9176 8.8288 42.9247 8.82033 42.9319 8.81177C42.9505 8.78969 42.9691 8.76743 42.9877 8.74493C42.9972 8.73356 43.0067 8.72201 43.0161 8.71047C43.0461 8.6741 43.0759 8.63732 43.1058 8.60004C43.1172 8.58584 43.1286 8.57164 43.14 8.55728C43.1566 8.53635 43.1731 8.51534 43.1897 8.49417C43.2032 8.47682 43.2167 8.4593 43.2302 8.44178C43.2542 8.41064 43.2781 8.37933 43.3019 8.34761C43.3167 8.32802 43.3315 8.30834 43.3463 8.28849C43.3608 8.26898 43.3752 8.2493 43.3897 8.22962C43.4072 8.20563 43.4247 8.18138 43.4422 8.15705C43.4603 8.13173 43.4784 8.10623 43.4964 8.08058C43.5134 8.05633 43.5303 8.032 43.5473 8.00742C43.5598 7.98916 43.5724 7.97081 43.5849 7.95246C43.6065 7.92065 43.6278 7.8886 43.6491 7.85639C43.6612 7.83795 43.6732 7.81935 43.6853 7.80075C43.704 7.77186 43.7226 7.74288 43.741 7.71373C43.7515 7.69721 43.7618 7.68069 43.7721 7.66408C43.7967 7.62455 43.821 7.58486 43.845 7.54476C43.8523 7.53255 43.8593 7.52018 43.8666 7.50797C43.8857 7.47567 43.9046 7.44312 43.9233 7.41041C43.9321 7.39505 43.9408 7.37969 43.9495 7.36424C43.9731 7.32231 43.9963 7.28021 44.0191 7.2377C44.0252 7.22632 44.0311 7.21478 44.0372 7.20332C44.0558 7.1682 44.0741 7.13291 44.0921 7.09745C44.0993 7.08317 44.1066 7.06889 44.1137 7.05461C44.1357 7.01052 44.1573 6.96618 44.1783 6.92159C44.1834 6.91088 44.1882 6.90017 44.1932 6.88945C44.2107 6.85176 44.2278 6.81389 44.2445 6.77586C44.2503 6.76266 44.2561 6.74954 44.2619 6.73634C44.2818 6.69026 44.3012 6.64401 44.3198 6.59751C44.3239 6.58738 44.3278 6.57708 44.3319 6.56695C44.3476 6.52701 44.3629 6.48691 44.3778 6.44663C44.3823 6.43451 44.3868 6.42247 44.3912 6.41035C44.4084 6.3626 44.425 6.31469 44.4408 6.26653C44.4441 6.25657 44.4471 6.2466 44.4504 6.23664C44.4638 6.19496 44.4766 6.15311 44.489 6.11118C44.4923 6.09988 44.4957 6.08867 44.4989 6.07746C44.5129 6.02839 44.5261 5.97915 44.5385 5.92975C44.541 5.91978 44.5434 5.90982 44.5458 5.89994C44.5563 5.85668 44.5662 5.81333 44.5755 5.76991C44.5777 5.75961 44.58 5.74931 44.5821 5.73902C44.5924 5.68878 44.6019 5.63838 44.6104 5.5879C44.612 5.57785 44.6135 5.5678 44.6152 5.55784C44.6223 5.5135 44.6287 5.46899 44.6344 5.42448C44.6356 5.41485 44.6369 5.40522 44.6381 5.39559C44.6442 5.34461 44.6493 5.29346 44.6534 5.24231C44.6542 5.23193 44.6548 5.22155 44.6555 5.21117C44.6588 5.166 44.6613 5.12075 44.6628 5.07549C44.6632 5.06653 44.6637 5.05756 44.6639 5.04851C44.6654 4.99694 44.6657 4.94521 44.6649 4.8934C44.6648 4.88285 44.6644 4.87223 44.6642 4.86168C44.6631 4.8156 44.6612 4.76951 44.6583 4.72335C44.6578 4.71513 44.6574 4.70699 44.6569 4.69877C44.6532 4.64679 44.6483 4.59481 44.6423 4.54275C44.6411 4.5317 44.6396 4.52066 44.6382 4.50962C44.6324 4.46312 44.6256 4.41662 44.6178 4.37004C44.6166 4.36248 44.6155 4.35492 44.6142 4.34728C44.6051 4.29522 44.5945 4.24308 44.5828 4.19093C44.5802 4.17947 44.5775 4.1681 44.5748 4.15672C44.5638 4.10964 44.5517 4.06256 44.5385 4.01548C44.5366 4.00875 44.5349 4.00211 44.533 3.99539C44.518 3.94332 44.5013 3.89126 44.4837 3.8392C44.4796 3.82741 44.4754 3.81562 44.4712 3.80383C44.4544 3.75633 44.4366 3.70884 44.4175 3.66134C44.4151 3.65545 44.413 3.64963 44.4106 3.64374C44.3893 3.59184 44.3663 3.54003 44.3421 3.4883C44.3364 3.47617 44.3305 3.46405 44.3247 3.45193C44.3016 3.40393 44.2775 3.35602 44.2518 3.30811C44.2493 3.3033 44.2468 3.2984 44.2443 3.29358C44.2163 3.24202 44.1864 3.19054 44.1553 3.13914C44.1479 3.12677 44.1402 3.11448 44.1326 3.10211C44.1024 3.05353 44.0713 3.00504 44.0383 2.95663C44.0359 2.95306 44.0336 2.94941 44.0312 2.94584C43.9961 2.89469 43.9589 2.84362 43.9204 2.79264C43.9111 2.78027 43.9016 2.76789 43.8921 2.75552C43.8539 2.70603 43.8147 2.65655 43.7733 2.60731C43.7717 2.6054 43.7702 2.60349 43.7687 2.60166C43.726 2.55101 43.681 2.50052 43.6348 2.45012C43.6234 2.43775 43.612 2.4253 43.6003 2.41292C43.5531 2.36236 43.5047 2.31195 43.4538 2.26172C43.4538 2.26172 44.0968 2.54819 44.753 3.14769C46.6502 7.19983 41.3203 10.4031 41.3203 10.4031Z" fill="url(#paint18_linear_798_30179)"/>
<path d="M44.8945 12.0042C44.8948 12.0041 44.895 12.004 44.8953 12.0038C44.8969 12.0035 44.8985 12.0033 44.9001 12.0029C44.8983 12.0034 44.8963 12.0039 44.8945 12.0042Z" fill="url(#paint19_linear_798_30179)"/>
<path d="M47.8927 8.86155C47.8931 8.86388 47.8936 8.86653 47.8943 8.87019C47.8947 8.87251 47.8953 8.87583 47.8957 8.87866C47.8963 8.88189 47.8968 8.88513 47.8975 8.88903C47.8982 8.89302 47.8989 8.89792 47.8997 8.90257C47.9003 8.9068 47.901 8.91096 47.9017 8.91577C47.9026 8.921 47.9034 8.92706 47.9043 8.93288C47.9051 8.93819 47.9059 8.9435 47.9067 8.94932C47.9077 8.95613 47.9086 8.96352 47.9097 8.97099C47.9105 8.97697 47.9113 8.98303 47.9121 8.98942C47.9132 8.99781 47.9143 9.00669 47.9154 9.01583C47.9161 9.02239 47.9169 9.02911 47.9178 9.036C47.9189 9.0458 47.92 9.0561 47.9212 9.06673C47.9219 9.0742 47.9227 9.08192 47.9236 9.08973C47.9247 9.10061 47.9257 9.11173 47.9268 9.12327C47.9276 9.13174 47.9283 9.14046 47.9291 9.14926C47.9301 9.16147 47.9311 9.17384 47.9321 9.18679C47.9328 9.19576 47.9335 9.20515 47.9341 9.21445C47.9351 9.22781 47.936 9.24135 47.9369 9.25538C47.9374 9.26526 47.938 9.27556 47.9386 9.28569C47.9394 9.30022 47.9403 9.31475 47.9409 9.32994C47.9414 9.34024 47.9418 9.35112 47.9422 9.36175C47.9428 9.37752 47.9434 9.3933 47.9439 9.40974C47.9443 9.42037 47.9444 9.4315 47.9447 9.44246C47.9451 9.45973 47.9455 9.47683 47.9457 9.49477C47.9458 9.50432 47.9458 9.51445 47.9458 9.52424C47.9462 9.57257 47.946 9.62256 47.9448 9.67495C47.265 10.791 45.9322 11.7285 45.0352 11.9703C45.9119 11.7108 47.456 10.362 47.8914 8.85449C47.8914 8.85449 47.8917 8.85599 47.8921 8.85839C47.8923 8.85906 47.8925 8.86064 47.8927 8.86155Z" fill="url(#paint20_linear_798_30179)"/>
<path d="M9.34102 29.6836H8.04024V34.5879H9.20039C9.27071 34.5879 9.34102 34.5879 9.41133 34.5879C10.6652 34.4941 11.2922 33.668 11.2922 32.1094C11.2922 31.9453 11.2863 31.7871 11.2746 31.6348C11.134 30.334 10.4895 29.6836 9.34102 29.6836ZM9.79805 39.7559H4.47188V39.2812H5.87813V29.6836H4.47188V29.209H10.132C10.9172 29.209 11.5852 29.3438 12.1359 29.6133C13.1203 30.0938 13.6125 30.8906 13.6125 32.0039C13.6125 32.4844 13.5188 32.9238 13.3313 33.3223C12.7688 34.5176 11.4973 35.1152 9.5168 35.1152H8.04024V39.2812H9.32344C9.56953 39.3047 9.72774 39.4629 9.79805 39.7559ZM17.9543 39.2988C18.0246 39.2988 18.0949 39.3047 18.1652 39.3164C18.3176 39.3516 18.3938 39.498 18.3938 39.7559H14.3156V39.2988C14.5148 39.2988 14.6848 39.2871 14.8254 39.2637C15.2355 39.1816 15.4406 38.877 15.4406 38.3496V28.7871H14.3156V28.3301H17.3742V33.6914C17.468 33.4688 17.591 33.252 17.7434 33.041C18.3059 32.3379 19.0617 31.9863 20.0109 31.9863C20.3508 31.9863 20.6672 32.0449 20.9602 32.1621C21.9094 32.5605 22.384 33.457 22.384 34.8516V39.2988H23.052C23.1223 39.2988 23.1926 39.3047 23.2629 39.3164C23.4152 39.3516 23.4914 39.498 23.4914 39.7559H19.5891V39.2988C19.8586 39.2988 20.0578 39.2695 20.1867 39.2109C20.3625 39.1172 20.4504 38.8301 20.4504 38.3496V34.6406C20.4504 34.3945 20.427 34.1719 20.3801 33.9727C20.1926 33.2461 19.759 32.8828 19.0793 32.8828C18.8449 32.8828 18.6105 32.9473 18.3762 33.0762C17.7082 33.4629 17.3742 34.1777 17.3742 35.2207V39.2988H17.9543ZM26.5324 35.959C26.5324 36.791 26.591 37.459 26.7082 37.9629C26.9426 38.9707 27.4992 39.4746 28.3781 39.4746C28.6711 39.4746 28.9348 39.416 29.1691 39.2988C29.884 38.9121 30.2414 37.7754 30.2414 35.8887C30.2414 35.0918 30.1828 34.4473 30.0656 33.9551C29.8313 32.9473 29.2688 32.4434 28.3781 32.4434C28.0383 32.4434 27.7395 32.5195 27.4816 32.6719C26.8488 33.082 26.5324 34.1777 26.5324 35.959ZM28.4484 31.9863C29.3859 31.9863 30.1945 32.2383 30.8742 32.7422C31.8586 33.4688 32.3508 34.5176 32.3508 35.8887C32.3508 36.9082 32.0461 37.7871 31.4367 38.5254C30.6633 39.4629 29.6262 39.9316 28.3254 39.9316C27.3762 39.9316 26.55 39.6504 25.8469 39.0879C24.8859 38.3145 24.4055 37.248 24.4055 35.8887C24.4055 34.9043 24.6984 34.0605 25.2844 33.3574C26.0578 32.4434 27.1125 31.9863 28.4484 31.9863ZM37.3605 32.4434C37.2316 32.4434 37.0969 32.4609 36.9563 32.4961C36.1242 32.7539 35.6848 33.7148 35.6379 35.3789L36.9914 35.4316C37.4836 35.4434 37.8586 35.4141 38.1164 35.3438C38.5148 35.2031 38.7141 34.8574 38.7141 34.3066C38.7141 34.1074 38.6965 33.9141 38.6613 33.7266C38.5207 32.8711 38.0871 32.4434 37.3605 32.4434ZM40.5773 37.9805C40.507 38.1562 40.4191 38.332 40.3137 38.5078C39.716 39.457 38.7492 39.9316 37.4133 39.9316C36.6281 39.9316 35.9191 39.7559 35.2863 39.4043C34.1027 38.7129 33.5109 37.5645 33.5109 35.959C33.5109 34.9746 33.7629 34.1367 34.2668 33.4453C34.9816 32.4727 36.0129 31.9863 37.3605 31.9863C38.0988 31.9863 38.7609 32.127 39.3469 32.4082C40.2844 32.877 40.7531 33.5742 40.7531 34.5C40.7531 34.7578 40.6945 34.9805 40.5773 35.168C40.2258 35.707 39.1711 35.959 37.4133 35.9238L35.6379 35.8887C35.6379 35.9004 35.6379 35.9121 35.6379 35.9238C35.6965 38.2559 36.4113 39.4219 37.7824 39.4219C38.0402 39.4219 38.2922 39.3809 38.5383 39.2988C39.2766 39.0645 39.8156 38.5781 40.1555 37.8398L40.5773 37.9805ZM45.2355 39.2988C45.3059 39.2988 45.3762 39.3047 45.4465 39.3164C45.5988 39.3516 45.675 39.498 45.675 39.7559H41.632V39.2988C41.843 39.2988 42.0246 39.2812 42.177 39.2461C42.5637 39.1641 42.757 38.8652 42.757 38.3496V32.6719H41.632V32.2324H44.5852L44.673 33.6914C44.7902 33.4453 44.9426 33.2109 45.1301 32.9883C45.716 32.3203 46.4309 31.9863 47.2746 31.9863C47.6262 31.9863 47.9543 32.0508 48.259 32.1797C49.2199 32.5781 49.7004 33.4688 49.7004 34.8516V39.2988H50.3859C50.4563 39.2988 50.5266 39.3047 50.5969 39.3164C50.7492 39.3516 50.8254 39.498 50.8254 39.7559H46.8V39.2988C47.0461 39.2988 47.2336 39.2754 47.3625 39.2285C47.632 39.1348 47.7668 38.8418 47.7668 38.3496V34.5879C47.7668 34.3301 47.7375 34.0957 47.6789 33.8848C47.5031 33.1934 47.0871 32.8477 46.4309 32.8477C46.2082 32.8477 45.9855 32.9062 45.7629 33.0234C45.1418 33.375 44.7902 34.0195 44.7082 34.957L44.6906 39.2988H45.2355ZM55.4133 39.2988C55.4719 39.2988 55.5246 39.3047 55.5715 39.3164C55.7473 39.3398 55.8352 39.4863 55.8352 39.7559H51.6164V39.2988C51.8508 39.2988 52.0383 39.2812 52.1789 39.2461C52.5656 39.1523 52.759 38.8535 52.759 38.3496V32.6719H51.6164V32.2324H54.6926V39.2988H55.4133ZM54.8684 29.8418C54.8684 30.041 54.8215 30.2285 54.7277 30.4043C54.5051 30.8145 54.1535 31.0195 53.673 31.0195C53.4855 31.0195 53.3039 30.9785 53.1281 30.8965C52.6945 30.6855 52.4777 30.334 52.4777 29.8418C52.4777 29.6543 52.5246 29.4668 52.6184 29.2793C52.841 28.8457 53.1926 28.6289 53.673 28.6289C53.8605 28.6289 54.0422 28.6758 54.218 28.7695C54.6516 29.0039 54.8684 29.3613 54.8684 29.8418ZM56.3273 39.7559C56.3273 39.6738 56.3332 39.5977 56.3449 39.5273C56.3684 39.3984 56.4621 39.3281 56.6262 39.3164C56.9777 39.2578 57.2766 39.082 57.5227 38.7891L59.5793 36.2051L57.1887 32.6719H56.3625V32.2324H60.2648V32.6719H59.2277L60.8625 35.1152L62.7082 32.6719H61.5305V32.2324H64.1496C64.1496 32.3145 64.1438 32.3906 64.132 32.4609C64.0969 32.5781 63.9914 32.6426 63.8156 32.6543C63.4523 32.7012 63.1535 32.8828 62.9191 33.1992L61.1613 35.5371L63.675 39.2988H64.0266C64.2258 39.3223 64.3723 39.4746 64.466 39.7559H60.6516V39.2988H61.6535L59.8605 36.627L57.7336 39.2988H58.9992V39.7559H56.3273Z" fill="#212121"/>
</mask>
<g mask="url(#mask0_798_30179)">
<rect x="-4.40234" y="27.6719" width="77.4819" height="14.3895" fill="#101111"/>
<rect x="11.8379" width="46.4761" height="26.9561" fill="#FA2D39"/>
</g>
<defs>
<linearGradient id="paint0_linear_798_30179" x1="35.1443" y1="26.3845" x2="35.1443" y2="14.9854" gradientUnits="userSpaceOnUse">
<stop stop-color="#FFAB40"/>
<stop offset="1" stop-color="#BF360C"/>
</linearGradient>
<linearGradient id="paint1_linear_798_30179" x1="40.7644" y1="24.3978" x2="40.7644" y2="-2.61761e-05" gradientUnits="userSpaceOnUse">
<stop stop-color="#BF360C"/>
<stop offset="1" stop-color="#FFAB40"/>
</linearGradient>
<linearGradient id="paint2_linear_798_30179" x1="38.4874" y1="12.3286" x2="33.5297" y2="25.2794" gradientUnits="userSpaceOnUse">
<stop stop-color="#BF360C"/>
<stop offset="1" stop-color="#FFAB40"/>
</linearGradient>
<linearGradient id="paint3_linear_798_30179" x1="37.1364" y1="15.3382" x2="34.3293" y2="22.6711" gradientUnits="userSpaceOnUse">
<stop stop-color="#FFAB40"/>
<stop offset="1" stop-color="#BF360C"/>
</linearGradient>
<linearGradient id="paint4_linear_798_30179" x1="35.7795" y1="17.873" x2="35.7795" y2="9.90824" gradientUnits="userSpaceOnUse">
<stop stop-color="#BF360C"/>
<stop offset="1" stop-color="#FFAB40"/>
</linearGradient>
<linearGradient id="paint5_linear_798_30179" x1="34.8827" y1="26.3843" x2="34.8827" y2="4.18358" gradientUnits="userSpaceOnUse">
<stop stop-color="#FFAB40"/>
<stop offset="1" stop-color="#BF360C"/>
</linearGradient>
<linearGradient id="paint6_linear_798_30179" x1="28.9011" y1="24.3978" x2="28.9011" y2="-0.000109067" gradientUnits="userSpaceOnUse">
<stop stop-color="#BF360C"/>
<stop offset="1" stop-color="#FFAB40"/>
</linearGradient>
<linearGradient id="paint7_linear_798_30179" x1="24.8379" y1="13.8939" x2="24.8379" y2="13.7423" gradientUnits="userSpaceOnUse">
<stop stop-color="#BF360C"/>
<stop offset="1" stop-color="#FFAB40"/>
</linearGradient>
<linearGradient id="paint8_linear_798_30179" x1="33.7917" y1="24.3977" x2="33.7917" y2="9.90824" gradientUnits="userSpaceOnUse">
<stop stop-color="#BF360C"/>
<stop offset="1" stop-color="#FFAB40"/>
</linearGradient>
<linearGradient id="paint9_linear_798_30179" x1="20.5974" y1="13.1363" x2="27.157" y2="17.1634" gradientUnits="userSpaceOnUse">
<stop stop-color="#FFAB40"/>
<stop offset="1" stop-color="#BF360C"/>
</linearGradient>
<linearGradient id="paint10_linear_798_30179" x1="29.5956" y1="11.9308" x2="29.5956" y2="0.0029048" gradientUnits="userSpaceOnUse">
<stop stop-color="#FFAB40"/>
<stop offset="1" stop-color="#BF360C"/>
</linearGradient>
<linearGradient id="paint11_linear_798_30179" x1="28.2804" y1="10.4047" x2="28.2804" y2="10.2568" gradientUnits="userSpaceOnUse">
<stop stop-color="#FFAB40"/>
<stop offset="1" stop-color="#BF360C"/>
</linearGradient>
<linearGradient id="paint12_linear_798_30179" x1="26.4245" y1="10.4041" x2="26.4245" y2="2.26238" gradientUnits="userSpaceOnUse">
<stop stop-color="#FFAB40"/>
<stop offset="1" stop-color="#BF360C"/>
</linearGradient>
<linearGradient id="paint13_linear_798_30179" x1="24.964" y1="12.1873" x2="21.4139" y2="8.83652" gradientUnits="userSpaceOnUse">
<stop stop-color="#BF360C"/>
<stop offset="1" stop-color="#FFAB40"/>
</linearGradient>
<linearGradient id="paint14_linear_798_30179" x1="24.8454" y1="12.3039" x2="21.3856" y2="9.03788" gradientUnits="userSpaceOnUse">
<stop stop-color="#BF360C"/>
<stop offset="1" stop-color="#FFAB40"/>
</linearGradient>
<linearGradient id="paint15_linear_798_30179" x1="49.0684" y1="13.1363" x2="42.5087" y2="17.1634" gradientUnits="userSpaceOnUse">
<stop stop-color="#FFAB40"/>
<stop offset="1" stop-color="#BF360C"/>
</linearGradient>
<linearGradient id="paint16_linear_798_30179" x1="40.0703" y1="11.9308" x2="40.0703" y2="0.0029048" gradientUnits="userSpaceOnUse">
<stop stop-color="#FFAB40"/>
<stop offset="1" stop-color="#BF360C"/>
</linearGradient>
<linearGradient id="paint17_linear_798_30179" x1="41.3859" y1="10.4037" x2="41.3859" y2="10.2559" gradientUnits="userSpaceOnUse">
<stop stop-color="#FFAB40"/>
<stop offset="1" stop-color="#BF360C"/>
</linearGradient>
<linearGradient id="paint18_linear_798_30179" x1="43.2408" y1="10.4031" x2="43.2408" y2="2.2614" gradientUnits="userSpaceOnUse">
<stop stop-color="#FFAB40"/>
<stop offset="1" stop-color="#BF360C"/>
</linearGradient>
<linearGradient id="paint19_linear_798_30179" x1="44.7016" y1="12.1883" x2="48.2518" y2="8.83666" gradientUnits="userSpaceOnUse">
<stop stop-color="#BF360C"/>
<stop offset="1" stop-color="#FFAB40"/>
</linearGradient>
<linearGradient id="paint20_linear_798_30179" x1="44.8194" y1="12.3039" x2="48.2792" y2="9.03788" gradientUnits="userSpaceOnUse">
<stop stop-color="#BF360C"/>
<stop offset="1" stop-color="#FFAB40"/>
</linearGradient>
</defs>
</svg>
