<svg width="63" height="48" viewBox="0 0 63 48" fill="none" xmlns="http://www.w3.org/2000/svg">
<mask id="mask0_798_30165" style="mask-type:alpha" maskUnits="userSpaceOnUse" x="-1" y="34" width="64" height="15">
<path fill-rule="evenodd" clip-rule="evenodd" d="M55.5352 41.6537H57.5279V38.6528H60.4173V41.6537H62.4103V34.7041H60.4173V37.3893H57.5279V34.7041H55.5352V41.6537Z" fill="#06132C" stroke="#231F20" stroke-width="0.5" stroke-miterlimit="2.6131"/>
<path fill-rule="evenodd" clip-rule="evenodd" d="M47.9629 40.2215C47.9629 41.1795 48.531 41.6535 49.6565 41.6535H54.3394V40.39H50.3043C50.0751 40.39 49.9555 40.2951 49.9555 40.0951V36.2624C49.9555 36.0624 50.0751 35.9677 50.3043 35.9677H54.3394V34.7041H49.6565C48.5308 34.7041 47.9629 35.1779 47.9629 36.1362V40.2215Z" fill="#06132C" stroke="#231F20" stroke-width="0.5" stroke-miterlimit="2.6131"/>
<path fill-rule="evenodd" clip-rule="evenodd" d="M42.3832 35.9679H43.3533H46.7672V34.7041H40.3906V35.9679H42.3832Z" fill="#06132C" stroke="#231F20" stroke-width="0.5" stroke-miterlimit="2.6131"/>
<path fill-rule="evenodd" clip-rule="evenodd" d="M40.3906 41.6539H46.7672V40.3903H42.3832V38.653H46.269V37.3894H42.3832V37.3809H40.3906V41.6539Z" fill="#06132C" stroke="#231F20" stroke-width="0.5" stroke-miterlimit="2.6131"/>
<path fill-rule="evenodd" clip-rule="evenodd" d="M32.1211 35.9679H34.8113V41.6537H36.8037V35.9679H39.494V34.7041H32.1211V35.9679Z" fill="#06132C" stroke="#231F20" stroke-width="0.5" stroke-miterlimit="2.6131"/>
<path fill-rule="evenodd" clip-rule="evenodd" d="M22.7809 41.4779H23.8237V35.9828L26.3052 41.4779H27.4731L29.9546 35.9828V41.4779H30.9974V34.8811H29.4937L26.8893 40.65L24.2847 34.8811H22.7809V41.4779ZM14.7106 40.3907C14.7106 41.2314 15.2593 41.4777 16.029 41.4777H19.6158C20.3855 41.4777 20.9345 41.2314 20.9345 40.3907V35.9682C20.9345 35.1274 20.3857 34.8809 19.6158 34.8809H16.029C15.2591 34.8809 14.7106 35.1272 14.7106 35.9682V40.3907ZM15.7534 40.4222V35.9365C15.7534 35.5856 15.9976 35.4232 16.3278 35.4232H19.317C19.6472 35.4232 19.8915 35.5856 19.8915 35.9365V40.4222C19.8915 40.773 19.6472 40.9354 19.317 40.9354H16.3278C15.9976 40.9356 15.7534 40.7732 15.7534 40.4222ZM6.83925 35.4234H9.62903V41.4779H10.672V35.4234H13.4618V34.8811H6.83925V35.4234ZM0.00976562 41.4779L2.94156 34.8811H4.30738L7.23936 41.4779H6.21002C5.40356 39.652 4.59332 37.8273 3.78534 36.0019L3.62458 35.6386L3.46361 36.0019C2.65563 37.8273 1.84557 39.6518 1.03911 41.4779H0.00976562Z" fill="#06132C" stroke="#231F20" stroke-width="0.5" stroke-miterlimit="2.6131"/>
<path fill-rule="evenodd" clip-rule="evenodd" d="M9.26891 45.6546C9.26891 45.3751 9.52171 45.1567 9.91841 45.1567C10.2324 45.1567 10.5156 45.2571 10.7989 45.4886L10.9994 45.2222C10.6898 44.9732 10.3719 44.8466 9.92731 44.8466C9.3475 44.8466 8.92487 45.1962 8.92487 45.6853C8.92487 46.192 9.24733 46.4191 9.94908 46.5719C10.5897 46.7073 10.7423 46.869 10.7423 47.1572C10.7423 47.4673 10.4721 47.6813 10.0623 47.6813C9.63949 47.6813 9.33443 47.5371 9.01631 47.2489L8.80273 47.5022C9.16876 47.8299 9.56546 47.9914 10.0493 47.9914C10.655 47.9914 11.0909 47.6508 11.0909 47.1223C11.0909 46.6504 10.7771 46.4016 10.0972 46.253C9.42589 46.1086 9.26891 45.9472 9.26891 45.6546ZM13.3054 47.9476H15.3669V47.6286H13.6499V44.8901H13.3054V47.9476ZM20.3189 46.4145C20.3189 45.5671 19.6956 44.8379 18.7672 44.8379C17.8389 44.8379 17.2069 45.576 17.2069 46.4233C17.2069 47.2707 17.8303 48.0001 18.7585 48.0001C19.6869 47.9999 20.3189 47.2616 20.3189 46.4145ZM19.9614 46.4233C19.9614 47.1221 19.4646 47.6811 18.7672 47.6811C18.07 47.6811 17.5642 47.1134 17.5642 46.4145C17.5642 45.7157 18.0611 45.1567 18.7585 45.1567C19.4559 45.1567 19.9614 45.7244 19.9614 46.4233ZM25.2009 47.5326V46.314H23.9413V46.624H24.8697V47.384C24.6605 47.5543 24.338 47.6898 23.9892 47.6898C23.2483 47.6898 22.7821 47.1483 22.7821 46.4145C22.7821 45.7288 23.2659 45.1567 23.9413 45.1567C24.3729 45.1567 24.6344 45.3007 24.8697 45.506L25.0918 45.244C24.7868 44.9865 24.4687 44.8379 23.9544 44.8379C23.039 44.8379 22.4246 45.5804 22.4246 46.4233C22.4246 47.301 23.0173 48.0001 23.9762 48.0001C24.4906 47.9999 24.9176 47.7859 25.2009 47.5326ZM28.9409 44.8685H28.6186L27.2283 47.9476H27.5811L27.943 47.1396H29.6036L29.9611 47.9476H30.3313L28.9409 44.8685ZM29.4684 46.8293H28.078L28.7752 45.2702L29.4684 46.8293ZM34.6906 47.3403L32.7685 44.8903H32.4458V47.9476H32.7815V45.4405L34.7514 47.9476H35.026V44.8903H34.6906V47.3403ZM39.3016 46.5717V47.9476H39.6461V44.8903H39.3016V46.2485H37.5406V44.8903H37.1966V47.9476H37.5406V46.5717H39.3016ZM44.2273 44.8903H42.0217V47.9476H44.2491V47.6331H42.3662V46.5629H44.0312V46.2485H42.3662V45.2047H44.2273V44.8903ZM48.9785 47.9476L48.0415 46.6984C48.521 46.6111 48.8696 46.3142 48.8696 45.803C48.8696 45.2527 48.438 44.8903 47.767 44.8903H46.4551V47.9476H46.7995V46.7595H47.6711L48.5558 47.9476H48.9785ZM48.5212 45.8161C48.5212 46.2136 48.1941 46.4495 47.7365 46.4495H46.7995V45.2091H47.7408C48.2333 45.2089 48.5212 45.436 48.5212 45.8161ZM53.3245 44.8903H51.1193V47.9476H53.3463V47.6331H51.4634V46.5629H53.1284V46.2485H51.4634V45.2047H53.3245V44.8903Z" fill="#06132C" stroke="#231F20" stroke-width="0.5" stroke-miterlimit="2.6131"/>
</mask>
<g mask="url(#mask0_798_30165)">
<rect x="0.00976562" y="33.2061" width="64.0021" height="14.8005" fill="#101111"/>
</g>
<mask id="mask1_798_30165" style="mask-type:alpha" maskUnits="userSpaceOnUse" x="16" y="0" width="30" height="29">
<path fill-rule="evenodd" clip-rule="evenodd" d="M31.0737 23.7778C32.4484 23.7778 33.5625 24.8945 33.5625 26.2719C33.5625 27.6494 32.4484 28.7659 31.0737 28.7659C29.6989 28.7659 28.5848 27.6494 28.5848 26.2719C28.5848 24.8945 29.6989 23.7778 31.0737 23.7778ZM36.8945 18.69V19.0232L36.5962 18.7473C36.0351 18.9221 35.6275 19.4466 35.6275 20.0665C35.6275 20.8295 36.2444 21.4475 37.0056 21.4475C37.767 21.4475 38.3839 20.8293 38.3839 20.0665C38.3839 19.3037 37.767 18.6855 37.0056 18.6855C36.9681 18.6855 36.9312 18.687 36.8945 18.69ZM35.2101 18.3392L31.7481 15.1753L27.4719 18.7741C27.7001 19.1509 27.8315 19.5932 27.8315 20.0665C27.8315 21.4441 26.7177 22.5606 25.3428 22.5606C23.9681 22.5606 22.8539 21.4441 22.8539 20.0665C22.8539 18.6889 23.9681 17.5726 25.3428 17.5726C25.8414 17.5726 26.3053 17.7194 26.6946 17.9722L30.9216 14.4147L26.6744 10.5298C26.2894 10.7748 25.8327 10.9165 25.3428 10.9165C23.9681 10.9165 22.8539 9.80023 22.8539 8.42265C22.8539 7.04487 23.9681 5.92856 25.3428 5.92856C25.8259 5.92856 26.2767 6.0667 26.6586 6.30503L29.2132 4.1506C28.8224 3.71019 28.5848 3.12994 28.5848 2.49409C28.5848 1.1165 29.6989 0 31.0737 0C32.4484 0 33.5625 1.1165 33.5625 2.49409C33.5625 3.87167 32.4484 4.98796 31.0737 4.98796C30.7495 4.98796 30.4401 4.92611 30.1557 4.81283L27.4498 7.09495C27.6918 7.47938 27.8315 7.93442 27.8315 8.42265C27.8315 8.90499 27.6948 9.35546 27.4581 9.73705L31.7811 13.6916L35.5981 10.4796C34.9452 10.0302 34.5167 9.27671 34.5167 8.42265C34.5167 7.04487 35.6309 5.92856 37.0056 5.92856C38.3803 5.92856 39.4945 7.04487 39.4945 8.42265C39.4945 9.60858 38.6687 10.6008 37.5621 10.8539V17.635C38.6687 17.8882 39.4945 18.8805 39.4945 20.0665C39.4945 21.4441 38.3803 22.5606 37.0056 22.5606C35.6309 22.5606 34.5167 21.4441 34.5167 20.0665C34.5167 19.3959 34.7807 18.7874 35.2101 18.3392ZM26.4937 19.3063L26.2898 19.0631C26.0429 18.8291 25.7096 18.6855 25.3426 18.6855C24.5812 18.6855 23.9647 19.3039 23.9647 20.0665C23.9647 20.8295 24.5814 21.4475 25.3426 21.4475C26.104 21.4475 26.7209 20.8293 26.7209 20.0665C26.7211 19.7857 26.6373 19.5245 26.4937 19.3063ZM36.4491 11.2192L32.6063 14.4533L36.1469 17.7251C36.245 17.6891 36.3459 17.6589 36.4493 17.6352L36.4491 11.2192ZM45.427 14.3829C45.427 15.7605 44.3128 16.877 42.9381 16.877C41.5634 16.877 40.4492 15.7605 40.4492 14.3829C40.4492 13.0053 41.5634 11.8888 42.9381 11.8888C44.3128 11.8888 45.427 13.0053 45.427 14.3829ZM44.3162 14.3829C44.3162 13.6199 43.6993 13.0019 42.9381 13.0019C42.1769 13.0019 41.56 13.6201 41.56 14.3829C41.56 15.1457 42.1767 15.7639 42.9381 15.7639C43.6995 15.7639 44.3162 15.1457 44.3162 14.3829ZM31.0737 1.11288C30.3123 1.11288 29.6955 1.7311 29.6955 2.4939C29.6955 3.2567 30.3125 3.87471 31.0737 3.87471C31.8351 3.87471 32.4518 3.2567 32.4518 2.4939C32.4518 1.7311 31.8351 1.11288 31.0737 1.11288ZM21.6983 14.3829C21.6983 15.7605 20.5841 16.877 19.2094 16.877C17.8347 16.877 16.7207 15.7605 16.7207 14.3829C16.7207 13.0053 17.8347 11.8888 19.2094 11.8888C20.5841 11.8888 21.6983 13.0053 21.6983 14.3829ZM20.5875 14.3829C20.5875 13.6199 19.9706 13.0019 19.2096 13.0019C18.4486 13.0019 17.8315 13.6201 17.8315 14.3829C17.8315 15.1457 18.4484 15.7639 19.2096 15.7639C19.9708 15.7639 20.5875 15.1457 20.5875 14.3829Z" fill="#008ECE"/>
</mask>
<g mask="url(#mask1_798_30165)">
<rect x="0.00976562" width="64.0021" height="29.9805" fill="#FA2D39"/>
</g>
</svg>
