<svg width="67" height="48" viewBox="0 0 67 48" fill="none" xmlns="http://www.w3.org/2000/svg">
<mask id="mask0_798_30118" style="mask-type:alpha" maskUnits="userSpaceOnUse" x="19" y="0" width="29" height="25">
<path fill-rule="evenodd" clip-rule="evenodd" d="M33.457 11.9866L40.4157 0L47.6626 0.0981934L44.3708 5.767H37.0675L33.4739 11.9575H40.7764L37.2712 17.9966L33.457 11.9866Z" fill="#416DB4"/>
<path fill-rule="evenodd" clip-rule="evenodd" d="M33.4833 24.5249L29.4629 17.9883H37.2781L33.4833 24.5249Z" fill="#7394CC"/>
<path fill-rule="evenodd" clip-rule="evenodd" d="M33.4746 11.9572L36.9072 6.04693L37.0633 5.77637L40.7786 11.9556L40.7771 11.9572H40.7013H33.4746Z" fill="#557EBE"/>
<path fill-rule="evenodd" clip-rule="evenodd" d="M40.4102 0.00982156L40.4158 0L47.6627 0.0981934L44.3798 5.75245L40.4102 0.00982156Z" fill="#436DB4"/>
<path fill-rule="evenodd" clip-rule="evenodd" d="M37.0684 5.76694L40.2699 0.252874L40.4109 0.00976562L44.3805 5.75239L44.3716 5.76694H44.329H37.0684Z" fill="#3864AE"/>
<path fill-rule="evenodd" clip-rule="evenodd" d="M37.3443 5.75134L37.3394 5.74316H30.0371L33.6298 11.9322L37.3443 5.75134Z" fill="#2E5CA9"/>
<path fill-rule="evenodd" clip-rule="evenodd" d="M26.6394 0.00982156L26.6338 0L19.3867 0.0981934L22.6705 5.75245L26.6394 0.00982156Z" fill="#00A9DB"/>
<path fill-rule="evenodd" clip-rule="evenodd" d="M29.9821 5.76694L26.7797 0.252874L26.6389 0.00976562L22.6699 5.75239L22.6787 5.76694H22.7207H29.9821Z" fill="#2AC4F3"/>
<path fill-rule="evenodd" clip-rule="evenodd" d="M22.7285 5.75134L22.7342 5.74316H30.0367L26.4445 11.9322L22.7285 5.75134Z" fill="#00A7D9"/>
</mask>
<g mask="url(#mask0_798_30118)">
<rect x="0.78125" width="65.4575" height="26.0012" fill="#FA2D39"/>
</g>
<mask id="mask1_798_30118" style="mask-type:alpha" maskUnits="userSpaceOnUse" x="0" y="33" width="67" height="16">
<path fill-rule="evenodd" clip-rule="evenodd" d="M9.57111 33.3701L5.89765 40.5766H4.46794L0.78125 33.3701H2.65931L5.19724 38.3044L7.69212 33.3701H9.57111ZM18.5739 35.0529H12.5598H10.8777V33.3701H18.5737L18.5739 35.0529ZM12.5598 36.0988V36.1322H18.1817V37.8151H12.5598V38.8942H18.5599V40.5768H10.8777V36.0988H12.5598ZM28.1236 40.5768H25.9367L24.0023 38.2627L22.0671 40.5768H19.8801L22.9084 36.9248L19.9645 33.3701H22.1513L24.0023 35.6133L25.8526 33.3701H28.0394L25.0954 36.9248L28.1236 40.5768ZM37.2389 35.0529H33.986V40.5768H32.3039V35.0529H29.0518V33.3701H37.2387L37.2389 35.0529ZM46.4382 35.0529H40.4243H38.7415V33.3701H46.4382V35.0529ZM40.4241 36.0988V36.1322H46.046V37.8151H40.4241V38.8942H46.4242V40.5768H38.7415V36.0988H40.4241ZM55.8754 40.5768H50.2958C49.6414 40.5768 49.086 40.3584 48.6278 39.9261C48.1696 39.4922 47.9408 38.9469 47.9408 38.2962V35.6511C47.9408 34.9989 48.1696 34.4553 48.6278 34.0198C49.0862 33.5874 49.6416 33.3703 50.2958 33.3703H55.8754V35.0531H50.2958C49.8475 35.0531 49.6227 35.2535 49.6227 35.6539V38.2934C49.6227 38.6925 49.8473 38.8942 50.2958 38.8942H55.8754V40.5768ZM66.2664 40.5768H64.5565V37.8149H59.0606V40.5768H57.3785V33.3703H59.0606V36.1322H64.5565V33.3703H66.2664V40.5768Z" fill="#06132C" stroke="#231F20" stroke-width="0.5" stroke-miterlimit="2.6131"/>
<path fill-rule="evenodd" clip-rule="evenodd" d="M13.4506 47.9338H14.1417V44.6685H15.3794V44.0316H12.2129V44.6685H13.4506V47.9338ZM18.2944 47.9338H18.9967L19.3979 46.9923H21.2433L21.639 47.9338H22.3643L20.6467 44.0038H20.0112L18.2944 47.9338ZM19.6489 46.3846L20.3178 44.8243L20.9922 46.3846H19.6489ZM27.6641 48.0005C28.356 48.0005 28.908 47.7225 29.2926 47.3943V45.7548H27.6314V46.3513H28.6293V47.0828C28.3894 47.2608 28.0549 47.3776 27.687 47.3776C26.8901 47.3776 26.3602 46.7866 26.3602 45.9842V45.9731C26.3602 45.2249 26.9068 44.5949 27.6258 44.5949C28.1216 44.5949 28.4171 44.7576 28.7182 45.0135L29.1528 44.4947C28.7522 44.154 28.3336 43.9648 27.6536 43.9648C26.4772 43.9648 25.6413 44.8911 25.6413 45.984V45.9951C25.6413 47.1312 26.4437 48.0005 27.6641 48.0005ZM33.2107 47.9338H35.9483V47.3108H33.8964V44.0316H33.2107V47.9338ZM39.7276 47.9338H40.4133V44.0316H39.7276V47.9338ZM44.4816 47.9338H45.156V45.158L47.3081 47.9338H47.8825V44.0316H47.2081V46.7295L45.1173 44.0316H44.4818L44.4816 47.9338ZM51.9127 47.9338H54.8332V47.3219H52.5983V46.2733H54.555V45.66H52.5983V44.6462H54.8061V44.0314H51.9129V47.9338H51.9127Z" fill="#06132C" stroke="#231F20" stroke-width="0.5" stroke-miterlimit="2.6131"/>
</mask>
<g mask="url(#mask1_798_30118)">
<rect x="0.78125" y="32.002" width="65.4575" height="16.0007" fill="#101111"/>
</g>
</svg>
