<svg width="98" height="81" viewBox="0 0 98 81" fill="none" xmlns="http://www.w3.org/2000/svg">
<mask id="mask0_798_25856" style="mask-type:alpha" maskUnits="userSpaceOnUse" x="0" y="59" width="98" height="22">
<path fill-rule="evenodd" clip-rule="evenodd" d="M13.9022 68.2908C13.9022 68.7887 13.7773 69.2586 13.5294 69.6992C12.7841 71.0003 11.3736 71.6508 9.29654 71.6508H1V60.0635H9.29654C11.2721 60.0635 12.6547 60.6788 13.4443 61.9125C13.749 62.4095 13.9022 62.9417 13.9022 63.5069C13.9022 64.4684 13.4955 65.277 12.683 65.9335C13.4955 66.5661 13.9022 67.3532 13.9022 68.2908ZM11.9549 63.4899C11.9549 63.004 11.6726 62.6304 11.1085 62.3704C10.6684 62.1778 10.1665 62.0824 9.60151 62.0824H3.01542V69.6318H9.60151C10.1546 69.6318 10.6455 69.5466 11.0743 69.3769C11.6613 69.1289 11.9549 68.7723 11.9549 68.3087C11.9549 67.8329 11.6613 67.4715 11.0743 67.2226C10.6345 67.0419 10.1436 66.9507 9.60151 66.9507H4.20048V64.9317H9.60151C10.1665 64.9317 10.6684 64.8303 11.1085 64.6264C11.6723 64.3664 11.9549 63.9878 11.9549 63.4899ZM30.6134 65.7468C30.6134 67.4546 30.0654 68.868 28.9714 69.9884C27.8765 71.1079 26.4817 71.6678 24.7887 71.6678H21.5546C19.8733 71.6678 18.4815 71.1076 17.3815 69.9884C16.2813 68.8683 15.7308 67.4546 15.7308 65.7468C15.7308 64.0501 16.2753 62.6817 17.3646 61.6409C18.4535 60.6007 19.8507 60.0799 21.5549 60.0799H24.789C26.5043 60.0799 27.9047 60.6007 28.9877 61.6409C30.0707 62.6817 30.6134 64.0501 30.6134 65.7468ZM28.6158 65.9156C28.6158 64.7961 28.2567 63.8805 27.5403 63.1677C26.8238 62.4548 25.9068 62.0985 24.7887 62.0985H21.5546C20.4487 62.0985 19.5374 62.4548 18.821 63.1677C18.1036 63.8805 17.7454 64.7961 17.7454 65.9156C17.7454 67.0249 18.1036 67.9244 18.821 68.614C19.5374 69.3036 20.4487 69.6488 21.5546 69.6488H24.7887C25.9065 69.6488 26.8238 69.3036 27.5403 68.614C28.2564 67.9241 28.6158 67.0249 28.6158 65.9156ZM45.7156 71.6848H42.8203L38.7567 67.4602L34.677 71.6848H31.7818L37.4194 65.8992L31.7818 60.0796H34.5919C38.3967 63.9854 41.9159 67.7733 45.7156 71.6848ZM40.2762 62.7902L41.7234 64.2123L45.7156 60.0799H42.9224L40.2762 62.7902ZM57.6187 62.0985H53.0633V71.6678H51.0657V62.0985H46.4942V60.0796H57.6187V62.0985ZM68.4541 66.7989H61.8508V64.78H68.4541V66.7989ZM68.9789 71.6678V69.6488H61.0049V62.0985H68.9789V60.0796H58.9895V71.6675L68.9789 71.6678ZM83.2855 71.6678H76.7673C75.0851 71.6678 73.6941 71.1076 72.5939 69.9884C71.493 68.8683 70.9432 67.4546 70.9432 65.7468C70.9432 64.0501 71.4868 62.6817 72.5766 61.6409C73.6656 60.6007 75.0627 60.0799 76.767 60.0799H83.2852V62.0988H76.767C75.6608 62.0988 74.7488 62.4551 74.0324 63.168C73.316 63.8808 72.9577 64.7964 72.9577 65.9159C72.9577 67.0252 73.316 67.9247 74.0324 68.6143C74.7488 69.3039 75.6611 69.6491 76.767 69.6491H83.2852L83.2855 71.6678ZM97 71.6678H94.9851V66.8493H88.1956V64.8304H94.9851V60.0799H97V71.6678ZM87.2819 71.6678H85.267V60.0799H87.2819V71.6678Z" fill="#06132C" stroke="#231F20" stroke-width="0.5" stroke-miterlimit="2.6131"/>
<path fill-rule="evenodd" clip-rule="evenodd" d="M8.5472 79.927H9.29665V78.5517H10.144C11.0824 78.5517 11.8506 78.0514 11.8506 77.0929V77.0801C11.8506 76.219 11.2288 75.6502 10.2288 75.6502H8.54688V79.927H8.5472ZM9.29665 77.874V76.3353H10.1678C10.7293 76.3353 11.0884 76.598 11.0884 77.0985V77.1114C11.0884 77.5565 10.7352 77.8743 10.1678 77.8743L9.29665 77.874ZM13.0437 79.927H13.7932V78.4366H14.7325L15.7801 79.927H16.6709L15.5189 78.3078C16.1094 78.1364 16.5304 77.7154 16.5304 77.0127V77.0008C16.5304 76.6284 16.4019 76.3103 16.1764 76.0783C15.9024 75.8097 15.4813 75.6502 14.9452 75.6502H13.0437V79.927ZM13.7932 77.77V76.335H14.8839C15.4388 76.335 15.7679 76.5858 15.7679 77.0434V77.0553C15.7679 77.4894 15.4266 77.77 14.8907 77.77H13.7932ZM19.9106 80.0003C21.2209 80.0003 22.1483 78.9926 22.1483 77.7887V77.7768C22.1483 76.5738 21.2337 75.5771 19.9234 75.5771C18.6131 75.5771 17.6866 76.5858 17.6866 77.7887V77.8006C17.6866 79.0045 18.6003 80.0003 19.9106 80.0003ZM19.9234 79.3038C19.0761 79.3038 18.4727 78.6191 18.4727 77.7887V77.7768C18.4727 76.9456 19.0642 76.2676 19.9106 76.2676C20.7589 76.2676 21.3614 76.9581 21.3614 77.7887V77.8006C21.3614 78.6318 20.7699 79.3038 19.9234 79.3038ZM23.4815 79.927H24.231V78.1853H26.3818V77.5016H24.231V76.3353H26.6567V75.6505H23.4815V79.927ZM27.9043 79.927H31.0991V79.2544H28.6538V78.106H30.7936V77.4351H28.6538V76.3234H31.0685V75.6508H27.9043V79.927ZM33.9069 79.9875C34.803 79.9875 35.4308 79.5117 35.4308 78.7112V78.6983C35.4308 77.9906 34.9673 77.6659 34.0652 77.4468C33.2416 77.2506 33.0476 77.1039 33.0476 76.7748V76.7619C33.0476 76.4805 33.3029 76.2554 33.7427 76.2554C34.1315 76.2554 34.5162 76.4081 34.8997 76.6946L35.3023 76.1275C34.87 75.7787 34.3758 75.5894 33.7537 75.5894C32.9069 75.5894 32.297 76.0968 32.297 76.829V76.8419C32.297 77.6295 32.8093 77.8982 33.7168 78.1182C34.5097 78.3015 34.6807 78.4661 34.6807 78.7714V78.7842C34.6807 79.1023 34.388 79.3215 33.9244 79.3215C33.4005 79.3215 32.986 79.1202 32.5775 78.7654L32.1265 79.3036C32.6391 79.7615 33.2541 79.9875 33.9069 79.9875ZM36.7819 79.927H37.5314V75.6505H36.7819V79.927ZM41.132 80.0003C42.4423 80.0003 43.3688 78.9926 43.3688 77.7887V77.7768C43.3688 76.5738 42.4548 75.5771 41.1439 75.5771C39.8339 75.5771 38.9071 76.5858 38.9071 77.7887V77.8006C38.9071 79.0045 39.8217 80.0003 41.132 80.0003ZM41.1439 79.3038C40.2975 79.3038 39.6935 78.6191 39.6935 77.7887V77.7768C39.6935 76.9456 40.2847 76.2676 41.1323 76.2676C41.9797 76.2676 42.5828 76.9581 42.5828 77.7887V77.8006C42.5828 78.6318 41.9913 79.3038 41.1439 79.3038ZM44.702 79.927H45.4396V76.8851L47.7922 79.927H48.4203V75.6505H47.6833V78.6074L45.3971 75.6505H44.702V79.927ZM49.5767 79.927H50.345L50.7841 78.8945H52.8013L53.2345 79.927H54.0265L52.1489 75.6207H51.4538L49.5767 79.927ZM51.0578 78.2285L51.7894 76.5184L52.527 78.2285H51.0578ZM55.1827 79.927H58.1749V79.2422H55.9322V75.6502H55.1827V79.927ZM61.5126 79.927H62.2683V76.3469H63.6221V75.6502H60.16V76.3469H61.5129V79.927H61.5126ZM63.925 79.927H64.6923L65.1314 78.8945H67.1486L67.5819 79.927H68.3739L66.4968 75.6207H65.8018L63.925 79.927ZM65.4061 78.2285L66.1377 76.5184L66.8747 78.2285H65.4061ZM71.2855 80.0003C72.0418 80.0003 72.6452 79.6941 73.0662 79.3343V77.5389H71.2498V78.1918H72.3405V78.9923C72.0784 79.1867 71.7127 79.3155 71.3102 79.3155C70.439 79.3155 69.8594 78.6685 69.8594 77.7887V77.7768C69.8594 76.9584 70.4568 76.2676 71.2429 76.2676C71.7859 76.2676 72.109 76.445 72.4384 76.7256L72.9129 76.1576C72.4747 75.785 72.0171 75.5771 71.2736 75.5771C69.9879 75.5771 69.0733 76.5917 69.0733 77.7887V77.8006C69.073 79.0472 69.9514 80.0003 71.2855 80.0003ZM74.4657 79.927H77.4589V79.2422H75.2152V75.6502H74.4657V79.927ZM78.7064 79.927H79.4558V75.6505H78.7064V79.927ZM81.0205 79.927H81.7581V76.8851L84.1116 79.927H84.7393V75.6505H84.0018V78.6074L81.7156 75.6505H81.0205V79.927ZM86.2609 79.927H89.4548V79.2544H87.0104V78.106H89.1502V77.4351H87.0104V76.3234H89.4242V75.6508H86.2609V79.927Z" fill="#06132C" stroke="#231F20" stroke-width="0.5" stroke-miterlimit="2.6131"/>
</mask>
<g mask="url(#mask0_798_25856)">
<rect x="-2.99219" y="60" width="101.792" height="22" fill="#101111"/>
</g>
<mask id="mask1_798_25856" style="mask-type:alpha" maskUnits="userSpaceOnUse" x="30" y="0" width="49" height="46">
<path fill-rule="evenodd" clip-rule="evenodd" d="M39.2978 15.62L46.0118 8.86961C48.0377 6.83334 47.8437 6.15506 47.1811 5.70607C46.0734 4.95745 44.1582 6.22781 43.0288 7.35953L40.1 10.2944L40.0946 10.2899C37.9488 12.3956 35.2583 14.0458 32.5761 13.2453C30.73 12.6953 28.3384 9.75386 31.9427 5.52719C32.3574 5.03885 33.2637 3.93127 33.2637 3.93127H37.7667C36.8703 4.82955 35.8394 5.9255 35.2226 6.65325C33.5249 8.65374 33.7498 9.25717 34.3856 9.61732C35.1803 10.0675 36.3086 9.45453 37.2223 8.65165C39.8307 6.36346 41.1166 4.41188 44.0291 2.44925C45.6717 1.34376 47.6792 1.21137 49.4688 1.90335C51.436 2.663 53.7933 6.07817 49.4958 10.3821L42.0491 17.8703C39.7051 20.2277 38.881 21.3442 37.0393 23.5596C35.1393 25.8445 35.3999 26.5258 36.1256 26.9274C36.8617 27.3343 37.8385 26.9426 38.7304 26.2873L38.7153 26.2548C40.6652 24.2934 42.6033 22.3447 44.5554 20.3821L56.3699 8.50229C58.244 6.61778 60.7171 3.82187 62.9342 2.19464C65.2674 0.481554 67.944 -0.59144 70.4774 0.350072C72.5226 1.11062 75.0064 4.61161 70.6182 9.12062C61.5549 18.4704 51.7996 27.8128 42.4472 37.1725L41.7706 37.9861C39.8703 40.271 40.1312 40.9523 40.8566 41.3539C41.7456 41.8464 42.9863 41.1705 44.002 40.2743C45.5578 38.8987 47.9918 36.1753 49.4589 34.7001L67.5739 16.4688L67.6087 16.6468C70.0597 14.7113 72.9442 13.3974 75.6684 14.4107C77.7136 15.1701 80.1973 18.6702 75.81 23.1804L72.0261 26.8615L61.8724 37.0717C61.1178 37.9787 57.912 41.1729 59.0456 41.7999C60.0774 42.3705 61.6093 41.2761 62.6305 40.1759L65.5266 37.4429C67.7592 35.7286 70.3578 34.6014 72.8154 35.514C74.7113 36.2191 77.0141 39.4664 72.9463 43.6477L71.567 45.0701C70.0056 45.0701 68.4572 45.0558 66.894 45.0558L67.7006 44.2476L69.5854 42.2402C71.503 40.2612 71.3093 39.6125 70.6673 39.1906C69.5974 38.4864 67.7732 39.7299 66.7057 40.8289C66.0255 41.5274 65.2883 42.3347 64.5846 42.9867C62.418 44.9896 59.7936 46.4442 57.1563 45.687C55.1825 45.1205 52.6011 42.0133 56.3973 37.4677L59.1875 34.7564L69.5414 24.3455L69.4557 24.2588L72.1864 21.6614C74.2545 19.5286 74.0454 18.8297 73.3524 18.375C72.1983 17.6157 70.232 18.9543 69.0811 20.1403L68.2874 20.9563L68.193 20.8609L51.9362 37.2238C50.3099 38.8597 48.8428 40.5435 47.2665 42.1102C44.8705 44.4906 41.8681 46.35 38.8485 45.4833C36.7525 44.8802 34.0102 41.5799 38.042 36.7486C40.1955 34.161 41.642 32.9804 44.0627 30.5569L66.5539 8.03929L66.5626 8.05003L66.9958 7.60283C69.0639 5.46996 68.8547 4.77024 68.163 4.31558C67.4126 3.82187 66.3204 4.21363 65.3317 4.87429C65.0651 5.05228 61.7739 8.08343 61.4219 8.43613L46.8434 23.0966C45.1901 24.7587 42.4822 27.9572 40.6459 29.3274L40.2951 29.6809L40.2606 29.6061C38.3582 30.9266 36.2425 31.6662 34.1185 31.0566C32.0203 30.4543 29.2777 27.1531 33.3119 22.323C35.532 19.6526 36.7242 18.2084 39.2978 15.62Z" fill="url(#paint0_linear_798_25856)"/>
</mask>
<g mask="url(#mask1_798_25856)">
<rect x="8.98438" y="-12" width="93.808" height="68" fill="#101111"/>
</g>
<defs>
<linearGradient id="paint0_linear_798_25856" x1="69.6913" y1="40.9841" x2="39.2935" y2="4.83138" gradientUnits="userSpaceOnUse">
<stop stop-color="#66499C"/>
<stop offset="1" stop-color="#58AFE2"/>
</linearGradient>
</defs>
</svg>
