<svg width="105" height="81" viewBox="0 0 105 81" fill="none" xmlns="http://www.w3.org/2000/svg">
<mask id="mask0_798_25820" style="mask-type:alpha" maskUnits="userSpaceOnUse" x="-1" y="57" width="106" height="24">
<path fill-rule="evenodd" clip-rule="evenodd" d="M92.541 69.4225H95.8623V64.421H100.678V69.4225H104V57.8398H100.678V62.3151H95.8623V57.8398H92.541V69.4225Z" fill="#06132C" stroke="#231F20" stroke-width="0.5" stroke-miterlimit="2.6131"/>
<path fill-rule="evenodd" clip-rule="evenodd" d="M79.9219 67.0355C79.9219 68.6323 80.8686 69.4222 82.7445 69.4222H90.5494V67.3163H83.8242C83.4423 67.3163 83.2428 67.1582 83.2428 66.8249V60.4369C83.2428 60.1036 83.4423 59.9458 83.8242 59.9458H90.5494V57.8398H82.7445C80.8683 57.8398 79.9219 58.6296 79.9219 60.2266V67.0355Z" fill="#06132C" stroke="#231F20" stroke-width="0.5" stroke-miterlimit="2.6131"/>
<path fill-rule="evenodd" clip-rule="evenodd" d="M70.6217 59.9461H72.2385H77.9283V57.8398H67.3008V59.9461H70.6217Z" fill="#06132C" stroke="#231F20" stroke-width="0.5" stroke-miterlimit="2.6131"/>
<path fill-rule="evenodd" clip-rule="evenodd" d="M67.3008 69.4224H77.9283V67.3165H70.6217V64.421H77.098V62.3151H70.6217V62.3008H67.3008V69.4224Z" fill="#06132C" stroke="#231F20" stroke-width="0.5" stroke-miterlimit="2.6131"/>
<path fill-rule="evenodd" clip-rule="evenodd" d="M53.5176 59.9461H58.0012V69.4225H61.3219V59.9461H65.8058V57.8398H53.5176V59.9461Z" fill="#06132C" stroke="#231F20" stroke-width="0.5" stroke-miterlimit="2.6131"/>
<path fill-rule="evenodd" clip-rule="evenodd" d="M37.9519 69.1289H39.6899V59.9703L43.8257 69.1289H45.7723L49.9081 59.9703V69.1289H51.6461V58.1342H49.1399L44.7993 67.7491L40.4583 58.1342H37.9519V69.1289ZM24.5014 67.3168C24.5014 68.7181 25.4159 69.1286 26.6988 69.1286H32.6768C33.9596 69.1286 34.8745 68.7181 34.8745 67.3168V59.946C34.8745 58.5447 33.9599 58.1338 32.6768 58.1338H26.6988C25.4156 58.1338 24.5014 58.5444 24.5014 59.946V67.3168ZM26.2393 67.3693V59.8932C26.2393 59.3084 26.6464 59.0377 27.1968 59.0377H32.1787C32.7291 59.0377 33.1363 59.3084 33.1363 59.8932V67.3693C33.1363 67.954 32.7291 68.2248 32.1787 68.2248H27.1968C26.6464 68.2251 26.2393 67.9544 26.2393 67.3693ZM11.3825 59.038H16.0321V69.1289H17.7704V59.038H22.42V58.1342H11.3825V59.038ZM0 69.1289L4.88633 58.1342H7.1627L12.0493 69.1289H10.3338C8.98965 66.0856 7.63926 63.0446 6.29262 60.0023L6.02468 59.3966L5.7564 60.0023C4.40977 63.0446 3.05968 66.0853 1.71557 69.1289H0Z" fill="#06132C" stroke="#231F20" stroke-width="0.5" stroke-miterlimit="2.6131"/>
<path fill-rule="evenodd" clip-rule="evenodd" d="M15.4313 76.0907C15.4313 75.6249 15.8526 75.2608 16.5138 75.2608C17.037 75.2608 17.5091 75.4282 17.9813 75.814L18.3155 75.3699C17.7995 74.955 17.2696 74.7441 16.5286 74.7441C15.5622 74.7441 14.8579 75.3266 14.8579 76.1419C14.8579 76.9863 15.3953 77.3649 16.5649 77.6194C17.6325 77.8452 17.8869 78.1147 17.8869 78.5951C17.8869 79.1118 17.4366 79.4685 16.7536 79.4685C16.0489 79.4685 15.5405 79.2282 15.0103 78.7478L14.6543 79.17C15.2643 79.7161 15.9255 79.9853 16.7318 79.9853C17.7414 79.9853 18.4679 79.4176 18.4679 78.5369C18.4679 77.7503 17.945 77.3357 16.8117 77.0881C15.6929 76.8474 15.4313 76.5784 15.4313 76.0907ZM22.1587 79.9123H25.5946V79.3806H22.7328V74.8165H22.1587V79.9123ZM33.848 77.3572C33.848 75.9449 32.809 74.7295 31.2617 74.7295C29.7147 74.7295 28.6612 75.9597 28.6612 77.3718C28.6612 78.7841 29.7002 79.9998 31.2472 79.9998C32.7946 79.9995 33.848 78.769 33.848 77.3572ZM33.2521 77.3718C33.2521 78.5365 32.424 79.4682 31.2617 79.4682C30.0997 79.4682 29.2568 78.522 29.2568 77.3572C29.2568 76.1925 30.0849 75.2608 31.2472 75.2608C32.4095 75.2608 33.2521 76.207 33.2521 77.3718ZM41.9846 79.2206V77.1896H39.8853V77.7064H41.4326V78.9729C41.0839 79.2569 40.5464 79.4827 39.9651 79.4827C38.7302 79.4827 37.9532 78.5802 37.9532 77.3572C37.9532 76.2143 38.7596 75.2608 39.8853 75.2608C40.6045 75.2608 41.0403 75.5008 41.4326 75.843L41.8028 75.4063C41.2944 74.9772 40.7642 74.7295 39.907 74.7295C38.3815 74.7295 37.3574 75.967 37.3574 77.3718C37.3574 78.8347 38.3452 79.9998 39.9433 79.9998C40.8008 79.9995 41.5125 79.6428 41.9846 79.2206ZM48.2178 74.7805H47.6807L45.3636 79.9123H45.9516L46.5547 78.5656H49.3224L49.9183 79.9123H50.5352L48.2178 74.7805ZM49.0971 78.0486H46.7797L47.9417 75.4499L49.0971 78.0486ZM57.8008 78.9002L54.5972 74.8168H54.0595V79.9123H54.619V75.7339L57.9021 79.9123H58.3597V74.8168H57.8008V78.9002ZM65.4858 77.6191V79.9123H66.0599V74.8168H65.4858V77.0805H62.5508V74.8168H61.9773V79.9123H62.5508V77.6191H65.4858ZM73.6953 74.8168H70.0193V79.9123H73.7316V79.3882H70.5933V77.6045H73.3683V77.0805H70.5933V75.3408H73.6953V74.8168ZM81.6138 79.9123L80.0523 77.8304C80.8514 77.6849 81.4324 77.19 81.4324 76.338C81.4324 75.4209 80.7131 74.8168 79.5947 74.8168H77.4082V79.9123H77.9823V77.9322H79.435L80.9094 79.9123H81.6138ZM80.8517 76.3598C80.8517 77.0223 80.3066 77.4155 79.5438 77.4155H77.9823V75.3481H79.5511C80.372 75.3478 80.8517 75.7263 80.8517 76.3598ZM88.8573 74.8168H85.1819V79.9123H88.8936V79.3882H85.7553V77.6045H88.5303V77.0805H85.7553V75.3408H88.8573V74.8168Z" fill="#06132C" stroke="#231F20" stroke-width="0.5" stroke-miterlimit="2.6131"/>
</mask>
<g mask="url(#mask0_798_25820)">
<rect y="55.3438" width="106.67" height="24.6675" fill="#101111"/>
</g>
<mask id="mask1_798_25820" style="mask-type:alpha" maskUnits="userSpaceOnUse" x="27" y="0" width="49" height="48">
<path fill-rule="evenodd" clip-rule="evenodd" d="M51.7732 39.6297C54.0644 39.6297 55.9213 41.4908 55.9213 43.7864C55.9213 46.0824 54.0644 47.9432 51.7732 47.9432C49.482 47.9432 47.625 46.0824 47.625 43.7864C47.625 41.4908 49.482 39.6297 51.7732 39.6297ZM61.4745 31.15V31.7054L60.9774 31.2455C60.0423 31.5368 59.3628 32.4109 59.3628 33.4441C59.3628 34.7158 60.391 35.7458 61.6597 35.7458C62.9287 35.7458 63.9569 34.7155 63.9569 33.4441C63.9569 32.1728 62.9287 31.1424 61.6597 31.1424C61.5972 31.1424 61.5357 31.1449 61.4745 31.15ZM58.6673 30.5653L52.8973 25.2921L45.7703 31.2901C46.1506 31.9182 46.3696 32.6554 46.3696 33.4441C46.3696 35.7401 44.5133 37.6009 42.2218 37.6009C39.9306 37.6009 38.0736 35.7401 38.0736 33.4441C38.0736 31.1482 39.9306 29.2876 42.2218 29.2876C43.0527 29.2876 43.8259 29.5324 44.4747 29.9536L51.5197 24.0246L44.441 17.5497C43.7994 17.958 43.0382 18.1942 42.2218 18.1942C39.9306 18.1942 38.0736 16.3337 38.0736 14.0377C38.0736 11.7414 39.9306 9.88093 42.2218 9.88093C43.0268 9.88093 43.7783 10.1112 44.4148 10.5084L48.6724 6.91767C48.0211 6.18365 47.625 5.21656 47.625 4.15681C47.625 1.86083 49.482 0 51.7732 0C54.0644 0 55.9213 1.86083 55.9213 4.15681C55.9213 6.45279 54.0644 8.31327 51.7732 8.31327C51.2329 8.31327 50.7172 8.21018 50.2432 8.02138L45.7333 11.8249C46.1367 12.4656 46.3696 13.224 46.3696 14.0377C46.3696 14.8417 46.1417 15.5924 45.7472 16.2284L52.9522 22.8194L59.3139 17.4659C58.2257 16.717 57.5116 15.4612 57.5116 14.0377C57.5116 11.7414 59.3685 9.88093 61.6597 9.88093C63.9509 9.88093 65.8079 11.7414 65.8079 14.0377C65.8079 16.0143 64.4316 17.668 62.5872 18.0899V29.3917C64.4316 29.8136 65.8079 31.4676 65.8079 33.4441C65.8079 35.7401 63.9509 37.6009 61.6597 37.6009C59.3685 37.6009 57.5116 35.7401 57.5116 33.4441C57.5116 32.3265 57.9515 31.3123 58.6673 30.5653ZM44.1399 32.1772L43.8 31.7718C43.3885 31.3818 42.8331 31.1424 42.2215 31.1424C40.9525 31.1424 39.9249 32.1731 39.9249 33.4441C39.9249 34.7158 40.9528 35.7458 42.2215 35.7458C43.4904 35.7458 44.5186 34.7155 44.5186 33.4441C44.5189 32.9761 44.3792 32.5409 44.1399 32.1772ZM60.7322 18.6987L54.3276 24.0888L60.2285 29.5419C60.392 29.4818 60.5602 29.4316 60.7325 29.392L60.7322 18.6987ZM75.6954 23.9714C75.6954 26.2674 73.8384 28.1283 71.5472 28.1283C69.256 28.1283 67.3991 26.2674 67.3991 23.9714C67.3991 21.6755 69.256 19.8147 71.5472 19.8147C73.8384 19.8147 75.6954 21.6755 75.6954 23.9714ZM73.8441 23.9714C73.8441 22.6998 72.8159 21.6698 71.5472 21.6698C70.2785 21.6698 69.2503 22.7001 69.2503 23.9714C69.2503 25.2428 70.2782 26.2731 71.5472 26.2731C72.8162 26.2731 73.8441 25.2428 73.8441 23.9714ZM51.7732 1.85481C50.5042 1.85481 49.4763 2.88517 49.4763 4.1565C49.4763 5.42783 50.5045 6.45785 51.7732 6.45785C53.0422 6.45785 54.07 5.42783 54.07 4.1565C54.07 2.88517 53.0422 1.85481 51.7732 1.85481ZM36.1475 23.9714C36.1475 26.2674 34.2906 28.1283 31.9994 28.1283C29.7082 28.1283 27.8516 26.2674 27.8516 23.9714C27.8516 21.6755 29.7082 19.8147 31.9994 19.8147C34.2906 19.8147 36.1475 21.6755 36.1475 23.9714ZM34.2963 23.9714C34.2963 22.6998 33.2681 21.6698 31.9997 21.6698C30.7314 21.6698 29.7028 22.7001 29.7028 23.9714C29.7028 25.2428 30.731 26.2731 31.9997 26.2731C33.2684 26.2731 34.2963 25.2428 34.2963 23.9714Z" fill="#008ECE"/>
</mask>
<g mask="url(#mask1_798_25820)">
<rect width="106.67" height="49.9676" fill="#F47629"/>
</g>
</svg>
