<svg width="213" height="55" viewBox="0 0 213 55" fill="none" xmlns="http://www.w3.org/2000/svg">
<mask id="mask0_798_9236" style="mask-type:luminance" maskUnits="userSpaceOnUse" x="0" y="0" width="57" height="55">
<path d="M25.5736 2.3493C24.6516 2.42023 23.7434 2.53837 22.8522 2.70515L22.2609 0.501224C20.9863 0.746015 19.7424 1.07958 18.5363 1.49435L19.1276 3.70072C18.26 4.00567 17.4133 4.35689 16.5926 4.75306L15.4505 2.77483C14.2894 3.34123 13.1757 3.98564 12.1138 4.70342L13.2564 6.68259C12.5017 7.20153 11.7734 7.7596 11.0808 8.35561L9.46575 6.73937C8.49391 7.58355 7.58318 8.49403 6.73893 9.46468L8.35643 11.0809C7.76067 11.775 7.2026 12.5008 6.68466 13.2562L4.70329 12.1142C3.98676 13.1748 3.34111 14.2897 2.77571 15.4496L4.75269 16.5917C4.3604 17.4134 4.0078 18.26 3.70304 19.1278L1.49423 18.5367C1.08046 19.7426 0.746833 20.9854 0.501354 22.2598L2.70722 22.8511C2.53944 23.7425 2.42111 24.6506 2.35018 25.5728H0.0684908C0.023477 26.2089 0 26.8521 0 27.4999C0 28.1468 0.023477 28.7899 0.0684908 29.426H2.35018C2.41867 30.3482 2.53943 31.2563 2.70478 32.1489L0.501354 32.739C0.746896 34.0134 1.08046 35.2573 1.49423 36.4622L3.70059 35.8711C4.0053 36.74 4.35796 37.5855 4.75269 38.4084L2.77571 39.5492C3.34111 40.7091 3.98676 41.8241 4.70329 42.8859L6.68221 41.7436C7.20266 42.4993 7.76073 43.2264 8.35399 43.9192L6.73893 45.5367C7.58312 46.5061 8.49385 47.4141 9.46575 48.2608L11.0808 46.6433C11.7734 47.2393 12.4992 47.7974 13.2564 48.3175L12.1138 50.2943C13.1757 51.0132 14.2894 51.6589 15.4505 52.224L16.5926 50.2471C17.4133 50.6396 18.26 50.9945 19.1276 51.2994L18.5363 53.5055C19.7425 53.9193 20.9863 54.2529 22.2609 54.4986L22.8522 52.2925C23.7433 52.4581 24.6516 52.5786 25.5736 52.6496V54.9315C26.21 54.9765 26.8532 55 27.5007 55C28.1488 55 28.7895 54.9765 29.4259 54.9315V52.6496C31.6181 52.484 33.8073 52.0111 35.8811 51.297C39.4164 50.0507 42.5071 48.2892 45.073 45.4374C42.0674 46.8419 38.8113 47.7169 35.437 47.9913C29.5061 48.476 23.625 47.0642 18.6072 44.0398C16.9897 43.1672 15.5121 42.0652 14.2233 40.7767C10.8255 37.3786 8.72323 32.6846 8.72323 27.5C8.72323 17.1299 17.1296 8.7233 27.5007 8.7233C40.7854 8.7233 49.7313 21.4678 41.9016 33.3337H45.3684C43.4481 39.1463 38.8299 43.6661 32.9797 45.4634C43.5641 45.4137 52.9662 38.6875 56.4282 28.6837H52.2663C55.7326 20.2286 51.9777 12.3107 45.5337 6.73943L43.9186 8.35568C43.226 7.75973 42.5002 7.20041 41.7431 6.68265L42.8856 4.70348C41.8238 3.9857 40.7101 3.34129 39.5489 2.7749L38.4093 4.75313C37.5861 4.35815 36.7395 4.00573 35.8718 3.69959L36.4631 1.49441C35.2569 1.07964 34.0131 0.746079 32.7385 0.501289L32.1477 2.70647C31.256 2.54087 30.3477 2.42035 29.4257 2.34942V0.0674897C28.7894 0.0237279 28.1487 0 27.5006 0C26.853 0 26.2098 0.0237279 25.5735 0.0674897V2.3493H25.5736Z" fill="white"/>
</mask>
<g mask="url(#mask0_798_9236)">
<path d="M56.4282 0H0V55.0001H56.4282V0Z" fill="#F47629"/>
</g>
<path fill-rule="evenodd" clip-rule="evenodd" d="M32.148 12.0538C24.3017 9.68094 15.9237 13.5647 12.6701 21.0855C9.41118 28.6066 12.3107 37.3747 19.4091 41.4714C13.3843 36.864 11.2723 28.746 14.2852 21.7867C17.3001 14.8264 24.6636 10.8122 32.148 12.0538Z" fill="white"/>
<g clip-path="url(#clip0_798_9236)">
<path d="M22.2656 24.4569C23.0301 23.8629 23.6643 24.2726 24.5107 25.2525C24.6057 25.3631 24.7335 25.2337 24.8064 25.1706C24.8786 25.1067 25.9953 24.1013 26.0502 24.0554C26.1043 24.0071 26.1699 23.917 26.0838 23.8162C25.8766 23.5598 25.6736 23.3001 25.475 23.037C23.9936 21.0992 29.5276 19.7849 28.6779 19.7644C28.2453 19.753 26.5099 19.7325 26.2502 19.7612C25.1989 19.8718 23.8789 20.8542 23.2144 21.3122C22.3451 21.9071 22.0206 22.2561 21.9674 22.3045C21.7216 22.5191 21.928 23.0148 21.4823 23.4057C21.0112 23.8178 20.717 23.5056 20.4442 23.7449C20.309 23.8645 19.9305 24.148 19.8223 24.2422C19.7133 24.3381 19.6937 24.4995 19.8051 24.6282C19.8051 24.6282 20.8408 25.772 20.9276 25.8736C21.0136 25.9735 21.248 26.0604 21.3922 25.9317C21.5372 25.8039 21.91 25.4786 21.9723 25.4213C22.0362 25.3672 21.9313 24.7158 22.2656 24.4569ZM26.9425 24.8805C26.8442 24.7666 26.7221 24.7633 26.6172 24.8568L25.4423 25.8826C25.3969 25.9237 25.3693 25.9809 25.3651 26.042C25.361 26.1031 25.3807 26.1634 25.4201 26.2103L32.2159 33.9442C32.3748 34.127 32.6502 34.1458 32.8312 33.9877L33.626 33.3215C33.7135 33.2445 33.767 33.136 33.775 33.0198C33.783 32.9035 33.7448 32.7887 33.6686 32.7005L26.9425 24.8805ZM36.0038 21.5892C35.9431 21.1844 35.7334 21.2688 35.6244 21.44C35.5154 21.6129 35.0337 22.343 34.8354 22.674C34.6387 23.0017 34.1537 23.6498 33.2507 23.0099C32.3101 22.3454 32.637 21.8817 32.8009 21.5695C32.9656 21.2557 33.4711 20.3757 33.5441 20.2667C33.617 20.1561 33.5318 19.8349 33.2401 19.9693C32.9476 20.1037 31.1729 20.8091 30.927 21.821C30.6755 22.8501 31.1376 23.7703 30.2306 24.6839L29.1302 25.831L30.2355 27.1141L31.5907 25.8277C31.9135 25.5032 32.6034 25.1878 33.2278 25.3303C34.5658 25.6327 35.2959 25.1304 35.7359 24.2996C36.1308 23.5573 36.0652 21.9939 36.0038 21.5892ZM21.9412 32.784C21.8592 32.8666 21.8132 32.9782 21.8132 33.0946C21.8132 33.2109 21.8592 33.3225 21.9412 33.4051L22.7204 34.1671C22.8908 34.3384 23.1612 34.2662 23.3316 34.095L27.3522 30.1424L26.1207 28.738L21.9412 32.784Z" fill="white"/>
</g>
<path d="M77.4797 29H72.8357V0.189999H85.2197C91.5837 0.189999 95.5827 3.329 95.5827 8.79C95.5827 13.563 92.6587 16.444 87.5847 16.702V17.046C89.6917 17.734 90.9387 19.024 92.0137 21.002L96.3137 29H90.9387L86.8537 21.561C85.5207 19.067 84.3167 17.906 80.8767 17.906H77.4797V29ZM77.4797 4.361V14.079H85.7787C89.5197 14.079 90.9387 12.703 90.9387 9.22C90.9387 5.823 89.5197 4.361 85.7787 4.361H77.4797ZM101.793 29H96.9339L108.157 0.189999H114.822L126.045 29H121.014L118.09 21.518H104.717L101.793 29ZM109.361 9.736L106.351 17.347H116.456L113.446 9.736L111.597 4.404H111.253L109.361 9.736ZM132.615 29H127.971V0.189999H132.615V12.488H139.28L146.848 0.189999H152.137L143.193 14.466L152.094 29H146.762L139.366 16.96H132.615V29ZM157.307 29H152.448L163.671 0.189999H170.336L181.559 29H176.528L173.604 21.518H160.231L157.307 29ZM164.875 9.736L161.865 17.347H171.97L168.96 9.736L167.111 4.404H166.767L164.875 9.736ZM188.129 29H183.485V0.189999H195.869C202.233 0.189999 206.232 3.329 206.232 8.79C206.232 13.563 203.308 16.444 198.234 16.702V17.046C200.341 17.734 201.588 19.024 202.663 21.002L206.963 29H201.588L197.503 21.561C196.17 19.067 194.966 17.906 191.526 17.906H188.129V29ZM188.129 4.361V14.079H196.428C200.169 14.079 201.588 12.703 201.588 9.22C201.588 5.823 200.169 4.361 196.428 4.361H188.129Z" fill="white"/>
<path d="M73.0917 51L70.7637 43.08H72.1197L73.8957 49.884L75.6237 43.08H76.9437L78.6837 49.896L80.4477 43.08H81.7557L79.4397 51H77.9277L76.6677 46.248L76.2717 44.424H76.2597L75.8637 46.248L74.6157 51H73.0917ZM83.2639 51V43.08H88.9999V44.184H84.5479V46.464H88.0279V47.544H84.5479V49.896H89.1679V51H83.2639ZM100.961 51H99.605L98.849 48.924H95.525L94.769 51H93.449L96.437 43.08H97.973L100.961 51ZM95.885 47.88H98.489L97.193 44.184L95.885 47.88ZM105.593 43.08C106.441 43.08 107.113 43.292 107.609 43.716C108.113 44.14 108.365 44.712 108.365 45.432C108.365 46.176 108.113 46.752 107.609 47.16C107.113 47.56 106.441 47.76 105.593 47.76L105.473 47.832H103.637V51H102.365V43.08H105.593ZM105.497 46.764C106.017 46.764 106.401 46.66 106.649 46.452C106.905 46.236 107.033 45.908 107.033 45.468C107.033 45.036 106.905 44.712 106.649 44.496C106.401 44.28 106.017 44.172 105.497 44.172H103.637V46.764H105.497ZM106.253 47.028L108.833 51H107.357L105.149 47.532L106.253 47.028ZM110.428 51V43.08H116.164V44.184H111.712V46.464H115.192V47.544H111.712V49.896H116.332V51H110.428ZM125.007 43.08C125.575 43.08 126.063 43.18 126.471 43.38C126.887 43.58 127.211 43.864 127.443 44.232C127.675 44.6 127.791 45.044 127.791 45.564C127.791 46.076 127.675 46.52 127.443 46.896C127.211 47.264 126.887 47.548 126.471 47.748C126.063 47.948 125.575 48.048 125.007 48.048H123.243V51H121.959V43.08H125.007ZM124.803 46.944C125.371 46.944 125.787 46.828 126.051 46.596C126.323 46.356 126.459 46.012 126.459 45.564C126.459 45.108 126.323 44.764 126.051 44.532C125.787 44.292 125.371 44.172 124.803 44.172H123.243V46.944H124.803ZM132.711 43.08C133.559 43.08 134.231 43.292 134.727 43.716C135.231 44.14 135.483 44.712 135.483 45.432C135.483 46.176 135.231 46.752 134.727 47.16C134.231 47.56 133.559 47.76 132.711 47.76L132.591 47.832H130.755V51H129.483V43.08H132.711ZM132.615 46.764C133.135 46.764 133.519 46.66 133.767 46.452C134.023 46.236 134.151 45.908 134.151 45.468C134.151 45.036 134.023 44.712 133.767 44.496C133.519 44.28 133.135 44.172 132.615 44.172H130.755V46.764H132.615ZM133.371 47.028L135.951 51H134.475L132.267 47.532L133.371 47.028ZM140.763 42.96C141.531 42.96 142.195 43.124 142.755 43.452C143.315 43.78 143.747 44.248 144.051 44.856C144.355 45.464 144.507 46.192 144.507 47.04C144.507 47.888 144.355 48.616 144.051 49.224C143.747 49.832 143.315 50.3 142.755 50.628C142.195 50.956 141.531 51.12 140.763 51.12C140.003 51.12 139.343 50.956 138.783 50.628C138.223 50.3 137.791 49.832 137.487 49.224C137.183 48.616 137.031 47.888 137.031 47.04C137.031 46.192 137.183 45.464 137.487 44.856C137.791 44.248 138.223 43.78 138.783 43.452C139.343 43.124 140.003 42.96 140.763 42.96ZM140.763 44.076C140.267 44.076 139.839 44.192 139.479 44.424C139.127 44.656 138.855 44.992 138.663 45.432C138.471 45.872 138.375 46.408 138.375 47.04C138.375 47.664 138.471 48.2 138.663 48.648C138.855 49.088 139.127 49.424 139.479 49.656C139.839 49.888 140.267 50.004 140.763 50.004C141.267 50.004 141.695 49.888 142.047 49.656C142.407 49.424 142.683 49.088 142.875 48.648C143.067 48.2 143.163 47.664 143.163 47.04C143.163 46.408 143.067 45.872 142.875 45.432C142.683 44.992 142.407 44.656 142.047 44.424C141.695 44.192 141.267 44.076 140.763 44.076ZM152.14 44.184H147.7V46.488H151.18V47.592H147.7V51H146.416V43.08H152.14V44.184ZM153.752 51V43.08H159.488V44.184H155.036V46.464H158.516V47.544H155.036V49.896H159.656V51H153.752ZM164.081 42.96C164.793 42.96 165.409 43.096 165.929 43.368C166.449 43.632 166.889 44.024 167.249 44.544L166.385 45.372C166.081 44.908 165.737 44.576 165.353 44.376C164.977 44.168 164.529 44.064 164.009 44.064C163.625 44.064 163.309 44.116 163.061 44.22C162.813 44.324 162.629 44.464 162.509 44.64C162.397 44.808 162.341 45 162.341 45.216C162.341 45.464 162.425 45.68 162.593 45.864C162.769 46.048 163.093 46.192 163.565 46.296L165.173 46.656C165.941 46.824 166.485 47.08 166.805 47.424C167.125 47.768 167.285 48.204 167.285 48.732C167.285 49.22 167.153 49.644 166.889 50.004C166.625 50.364 166.257 50.64 165.785 50.832C165.321 51.024 164.773 51.12 164.141 51.12C163.581 51.12 163.077 51.048 162.629 50.904C162.181 50.76 161.789 50.564 161.453 50.316C161.117 50.068 160.841 49.784 160.625 49.464L161.513 48.576C161.681 48.856 161.893 49.108 162.149 49.332C162.405 49.548 162.701 49.716 163.037 49.836C163.381 49.956 163.761 50.016 164.177 50.016C164.545 50.016 164.861 49.972 165.125 49.884C165.397 49.796 165.601 49.668 165.737 49.5C165.881 49.324 165.953 49.116 165.953 48.876C165.953 48.644 165.873 48.44 165.713 48.264C165.561 48.088 165.273 47.952 164.849 47.856L163.109 47.46C162.629 47.356 162.233 47.208 161.921 47.016C161.609 46.824 161.377 46.592 161.225 46.32C161.073 46.04 160.997 45.728 160.997 45.384C160.997 44.936 161.117 44.532 161.357 44.172C161.605 43.804 161.961 43.512 162.425 43.296C162.889 43.072 163.441 42.96 164.081 42.96ZM171.78 42.96C172.492 42.96 173.108 43.096 173.628 43.368C174.148 43.632 174.588 44.024 174.948 44.544L174.084 45.372C173.78 44.908 173.436 44.576 173.052 44.376C172.676 44.168 172.228 44.064 171.708 44.064C171.324 44.064 171.008 44.116 170.76 44.22C170.512 44.324 170.328 44.464 170.208 44.64C170.096 44.808 170.04 45 170.04 45.216C170.04 45.464 170.124 45.68 170.292 45.864C170.468 46.048 170.792 46.192 171.264 46.296L172.872 46.656C173.64 46.824 174.184 47.08 174.504 47.424C174.824 47.768 174.984 48.204 174.984 48.732C174.984 49.22 174.852 49.644 174.588 50.004C174.324 50.364 173.956 50.64 173.484 50.832C173.02 51.024 172.472 51.12 171.84 51.12C171.28 51.12 170.776 51.048 170.328 50.904C169.88 50.76 169.488 50.564 169.152 50.316C168.816 50.068 168.54 49.784 168.324 49.464L169.212 48.576C169.38 48.856 169.592 49.108 169.848 49.332C170.104 49.548 170.4 49.716 170.736 49.836C171.08 49.956 171.46 50.016 171.876 50.016C172.244 50.016 172.56 49.972 172.824 49.884C173.096 49.796 173.3 49.668 173.436 49.5C173.58 49.324 173.652 49.116 173.652 48.876C173.652 48.644 173.572 48.44 173.412 48.264C173.26 48.088 172.972 47.952 172.548 47.856L170.808 47.46C170.328 47.356 169.932 47.208 169.62 47.016C169.308 46.824 169.076 46.592 168.924 46.32C168.772 46.04 168.696 45.728 168.696 45.384C168.696 44.936 168.816 44.532 169.056 44.172C169.304 43.804 169.66 43.512 170.124 43.296C170.588 43.072 171.14 42.96 171.78 42.96ZM178.064 43.08V51H176.78V43.08H178.064ZM183.7 42.96C184.468 42.96 185.132 43.124 185.692 43.452C186.252 43.78 186.684 44.248 186.988 44.856C187.292 45.464 187.444 46.192 187.444 47.04C187.444 47.888 187.292 48.616 186.988 49.224C186.684 49.832 186.252 50.3 185.692 50.628C185.132 50.956 184.468 51.12 183.7 51.12C182.94 51.12 182.28 50.956 181.72 50.628C181.16 50.3 180.728 49.832 180.424 49.224C180.12 48.616 179.968 47.888 179.968 47.04C179.968 46.192 180.12 45.464 180.424 44.856C180.728 44.248 181.16 43.78 181.72 43.452C182.28 43.124 182.94 42.96 183.7 42.96ZM183.7 44.076C183.204 44.076 182.776 44.192 182.416 44.424C182.064 44.656 181.792 44.992 181.6 45.432C181.408 45.872 181.312 46.408 181.312 47.04C181.312 47.664 181.408 48.2 181.6 48.648C181.792 49.088 182.064 49.424 182.416 49.656C182.776 49.888 183.204 50.004 183.7 50.004C184.204 50.004 184.632 49.888 184.984 49.656C185.344 49.424 185.62 49.088 185.812 48.648C186.004 48.2 186.1 47.664 186.1 47.04C186.1 46.408 186.004 45.872 185.812 45.432C185.62 44.992 185.344 44.656 184.984 44.424C184.632 44.192 184.204 44.076 183.7 44.076ZM195.846 43.08V51H194.322L191.262 46.008L190.494 44.604H190.482L190.53 45.888V51H189.354V43.08H190.866L193.914 48.06L194.694 49.488H194.706L194.658 48.192V43.08H195.846ZM204.766 51H203.41L202.654 48.924H199.33L198.574 51H197.254L200.242 43.08H201.778L204.766 51ZM199.69 47.88H202.294L200.998 44.184L199.69 47.88ZM207.454 49.896H211.822V51H206.17V43.08H207.454V49.896Z" fill="white"/>
<defs>
<clipPath id="clip0_798_9236">
<rect width="16.3871" height="16.3871" fill="white" transform="translate(19.6973 18.8115)"/>
</clipPath>
</defs>
</svg>
