<svg width="214" height="55" viewBox="0 0 214 55" fill="none" xmlns="http://www.w3.org/2000/svg">
<mask id="mask0_827_9245" style="mask-type:luminance" maskUnits="userSpaceOnUse" x="0" y="0" width="57" height="55">
<path d="M26.0736 2.3493C25.1516 2.42023 24.2434 2.53837 23.3522 2.70515L22.7609 0.501224C21.4863 0.746015 20.2424 1.07958 19.0363 1.49435L19.6276 3.70072C18.76 4.00567 17.9133 4.35689 17.0926 4.75306L15.9505 2.77483C14.7894 3.34123 13.6757 3.98564 12.6138 4.70342L13.7564 6.68259C13.0017 7.20153 12.2734 7.7596 11.5808 8.35561L9.96575 6.73937C8.99391 7.58355 8.08318 8.49403 7.23893 9.46468L8.85643 11.0809C8.26067 11.775 7.7026 12.5008 7.18466 13.2562L5.20329 12.1142C4.48676 13.1748 3.84111 14.2897 3.27571 15.4496L5.25269 16.5917C4.8604 17.4134 4.5078 18.26 4.20304 19.1278L1.99423 18.5367C1.58046 19.7426 1.24683 20.9854 1.00135 22.2598L3.20722 22.8511C3.03944 23.7425 2.92111 24.6506 2.85018 25.5728H0.568491C0.523477 26.2089 0.5 26.8521 0.5 27.4999C0.5 28.1468 0.523477 28.7899 0.568491 29.426H2.85018C2.91867 30.3482 3.03943 31.2563 3.20478 32.1489L1.00135 32.739C1.2469 34.0134 1.58046 35.2573 1.99423 36.4622L4.20059 35.8711C4.5053 36.74 4.85796 37.5855 5.25269 38.4084L3.27571 39.5492C3.84111 40.7091 4.48676 41.8241 5.20329 42.8859L7.18221 41.7436C7.70266 42.4993 8.26073 43.2264 8.85399 43.9192L7.23893 45.5367C8.08312 46.5061 8.99385 47.4141 9.96575 48.2608L11.5808 46.6433C12.2734 47.2393 12.9992 47.7974 13.7564 48.3175L12.6138 50.2943C13.6757 51.0132 14.7894 51.6589 15.9505 52.224L17.0926 50.2471C17.9133 50.6396 18.76 50.9945 19.6276 51.2994L19.0363 53.5055C20.2425 53.9193 21.4863 54.2529 22.7609 54.4986L23.3522 52.2925C24.2433 52.4581 25.1516 52.5786 26.0736 52.6496V54.9315C26.71 54.9765 27.3532 55 28.0007 55C28.6488 55 29.2895 54.9765 29.9259 54.9315V52.6496C32.1181 52.484 34.3073 52.0111 36.3811 51.297C39.9164 50.0507 43.0071 48.2892 45.573 45.4374C42.5674 46.8419 39.3113 47.7169 35.937 47.9913C30.0061 48.476 24.125 47.0642 19.1072 44.0398C17.4897 43.1672 16.0121 42.0652 14.7233 40.7767C11.3255 37.3786 9.22323 32.6846 9.22323 27.5C9.22323 17.1299 17.6296 8.7233 28.0007 8.7233C41.2854 8.7233 50.2313 21.4678 42.4016 33.3337H45.8684C43.9481 39.1463 39.3299 43.6661 33.4797 45.4634C44.0641 45.4137 53.4662 38.6875 56.9282 28.6837H52.7663C56.2326 20.2286 52.4777 12.3107 46.0337 6.73943L44.4186 8.35568C43.726 7.75973 43.0002 7.20041 42.2431 6.68265L43.3856 4.70348C42.3238 3.9857 41.2101 3.34129 40.0489 2.7749L38.9093 4.75313C38.0861 4.35815 37.2395 4.00573 36.3718 3.69959L36.9631 1.49441C35.7569 1.07964 34.5131 0.746079 33.2385 0.501289L32.6477 2.70647C31.756 2.54087 30.8477 2.42035 29.9257 2.34942V0.0674897C29.2894 0.0237279 28.6487 0 28.0006 0C27.353 0 26.7098 0.0237279 26.0735 0.0674897V2.3493H26.0736Z" fill="white"/>
</mask>
<g mask="url(#mask0_827_9245)">
<path d="M56.9282 0H0.5V55.0001H56.9282V0Z" fill="#F47629"/>
</g>
<path fill-rule="evenodd" clip-rule="evenodd" d="M32.648 12.0543C24.8017 9.68143 16.4237 13.5652 13.1701 21.086C9.91118 28.6071 12.8107 37.3752 19.9091 41.4719C13.8843 36.8645 11.7723 28.7465 14.7852 21.7872C17.8001 14.8268 25.1636 10.8127 32.648 12.0543Z" fill="#F47629"/>
<g clip-path="url(#clip0_827_9245)">
<path d="M22.7656 24.4564C23.5301 23.8624 24.1643 24.2721 25.0107 25.252C25.1057 25.3626 25.2335 25.2332 25.3064 25.1701C25.3786 25.1062 26.4953 24.1008 26.5502 24.0549C26.6043 24.0066 26.6699 23.9165 26.5838 23.8157C26.3766 23.5593 26.1736 23.2996 25.975 23.0365C24.4936 21.0987 30.0276 19.7844 29.1779 19.764C28.7453 19.7525 27.0099 19.732 26.7502 19.7607C25.6989 19.8713 24.3789 20.8537 23.7144 21.3117C22.8451 21.9066 22.5206 22.2556 22.4674 22.304C22.2216 22.5186 22.428 23.0144 21.9823 23.4052C21.5112 23.8173 21.217 23.5051 20.9442 23.7444C20.809 23.864 20.4305 24.1475 20.3223 24.2417C20.2133 24.3376 20.1937 24.499 20.3051 24.6277C20.3051 24.6277 21.3408 25.7715 21.4276 25.8731C21.5136 25.973 21.748 26.0599 21.8922 25.9313C22.0372 25.8034 22.41 25.4782 22.4723 25.4208C22.5362 25.3667 22.4313 24.7153 22.7656 24.4564ZM27.4425 24.88C27.3442 24.7661 27.2221 24.7629 27.1172 24.8563L25.9423 25.8821C25.8969 25.9233 25.8693 25.9804 25.8651 26.0415C25.861 26.1026 25.8807 26.163 25.9201 26.2098L32.7159 33.9438C32.8748 34.1265 33.1502 34.1453 33.3312 33.9872L34.126 33.321C34.2135 33.244 34.267 33.1356 34.275 33.0193C34.283 32.903 34.2448 32.7882 34.1686 32.7L27.4425 24.88ZM36.5038 21.5887C36.4432 21.1839 36.2334 21.2683 36.1244 21.4395C36.0154 21.6124 35.5337 22.3425 35.3354 22.6735C35.1387 23.0012 34.6537 23.6494 33.7507 23.0094C32.8101 22.3449 33.137 21.8812 33.3009 21.569C33.4656 21.2552 33.9711 20.3752 34.0441 20.2662C34.117 20.1556 34.0318 19.8344 33.7401 19.9688C33.4476 20.1032 31.6729 20.8086 31.427 21.8205C31.1755 22.8497 31.6376 23.7698 30.7306 24.6834L29.6302 25.8305L30.7355 27.1136L32.0907 25.8272C32.4136 25.5027 33.1035 25.1873 33.7278 25.3299C35.0658 25.6322 35.7959 25.1299 36.2359 24.2991C36.6308 23.5568 36.5652 21.9934 36.5038 21.5887ZM22.4412 32.7835C22.3592 32.8661 22.3132 32.9777 22.3132 33.0941C22.3132 33.2104 22.3592 33.322 22.4412 33.4046L23.2204 34.1666C23.3908 34.3379 23.6612 34.2658 23.8316 34.0945L27.8522 30.1419L26.6207 28.7376L22.4412 32.7835Z" fill="#101111"/>
</g>
<path d="M79.3987 31H72.9487V2.19H86.1927C93.0727 2.19 96.8997 5.372 96.8997 10.962C96.8997 15.649 94.5777 18.444 89.6327 18.874V19.304C92.1267 20.078 93.3307 21.583 94.4487 23.776L98.1037 31H90.5787L87.1817 24.335C85.8917 21.841 85.0317 20.766 81.9787 20.766H79.3987V31ZM79.3987 7.995V15.434H86.4937C89.5037 15.434 90.4927 14.531 90.4927 11.693C90.4927 8.941 89.5037 7.995 86.4937 7.995H79.3987ZM104.891 31H98.1827L108.804 2.19H118.178L128.799 31H121.79L119.468 24.593H107.256L104.891 31ZM110.997 14.359L109.363 18.831H117.361L115.727 14.359L113.62 7.866H113.19L110.997 14.359ZM136.592 31H130.142V2.19H136.592V13.671H142.053L148.804 2.19H156.114L147.428 16.466L155.985 31H148.589L142.139 19.906H136.592V31ZM162.924 31H156.216L166.837 2.19H176.211L186.832 31H179.823L177.501 24.593H165.289L162.924 31ZM169.03 14.359L167.396 18.831H175.394L173.76 14.359L171.653 7.866H171.223L169.03 14.359ZM194.625 31H188.175V2.19H201.419C208.299 2.19 212.126 5.372 212.126 10.962C212.126 15.649 209.804 18.444 204.859 18.874V19.304C207.353 20.078 208.557 21.583 209.675 23.776L213.33 31H205.805L202.408 24.335C201.118 21.841 200.258 20.766 197.205 20.766H194.625V31ZM194.625 7.995V15.434H201.72C204.73 15.434 205.719 14.531 205.719 11.693C205.719 8.941 204.73 7.995 201.72 7.995H194.625Z" fill="#101111"/>
<path d="M73.6997 53L71.3597 45.08H72.3557L74.3117 52.124L76.1717 45.08H77.2637L79.1237 52.148L81.0797 45.08H82.0277L79.6997 53H78.5117L77.1077 47.864L76.6997 46.076H76.6877L76.2797 47.864L74.8877 53H73.6997ZM83.755 53V45.08H89.311V45.98H84.715V48.536H88.291V49.436H84.715V52.1H89.491V53H83.755ZM101.329 53H100.309L99.4687 50.804H95.8807L95.0407 53H94.0327L97.1167 45.08H98.2567L101.329 53ZM96.2287 49.904H99.1207L97.6687 46.004L96.2287 49.904ZM105.939 45.08C106.747 45.08 107.395 45.288 107.883 45.704C108.371 46.12 108.615 46.684 108.615 47.396C108.615 48.108 108.367 48.664 107.871 49.064C107.383 49.456 106.735 49.652 105.927 49.652L105.843 49.712H103.899V53H102.939V45.08H105.939ZM105.927 48.812C106.495 48.812 106.915 48.696 107.187 48.464C107.467 48.224 107.607 47.868 107.607 47.396C107.607 46.924 107.467 46.572 107.187 46.34C106.915 46.1 106.495 45.98 105.927 45.98H103.899V48.812H105.927ZM106.479 49.004L109.095 53H107.955L105.675 49.532L106.479 49.004ZM110.919 53V45.08H116.475V45.98H111.879V48.536H115.455V49.436H111.879V52.1H116.655V53H110.919ZM125.457 45.08C125.993 45.08 126.457 45.18 126.849 45.38C127.249 45.572 127.561 45.848 127.785 46.208C128.009 46.568 128.121 46.996 128.121 47.492C128.121 47.988 128.009 48.416 127.785 48.776C127.561 49.136 127.249 49.416 126.849 49.616C126.457 49.808 125.993 49.904 125.457 49.904H123.621V53H122.661V45.08H125.457ZM125.313 49.004C125.937 49.004 126.393 48.876 126.681 48.62C126.969 48.356 127.113 47.98 127.113 47.492C127.113 46.996 126.969 46.62 126.681 46.364C126.393 46.108 125.937 45.98 125.313 45.98H123.621V49.004H125.313ZM132.985 45.08C133.793 45.08 134.441 45.288 134.929 45.704C135.417 46.12 135.661 46.684 135.661 47.396C135.661 48.108 135.413 48.664 134.917 49.064C134.429 49.456 133.781 49.652 132.973 49.652L132.889 49.712H130.945V53H129.985V45.08H132.985ZM132.973 48.812C133.541 48.812 133.961 48.696 134.233 48.464C134.513 48.224 134.653 47.868 134.653 47.396C134.653 46.924 134.513 46.572 134.233 46.34C133.961 46.1 133.541 45.98 132.973 45.98H130.945V48.812H132.973ZM133.525 49.004L136.141 53H135.001L132.721 49.532L133.525 49.004ZM141.088 44.96C141.84 44.96 142.488 45.128 143.032 45.464C143.584 45.792 144.008 46.26 144.304 46.868C144.608 47.476 144.76 48.2 144.76 49.04C144.76 49.88 144.608 50.604 144.304 51.212C144.008 51.82 143.584 52.292 143.032 52.628C142.488 52.956 141.84 53.12 141.088 53.12C140.336 53.12 139.684 52.956 139.132 52.628C138.588 52.292 138.164 51.82 137.86 51.212C137.564 50.604 137.416 49.88 137.416 49.04C137.416 48.2 137.564 47.476 137.86 46.868C138.164 46.26 138.588 45.792 139.132 45.464C139.684 45.128 140.336 44.96 141.088 44.96ZM141.088 45.86C140.544 45.86 140.072 45.988 139.672 46.244C139.272 46.492 138.964 46.856 138.748 47.336C138.532 47.808 138.424 48.376 138.424 49.04C138.424 49.704 138.532 50.276 138.748 50.756C138.964 51.228 139.272 51.592 139.672 51.848C140.072 52.096 140.544 52.22 141.088 52.22C141.64 52.22 142.112 52.096 142.504 51.848C142.904 51.592 143.212 51.228 143.428 50.756C143.644 50.276 143.752 49.704 143.752 49.04C143.752 48.376 143.644 47.808 143.428 47.336C143.212 46.856 142.904 46.492 142.504 46.244C142.112 45.988 141.64 45.86 141.088 45.86ZM152.416 45.98H147.832V48.536H151.408V49.436H147.832V53H146.872V45.08H152.416V45.98ZM154.196 53V45.08H159.752V45.98H155.156V48.536H158.732V49.436H155.156V52.1H159.932V53H154.196ZM164.393 44.96C165.089 44.96 165.689 45.104 166.193 45.392C166.697 45.672 167.117 46.088 167.453 46.64L166.649 47.264C166.353 46.752 166.017 46.392 165.641 46.184C165.273 45.968 164.825 45.86 164.297 45.86C163.873 45.86 163.521 45.92 163.241 46.04C162.969 46.16 162.769 46.32 162.641 46.52C162.513 46.712 162.449 46.932 162.449 47.18C162.449 47.46 162.537 47.708 162.713 47.924C162.889 48.132 163.241 48.296 163.769 48.416L165.485 48.8C166.245 48.968 166.773 49.224 167.069 49.568C167.373 49.904 167.525 50.324 167.525 50.828C167.525 51.276 167.397 51.676 167.141 52.028C166.893 52.372 166.541 52.64 166.085 52.832C165.629 53.024 165.093 53.12 164.477 53.12C163.901 53.12 163.393 53.044 162.953 52.892C162.521 52.732 162.149 52.52 161.837 52.256C161.525 51.992 161.269 51.696 161.069 51.368L161.909 50.684C162.061 50.988 162.257 51.256 162.497 51.488C162.737 51.72 163.025 51.9 163.361 52.028C163.705 52.156 164.097 52.22 164.537 52.22C164.945 52.22 165.297 52.172 165.593 52.076C165.897 51.972 166.129 51.824 166.289 51.632C166.449 51.432 166.529 51.192 166.529 50.912C166.529 50.656 166.445 50.428 166.277 50.228C166.109 50.02 165.793 49.864 165.329 49.76L163.469 49.34C162.981 49.228 162.585 49.076 162.281 48.884C161.985 48.684 161.769 48.452 161.633 48.188C161.505 47.916 161.441 47.624 161.441 47.312C161.441 46.888 161.557 46.5 161.789 46.148C162.029 45.788 162.369 45.5 162.809 45.284C163.257 45.068 163.785 44.96 164.393 44.96ZM172.08 44.96C172.776 44.96 173.376 45.104 173.88 45.392C174.384 45.672 174.804 46.088 175.14 46.64L174.336 47.264C174.04 46.752 173.704 46.392 173.328 46.184C172.96 45.968 172.512 45.86 171.984 45.86C171.56 45.86 171.208 45.92 170.928 46.04C170.656 46.16 170.456 46.32 170.328 46.52C170.2 46.712 170.136 46.932 170.136 47.18C170.136 47.46 170.224 47.708 170.4 47.924C170.576 48.132 170.928 48.296 171.456 48.416L173.172 48.8C173.932 48.968 174.46 49.224 174.756 49.568C175.06 49.904 175.212 50.324 175.212 50.828C175.212 51.276 175.084 51.676 174.828 52.028C174.58 52.372 174.228 52.64 173.772 52.832C173.316 53.024 172.78 53.12 172.164 53.12C171.588 53.12 171.08 53.044 170.64 52.892C170.208 52.732 169.836 52.52 169.524 52.256C169.212 51.992 168.956 51.696 168.756 51.368L169.596 50.684C169.748 50.988 169.944 51.256 170.184 51.488C170.424 51.72 170.712 51.9 171.048 52.028C171.392 52.156 171.784 52.22 172.224 52.22C172.632 52.22 172.984 52.172 173.28 52.076C173.584 51.972 173.816 51.824 173.976 51.632C174.136 51.432 174.216 51.192 174.216 50.912C174.216 50.656 174.132 50.428 173.964 50.228C173.796 50.02 173.48 49.864 173.016 49.76L171.156 49.34C170.668 49.228 170.272 49.076 169.968 48.884C169.672 48.684 169.456 48.452 169.32 48.188C169.192 47.916 169.128 47.624 169.128 47.312C169.128 46.888 169.244 46.5 169.476 46.148C169.716 45.788 170.056 45.5 170.496 45.284C170.944 45.068 171.472 44.96 172.08 44.96ZM178.184 45.08V53H177.224V45.08H178.184ZM183.967 44.96C184.719 44.96 185.367 45.128 185.911 45.464C186.463 45.792 186.887 46.26 187.183 46.868C187.487 47.476 187.639 48.2 187.639 49.04C187.639 49.88 187.487 50.604 187.183 51.212C186.887 51.82 186.463 52.292 185.911 52.628C185.367 52.956 184.719 53.12 183.967 53.12C183.215 53.12 182.563 52.956 182.011 52.628C181.467 52.292 181.043 51.82 180.739 51.212C180.443 50.604 180.295 49.88 180.295 49.04C180.295 48.2 180.443 47.476 180.739 46.868C181.043 46.26 181.467 45.792 182.011 45.464C182.563 45.128 183.215 44.96 183.967 44.96ZM183.967 45.86C183.423 45.86 182.951 45.988 182.551 46.244C182.151 46.492 181.843 46.856 181.627 47.336C181.411 47.808 181.303 48.376 181.303 49.04C181.303 49.704 181.411 50.276 181.627 50.756C181.843 51.228 182.151 51.592 182.551 51.848C182.951 52.096 183.423 52.22 183.967 52.22C184.519 52.22 184.991 52.096 185.383 51.848C185.783 51.592 186.091 51.228 186.307 50.756C186.523 50.276 186.631 49.704 186.631 49.04C186.631 48.376 186.523 47.808 186.307 47.336C186.091 46.856 185.783 46.492 185.383 46.244C184.991 45.988 184.519 45.86 183.967 45.86ZM195.967 45.08V53H194.779L191.467 47.696L190.627 46.208H190.615L190.663 47.408V53H189.751V45.08H190.939L194.239 50.36L195.091 51.884H195.103L195.055 50.672V45.08H195.967ZM204.876 53H203.856L203.016 50.804H199.428L198.588 53H197.58L200.664 45.08H201.804L204.876 53ZM199.776 49.904H202.668L201.216 46.004L199.776 49.904ZM207.445 52.1H211.981V53H206.485V45.08H207.445V52.1Z" fill="#101111"/>
<defs>
<clipPath id="clip0_827_9245">
<rect width="16.3871" height="16.3871" fill="white" transform="translate(20.1973 18.8115)"/>
</clipPath>
</defs>
</svg>
