<svg width="213" height="56" viewBox="0 0 213 56" fill="none" xmlns="http://www.w3.org/2000/svg">
<mask id="mask0_798_30304" style="mask-type:luminance" maskUnits="userSpaceOnUse" x="0" y="0" width="57" height="56">
<path d="M25.5736 2.8493C24.6516 2.92023 23.7434 3.03837 22.8522 3.20515L22.2609 1.00122C20.9863 1.24601 19.7424 1.57958 18.5363 1.99435L19.1276 4.20072C18.26 4.50567 17.4133 4.85689 16.5926 5.25306L15.4505 3.27483C14.2894 3.84123 13.1757 4.48564 12.1138 5.20342L13.2564 7.18259C12.5017 7.70153 11.7734 8.2596 11.0808 8.85561L9.46575 7.23937C8.49391 8.08355 7.58318 8.99403 6.73893 9.96468L8.35643 11.5809C7.76067 12.275 7.2026 13.0008 6.68466 13.7562L4.70329 12.6142C3.98676 13.6748 3.34111 14.7897 2.77571 15.9496L4.75269 17.0917C4.3604 17.9134 4.0078 18.76 3.70304 19.6278L1.49423 19.0367C1.08046 20.2426 0.746833 21.4854 0.501354 22.7598L2.70722 23.3511C2.53944 24.2425 2.42111 25.1506 2.35018 26.0728H0.0684908C0.023477 26.7089 0 27.3521 0 27.9999C0 28.6468 0.023477 29.2899 0.0684908 29.926H2.35018C2.41867 30.8482 2.53943 31.7563 2.70478 32.6489L0.501354 33.239C0.746896 34.5134 1.08046 35.7573 1.49423 36.9622L3.70059 36.3711C4.0053 37.24 4.35796 38.0855 4.75269 38.9084L2.77571 40.0492C3.34111 41.2091 3.98676 42.3241 4.70329 43.3859L6.68221 42.2436C7.20266 42.9993 7.76073 43.7264 8.35399 44.4192L6.73893 46.0367C7.58312 47.0061 8.49385 47.9141 9.46575 48.7608L11.0808 47.1433C11.7734 47.7393 12.4992 48.2974 13.2564 48.8175L12.1138 50.7943C13.1757 51.5132 14.2894 52.1589 15.4505 52.724L16.5926 50.7471C17.4133 51.1396 18.26 51.4945 19.1276 51.7994L18.5363 54.0055C19.7425 54.4193 20.9863 54.7529 22.2609 54.9986L22.8522 52.7925C23.7433 52.9581 24.6516 53.0786 25.5736 53.1496V55.4315C26.21 55.4765 26.8532 55.5 27.5007 55.5C28.1488 55.5 28.7895 55.4765 29.4259 55.4315V53.1496C31.6181 52.984 33.8073 52.5111 35.8811 51.797C39.4164 50.5507 42.5071 48.7892 45.073 45.9374C42.0674 47.3419 38.8113 48.2169 35.437 48.4913C29.5061 48.976 23.625 47.5642 18.6072 44.5398C16.9897 43.6672 15.5121 42.5652 14.2233 41.2767C10.8255 37.8786 8.72323 33.1846 8.72323 28C8.72323 17.6299 17.1296 9.2233 27.5007 9.2233C40.7854 9.2233 49.7313 21.9678 41.9016 33.8337H45.3684C43.4481 39.6463 38.8299 44.1661 32.9797 45.9634C43.5641 45.9137 52.9662 39.1875 56.4282 29.1837H52.2663C55.7326 20.7286 51.9777 12.8107 45.5337 7.23943L43.9186 8.85568C43.226 8.25973 42.5002 7.70041 41.7431 7.18265L42.8856 5.20348C41.8238 4.4857 40.7101 3.84129 39.5489 3.2749L38.4093 5.25313C37.5861 4.85815 36.7395 4.50573 35.8718 4.19959L36.4631 1.99441C35.2569 1.57964 34.0131 1.24608 32.7385 1.00129L32.1477 3.20647C31.256 3.04087 30.3477 2.92035 29.4257 2.84942V0.56749C28.7894 0.523728 28.1487 0.5 27.5006 0.5C26.853 0.5 26.2098 0.523728 25.5735 0.56749V2.8493H25.5736Z" fill="white"/>
</mask>
<g mask="url(#mask0_798_30304)">
<path d="M56.4282 0.5H0V55.5001H56.4282V0.5Z" fill="#FA2D39"/>
</g>
<path fill-rule="evenodd" clip-rule="evenodd" d="M32.148 12.5543C24.3017 10.1814 15.9237 14.0652 12.6701 21.586C9.41118 29.1071 12.3107 37.8752 19.4091 41.9719C13.3843 37.3645 11.2723 29.2465 14.2852 22.2872C17.3001 15.3268 24.6636 11.3127 32.148 12.5543Z" fill="white"/>
<g clip-path="url(#clip0_798_30304)">
<path d="M22.2656 24.9564C23.0301 24.3624 23.6643 24.7721 24.5107 25.752C24.6057 25.8626 24.7335 25.7332 24.8064 25.6701C24.8786 25.6062 25.9953 24.6008 26.0502 24.5549C26.1043 24.5066 26.1699 24.4165 26.0838 24.3157C25.8766 24.0593 25.6736 23.7996 25.475 23.5365C23.9936 21.5987 29.5276 20.2844 28.6779 20.264C28.2453 20.2525 26.5099 20.232 26.2502 20.2607C25.1989 20.3713 23.8789 21.3537 23.2144 21.8117C22.3451 22.4066 22.0206 22.7556 21.9674 22.804C21.7216 23.0186 21.928 23.5143 21.4823 23.9052C21.0112 24.3173 20.717 24.0051 20.4442 24.2444C20.309 24.364 19.9305 24.6475 19.8223 24.7417C19.7133 24.8376 19.6937 24.999 19.8051 25.1277C19.8051 25.1277 20.8408 26.2715 20.9276 26.3731C21.0136 26.473 21.248 26.5599 21.3922 26.4313C21.5372 26.3034 21.91 25.9782 21.9723 25.9208C22.0362 25.8667 21.9313 25.2153 22.2656 24.9564ZM26.9425 25.38C26.8442 25.2661 26.7221 25.2629 26.6172 25.3563L25.4423 26.3821C25.3969 26.4233 25.3693 26.4804 25.3651 26.5415C25.361 26.6026 25.3807 26.663 25.4201 26.7098L32.2159 34.4438C32.3748 34.6265 32.6502 34.6453 32.8312 34.4872L33.626 33.821C33.7135 33.744 33.767 33.6356 33.775 33.5193C33.783 33.403 33.7448 33.2882 33.6686 33.2L26.9425 25.38ZM36.0038 22.0887C35.9431 21.6839 35.7334 21.7683 35.6244 21.9395C35.5154 22.1124 35.0337 22.8425 34.8354 23.1735C34.6387 23.5012 34.1537 24.1494 33.2507 23.5094C32.3101 22.8449 32.637 22.3812 32.8009 22.069C32.9656 21.7552 33.4711 20.8752 33.5441 20.7662C33.617 20.6556 33.5318 20.3344 33.2401 20.4688C32.9476 20.6032 31.1729 21.3086 30.927 22.3205C30.6755 23.3497 31.1376 24.2698 30.2306 25.1834L29.1302 26.3305L30.2355 27.6136L31.5907 26.3272C31.9135 26.0027 32.6034 25.6873 33.2278 25.8299C34.5658 26.1322 35.2959 25.6299 35.7359 24.7991C36.1308 24.0568 36.0652 22.4934 36.0038 22.0887ZM21.9412 33.2835C21.8592 33.3661 21.8132 33.4777 21.8132 33.5941C21.8132 33.7104 21.8592 33.822 21.9412 33.9046L22.7204 34.6666C22.8908 34.8379 23.1612 34.7658 23.3316 34.5945L27.3522 30.6419L26.1207 29.2376L21.9412 33.2835Z" fill="white"/>
</g>
<path d="M77.4797 29.5H72.8357V0.689999H85.2197C91.5837 0.689999 95.5827 3.829 95.5827 9.29C95.5827 14.063 92.6587 16.944 87.5847 17.202V17.546C89.6917 18.234 90.9387 19.524 92.0137 21.502L96.3137 29.5H90.9387L86.8537 22.061C85.5207 19.567 84.3167 18.406 80.8767 18.406H77.4797V29.5ZM77.4797 4.861V14.579H85.7787C89.5197 14.579 90.9387 13.203 90.9387 9.72C90.9387 6.323 89.5197 4.861 85.7787 4.861H77.4797ZM101.793 29.5H96.9339L108.157 0.689999H114.822L126.045 29.5H121.014L118.09 22.018H104.717L101.793 29.5ZM109.361 10.236L106.351 17.847H116.456L113.446 10.236L111.597 4.904H111.253L109.361 10.236ZM132.615 29.5H127.971V0.689999H132.615V12.988H139.28L146.848 0.689999H152.137L143.193 14.966L152.094 29.5H146.762L139.366 17.46H132.615V29.5ZM157.307 29.5H152.448L163.671 0.689999H170.336L181.559 29.5H176.528L173.604 22.018H160.231L157.307 29.5ZM164.875 10.236L161.865 17.847H171.97L168.96 10.236L167.111 4.904H166.767L164.875 10.236ZM188.129 29.5H183.485V0.689999H195.869C202.233 0.689999 206.232 3.829 206.232 9.29C206.232 14.063 203.308 16.944 198.234 17.202V17.546C200.341 18.234 201.588 19.524 202.663 21.502L206.963 29.5H201.588L197.503 22.061C196.17 19.567 194.966 18.406 191.526 18.406H188.129V29.5ZM188.129 4.861V14.579H196.428C200.169 14.579 201.588 13.203 201.588 9.72C201.588 6.323 200.169 4.861 196.428 4.861H188.129Z" fill="white"/>
<path d="M73.0917 51.5L70.7637 43.58H72.1197L73.8957 50.384L75.6237 43.58H76.9437L78.6837 50.396L80.4477 43.58H81.7557L79.4397 51.5H77.9277L76.6677 46.748L76.2717 44.924H76.2597L75.8637 46.748L74.6157 51.5H73.0917ZM83.2639 51.5V43.58H88.9999V44.684H84.5479V46.964H88.0279V48.044H84.5479V50.396H89.1679V51.5H83.2639ZM100.961 51.5H99.605L98.849 49.424H95.525L94.769 51.5H93.449L96.437 43.58H97.973L100.961 51.5ZM95.885 48.38H98.489L97.193 44.684L95.885 48.38ZM105.593 43.58C106.441 43.58 107.113 43.792 107.609 44.216C108.113 44.64 108.365 45.212 108.365 45.932C108.365 46.676 108.113 47.252 107.609 47.66C107.113 48.06 106.441 48.26 105.593 48.26L105.473 48.332H103.637V51.5H102.365V43.58H105.593ZM105.497 47.264C106.017 47.264 106.401 47.16 106.649 46.952C106.905 46.736 107.033 46.408 107.033 45.968C107.033 45.536 106.905 45.212 106.649 44.996C106.401 44.78 106.017 44.672 105.497 44.672H103.637V47.264H105.497ZM106.253 47.528L108.833 51.5H107.357L105.149 48.032L106.253 47.528ZM110.428 51.5V43.58H116.164V44.684H111.712V46.964H115.192V48.044H111.712V50.396H116.332V51.5H110.428ZM125.007 43.58C125.575 43.58 126.063 43.68 126.471 43.88C126.887 44.08 127.211 44.364 127.443 44.732C127.675 45.1 127.791 45.544 127.791 46.064C127.791 46.576 127.675 47.02 127.443 47.396C127.211 47.764 126.887 48.048 126.471 48.248C126.063 48.448 125.575 48.548 125.007 48.548H123.243V51.5H121.959V43.58H125.007ZM124.803 47.444C125.371 47.444 125.787 47.328 126.051 47.096C126.323 46.856 126.459 46.512 126.459 46.064C126.459 45.608 126.323 45.264 126.051 45.032C125.787 44.792 125.371 44.672 124.803 44.672H123.243V47.444H124.803ZM132.711 43.58C133.559 43.58 134.231 43.792 134.727 44.216C135.231 44.64 135.483 45.212 135.483 45.932C135.483 46.676 135.231 47.252 134.727 47.66C134.231 48.06 133.559 48.26 132.711 48.26L132.591 48.332H130.755V51.5H129.483V43.58H132.711ZM132.615 47.264C133.135 47.264 133.519 47.16 133.767 46.952C134.023 46.736 134.151 46.408 134.151 45.968C134.151 45.536 134.023 45.212 133.767 44.996C133.519 44.78 133.135 44.672 132.615 44.672H130.755V47.264H132.615ZM133.371 47.528L135.951 51.5H134.475L132.267 48.032L133.371 47.528ZM140.763 43.46C141.531 43.46 142.195 43.624 142.755 43.952C143.315 44.28 143.747 44.748 144.051 45.356C144.355 45.964 144.507 46.692 144.507 47.54C144.507 48.388 144.355 49.116 144.051 49.724C143.747 50.332 143.315 50.8 142.755 51.128C142.195 51.456 141.531 51.62 140.763 51.62C140.003 51.62 139.343 51.456 138.783 51.128C138.223 50.8 137.791 50.332 137.487 49.724C137.183 49.116 137.031 48.388 137.031 47.54C137.031 46.692 137.183 45.964 137.487 45.356C137.791 44.748 138.223 44.28 138.783 43.952C139.343 43.624 140.003 43.46 140.763 43.46ZM140.763 44.576C140.267 44.576 139.839 44.692 139.479 44.924C139.127 45.156 138.855 45.492 138.663 45.932C138.471 46.372 138.375 46.908 138.375 47.54C138.375 48.164 138.471 48.7 138.663 49.148C138.855 49.588 139.127 49.924 139.479 50.156C139.839 50.388 140.267 50.504 140.763 50.504C141.267 50.504 141.695 50.388 142.047 50.156C142.407 49.924 142.683 49.588 142.875 49.148C143.067 48.7 143.163 48.164 143.163 47.54C143.163 46.908 143.067 46.372 142.875 45.932C142.683 45.492 142.407 45.156 142.047 44.924C141.695 44.692 141.267 44.576 140.763 44.576ZM152.14 44.684H147.7V46.988H151.18V48.092H147.7V51.5H146.416V43.58H152.14V44.684ZM153.752 51.5V43.58H159.488V44.684H155.036V46.964H158.516V48.044H155.036V50.396H159.656V51.5H153.752ZM164.081 43.46C164.793 43.46 165.409 43.596 165.929 43.868C166.449 44.132 166.889 44.524 167.249 45.044L166.385 45.872C166.081 45.408 165.737 45.076 165.353 44.876C164.977 44.668 164.529 44.564 164.009 44.564C163.625 44.564 163.309 44.616 163.061 44.72C162.813 44.824 162.629 44.964 162.509 45.14C162.397 45.308 162.341 45.5 162.341 45.716C162.341 45.964 162.425 46.18 162.593 46.364C162.769 46.548 163.093 46.692 163.565 46.796L165.173 47.156C165.941 47.324 166.485 47.58 166.805 47.924C167.125 48.268 167.285 48.704 167.285 49.232C167.285 49.72 167.153 50.144 166.889 50.504C166.625 50.864 166.257 51.14 165.785 51.332C165.321 51.524 164.773 51.62 164.141 51.62C163.581 51.62 163.077 51.548 162.629 51.404C162.181 51.26 161.789 51.064 161.453 50.816C161.117 50.568 160.841 50.284 160.625 49.964L161.513 49.076C161.681 49.356 161.893 49.608 162.149 49.832C162.405 50.048 162.701 50.216 163.037 50.336C163.381 50.456 163.761 50.516 164.177 50.516C164.545 50.516 164.861 50.472 165.125 50.384C165.397 50.296 165.601 50.168 165.737 50C165.881 49.824 165.953 49.616 165.953 49.376C165.953 49.144 165.873 48.94 165.713 48.764C165.561 48.588 165.273 48.452 164.849 48.356L163.109 47.96C162.629 47.856 162.233 47.708 161.921 47.516C161.609 47.324 161.377 47.092 161.225 46.82C161.073 46.54 160.997 46.228 160.997 45.884C160.997 45.436 161.117 45.032 161.357 44.672C161.605 44.304 161.961 44.012 162.425 43.796C162.889 43.572 163.441 43.46 164.081 43.46ZM171.78 43.46C172.492 43.46 173.108 43.596 173.628 43.868C174.148 44.132 174.588 44.524 174.948 45.044L174.084 45.872C173.78 45.408 173.436 45.076 173.052 44.876C172.676 44.668 172.228 44.564 171.708 44.564C171.324 44.564 171.008 44.616 170.76 44.72C170.512 44.824 170.328 44.964 170.208 45.14C170.096 45.308 170.04 45.5 170.04 45.716C170.04 45.964 170.124 46.18 170.292 46.364C170.468 46.548 170.792 46.692 171.264 46.796L172.872 47.156C173.64 47.324 174.184 47.58 174.504 47.924C174.824 48.268 174.984 48.704 174.984 49.232C174.984 49.72 174.852 50.144 174.588 50.504C174.324 50.864 173.956 51.14 173.484 51.332C173.02 51.524 172.472 51.62 171.84 51.62C171.28 51.62 170.776 51.548 170.328 51.404C169.88 51.26 169.488 51.064 169.152 50.816C168.816 50.568 168.54 50.284 168.324 49.964L169.212 49.076C169.38 49.356 169.592 49.608 169.848 49.832C170.104 50.048 170.4 50.216 170.736 50.336C171.08 50.456 171.46 50.516 171.876 50.516C172.244 50.516 172.56 50.472 172.824 50.384C173.096 50.296 173.3 50.168 173.436 50C173.58 49.824 173.652 49.616 173.652 49.376C173.652 49.144 173.572 48.94 173.412 48.764C173.26 48.588 172.972 48.452 172.548 48.356L170.808 47.96C170.328 47.856 169.932 47.708 169.62 47.516C169.308 47.324 169.076 47.092 168.924 46.82C168.772 46.54 168.696 46.228 168.696 45.884C168.696 45.436 168.816 45.032 169.056 44.672C169.304 44.304 169.66 44.012 170.124 43.796C170.588 43.572 171.14 43.46 171.78 43.46ZM178.064 43.58V51.5H176.78V43.58H178.064ZM183.7 43.46C184.468 43.46 185.132 43.624 185.692 43.952C186.252 44.28 186.684 44.748 186.988 45.356C187.292 45.964 187.444 46.692 187.444 47.54C187.444 48.388 187.292 49.116 186.988 49.724C186.684 50.332 186.252 50.8 185.692 51.128C185.132 51.456 184.468 51.62 183.7 51.62C182.94 51.62 182.28 51.456 181.72 51.128C181.16 50.8 180.728 50.332 180.424 49.724C180.12 49.116 179.968 48.388 179.968 47.54C179.968 46.692 180.12 45.964 180.424 45.356C180.728 44.748 181.16 44.28 181.72 43.952C182.28 43.624 182.94 43.46 183.7 43.46ZM183.7 44.576C183.204 44.576 182.776 44.692 182.416 44.924C182.064 45.156 181.792 45.492 181.6 45.932C181.408 46.372 181.312 46.908 181.312 47.54C181.312 48.164 181.408 48.7 181.6 49.148C181.792 49.588 182.064 49.924 182.416 50.156C182.776 50.388 183.204 50.504 183.7 50.504C184.204 50.504 184.632 50.388 184.984 50.156C185.344 49.924 185.62 49.588 185.812 49.148C186.004 48.7 186.1 48.164 186.1 47.54C186.1 46.908 186.004 46.372 185.812 45.932C185.62 45.492 185.344 45.156 184.984 44.924C184.632 44.692 184.204 44.576 183.7 44.576ZM195.846 43.58V51.5H194.322L191.262 46.508L190.494 45.104H190.482L190.53 46.388V51.5H189.354V43.58H190.866L193.914 48.56L194.694 49.988H194.706L194.658 48.692V43.58H195.846ZM204.766 51.5H203.41L202.654 49.424H199.33L198.574 51.5H197.254L200.242 43.58H201.778L204.766 51.5ZM199.69 48.38H202.294L200.998 44.684L199.69 48.38ZM207.454 50.396H211.822V51.5H206.17V43.58H207.454V50.396Z" fill="white"/>
<defs>
<clipPath id="clip0_798_30304">
<rect width="16.3871" height="16.3871" fill="white" transform="translate(19.6973 19.3115)"/>
</clipPath>
</defs>
</svg>
